ISO-10303-21;
HEADER;
/* Generated by software containing ST-Developer
 * from STEP Tools, Inc. (www.steptools.com) 
 */
/* OPTION: using custom renumber hook */

FILE_DESCRIPTION(
/* description */ ('STEP AP242 Edition 2',
'CAx-IF Rec.Pracs.---Representation and Presentation of Product Manufa
cturing Information (PMI)---4.0---2014-10-13',
'CAx-IF Rec.Pracs.---3D Tessellated Geometry---0.4---2014-09-14','2;1',
'CAx-IF Rec.Pracs.---User Defined Attributes---1.5---2016-08-15'),
/* implementation_level */ '2;1');

FILE_NAME(
/* name */ 'Part Studio 1 - Part 3',
/* time_stamp */ '2026-07-06T22:09:04Z',
/* author */ (''),
/* organization */ (''),
/* preprocessor_version */ 'ST-DEVELOPER v20',
/* originating_system */ 'ONSHAPE BY PTC INC, 1.217',
/* authorisation */ '  ');

FILE_SCHEMA (('AP242_MANAGED_MODEL_BASED_3D_ENGINEERING_MIM_LF { 1 0 10303 442 3 1 4 }'));
ENDSEC;

DATA;
#10=SHAPE_REPRESENTATION_RELATIONSHIP('','',#835,#11);
#11=ADVANCED_BREP_SHAPE_REPRESENTATION('',(#833),#1401);
#12=CYLINDRICAL_SURFACE('',#860,0.0002);
#13=CYLINDRICAL_SURFACE('',#862,0.0002);
#14=CYLINDRICAL_SURFACE('',#864,0.0002);
#15=CYLINDRICAL_SURFACE('',#866,0.0002);
#16=CYLINDRICAL_SURFACE('',#868,0.0002);
#17=CYLINDRICAL_SURFACE('',#870,0.0002);
#18=CYLINDRICAL_SURFACE('',#872,0.0002);
#19=CYLINDRICAL_SURFACE('',#874,0.0002);
#20=CYLINDRICAL_SURFACE('',#876,0.0002);
#21=CYLINDRICAL_SURFACE('',#878,0.0002);
#22=CYLINDRICAL_SURFACE('',#880,0.0002);
#23=CYLINDRICAL_SURFACE('',#882,0.0002);
#24=CYLINDRICAL_SURFACE('',#884,0.0002);
#25=CYLINDRICAL_SURFACE('',#886,0.0002);
#26=CYLINDRICAL_SURFACE('',#888,0.0002);
#27=CYLINDRICAL_SURFACE('',#890,0.0002);
#28=CYLINDRICAL_SURFACE('',#892,0.0002);
#29=CYLINDRICAL_SURFACE('',#894,0.0002);
#30=CIRCLE('',#839,0.0002);
#31=CIRCLE('',#840,0.0002);
#32=CIRCLE('',#841,0.0002);
#33=CIRCLE('',#842,0.0002);
#34=CIRCLE('',#843,0.0002);
#35=CIRCLE('',#844,0.0002);
#36=CIRCLE('',#845,0.0002);
#37=CIRCLE('',#846,0.0002);
#38=CIRCLE('',#847,0.0002);
#39=CIRCLE('',#848,0.0002);
#40=CIRCLE('',#849,0.0002);
#41=CIRCLE('',#850,0.0002);
#42=CIRCLE('',#851,0.0002);
#43=CIRCLE('',#852,0.0002);
#44=CIRCLE('',#853,0.0002);
#45=CIRCLE('',#854,0.0002);
#46=CIRCLE('',#855,0.0002);
#47=CIRCLE('',#856,0.0002);
#48=CIRCLE('',#861,0.0002);
#49=CIRCLE('',#863,0.0002);
#50=CIRCLE('',#865,0.0002);
#51=CIRCLE('',#867,0.0002);
#52=CIRCLE('',#869,0.0002);
#53=CIRCLE('',#871,0.0002);
#54=CIRCLE('',#873,0.0002);
#55=CIRCLE('',#875,0.0002);
#56=CIRCLE('',#877,0.0002);
#57=CIRCLE('',#879,0.0002);
#58=CIRCLE('',#881,0.0002);
#59=CIRCLE('',#883,0.0002);
#60=CIRCLE('',#885,0.0002);
#61=CIRCLE('',#887,0.0002);
#62=CIRCLE('',#889,0.0002);
#63=CIRCLE('',#891,0.0002);
#64=CIRCLE('',#893,0.0002);
#65=CIRCLE('',#895,0.0002);
#66=ORIENTED_EDGE('',*,*,#306,.F.);
#67=ORIENTED_EDGE('',*,*,#307,.T.);
#68=ORIENTED_EDGE('',*,*,#308,.F.);
#69=ORIENTED_EDGE('',*,*,#309,.T.);
#70=ORIENTED_EDGE('',*,*,#310,.F.);
#71=ORIENTED_EDGE('',*,*,#311,.T.);
#72=ORIENTED_EDGE('',*,*,#312,.F.);
#73=ORIENTED_EDGE('',*,*,#313,.T.);
#74=ORIENTED_EDGE('',*,*,#314,.F.);
#75=ORIENTED_EDGE('',*,*,#315,.F.);
#76=ORIENTED_EDGE('',*,*,#316,.T.);
#77=ORIENTED_EDGE('',*,*,#317,.T.);
#78=ORIENTED_EDGE('',*,*,#318,.F.);
#79=ORIENTED_EDGE('',*,*,#319,.T.);
#80=ORIENTED_EDGE('',*,*,#320,.F.);
#81=ORIENTED_EDGE('',*,*,#321,.T.);
#82=ORIENTED_EDGE('',*,*,#322,.F.);
#83=ORIENTED_EDGE('',*,*,#323,.T.);
#84=ORIENTED_EDGE('',*,*,#324,.F.);
#85=ORIENTED_EDGE('',*,*,#325,.T.);
#86=ORIENTED_EDGE('',*,*,#326,.F.);
#87=ORIENTED_EDGE('',*,*,#327,.T.);
#88=ORIENTED_EDGE('',*,*,#328,.F.);
#89=ORIENTED_EDGE('',*,*,#329,.T.);
#90=ORIENTED_EDGE('',*,*,#330,.F.);
#91=ORIENTED_EDGE('',*,*,#331,.T.);
#92=ORIENTED_EDGE('',*,*,#332,.F.);
#93=ORIENTED_EDGE('',*,*,#333,.T.);
#94=ORIENTED_EDGE('',*,*,#334,.F.);
#95=ORIENTED_EDGE('',*,*,#335,.T.);
#96=ORIENTED_EDGE('',*,*,#336,.F.);
#97=ORIENTED_EDGE('',*,*,#337,.T.);
#98=ORIENTED_EDGE('',*,*,#338,.F.);
#99=ORIENTED_EDGE('',*,*,#339,.T.);
#100=ORIENTED_EDGE('',*,*,#340,.F.);
#101=ORIENTED_EDGE('',*,*,#341,.T.);
#102=ORIENTED_EDGE('',*,*,#342,.F.);
#103=ORIENTED_EDGE('',*,*,#343,.T.);
#104=ORIENTED_EDGE('',*,*,#344,.F.);
#105=ORIENTED_EDGE('',*,*,#345,.T.);
#106=ORIENTED_EDGE('',*,*,#346,.F.);
#107=ORIENTED_EDGE('',*,*,#347,.F.);
#108=ORIENTED_EDGE('',*,*,#348,.F.);
#109=ORIENTED_EDGE('',*,*,#349,.F.);
#110=ORIENTED_EDGE('',*,*,#350,.F.);
#111=ORIENTED_EDGE('',*,*,#351,.F.);
#112=ORIENTED_EDGE('',*,*,#352,.F.);
#113=ORIENTED_EDGE('',*,*,#353,.F.);
#114=ORIENTED_EDGE('',*,*,#354,.F.);
#115=ORIENTED_EDGE('',*,*,#355,.F.);
#116=ORIENTED_EDGE('',*,*,#356,.F.);
#117=ORIENTED_EDGE('',*,*,#357,.F.);
#118=ORIENTED_EDGE('',*,*,#358,.F.);
#119=ORIENTED_EDGE('',*,*,#359,.F.);
#120=ORIENTED_EDGE('',*,*,#360,.F.);
#121=ORIENTED_EDGE('',*,*,#361,.F.);
#122=ORIENTED_EDGE('',*,*,#362,.F.);
#123=ORIENTED_EDGE('',*,*,#314,.T.);
#124=ORIENTED_EDGE('',*,*,#363,.T.);
#125=ORIENTED_EDGE('',*,*,#310,.T.);
#126=ORIENTED_EDGE('',*,*,#364,.T.);
#127=ORIENTED_EDGE('',*,*,#306,.T.);
#128=ORIENTED_EDGE('',*,*,#365,.T.);
#129=ORIENTED_EDGE('',*,*,#342,.T.);
#130=ORIENTED_EDGE('',*,*,#366,.T.);
#131=ORIENTED_EDGE('',*,*,#338,.T.);
#132=ORIENTED_EDGE('',*,*,#367,.T.);
#133=ORIENTED_EDGE('',*,*,#334,.T.);
#134=ORIENTED_EDGE('',*,*,#368,.T.);
#135=ORIENTED_EDGE('',*,*,#330,.T.);
#136=ORIENTED_EDGE('',*,*,#369,.T.);
#137=ORIENTED_EDGE('',*,*,#326,.T.);
#138=ORIENTED_EDGE('',*,*,#370,.T.);
#139=ORIENTED_EDGE('',*,*,#322,.T.);
#140=ORIENTED_EDGE('',*,*,#371,.T.);
#141=ORIENTED_EDGE('',*,*,#318,.T.);
#142=ORIENTED_EDGE('',*,*,#372,.T.);
#143=ORIENTED_EDGE('',*,*,#373,.F.);
#144=ORIENTED_EDGE('',*,*,#374,.F.);
#145=ORIENTED_EDGE('',*,*,#375,.F.);
#146=ORIENTED_EDGE('',*,*,#362,.T.);
#147=ORIENTED_EDGE('',*,*,#376,.F.);
#148=ORIENTED_EDGE('',*,*,#377,.F.);
#149=ORIENTED_EDGE('',*,*,#315,.T.);
#150=ORIENTED_EDGE('',*,*,#378,.F.);
#151=ORIENTED_EDGE('',*,*,#379,.F.);
#152=ORIENTED_EDGE('',*,*,#376,.T.);
#153=ORIENTED_EDGE('',*,*,#361,.T.);
#154=ORIENTED_EDGE('',*,*,#380,.T.);
#155=ORIENTED_EDGE('',*,*,#381,.T.);
#156=ORIENTED_EDGE('',*,*,#382,.T.);
#157=ORIENTED_EDGE('',*,*,#359,.T.);
#158=ORIENTED_EDGE('',*,*,#383,.T.);
#159=ORIENTED_EDGE('',*,*,#384,.T.);
#160=ORIENTED_EDGE('',*,*,#385,.T.);
#161=ORIENTED_EDGE('',*,*,#357,.T.);
#162=ORIENTED_EDGE('',*,*,#386,.T.);
#163=ORIENTED_EDGE('',*,*,#387,.T.);
#164=ORIENTED_EDGE('',*,*,#388,.T.);
#165=ORIENTED_EDGE('',*,*,#355,.T.);
#166=ORIENTED_EDGE('',*,*,#389,.T.);
#167=ORIENTED_EDGE('',*,*,#390,.T.);
#168=ORIENTED_EDGE('',*,*,#391,.T.);
#169=ORIENTED_EDGE('',*,*,#353,.T.);
#170=ORIENTED_EDGE('',*,*,#392,.T.);
#171=ORIENTED_EDGE('',*,*,#393,.T.);
#172=ORIENTED_EDGE('',*,*,#394,.T.);
#173=ORIENTED_EDGE('',*,*,#351,.T.);
#174=ORIENTED_EDGE('',*,*,#395,.T.);
#175=ORIENTED_EDGE('',*,*,#396,.T.);
#176=ORIENTED_EDGE('',*,*,#397,.T.);
#177=ORIENTED_EDGE('',*,*,#349,.T.);
#178=ORIENTED_EDGE('',*,*,#398,.T.);
#179=ORIENTED_EDGE('',*,*,#399,.T.);
#180=ORIENTED_EDGE('',*,*,#400,.T.);
#181=ORIENTED_EDGE('',*,*,#347,.T.);
#182=ORIENTED_EDGE('',*,*,#401,.T.);
#183=ORIENTED_EDGE('',*,*,#402,.T.);
#184=ORIENTED_EDGE('',*,*,#403,.T.);
#185=ORIENTED_EDGE('',*,*,#375,.T.);
#186=ORIENTED_EDGE('',*,*,#404,.T.);
#187=ORIENTED_EDGE('',*,*,#405,.T.);
#188=ORIENTED_EDGE('',*,*,#406,.T.);
#189=ORIENTED_EDGE('',*,*,#373,.T.);
#190=ORIENTED_EDGE('',*,*,#372,.F.);
#191=ORIENTED_EDGE('',*,*,#317,.F.);
#192=ORIENTED_EDGE('',*,*,#407,.T.);
#193=ORIENTED_EDGE('',*,*,#378,.T.);
#194=ORIENTED_EDGE('',*,*,#374,.T.);
#195=ORIENTED_EDGE('',*,*,#406,.F.);
#196=ORIENTED_EDGE('',*,*,#408,.T.);
#197=ORIENTED_EDGE('',*,*,#404,.F.);
#198=ORIENTED_EDGE('',*,*,#360,.T.);
#199=ORIENTED_EDGE('',*,*,#382,.F.);
#200=ORIENTED_EDGE('',*,*,#409,.T.);
#201=ORIENTED_EDGE('',*,*,#380,.F.);
#202=ORIENTED_EDGE('',*,*,#358,.T.);
#203=ORIENTED_EDGE('',*,*,#385,.F.);
#204=ORIENTED_EDGE('',*,*,#410,.T.);
#205=ORIENTED_EDGE('',*,*,#383,.F.);
#206=ORIENTED_EDGE('',*,*,#356,.T.);
#207=ORIENTED_EDGE('',*,*,#388,.F.);
#208=ORIENTED_EDGE('',*,*,#411,.T.);
#209=ORIENTED_EDGE('',*,*,#386,.F.);
#210=ORIENTED_EDGE('',*,*,#354,.T.);
#211=ORIENTED_EDGE('',*,*,#391,.F.);
#212=ORIENTED_EDGE('',*,*,#412,.T.);
#213=ORIENTED_EDGE('',*,*,#389,.F.);
#214=ORIENTED_EDGE('',*,*,#352,.T.);
#215=ORIENTED_EDGE('',*,*,#394,.F.);
#216=ORIENTED_EDGE('',*,*,#413,.T.);
#217=ORIENTED_EDGE('',*,*,#392,.F.);
#218=ORIENTED_EDGE('',*,*,#350,.T.);
#219=ORIENTED_EDGE('',*,*,#397,.F.);
#220=ORIENTED_EDGE('',*,*,#414,.T.);
#221=ORIENTED_EDGE('',*,*,#395,.F.);
#222=ORIENTED_EDGE('',*,*,#348,.T.);
#223=ORIENTED_EDGE('',*,*,#400,.F.);
#224=ORIENTED_EDGE('',*,*,#415,.T.);
#225=ORIENTED_EDGE('',*,*,#398,.F.);
#226=ORIENTED_EDGE('',*,*,#346,.T.);
#227=ORIENTED_EDGE('',*,*,#403,.F.);
#228=ORIENTED_EDGE('',*,*,#416,.T.);
#229=ORIENTED_EDGE('',*,*,#401,.F.);
#230=ORIENTED_EDGE('',*,*,#417,.F.);
#231=ORIENTED_EDGE('',*,*,#327,.F.);
#232=ORIENTED_EDGE('',*,*,#369,.F.);
#233=ORIENTED_EDGE('',*,*,#329,.F.);
#234=ORIENTED_EDGE('',*,*,#418,.F.);
#235=ORIENTED_EDGE('',*,*,#343,.F.);
#236=ORIENTED_EDGE('',*,*,#365,.F.);
#237=ORIENTED_EDGE('',*,*,#345,.F.);
#238=ORIENTED_EDGE('',*,*,#419,.F.);
#239=ORIENTED_EDGE('',*,*,#307,.F.);
#240=ORIENTED_EDGE('',*,*,#364,.F.);
#241=ORIENTED_EDGE('',*,*,#309,.F.);
#242=ORIENTED_EDGE('',*,*,#420,.F.);
#243=ORIENTED_EDGE('',*,*,#311,.F.);
#244=ORIENTED_EDGE('',*,*,#363,.F.);
#245=ORIENTED_EDGE('',*,*,#313,.F.);
#246=ORIENTED_EDGE('',*,*,#421,.F.);
#247=ORIENTED_EDGE('',*,*,#319,.F.);
#248=ORIENTED_EDGE('',*,*,#371,.F.);
#249=ORIENTED_EDGE('',*,*,#321,.F.);
#250=ORIENTED_EDGE('',*,*,#422,.F.);
#251=ORIENTED_EDGE('',*,*,#335,.F.);
#252=ORIENTED_EDGE('',*,*,#367,.F.);
#253=ORIENTED_EDGE('',*,*,#337,.F.);
#254=ORIENTED_EDGE('',*,*,#423,.F.);
#255=ORIENTED_EDGE('',*,*,#323,.F.);
#256=ORIENTED_EDGE('',*,*,#370,.F.);
#257=ORIENTED_EDGE('',*,*,#325,.F.);
#258=ORIENTED_EDGE('',*,*,#424,.F.);
#259=ORIENTED_EDGE('',*,*,#339,.F.);
#260=ORIENTED_EDGE('',*,*,#366,.F.);
#261=ORIENTED_EDGE('',*,*,#341,.F.);
#262=ORIENTED_EDGE('',*,*,#425,.F.);
#263=ORIENTED_EDGE('',*,*,#331,.F.);
#264=ORIENTED_EDGE('',*,*,#368,.F.);
#265=ORIENTED_EDGE('',*,*,#333,.F.);
#266=ORIENTED_EDGE('',*,*,#416,.F.);
#267=ORIENTED_EDGE('',*,*,#402,.F.);
#268=ORIENTED_EDGE('',*,*,#408,.F.);
#269=ORIENTED_EDGE('',*,*,#405,.F.);
#270=ORIENTED_EDGE('',*,*,#320,.T.);
#271=ORIENTED_EDGE('',*,*,#421,.T.);
#272=ORIENTED_EDGE('',*,*,#324,.T.);
#273=ORIENTED_EDGE('',*,*,#423,.T.);
#274=ORIENTED_EDGE('',*,*,#328,.T.);
#275=ORIENTED_EDGE('',*,*,#417,.T.);
#276=ORIENTED_EDGE('',*,*,#332,.T.);
#277=ORIENTED_EDGE('',*,*,#425,.T.);
#278=ORIENTED_EDGE('',*,*,#336,.T.);
#279=ORIENTED_EDGE('',*,*,#422,.T.);
#280=ORIENTED_EDGE('',*,*,#340,.T.);
#281=ORIENTED_EDGE('',*,*,#424,.T.);
#282=ORIENTED_EDGE('',*,*,#344,.T.);
#283=ORIENTED_EDGE('',*,*,#418,.T.);
#284=ORIENTED_EDGE('',*,*,#308,.T.);
#285=ORIENTED_EDGE('',*,*,#419,.T.);
#286=ORIENTED_EDGE('',*,*,#409,.F.);
#287=ORIENTED_EDGE('',*,*,#381,.F.);
#288=ORIENTED_EDGE('',*,*,#410,.F.);
#289=ORIENTED_EDGE('',*,*,#384,.F.);
#290=ORIENTED_EDGE('',*,*,#411,.F.);
#291=ORIENTED_EDGE('',*,*,#387,.F.);
#292=ORIENTED_EDGE('',*,*,#412,.F.);
#293=ORIENTED_EDGE('',*,*,#390,.F.);
#294=ORIENTED_EDGE('',*,*,#413,.F.);
#295=ORIENTED_EDGE('',*,*,#393,.F.);
#296=ORIENTED_EDGE('',*,*,#414,.F.);
#297=ORIENTED_EDGE('',*,*,#396,.F.);
#298=ORIENTED_EDGE('',*,*,#415,.F.);
#299=ORIENTED_EDGE('',*,*,#399,.F.);
#300=ORIENTED_EDGE('',*,*,#316,.F.);
#301=ORIENTED_EDGE('',*,*,#377,.T.);
#302=ORIENTED_EDGE('',*,*,#379,.T.);
#303=ORIENTED_EDGE('',*,*,#407,.F.);
#304=ORIENTED_EDGE('',*,*,#312,.T.);
#305=ORIENTED_EDGE('',*,*,#420,.T.);
#306=EDGE_CURVE('',#426,#427,#506,.T.);
#307=EDGE_CURVE('',#426,#428,#507,.T.);
#308=EDGE_CURVE('',#429,#428,#508,.T.);
#309=EDGE_CURVE('',#429,#430,#509,.F.);
#310=EDGE_CURVE('',#431,#430,#510,.T.);
#311=EDGE_CURVE('',#431,#432,#511,.T.);
#312=EDGE_CURVE('',#433,#432,#512,.T.);
#313=EDGE_CURVE('',#433,#434,#513,.F.);
#314=EDGE_CURVE('',#435,#434,#514,.T.);
#315=EDGE_CURVE('',#436,#435,#515,.T.);
#316=EDGE_CURVE('',#436,#437,#516,.T.);
#317=EDGE_CURVE('',#437,#438,#517,.T.);
#318=EDGE_CURVE('',#439,#438,#518,.T.);
#319=EDGE_CURVE('',#439,#440,#519,.T.);
#320=EDGE_CURVE('',#441,#440,#520,.T.);
#321=EDGE_CURVE('',#441,#442,#521,.F.);
#322=EDGE_CURVE('',#443,#442,#522,.T.);
#323=EDGE_CURVE('',#443,#444,#523,.T.);
#324=EDGE_CURVE('',#445,#444,#524,.T.);
#325=EDGE_CURVE('',#445,#446,#525,.F.);
#326=EDGE_CURVE('',#447,#446,#526,.T.);
#327=EDGE_CURVE('',#447,#448,#527,.T.);
#328=EDGE_CURVE('',#449,#448,#528,.T.);
#329=EDGE_CURVE('',#449,#450,#529,.F.);
#330=EDGE_CURVE('',#451,#450,#530,.T.);
#331=EDGE_CURVE('',#451,#452,#531,.T.);
#332=EDGE_CURVE('',#453,#452,#532,.T.);
#333=EDGE_CURVE('',#453,#454,#533,.F.);
#334=EDGE_CURVE('',#455,#454,#534,.T.);
#335=EDGE_CURVE('',#455,#456,#535,.T.);
#336=EDGE_CURVE('',#457,#456,#536,.T.);
#337=EDGE_CURVE('',#457,#458,#537,.F.);
#338=EDGE_CURVE('',#459,#458,#538,.T.);
#339=EDGE_CURVE('',#459,#460,#539,.T.);
#340=EDGE_CURVE('',#461,#460,#540,.T.);
#341=EDGE_CURVE('',#461,#462,#541,.F.);
#342=EDGE_CURVE('',#463,#462,#542,.T.);
#343=EDGE_CURVE('',#463,#464,#543,.T.);
#344=EDGE_CURVE('',#465,#464,#544,.T.);
#345=EDGE_CURVE('',#465,#427,#545,.F.);
#346=EDGE_CURVE('',#466,#467,#30,.F.);
#347=EDGE_CURVE('',#468,#466,#546,.T.);
#348=EDGE_CURVE('',#469,#468,#31,.F.);
#349=EDGE_CURVE('',#470,#469,#547,.T.);
#350=EDGE_CURVE('',#471,#470,#32,.F.);
#351=EDGE_CURVE('',#472,#471,#548,.T.);
#352=EDGE_CURVE('',#473,#472,#33,.F.);
#353=EDGE_CURVE('',#474,#473,#549,.T.);
#354=EDGE_CURVE('',#475,#474,#34,.F.);
#355=EDGE_CURVE('',#476,#475,#550,.T.);
#356=EDGE_CURVE('',#477,#476,#35,.F.);
#357=EDGE_CURVE('',#478,#477,#551,.T.);
#358=EDGE_CURVE('',#479,#478,#36,.F.);
#359=EDGE_CURVE('',#480,#479,#552,.T.);
#360=EDGE_CURVE('',#481,#480,#37,.F.);
#361=EDGE_CURVE('',#482,#481,#553,.T.);
#362=EDGE_CURVE('',#435,#482,#554,.T.);
#363=EDGE_CURVE('',#434,#431,#38,.T.);
#364=EDGE_CURVE('',#430,#426,#39,.T.);
#365=EDGE_CURVE('',#427,#463,#40,.T.);
#366=EDGE_CURVE('',#462,#459,#41,.T.);
#367=EDGE_CURVE('',#458,#455,#42,.T.);
#368=EDGE_CURVE('',#454,#451,#43,.T.);
#369=EDGE_CURVE('',#450,#447,#44,.T.);
#370=EDGE_CURVE('',#446,#443,#45,.T.);
#371=EDGE_CURVE('',#442,#439,#46,.T.);
#372=EDGE_CURVE('',#438,#483,#555,.T.);
#373=EDGE_CURVE('',#484,#483,#556,.T.);
#374=EDGE_CURVE('',#485,#484,#47,.F.);
#375=EDGE_CURVE('',#467,#485,#557,.T.);
#376=EDGE_CURVE('',#486,#482,#558,.T.);
#377=EDGE_CURVE('',#436,#486,#559,.T.);
#378=EDGE_CURVE('',#487,#483,#560,.T.);
#379=EDGE_CURVE('',#486,#487,#561,.T.);
#380=EDGE_CURVE('',#481,#488,#562,.T.);
#381=EDGE_CURVE('',#488,#489,#563,.T.);
#382=EDGE_CURVE('',#489,#480,#564,.F.);
#383=EDGE_CURVE('',#479,#490,#565,.T.);
#384=EDGE_CURVE('',#490,#491,#566,.T.);
#385=EDGE_CURVE('',#491,#478,#567,.F.);
#386=EDGE_CURVE('',#477,#492,#568,.T.);
#387=EDGE_CURVE('',#492,#493,#569,.T.);
#388=EDGE_CURVE('',#493,#476,#570,.F.);
#389=EDGE_CURVE('',#475,#494,#571,.T.);
#390=EDGE_CURVE('',#494,#495,#572,.T.);
#391=EDGE_CURVE('',#495,#474,#573,.F.);
#392=EDGE_CURVE('',#473,#496,#574,.T.);
#393=EDGE_CURVE('',#496,#497,#575,.T.);
#394=EDGE_CURVE('',#497,#472,#576,.F.);
#395=EDGE_CURVE('',#471,#498,#577,.T.);
#396=EDGE_CURVE('',#498,#499,#578,.T.);
#397=EDGE_CURVE('',#499,#470,#579,.F.);
#398=EDGE_CURVE('',#469,#500,#580,.T.);
#399=EDGE_CURVE('',#500,#501,#581,.T.);
#400=EDGE_CURVE('',#501,#468,#582,.F.);
#401=EDGE_CURVE('',#466,#502,#583,.T.);
#402=EDGE_CURVE('',#502,#503,#584,.T.);
#403=EDGE_CURVE('',#503,#467,#585,.F.);
#404=EDGE_CURVE('',#485,#504,#586,.T.);
#405=EDGE_CURVE('',#504,#505,#587,.T.);
#406=EDGE_CURVE('',#505,#484,#588,.F.);
#407=EDGE_CURVE('',#437,#487,#589,.T.);
#408=EDGE_CURVE('',#505,#504,#48,.T.);
#409=EDGE_CURVE('',#489,#488,#49,.T.);
#410=EDGE_CURVE('',#491,#490,#50,.T.);
#411=EDGE_CURVE('',#493,#492,#51,.T.);
#412=EDGE_CURVE('',#495,#494,#52,.T.);
#413=EDGE_CURVE('',#497,#496,#53,.T.);
#414=EDGE_CURVE('',#499,#498,#54,.T.);
#415=EDGE_CURVE('',#501,#500,#55,.T.);
#416=EDGE_CURVE('',#503,#502,#56,.T.);
#417=EDGE_CURVE('',#448,#449,#57,.T.);
#418=EDGE_CURVE('',#464,#465,#58,.T.);
#419=EDGE_CURVE('',#428,#429,#59,.T.);
#420=EDGE_CURVE('',#432,#433,#60,.T.);
#421=EDGE_CURVE('',#440,#441,#61,.T.);
#422=EDGE_CURVE('',#456,#457,#62,.T.);
#423=EDGE_CURVE('',#444,#445,#63,.T.);
#424=EDGE_CURVE('',#460,#461,#64,.T.);
#425=EDGE_CURVE('',#452,#453,#65,.T.);
#426=VERTEX_POINT('',#1160);
#427=VERTEX_POINT('',#1161);
#428=VERTEX_POINT('',#1163);
#429=VERTEX_POINT('',#1165);
#430=VERTEX_POINT('',#1167);
#431=VERTEX_POINT('',#1169);
#432=VERTEX_POINT('',#1171);
#433=VERTEX_POINT('',#1173);
#434=VERTEX_POINT('',#1175);
#435=VERTEX_POINT('',#1177);
#436=VERTEX_POINT('',#1179);
#437=VERTEX_POINT('',#1181);
#438=VERTEX_POINT('',#1183);
#439=VERTEX_POINT('',#1185);
#440=VERTEX_POINT('',#1187);
#441=VERTEX_POINT('',#1189);
#442=VERTEX_POINT('',#1191);
#443=VERTEX_POINT('',#1193);
#444=VERTEX_POINT('',#1195);
#445=VERTEX_POINT('',#1197);
#446=VERTEX_POINT('',#1199);
#447=VERTEX_POINT('',#1201);
#448=VERTEX_POINT('',#1203);
#449=VERTEX_POINT('',#1205);
#450=VERTEX_POINT('',#1207);
#451=VERTEX_POINT('',#1209);
#452=VERTEX_POINT('',#1211);
#453=VERTEX_POINT('',#1213);
#454=VERTEX_POINT('',#1215);
#455=VERTEX_POINT('',#1217);
#456=VERTEX_POINT('',#1219);
#457=VERTEX_POINT('',#1221);
#458=VERTEX_POINT('',#1223);
#459=VERTEX_POINT('',#1225);
#460=VERTEX_POINT('',#1227);
#461=VERTEX_POINT('',#1229);
#462=VERTEX_POINT('',#1231);
#463=VERTEX_POINT('',#1233);
#464=VERTEX_POINT('',#1235);
#465=VERTEX_POINT('',#1237);
#466=VERTEX_POINT('',#1241);
#467=VERTEX_POINT('',#1242);
#468=VERTEX_POINT('',#1244);
#469=VERTEX_POINT('',#1246);
#470=VERTEX_POINT('',#1248);
#471=VERTEX_POINT('',#1250);
#472=VERTEX_POINT('',#1252);
#473=VERTEX_POINT('',#1254);
#474=VERTEX_POINT('',#1256);
#475=VERTEX_POINT('',#1258);
#476=VERTEX_POINT('',#1260);
#477=VERTEX_POINT('',#1262);
#478=VERTEX_POINT('',#1264);
#479=VERTEX_POINT('',#1266);
#480=VERTEX_POINT('',#1268);
#481=VERTEX_POINT('',#1270);
#482=VERTEX_POINT('',#1272);
#483=VERTEX_POINT('',#1284);
#484=VERTEX_POINT('',#1286);
#485=VERTEX_POINT('',#1288);
#486=VERTEX_POINT('',#1292);
#487=VERTEX_POINT('',#1296);
#488=VERTEX_POINT('',#1299);
#489=VERTEX_POINT('',#1301);
#490=VERTEX_POINT('',#1304);
#491=VERTEX_POINT('',#1306);
#492=VERTEX_POINT('',#1309);
#493=VERTEX_POINT('',#1311);
#494=VERTEX_POINT('',#1314);
#495=VERTEX_POINT('',#1316);
#496=VERTEX_POINT('',#1319);
#497=VERTEX_POINT('',#1321);
#498=VERTEX_POINT('',#1324);
#499=VERTEX_POINT('',#1326);
#500=VERTEX_POINT('',#1329);
#501=VERTEX_POINT('',#1331);
#502=VERTEX_POINT('',#1334);
#503=VERTEX_POINT('',#1336);
#504=VERTEX_POINT('',#1339);
#505=VERTEX_POINT('',#1341);
#506=LINE('',#1159,#590);
#507=LINE('',#1162,#591);
#508=LINE('',#1164,#592);
#509=LINE('',#1166,#593);
#510=LINE('',#1168,#594);
#511=LINE('',#1170,#595);
#512=LINE('',#1172,#596);
#513=LINE('',#1174,#597);
#514=LINE('',#1176,#598);
#515=LINE('',#1178,#599);
#516=LINE('',#1180,#600);
#517=LINE('',#1182,#601);
#518=LINE('',#1184,#602);
#519=LINE('',#1186,#603);
#520=LINE('',#1188,#604);
#521=LINE('',#1190,#605);
#522=LINE('',#1192,#606);
#523=LINE('',#1194,#607);
#524=LINE('',#1196,#608);
#525=LINE('',#1198,#609);
#526=LINE('',#1200,#610);
#527=LINE('',#1202,#611);
#528=LINE('',#1204,#612);
#529=LINE('',#1206,#613);
#530=LINE('',#1208,#614);
#531=LINE('',#1210,#615);
#532=LINE('',#1212,#616);
#533=LINE('',#1214,#617);
#534=LINE('',#1216,#618);
#535=LINE('',#1218,#619);
#536=LINE('',#1220,#620);
#537=LINE('',#1222,#621);
#538=LINE('',#1224,#622);
#539=LINE('',#1226,#623);
#540=LINE('',#1228,#624);
#541=LINE('',#1230,#625);
#542=LINE('',#1232,#626);
#543=LINE('',#1234,#627);
#544=LINE('',#1236,#628);
#545=LINE('',#1238,#629);
#546=LINE('',#1243,#630);
#547=LINE('',#1247,#631);
#548=LINE('',#1251,#632);
#549=LINE('',#1255,#633);
#550=LINE('',#1259,#634);
#551=LINE('',#1263,#635);
#552=LINE('',#1267,#636);
#553=LINE('',#1271,#637);
#554=LINE('',#1273,#638);
#555=LINE('',#1283,#639);
#556=LINE('',#1285,#640);
#557=LINE('',#1289,#641);
#558=LINE('',#1291,#642);
#559=LINE('',#1293,#643);
#560=LINE('',#1295,#644);
#561=LINE('',#1297,#645);
#562=LINE('',#1298,#646);
#563=LINE('',#1300,#647);
#564=LINE('',#1302,#648);
#565=LINE('',#1303,#649);
#566=LINE('',#1305,#650);
#567=LINE('',#1307,#651);
#568=LINE('',#1308,#652);
#569=LINE('',#1310,#653);
#570=LINE('',#1312,#654);
#571=LINE('',#1313,#655);
#572=LINE('',#1315,#656);
#573=LINE('',#1317,#657);
#574=LINE('',#1318,#658);
#575=LINE('',#1320,#659);
#576=LINE('',#1322,#660);
#577=LINE('',#1323,#661);
#578=LINE('',#1325,#662);
#579=LINE('',#1327,#663);
#580=LINE('',#1328,#664);
#581=LINE('',#1330,#665);
#582=LINE('',#1332,#666);
#583=LINE('',#1333,#667);
#584=LINE('',#1335,#668);
#585=LINE('',#1337,#669);
#586=LINE('',#1338,#670);
#587=LINE('',#1340,#671);
#588=LINE('',#1342,#672);
#589=LINE('',#1344,#673);
#590=VECTOR('',#919,1.);
#591=VECTOR('',#920,1.);
#592=VECTOR('',#921,1.);
#593=VECTOR('',#922,1.);
#594=VECTOR('',#923,1.);
#595=VECTOR('',#924,1.);
#596=VECTOR('',#925,1.);
#597=VECTOR('',#926,1.);
#598=VECTOR('',#927,1.);
#599=VECTOR('',#928,1.);
#600=VECTOR('',#929,1.);
#601=VECTOR('',#930,1.);
#602=VECTOR('',#931,1.);
#603=VECTOR('',#932,1.);
#604=VECTOR('',#933,1.);
#605=VECTOR('',#934,1.);
#606=VECTOR('',#935,1.);
#607=VECTOR('',#936,1.);
#608=VECTOR('',#937,1.);
#609=VECTOR('',#938,1.);
#610=VECTOR('',#939,1.);
#611=VECTOR('',#940,1.);
#612=VECTOR('',#941,1.);
#613=VECTOR('',#942,1.);
#614=VECTOR('',#943,1.);
#615=VECTOR('',#944,1.);
#616=VECTOR('',#945,1.);
#617=VECTOR('',#946,1.);
#618=VECTOR('',#947,1.);
#619=VECTOR('',#948,1.);
#620=VECTOR('',#949,1.);
#621=VECTOR('',#950,1.);
#622=VECTOR('',#951,1.);
#623=VECTOR('',#952,1.);
#624=VECTOR('',#953,1.);
#625=VECTOR('',#954,1.);
#626=VECTOR('',#955,1.);
#627=VECTOR('',#956,1.);
#628=VECTOR('',#957,1.);
#629=VECTOR('',#958,1.);
#630=VECTOR('',#963,1.);
#631=VECTOR('',#966,1.);
#632=VECTOR('',#969,1.);
#633=VECTOR('',#972,1.);
#634=VECTOR('',#975,1.);
#635=VECTOR('',#978,1.);
#636=VECTOR('',#981,1.);
#637=VECTOR('',#984,1.);
#638=VECTOR('',#985,1.);
#639=VECTOR('',#1004,1.);
#640=VECTOR('',#1005,1.);
#641=VECTOR('',#1008,1.);
#642=VECTOR('',#1011,1.);
#643=VECTOR('',#1012,1.);
#644=VECTOR('',#1015,1.);
#645=VECTOR('',#1016,1.);
#646=VECTOR('',#1017,1.);
#647=VECTOR('',#1018,1.);
#648=VECTOR('',#1019,1.);
#649=VECTOR('',#1020,1.);
#650=VECTOR('',#1021,1.);
#651=VECTOR('',#1022,1.);
#652=VECTOR('',#1023,1.);
#653=VECTOR('',#1024,1.);
#654=VECTOR('',#1025,1.);
#655=VECTOR('',#1026,1.);
#656=VECTOR('',#1027,1.);
#657=VECTOR('',#1028,1.);
#658=VECTOR('',#1029,1.);
#659=VECTOR('',#1030,1.);
#660=VECTOR('',#1031,1.);
#661=VECTOR('',#1032,1.);
#662=VECTOR('',#1033,1.);
#663=VECTOR('',#1034,1.);
#664=VECTOR('',#1035,1.);
#665=VECTOR('',#1036,1.);
#666=VECTOR('',#1037,1.);
#667=VECTOR('',#1038,1.);
#668=VECTOR('',#1039,1.);
#669=VECTOR('',#1040,1.);
#670=VECTOR('',#1041,1.);
#671=VECTOR('',#1042,1.);
#672=VECTOR('',#1043,1.);
#673=VECTOR('',#1046,1.);
#674=EDGE_LOOP('',(#66,#67,#68,#69,#70,#71,#72,#73,#74,#75,#76,#77,#78,
#79,#80,#81,#82,#83,#84,#85,#86,#87,#88,#89,#90,#91,#92,#93,#94,#95,#96,
#97,#98,#99,#100,#101,#102,#103,#104,#105));
#675=EDGE_LOOP('',(#106,#107,#108,#109,#110,#111,#112,#113,#114,#115,#116,
#117,#118,#119,#120,#121,#122,#123,#124,#125,#126,#127,#128,#129,#130,#131,
#132,#133,#134,#135,#136,#137,#138,#139,#140,#141,#142,#143,#144,#145));
#676=EDGE_LOOP('',(#146,#147,#148,#149));
#677=EDGE_LOOP('',(#150,#151,#152,#153,#154,#155,#156,#157,#158,#159,#160,
#161,#162,#163,#164,#165,#166,#167,#168,#169,#170,#171,#172,#173,#174,#175,
#176,#177,#178,#179,#180,#181,#182,#183,#184,#185,#186,#187,#188,#189));
#678=EDGE_LOOP('',(#190,#191,#192,#193));
#679=EDGE_LOOP('',(#194,#195,#196,#197));
#680=EDGE_LOOP('',(#198,#199,#200,#201));
#681=EDGE_LOOP('',(#202,#203,#204,#205));
#682=EDGE_LOOP('',(#206,#207,#208,#209));
#683=EDGE_LOOP('',(#210,#211,#212,#213));
#684=EDGE_LOOP('',(#214,#215,#216,#217));
#685=EDGE_LOOP('',(#218,#219,#220,#221));
#686=EDGE_LOOP('',(#222,#223,#224,#225));
#687=EDGE_LOOP('',(#226,#227,#228,#229));
#688=EDGE_LOOP('',(#230,#231,#232,#233));
#689=EDGE_LOOP('',(#234,#235,#236,#237));
#690=EDGE_LOOP('',(#238,#239,#240,#241));
#691=EDGE_LOOP('',(#242,#243,#244,#245));
#692=EDGE_LOOP('',(#246,#247,#248,#249));
#693=EDGE_LOOP('',(#250,#251,#252,#253));
#694=EDGE_LOOP('',(#254,#255,#256,#257));
#695=EDGE_LOOP('',(#258,#259,#260,#261));
#696=EDGE_LOOP('',(#262,#263,#264,#265));
#697=EDGE_LOOP('',(#266,#267));
#698=EDGE_LOOP('',(#268,#269));
#699=EDGE_LOOP('',(#270,#271));
#700=EDGE_LOOP('',(#272,#273));
#701=EDGE_LOOP('',(#274,#275));
#702=EDGE_LOOP('',(#276,#277));
#703=EDGE_LOOP('',(#278,#279));
#704=EDGE_LOOP('',(#280,#281));
#705=EDGE_LOOP('',(#282,#283));
#706=EDGE_LOOP('',(#284,#285));
#707=EDGE_LOOP('',(#286,#287));
#708=EDGE_LOOP('',(#288,#289));
#709=EDGE_LOOP('',(#290,#291));
#710=EDGE_LOOP('',(#292,#293));
#711=EDGE_LOOP('',(#294,#295));
#712=EDGE_LOOP('',(#296,#297));
#713=EDGE_LOOP('',(#298,#299));
#714=EDGE_LOOP('',(#300,#301,#302,#303));
#715=EDGE_LOOP('',(#304,#305));
#716=FACE_BOUND('',#674,.T.);
#717=FACE_BOUND('',#675,.T.);
#718=FACE_BOUND('',#676,.T.);
#719=FACE_BOUND('',#677,.T.);
#720=FACE_BOUND('',#678,.T.);
#721=FACE_BOUND('',#679,.T.);
#722=FACE_BOUND('',#680,.T.);
#723=FACE_BOUND('',#681,.T.);
#724=FACE_BOUND('',#682,.T.);
#725=FACE_BOUND('',#683,.T.);
#726=FACE_BOUND('',#684,.T.);
#727=FACE_BOUND('',#685,.T.);
#728=FACE_BOUND('',#686,.T.);
#729=FACE_BOUND('',#687,.T.);
#730=FACE_BOUND('',#688,.T.);
#731=FACE_BOUND('',#689,.T.);
#732=FACE_BOUND('',#690,.T.);
#733=FACE_BOUND('',#691,.T.);
#734=FACE_BOUND('',#692,.T.);
#735=FACE_BOUND('',#693,.T.);
#736=FACE_BOUND('',#694,.T.);
#737=FACE_BOUND('',#695,.T.);
#738=FACE_BOUND('',#696,.T.);
#739=FACE_BOUND('',#697,.T.);
#740=FACE_BOUND('',#698,.T.);
#741=FACE_BOUND('',#699,.T.);
#742=FACE_BOUND('',#700,.T.);
#743=FACE_BOUND('',#701,.T.);
#744=FACE_BOUND('',#702,.T.);
#745=FACE_BOUND('',#703,.T.);
#746=FACE_BOUND('',#704,.T.);
#747=FACE_BOUND('',#705,.T.);
#748=FACE_BOUND('',#706,.T.);
#749=FACE_BOUND('',#707,.T.);
#750=FACE_BOUND('',#708,.T.);
#751=FACE_BOUND('',#709,.T.);
#752=FACE_BOUND('',#710,.T.);
#753=FACE_BOUND('',#711,.T.);
#754=FACE_BOUND('',#712,.T.);
#755=FACE_BOUND('',#713,.T.);
#756=FACE_BOUND('',#714,.T.);
#757=FACE_BOUND('',#715,.T.);
#758=PLANE('',#837);
#759=PLANE('',#838);
#760=PLANE('',#857);
#761=PLANE('',#858);
#762=PLANE('',#859);
#763=PLANE('',#896);
#764=PLANE('',#897);
#765=PLANE('',#898);
#766=PLANE('',#899);
#767=PLANE('',#900);
#768=PLANE('',#901);
#769=PLANE('',#902);
#770=PLANE('',#903);
#771=PLANE('',#904);
#772=PLANE('',#905);
#773=PLANE('',#906);
#774=PLANE('',#907);
#775=PLANE('',#908);
#776=PLANE('',#909);
#777=PLANE('',#910);
#778=PLANE('',#911);
#779=PLANE('',#912);
#780=PLANE('',#913);
#781=PLANE('',#914);
#782=ADVANCED_FACE('',(#716),#758,.T.);
#783=ADVANCED_FACE('',(#717),#759,.F.);
#784=ADVANCED_FACE('',(#718),#760,.F.);
#785=ADVANCED_FACE('',(#719),#761,.F.);
#786=ADVANCED_FACE('',(#720),#762,.T.);
#787=ADVANCED_FACE('',(#721),#12,.F.);
#788=ADVANCED_FACE('',(#722),#13,.F.);
#789=ADVANCED_FACE('',(#723),#14,.F.);
#790=ADVANCED_FACE('',(#724),#15,.F.);
#791=ADVANCED_FACE('',(#725),#16,.F.);
#792=ADVANCED_FACE('',(#726),#17,.F.);
#793=ADVANCED_FACE('',(#727),#18,.F.);
#794=ADVANCED_FACE('',(#728),#19,.F.);
#795=ADVANCED_FACE('',(#729),#20,.F.);
#796=ADVANCED_FACE('',(#730),#21,.F.);
#797=ADVANCED_FACE('',(#731),#22,.F.);
#798=ADVANCED_FACE('',(#732),#23,.F.);
#799=ADVANCED_FACE('',(#733),#24,.F.);
#800=ADVANCED_FACE('',(#734),#25,.F.);
#801=ADVANCED_FACE('',(#735),#26,.F.);
#802=ADVANCED_FACE('',(#736),#27,.F.);
#803=ADVANCED_FACE('',(#737),#28,.F.);
#804=ADVANCED_FACE('',(#738),#29,.F.);
#805=ADVANCED_FACE('',(#739),#763,.F.);
#806=ADVANCED_FACE('',(#740),#764,.F.);
#807=ADVANCED_FACE('',(#741),#765,.F.);
#808=ADVANCED_FACE('',(#742),#766,.F.);
#809=ADVANCED_FACE('',(#743),#767,.F.);
#810=ADVANCED_FACE('',(#744),#768,.F.);
#811=ADVANCED_FACE('',(#745),#769,.F.);
#812=ADVANCED_FACE('',(#746),#770,.F.);
#813=ADVANCED_FACE('',(#747),#771,.F.);
#814=ADVANCED_FACE('',(#748),#772,.F.);
#815=ADVANCED_FACE('',(#749),#773,.F.);
#816=ADVANCED_FACE('',(#750),#774,.F.);
#817=ADVANCED_FACE('',(#751),#775,.F.);
#818=ADVANCED_FACE('',(#752),#776,.F.);
#819=ADVANCED_FACE('',(#753),#777,.F.);
#820=ADVANCED_FACE('',(#754),#778,.F.);
#821=ADVANCED_FACE('',(#755),#779,.F.);
#822=ADVANCED_FACE('',(#756),#780,.T.);
#823=ADVANCED_FACE('',(#757),#781,.F.);
#824=CLOSED_SHELL('',(#782,#783,#784,#785,#786,#787,#788,#789,#790,#791,
#792,#793,#794,#795,#796,#797,#798,#799,#800,#801,#802,#803,#804,#805,#806,
#807,#808,#809,#810,#811,#812,#813,#814,#815,#816,#817,#818,#819,#820,#821,
#822,#823));
#825=STYLED_ITEM('',(#826),#833);
#826=PRESENTATION_STYLE_ASSIGNMENT((#827));
#827=SURFACE_STYLE_USAGE(.BOTH.,#828);
#828=SURFACE_SIDE_STYLE('',(#829));
#829=SURFACE_STYLE_FILL_AREA(#830);
#830=FILL_AREA_STYLE('',(#831));
#831=FILL_AREA_STYLE_COLOUR('',#832);
#832=COLOUR_RGB('',0.917647058823529,0.917647058823529,0.917647058823529);
#833=MANIFOLD_SOLID_BREP('Part 3',#824);
#834=SHAPE_DEFINITION_REPRESENTATION(#1406,#835);
#835=SHAPE_REPRESENTATION('Part 3',(#836),#1401);
#836=AXIS2_PLACEMENT_3D('',#1157,#915,#916);
#837=AXIS2_PLACEMENT_3D('',#1158,#917,#918);
#838=AXIS2_PLACEMENT_3D('',#1239,#959,#960);
#839=AXIS2_PLACEMENT_3D('',#1240,#961,#962);
#840=AXIS2_PLACEMENT_3D('',#1245,#964,#965);
#841=AXIS2_PLACEMENT_3D('',#1249,#967,#968);
#842=AXIS2_PLACEMENT_3D('',#1253,#970,#971);
#843=AXIS2_PLACEMENT_3D('',#1257,#973,#974);
#844=AXIS2_PLACEMENT_3D('',#1261,#976,#977);
#845=AXIS2_PLACEMENT_3D('',#1265,#979,#980);
#846=AXIS2_PLACEMENT_3D('',#1269,#982,#983);
#847=AXIS2_PLACEMENT_3D('',#1274,#986,#987);
#848=AXIS2_PLACEMENT_3D('',#1275,#988,#989);
#849=AXIS2_PLACEMENT_3D('',#1276,#990,#991);
#850=AXIS2_PLACEMENT_3D('',#1277,#992,#993);
#851=AXIS2_PLACEMENT_3D('',#1278,#994,#995);
#852=AXIS2_PLACEMENT_3D('',#1279,#996,#997);
#853=AXIS2_PLACEMENT_3D('',#1280,#998,#999);
#854=AXIS2_PLACEMENT_3D('',#1281,#1000,#1001);
#855=AXIS2_PLACEMENT_3D('',#1282,#1002,#1003);
#856=AXIS2_PLACEMENT_3D('',#1287,#1006,#1007);
#857=AXIS2_PLACEMENT_3D('',#1290,#1009,#1010);
#858=AXIS2_PLACEMENT_3D('',#1294,#1013,#1014);
#859=AXIS2_PLACEMENT_3D('',#1343,#1044,#1045);
#860=AXIS2_PLACEMENT_3D('',#1345,#1047,#1048);
#861=AXIS2_PLACEMENT_3D('',#1346,#1049,#1050);
#862=AXIS2_PLACEMENT_3D('',#1347,#1051,#1052);
#863=AXIS2_PLACEMENT_3D('',#1348,#1053,#1054);
#864=AXIS2_PLACEMENT_3D('',#1349,#1055,#1056);
#865=AXIS2_PLACEMENT_3D('',#1350,#1057,#1058);
#866=AXIS2_PLACEMENT_3D('',#1351,#1059,#1060);
#867=AXIS2_PLACEMENT_3D('',#1352,#1061,#1062);
#868=AXIS2_PLACEMENT_3D('',#1353,#1063,#1064);
#869=AXIS2_PLACEMENT_3D('',#1354,#1065,#1066);
#870=AXIS2_PLACEMENT_3D('',#1355,#1067,#1068);
#871=AXIS2_PLACEMENT_3D('',#1356,#1069,#1070);
#872=AXIS2_PLACEMENT_3D('',#1357,#1071,#1072);
#873=AXIS2_PLACEMENT_3D('',#1358,#1073,#1074);
#874=AXIS2_PLACEMENT_3D('',#1359,#1075,#1076);
#875=AXIS2_PLACEMENT_3D('',#1360,#1077,#1078);
#876=AXIS2_PLACEMENT_3D('',#1361,#1079,#1080);
#877=AXIS2_PLACEMENT_3D('',#1362,#1081,#1082);
#878=AXIS2_PLACEMENT_3D('',#1363,#1083,#1084);
#879=AXIS2_PLACEMENT_3D('',#1364,#1085,#1086);
#880=AXIS2_PLACEMENT_3D('',#1365,#1087,#1088);
#881=AXIS2_PLACEMENT_3D('',#1366,#1089,#1090);
#882=AXIS2_PLACEMENT_3D('',#1367,#1091,#1092);
#883=AXIS2_PLACEMENT_3D('',#1368,#1093,#1094);
#884=AXIS2_PLACEMENT_3D('',#1369,#1095,#1096);
#885=AXIS2_PLACEMENT_3D('',#1370,#1097,#1098);
#886=AXIS2_PLACEMENT_3D('',#1371,#1099,#1100);
#887=AXIS2_PLACEMENT_3D('',#1372,#1101,#1102);
#888=AXIS2_PLACEMENT_3D('',#1373,#1103,#1104);
#889=AXIS2_PLACEMENT_3D('',#1374,#1105,#1106);
#890=AXIS2_PLACEMENT_3D('',#1375,#1107,#1108);
#891=AXIS2_PLACEMENT_3D('',#1376,#1109,#1110);
#892=AXIS2_PLACEMENT_3D('',#1377,#1111,#1112);
#893=AXIS2_PLACEMENT_3D('',#1378,#1113,#1114);
#894=AXIS2_PLACEMENT_3D('',#1379,#1115,#1116);
#895=AXIS2_PLACEMENT_3D('',#1380,#1117,#1118);
#896=AXIS2_PLACEMENT_3D('',#1381,#1119,#1120);
#897=AXIS2_PLACEMENT_3D('',#1382,#1121,#1122);
#898=AXIS2_PLACEMENT_3D('',#1383,#1123,#1124);
#899=AXIS2_PLACEMENT_3D('',#1384,#1125,#1126);
#900=AXIS2_PLACEMENT_3D('',#1385,#1127,#1128);
#901=AXIS2_PLACEMENT_3D('',#1386,#1129,#1130);
#902=AXIS2_PLACEMENT_3D('',#1387,#1131,#1132);
#903=AXIS2_PLACEMENT_3D('',#1388,#1133,#1134);
#904=AXIS2_PLACEMENT_3D('',#1389,#1135,#1136);
#905=AXIS2_PLACEMENT_3D('',#1390,#1137,#1138);
#906=AXIS2_PLACEMENT_3D('',#1391,#1139,#1140);
#907=AXIS2_PLACEMENT_3D('',#1392,#1141,#1142);
#908=AXIS2_PLACEMENT_3D('',#1393,#1143,#1144);
#909=AXIS2_PLACEMENT_3D('',#1394,#1145,#1146);
#910=AXIS2_PLACEMENT_3D('',#1395,#1147,#1148);
#911=AXIS2_PLACEMENT_3D('',#1396,#1149,#1150);
#912=AXIS2_PLACEMENT_3D('',#1397,#1151,#1152);
#913=AXIS2_PLACEMENT_3D('',#1398,#1153,#1154);
#914=AXIS2_PLACEMENT_3D('',#1399,#1155,#1156);
#915=DIRECTION('',(0.,0.,1.));
#916=DIRECTION('',(1.,0.,0.));
#917=DIRECTION('',(1.,1.71754799601664E-16,0.));
#918=DIRECTION('',(-1.71754799601664E-16,1.,0.));
#919=DIRECTION('',(1.71754799601664E-16,-1.,0.));
#920=DIRECTION('',(0.,0.,1.));
#921=DIRECTION('',(0.,-1.,0.));
#922=DIRECTION('',(0.,0.,1.));
#923=DIRECTION('',(1.71754799601664E-16,-1.,0.));
#924=DIRECTION('',(0.,0.,1.));
#925=DIRECTION('',(0.,-1.,0.));
#926=DIRECTION('',(0.,0.,1.));
#927=DIRECTION('',(1.71754799601664E-16,-1.,0.));
#928=DIRECTION('',(0.,0.,-1.));
#929=DIRECTION('',(0.,-1.,0.));
#930=DIRECTION('',(0.,0.,-1.));
#931=DIRECTION('',(1.71754799601664E-16,-1.,0.));
#932=DIRECTION('',(0.,0.,1.));
#933=DIRECTION('',(0.,-1.,0.));
#934=DIRECTION('',(0.,0.,1.));
#935=DIRECTION('',(1.71754799601664E-16,-1.,0.));
#936=DIRECTION('',(0.,0.,1.));
#937=DIRECTION('',(0.,-1.,0.));
#938=DIRECTION('',(0.,0.,1.));
#939=DIRECTION('',(1.71754799601664E-16,-1.,0.));
#940=DIRECTION('',(0.,0.,1.));
#941=DIRECTION('',(0.,-1.,0.));
#942=DIRECTION('',(0.,0.,1.));
#943=DIRECTION('',(1.71754799601664E-16,-1.,0.));
#944=DIRECTION('',(0.,0.,1.));
#945=DIRECTION('',(0.,-1.,0.));
#946=DIRECTION('',(0.,0.,1.));
#947=DIRECTION('',(1.71754799601664E-16,-1.,0.));
#948=DIRECTION('',(0.,0.,1.));
#949=DIRECTION('',(0.,-1.,0.));
#950=DIRECTION('',(0.,0.,1.));
#951=DIRECTION('',(1.71754799601664E-16,-1.,0.));
#952=DIRECTION('',(0.,0.,1.));
#953=DIRECTION('',(0.,-1.,0.));
#954=DIRECTION('',(0.,0.,1.));
#955=DIRECTION('',(1.71754799601664E-16,-1.,0.));
#956=DIRECTION('',(0.,0.,1.));
#957=DIRECTION('',(0.,-1.,0.));
#958=DIRECTION('',(0.,0.,1.));
#959=DIRECTION('',(0.,0.,1.));
#960=DIRECTION('',(1.,0.,0.));
#961=DIRECTION('',(0.,0.,1.));
#962=DIRECTION('',(1.,0.,0.));
#963=DIRECTION('',(1.71754799601664E-16,-1.,0.));
#964=DIRECTION('',(0.,0.,1.));
#965=DIRECTION('',(1.,0.,0.));
#966=DIRECTION('',(1.71754799601664E-16,-1.,0.));
#967=DIRECTION('',(0.,0.,1.));
#968=DIRECTION('',(1.,0.,0.));
#969=DIRECTION('',(1.71754799601664E-16,-1.,0.));
#970=DIRECTION('',(0.,0.,1.));
#971=DIRECTION('',(1.,0.,0.));
#972=DIRECTION('',(1.71754799601664E-16,-1.,0.));
#973=DIRECTION('',(0.,0.,1.));
#974=DIRECTION('',(1.,0.,0.));
#975=DIRECTION('',(1.71754799601664E-16,-1.,0.));
#976=DIRECTION('',(0.,0.,1.));
#977=DIRECTION('',(1.,0.,0.));
#978=DIRECTION('',(1.71754799601664E-16,-1.,0.));
#979=DIRECTION('',(0.,0.,1.));
#980=DIRECTION('',(1.,0.,0.));
#981=DIRECTION('',(1.71754799601664E-16,-1.,0.));
#982=DIRECTION('',(0.,0.,1.));
#983=DIRECTION('',(1.,0.,0.));
#984=DIRECTION('',(1.71754799601664E-16,-1.,0.));
#985=DIRECTION('',(-1.,0.,0.));
#986=DIRECTION('',(0.,0.,1.));
#987=DIRECTION('',(1.,0.,0.));
#988=DIRECTION('',(0.,0.,1.));
#989=DIRECTION('',(1.,0.,0.));
#990=DIRECTION('',(0.,0.,1.));
#991=DIRECTION('',(1.,0.,0.));
#992=DIRECTION('',(0.,0.,1.));
#993=DIRECTION('',(1.,0.,0.));
#994=DIRECTION('',(0.,0.,1.));
#995=DIRECTION('',(1.,0.,0.));
#996=DIRECTION('',(0.,0.,1.));
#997=DIRECTION('',(1.,0.,0.));
#998=DIRECTION('',(0.,0.,1.));
#999=DIRECTION('',(1.,0.,0.));
#1000=DIRECTION('',(0.,0.,1.));
#1001=DIRECTION('',(1.,0.,0.));
#1002=DIRECTION('',(0.,0.,1.));
#1003=DIRECTION('',(1.,0.,0.));
#1004=DIRECTION('',(-1.,0.,0.));
#1005=DIRECTION('',(1.71754799601664E-16,-1.,0.));
#1006=DIRECTION('',(0.,0.,1.));
#1007=DIRECTION('',(1.,0.,0.));
#1008=DIRECTION('',(1.71754799601664E-16,-1.,0.));
#1009=DIRECTION('',(0.,-1.,0.));
#1010=DIRECTION('',(0.,0.,-1.));
#1011=DIRECTION('',(0.,0.,-1.));
#1012=DIRECTION('',(-1.,0.,0.));
#1013=DIRECTION('',(1.,1.71754799601664E-16,0.));
#1014=DIRECTION('',(-1.71754799601664E-16,1.,0.));
#1015=DIRECTION('',(0.,0.,-1.));
#1016=DIRECTION('',(0.,-1.,0.));
#1017=DIRECTION('',(0.,0.,1.));
#1018=DIRECTION('',(0.,-1.,0.));
#1019=DIRECTION('',(0.,0.,1.));
#1020=DIRECTION('',(0.,0.,1.));
#1021=DIRECTION('',(0.,-1.,0.));
#1022=DIRECTION('',(0.,0.,1.));
#1023=DIRECTION('',(0.,0.,1.));
#1024=DIRECTION('',(0.,-1.,0.));
#1025=DIRECTION('',(0.,0.,1.));
#1026=DIRECTION('',(0.,0.,1.));
#1027=DIRECTION('',(0.,-1.,0.));
#1028=DIRECTION('',(0.,0.,1.));
#1029=DIRECTION('',(0.,0.,1.));
#1030=DIRECTION('',(0.,-1.,0.));
#1031=DIRECTION('',(0.,0.,1.));
#1032=DIRECTION('',(0.,0.,1.));
#1033=DIRECTION('',(0.,-1.,0.));
#1034=DIRECTION('',(0.,0.,1.));
#1035=DIRECTION('',(0.,0.,1.));
#1036=DIRECTION('',(0.,-1.,0.));
#1037=DIRECTION('',(0.,0.,1.));
#1038=DIRECTION('',(0.,0.,1.));
#1039=DIRECTION('',(0.,-1.,0.));
#1040=DIRECTION('',(0.,0.,1.));
#1041=DIRECTION('',(0.,0.,1.));
#1042=DIRECTION('',(0.,-1.,0.));
#1043=DIRECTION('',(0.,0.,1.));
#1044=DIRECTION('',(0.,-1.,0.));
#1045=DIRECTION('',(0.,0.,-1.));
#1046=DIRECTION('',(-1.,0.,0.));
#1047=DIRECTION('',(0.,0.,1.));
#1048=DIRECTION('',(1.,0.,0.));
#1049=DIRECTION('',(0.,0.,1.));
#1050=DIRECTION('',(1.,0.,0.));
#1051=DIRECTION('',(0.,0.,1.));
#1052=DIRECTION('',(1.,0.,0.));
#1053=DIRECTION('',(0.,0.,1.));
#1054=DIRECTION('',(1.,0.,0.));
#1055=DIRECTION('',(0.,0.,1.));
#1056=DIRECTION('',(1.,0.,0.));
#1057=DIRECTION('',(0.,0.,1.));
#1058=DIRECTION('',(1.,0.,0.));
#1059=DIRECTION('',(0.,0.,1.));
#1060=DIRECTION('',(1.,0.,0.));
#1061=DIRECTION('',(0.,0.,1.));
#1062=DIRECTION('',(1.,0.,0.));
#1063=DIRECTION('',(0.,0.,1.));
#1064=DIRECTION('',(1.,0.,0.));
#1065=DIRECTION('',(0.,0.,1.));
#1066=DIRECTION('',(1.,0.,0.));
#1067=DIRECTION('',(0.,0.,1.));
#1068=DIRECTION('',(1.,0.,0.));
#1069=DIRECTION('',(0.,0.,1.));
#1070=DIRECTION('',(1.,0.,0.));
#1071=DIRECTION('',(0.,0.,1.));
#1072=DIRECTION('',(1.,0.,0.));
#1073=DIRECTION('',(0.,0.,1.));
#1074=DIRECTION('',(1.,0.,0.));
#1075=DIRECTION('',(0.,0.,1.));
#1076=DIRECTION('',(1.,0.,0.));
#1077=DIRECTION('',(0.,0.,1.));
#1078=DIRECTION('',(1.,0.,0.));
#1079=DIRECTION('',(0.,0.,1.));
#1080=DIRECTION('',(1.,0.,0.));
#1081=DIRECTION('',(0.,0.,1.));
#1082=DIRECTION('',(1.,0.,0.));
#1083=DIRECTION('',(0.,0.,1.));
#1084=DIRECTION('',(1.,0.,0.));
#1085=DIRECTION('',(0.,0.,-1.));
#1086=DIRECTION('',(1.,0.,0.));
#1087=DIRECTION('',(0.,0.,1.));
#1088=DIRECTION('',(1.,0.,0.));
#1089=DIRECTION('',(0.,0.,-1.));
#1090=DIRECTION('',(1.,0.,0.));
#1091=DIRECTION('',(0.,0.,1.));
#1092=DIRECTION('',(1.,0.,0.));
#1093=DIRECTION('',(0.,0.,-1.));
#1094=DIRECTION('',(1.,0.,0.));
#1095=DIRECTION('',(0.,0.,1.));
#1096=DIRECTION('',(1.,0.,0.));
#1097=DIRECTION('',(0.,0.,-1.));
#1098=DIRECTION('',(1.,0.,0.));
#1099=DIRECTION('',(0.,0.,1.));
#1100=DIRECTION('',(1.,0.,0.));
#1101=DIRECTION('',(0.,0.,-1.));
#1102=DIRECTION('',(1.,0.,0.));
#1103=DIRECTION('',(0.,0.,1.));
#1104=DIRECTION('',(1.,0.,0.));
#1105=DIRECTION('',(0.,0.,-1.));
#1106=DIRECTION('',(1.,0.,0.));
#1107=DIRECTION('',(0.,0.,1.));
#1108=DIRECTION('',(1.,0.,0.));
#1109=DIRECTION('',(0.,0.,-1.));
#1110=DIRECTION('',(1.,0.,0.));
#1111=DIRECTION('',(0.,0.,1.));
#1112=DIRECTION('',(1.,0.,0.));
#1113=DIRECTION('',(0.,0.,-1.));
#1114=DIRECTION('',(1.,0.,0.));
#1115=DIRECTION('',(0.,0.,1.));
#1116=DIRECTION('',(1.,0.,0.));
#1117=DIRECTION('',(0.,0.,-1.));
#1118=DIRECTION('',(1.,0.,0.));
#1119=DIRECTION('',(0.,0.,1.));
#1120=DIRECTION('',(1.,0.,0.));
#1121=DIRECTION('',(0.,0.,1.));
#1122=DIRECTION('',(1.,0.,0.));
#1123=DIRECTION('',(0.,0.,1.));
#1124=DIRECTION('',(1.,0.,0.));
#1125=DIRECTION('',(0.,0.,1.));
#1126=DIRECTION('',(1.,0.,0.));
#1127=DIRECTION('',(0.,0.,1.));
#1128=DIRECTION('',(1.,0.,0.));
#1129=DIRECTION('',(0.,0.,1.));
#1130=DIRECTION('',(1.,0.,0.));
#1131=DIRECTION('',(0.,0.,1.));
#1132=DIRECTION('',(1.,0.,0.));
#1133=DIRECTION('',(0.,0.,1.));
#1134=DIRECTION('',(1.,0.,0.));
#1135=DIRECTION('',(0.,0.,1.));
#1136=DIRECTION('',(1.,0.,0.));
#1137=DIRECTION('',(0.,0.,1.));
#1138=DIRECTION('',(1.,0.,0.));
#1139=DIRECTION('',(0.,0.,1.));
#1140=DIRECTION('',(1.,0.,0.));
#1141=DIRECTION('',(0.,0.,1.));
#1142=DIRECTION('',(1.,0.,0.));
#1143=DIRECTION('',(0.,0.,1.));
#1144=DIRECTION('',(1.,0.,0.));
#1145=DIRECTION('',(0.,0.,1.));
#1146=DIRECTION('',(1.,0.,0.));
#1147=DIRECTION('',(0.,0.,1.));
#1148=DIRECTION('',(1.,0.,0.));
#1149=DIRECTION('',(0.,0.,1.));
#1150=DIRECTION('',(1.,0.,0.));
#1151=DIRECTION('',(0.,0.,1.));
#1152=DIRECTION('',(1.,0.,0.));
#1153=DIRECTION('',(0.,0.,1.));
#1154=DIRECTION('',(1.,0.,0.));
#1155=DIRECTION('',(0.,0.,1.));
#1156=DIRECTION('',(1.,0.,0.));
#1157=CARTESIAN_POINT('',(0.,0.,0.));
#1158=CARTESIAN_POINT('',(0.00485,0.,0.00076));
#1159=CARTESIAN_POINT('',(0.00485,0.,0.));
#1160=CARTESIAN_POINT('',(0.00485,0.0031,0.));
#1161=CARTESIAN_POINT('',(0.00485,0.0024,0.));
#1162=CARTESIAN_POINT('',(0.00485,0.0031,-2.00000000000005E-6));
#1163=CARTESIAN_POINT('',(0.00485,0.0031,0.00076));
#1164=CARTESIAN_POINT('',(0.00485,0.,0.00076));
#1165=CARTESIAN_POINT('',(0.00485,0.0035,0.00076));
#1166=CARTESIAN_POINT('',(0.00485,0.0035,-2.00000000000005E-6));
#1167=CARTESIAN_POINT('',(0.00485,0.0035,0.));
#1168=CARTESIAN_POINT('',(0.00485,0.,0.));
#1169=CARTESIAN_POINT('',(0.00485,0.0042,0.));
#1170=CARTESIAN_POINT('',(0.00485,0.0042,-2.00000000000005E-6));
#1171=CARTESIAN_POINT('',(0.00485,0.0042,0.00076));
#1172=CARTESIAN_POINT('',(0.00485,0.,0.00076));
#1173=CARTESIAN_POINT('',(0.00485,0.0046,0.00076));
#1174=CARTESIAN_POINT('',(0.00485,0.0046,-2.00000000000005E-6));
#1175=CARTESIAN_POINT('',(0.00485,0.0046,0.));
#1176=CARTESIAN_POINT('',(0.00485,0.,0.));
#1177=CARTESIAN_POINT('',(0.00485,0.00505,0.));
#1178=CARTESIAN_POINT('',(0.00485,0.00505,0.00076));
#1179=CARTESIAN_POINT('',(0.00485,0.00505,0.00246));
#1180=CARTESIAN_POINT('',(0.00485,0.,0.00246));
#1181=CARTESIAN_POINT('',(0.00485,-0.00505,0.00246));
#1182=CARTESIAN_POINT('',(0.00485,-0.00505,0.00076));
#1183=CARTESIAN_POINT('',(0.00485,-0.00505,0.));
#1184=CARTESIAN_POINT('',(0.00485,0.,0.));
#1185=CARTESIAN_POINT('',(0.00485,-0.0046,0.));
#1186=CARTESIAN_POINT('',(0.00485,-0.0046,-2.00000000000005E-6));
#1187=CARTESIAN_POINT('',(0.00485,-0.0046,0.00076));
#1188=CARTESIAN_POINT('',(0.00485,0.,0.00076));
#1189=CARTESIAN_POINT('',(0.00485,-0.0042,0.00076));
#1190=CARTESIAN_POINT('',(0.00485,-0.0042,-2.00000000000005E-6));
#1191=CARTESIAN_POINT('',(0.00485,-0.0042,0.));
#1192=CARTESIAN_POINT('',(0.00485,0.,0.));
#1193=CARTESIAN_POINT('',(0.00485,-0.0035,0.));
#1194=CARTESIAN_POINT('',(0.00485,-0.0035,-2.00000000000005E-6));
#1195=CARTESIAN_POINT('',(0.00485,-0.0035,0.00076));
#1196=CARTESIAN_POINT('',(0.00485,0.,0.00076));
#1197=CARTESIAN_POINT('',(0.00485,-0.0031,0.00076));
#1198=CARTESIAN_POINT('',(0.00485,-0.0031,-2.00000000000005E-6));
#1199=CARTESIAN_POINT('',(0.00485,-0.0031,0.));
#1200=CARTESIAN_POINT('',(0.00485,0.,0.));
#1201=CARTESIAN_POINT('',(0.00485,-0.0024,0.));
#1202=CARTESIAN_POINT('',(0.00485,-0.0024,-2.00000000000005E-6));
#1203=CARTESIAN_POINT('',(0.00485,-0.0024,0.00076));
#1204=CARTESIAN_POINT('',(0.00485,0.,0.00076));
#1205=CARTESIAN_POINT('',(0.00485,-0.002,0.00076));
#1206=CARTESIAN_POINT('',(0.00485,-0.002,-2.00000000000005E-6));
#1207=CARTESIAN_POINT('',(0.00485,-0.002,0.));
#1208=CARTESIAN_POINT('',(0.00485,0.,0.));
#1209=CARTESIAN_POINT('',(0.00485,-0.0013,0.));
#1210=CARTESIAN_POINT('',(0.00485,-0.0013,-2.00000000000005E-6));
#1211=CARTESIAN_POINT('',(0.00485,-0.0013,0.00076));
#1212=CARTESIAN_POINT('',(0.00485,0.,0.00076));
#1213=CARTESIAN_POINT('',(0.00485,-0.0009,0.00076));
#1214=CARTESIAN_POINT('',(0.00485,-0.0009,-2.00000000000005E-6));
#1215=CARTESIAN_POINT('',(0.00485,-0.0009,0.));
#1216=CARTESIAN_POINT('',(0.00485,0.,0.));
#1217=CARTESIAN_POINT('',(0.00485,-0.0002,0.));
#1218=CARTESIAN_POINT('',(0.00485,-0.0002,-2.00000000000005E-6));
#1219=CARTESIAN_POINT('',(0.00485,-0.0002,0.00076));
#1220=CARTESIAN_POINT('',(0.00485,0.,0.00076));
#1221=CARTESIAN_POINT('',(0.00485,0.0002,0.00076));
#1222=CARTESIAN_POINT('',(0.00485,0.0002,-2.00000000000005E-6));
#1223=CARTESIAN_POINT('',(0.00485,0.0002,0.));
#1224=CARTESIAN_POINT('',(0.00485,0.,0.));
#1225=CARTESIAN_POINT('',(0.00485,0.0009,0.));
#1226=CARTESIAN_POINT('',(0.00485,0.0009,-2.00000000000005E-6));
#1227=CARTESIAN_POINT('',(0.00485,0.0009,0.00076));
#1228=CARTESIAN_POINT('',(0.00485,0.,0.00076));
#1229=CARTESIAN_POINT('',(0.00485,0.0013,0.00076));
#1230=CARTESIAN_POINT('',(0.00485,0.0013,-2.00000000000005E-6));
#1231=CARTESIAN_POINT('',(0.00485,0.0013,0.));
#1232=CARTESIAN_POINT('',(0.00485,0.,0.));
#1233=CARTESIAN_POINT('',(0.00485,0.002,0.));
#1234=CARTESIAN_POINT('',(0.00485,0.002,-2.00000000000005E-6));
#1235=CARTESIAN_POINT('',(0.00485,0.002,0.00076));
#1236=CARTESIAN_POINT('',(0.00485,0.,0.00076));
#1237=CARTESIAN_POINT('',(0.00485,0.0024,0.00076));
#1238=CARTESIAN_POINT('',(0.00485,0.0024,-2.00000000000005E-6));
#1239=CARTESIAN_POINT('',(-8.67361737988404E-19,0.,0.));
#1240=CARTESIAN_POINT('',(-0.00485,-0.0033,0.));
#1241=CARTESIAN_POINT('',(-0.00485,-0.0031,0.));
#1242=CARTESIAN_POINT('',(-0.00485,-0.0035,0.));
#1243=CARTESIAN_POINT('',(-0.00485,0.,0.));
#1244=CARTESIAN_POINT('',(-0.00485,-0.0024,0.));
#1245=CARTESIAN_POINT('',(-0.00485,-0.0022,0.));
#1246=CARTESIAN_POINT('',(-0.00485,-0.002,0.));
#1247=CARTESIAN_POINT('',(-0.00485,0.,0.));
#1248=CARTESIAN_POINT('',(-0.00485,-0.0013,0.));
#1249=CARTESIAN_POINT('',(-0.00485,-0.0011,0.));
#1250=CARTESIAN_POINT('',(-0.00485,-0.0009,0.));
#1251=CARTESIAN_POINT('',(-0.00485,0.,0.));
#1252=CARTESIAN_POINT('',(-0.00485,-0.0002,0.));
#1253=CARTESIAN_POINT('',(-0.00485,8.79608205979877E-19,0.));
#1254=CARTESIAN_POINT('',(-0.00485,0.0002,0.));
#1255=CARTESIAN_POINT('',(-0.00485,0.,0.));
#1256=CARTESIAN_POINT('',(-0.00485,0.0009,0.));
#1257=CARTESIAN_POINT('',(-0.00485,0.0011,0.));
#1258=CARTESIAN_POINT('',(-0.00485,0.0013,0.));
#1259=CARTESIAN_POINT('',(-0.00485,0.,0.));
#1260=CARTESIAN_POINT('',(-0.00485,0.002,0.));
#1261=CARTESIAN_POINT('',(-0.00485,0.0022,0.));
#1262=CARTESIAN_POINT('',(-0.00485,0.0024,0.));
#1263=CARTESIAN_POINT('',(-0.00485,0.,0.));
#1264=CARTESIAN_POINT('',(-0.00485,0.0031,0.));
#1265=CARTESIAN_POINT('',(-0.00485,0.0033,0.));
#1266=CARTESIAN_POINT('',(-0.00485,0.0035,0.));
#1267=CARTESIAN_POINT('',(-0.00485,0.,0.));
#1268=CARTESIAN_POINT('',(-0.00485,0.0042,0.));
#1269=CARTESIAN_POINT('',(-0.00485,0.0044,0.));
#1270=CARTESIAN_POINT('',(-0.00485,0.0046,0.));
#1271=CARTESIAN_POINT('',(-0.00485,0.,0.));
#1272=CARTESIAN_POINT('',(-0.00485,0.00505,0.));
#1273=CARTESIAN_POINT('',(-8.67361737988404E-19,0.00505,0.));
#1274=CARTESIAN_POINT('',(0.00485,0.0044,0.));
#1275=CARTESIAN_POINT('',(0.00485,0.0033,0.));
#1276=CARTESIAN_POINT('',(0.00485,0.0022,0.));
#1277=CARTESIAN_POINT('',(0.00485,0.0011,0.));
#1278=CARTESIAN_POINT('',(0.00485,8.79608205979877E-19,0.));
#1279=CARTESIAN_POINT('',(0.00485,-0.0011,0.));
#1280=CARTESIAN_POINT('',(0.00485,-0.0022,0.));
#1281=CARTESIAN_POINT('',(0.00485,-0.0033,0.));
#1282=CARTESIAN_POINT('',(0.00485,-0.0044,0.));
#1283=CARTESIAN_POINT('',(8.67361737988404E-19,-0.00505,0.));
#1284=CARTESIAN_POINT('',(-0.00485,-0.00505,0.));
#1285=CARTESIAN_POINT('',(-0.00485,0.,0.));
#1286=CARTESIAN_POINT('',(-0.00485,-0.0046,0.));
#1287=CARTESIAN_POINT('',(-0.00485,-0.0044,0.));
#1288=CARTESIAN_POINT('',(-0.00485,-0.0042,0.));
#1289=CARTESIAN_POINT('',(-0.00485,0.,0.));
#1290=CARTESIAN_POINT('',(-8.67361737988404E-19,0.00505,0.00076));
#1291=CARTESIAN_POINT('',(-0.00485,0.00505,0.00076));
#1292=CARTESIAN_POINT('',(-0.00485,0.00505,0.00246));
#1293=CARTESIAN_POINT('',(-8.67361737988404E-19,0.00505,0.00246));
#1294=CARTESIAN_POINT('',(-0.00485,0.,0.00076));
#1295=CARTESIAN_POINT('',(-0.00485,-0.00505,0.00076));
#1296=CARTESIAN_POINT('',(-0.00485,-0.00505,0.00246));
#1297=CARTESIAN_POINT('',(-0.00485,0.,0.00246));
#1298=CARTESIAN_POINT('',(-0.00485,0.0046,-2.00000000000005E-6));
#1299=CARTESIAN_POINT('',(-0.00485,0.0046,0.00076));
#1300=CARTESIAN_POINT('',(-0.00485,0.,0.00076));
#1301=CARTESIAN_POINT('',(-0.00485,0.0042,0.00076));
#1302=CARTESIAN_POINT('',(-0.00485,0.0042,-2.00000000000005E-6));
#1303=CARTESIAN_POINT('',(-0.00485,0.0035,-2.00000000000005E-6));
#1304=CARTESIAN_POINT('',(-0.00485,0.0035,0.00076));
#1305=CARTESIAN_POINT('',(-0.00485,0.,0.00076));
#1306=CARTESIAN_POINT('',(-0.00485,0.0031,0.00076));
#1307=CARTESIAN_POINT('',(-0.00485,0.0031,-2.00000000000005E-6));
#1308=CARTESIAN_POINT('',(-0.00485,0.0024,-2.00000000000005E-6));
#1309=CARTESIAN_POINT('',(-0.00485,0.0024,0.00076));
#1310=CARTESIAN_POINT('',(-0.00485,0.,0.00076));
#1311=CARTESIAN_POINT('',(-0.00485,0.002,0.00076));
#1312=CARTESIAN_POINT('',(-0.00485,0.002,-2.00000000000005E-6));
#1313=CARTESIAN_POINT('',(-0.00485,0.0013,-2.00000000000005E-6));
#1314=CARTESIAN_POINT('',(-0.00485,0.0013,0.00076));
#1315=CARTESIAN_POINT('',(-0.00485,0.,0.00076));
#1316=CARTESIAN_POINT('',(-0.00485,0.0009,0.00076));
#1317=CARTESIAN_POINT('',(-0.00485,0.0009,-2.00000000000005E-6));
#1318=CARTESIAN_POINT('',(-0.00485,0.0002,-2.00000000000005E-6));
#1319=CARTESIAN_POINT('',(-0.00485,0.0002,0.00076));
#1320=CARTESIAN_POINT('',(-0.00485,0.,0.00076));
#1321=CARTESIAN_POINT('',(-0.00485,-0.0002,0.00076));
#1322=CARTESIAN_POINT('',(-0.00485,-0.0002,-2.00000000000005E-6));
#1323=CARTESIAN_POINT('',(-0.00485,-0.0009,-2.00000000000005E-6));
#1324=CARTESIAN_POINT('',(-0.00485,-0.0009,0.00076));
#1325=CARTESIAN_POINT('',(-0.00485,0.,0.00076));
#1326=CARTESIAN_POINT('',(-0.00485,-0.0013,0.00076));
#1327=CARTESIAN_POINT('',(-0.00485,-0.0013,-2.00000000000005E-6));
#1328=CARTESIAN_POINT('',(-0.00485,-0.002,-2.00000000000005E-6));
#1329=CARTESIAN_POINT('',(-0.00485,-0.002,0.00076));
#1330=CARTESIAN_POINT('',(-0.00485,0.,0.00076));
#1331=CARTESIAN_POINT('',(-0.00485,-0.0024,0.00076));
#1332=CARTESIAN_POINT('',(-0.00485,-0.0024,-2.00000000000005E-6));
#1333=CARTESIAN_POINT('',(-0.00485,-0.0031,-2.00000000000005E-6));
#1334=CARTESIAN_POINT('',(-0.00485,-0.0031,0.00076));
#1335=CARTESIAN_POINT('',(-0.00485,0.,0.00076));
#1336=CARTESIAN_POINT('',(-0.00485,-0.0035,0.00076));
#1337=CARTESIAN_POINT('',(-0.00485,-0.0035,-2.00000000000005E-6));
#1338=CARTESIAN_POINT('',(-0.00485,-0.0042,-2.00000000000005E-6));
#1339=CARTESIAN_POINT('',(-0.00485,-0.0042,0.00076));
#1340=CARTESIAN_POINT('',(-0.00485,0.,0.00076));
#1341=CARTESIAN_POINT('',(-0.00485,-0.0046,0.00076));
#1342=CARTESIAN_POINT('',(-0.00485,-0.0046,-2.00000000000005E-6));
#1343=CARTESIAN_POINT('',(8.67361737988404E-19,-0.00505,0.00076));
#1344=CARTESIAN_POINT('',(8.67361737988404E-19,-0.00505,0.00246));
#1345=CARTESIAN_POINT('',(-0.00485,-0.0044,-2.00000000000005E-6));
#1346=CARTESIAN_POINT('',(-0.00485,-0.0044,0.00076));
#1347=CARTESIAN_POINT('',(-0.00485,0.0044,-2.00000000000005E-6));
#1348=CARTESIAN_POINT('',(-0.00485,0.0044,0.00076));
#1349=CARTESIAN_POINT('',(-0.00485,0.0033,-2.00000000000005E-6));
#1350=CARTESIAN_POINT('',(-0.00485,0.0033,0.00076));
#1351=CARTESIAN_POINT('',(-0.00485,0.0022,-2.00000000000005E-6));
#1352=CARTESIAN_POINT('',(-0.00485,0.0022,0.00076));
#1353=CARTESIAN_POINT('',(-0.00485,0.0011,-2.00000000000005E-6));
#1354=CARTESIAN_POINT('',(-0.00485,0.0011,0.00076));
#1355=CARTESIAN_POINT('',(-0.00485,8.79608205979877E-19,-2.00000000000005E-6));
#1356=CARTESIAN_POINT('',(-0.00485,8.79608205979877E-19,0.00076));
#1357=CARTESIAN_POINT('',(-0.00485,-0.0011,-2.00000000000005E-6));
#1358=CARTESIAN_POINT('',(-0.00485,-0.0011,0.00076));
#1359=CARTESIAN_POINT('',(-0.00485,-0.0022,-2.00000000000005E-6));
#1360=CARTESIAN_POINT('',(-0.00485,-0.0022,0.00076));
#1361=CARTESIAN_POINT('',(-0.00485,-0.0033,-2.00000000000005E-6));
#1362=CARTESIAN_POINT('',(-0.00485,-0.0033,0.00076));
#1363=CARTESIAN_POINT('',(0.00485,-0.0022,-2.00000000000005E-6));
#1364=CARTESIAN_POINT('',(0.00485,-0.0022,0.00076));
#1365=CARTESIAN_POINT('',(0.00485,0.0022,-2.00000000000005E-6));
#1366=CARTESIAN_POINT('',(0.00485,0.0022,0.00076));
#1367=CARTESIAN_POINT('',(0.00485,0.0033,-2.00000000000005E-6));
#1368=CARTESIAN_POINT('',(0.00485,0.0033,0.00076));
#1369=CARTESIAN_POINT('',(0.00485,0.0044,-2.00000000000005E-6));
#1370=CARTESIAN_POINT('',(0.00485,0.0044,0.00076));
#1371=CARTESIAN_POINT('',(0.00485,-0.0044,-2.00000000000005E-6));
#1372=CARTESIAN_POINT('',(0.00485,-0.0044,0.00076));
#1373=CARTESIAN_POINT('',(0.00485,8.79608205979877E-19,-2.00000000000005E-6));
#1374=CARTESIAN_POINT('',(0.00485,8.79608205979877E-19,0.00076));
#1375=CARTESIAN_POINT('',(0.00485,-0.0033,-2.00000000000005E-6));
#1376=CARTESIAN_POINT('',(0.00485,-0.0033,0.00076));
#1377=CARTESIAN_POINT('',(0.00485,0.0011,-2.00000000000005E-6));
#1378=CARTESIAN_POINT('',(0.00485,0.0011,0.00076));
#1379=CARTESIAN_POINT('',(0.00485,-0.0011,-2.00000000000005E-6));
#1380=CARTESIAN_POINT('',(0.00485,-0.0011,0.00076));
#1381=CARTESIAN_POINT('',(0.,0.,0.00076));
#1382=CARTESIAN_POINT('',(0.,0.,0.00076));
#1383=CARTESIAN_POINT('',(0.,0.,0.00076));
#1384=CARTESIAN_POINT('',(0.,0.,0.00076));
#1385=CARTESIAN_POINT('',(0.,0.,0.00076));
#1386=CARTESIAN_POINT('',(0.,0.,0.00076));
#1387=CARTESIAN_POINT('',(0.,0.,0.00076));
#1388=CARTESIAN_POINT('',(0.,0.,0.00076));
#1389=CARTESIAN_POINT('',(0.,0.,0.00076));
#1390=CARTESIAN_POINT('',(0.,0.,0.00076));
#1391=CARTESIAN_POINT('',(0.,0.,0.00076));
#1392=CARTESIAN_POINT('',(0.,0.,0.00076));
#1393=CARTESIAN_POINT('',(0.,0.,0.00076));
#1394=CARTESIAN_POINT('',(0.,0.,0.00076));
#1395=CARTESIAN_POINT('',(0.,0.,0.00076));
#1396=CARTESIAN_POINT('',(0.,0.,0.00076));
#1397=CARTESIAN_POINT('',(0.,0.,0.00076));
#1398=CARTESIAN_POINT('',(0.,0.,0.00246));
#1399=CARTESIAN_POINT('',(0.,0.,0.00076));
#1400=MECHANICAL_DESIGN_GEOMETRIC_PRESENTATION_REPRESENTATION('',(#825),
#1401);
#1401=(
GEOMETRIC_REPRESENTATION_CONTEXT(3)
GLOBAL_UNCERTAINTY_ASSIGNED_CONTEXT((#1402))
GLOBAL_UNIT_ASSIGNED_CONTEXT((#1405,#1404,#1403))
REPRESENTATION_CONTEXT('Part 3','TOP_LEVEL_ASSEMBLY_PART')
);
#1402=UNCERTAINTY_MEASURE_WITH_UNIT(LENGTH_MEASURE(1.E-8),#1405,
'DISTANCE_ACCURACY_VALUE','Maximum Tolerance applied to model');
#1403=(
NAMED_UNIT(*)
SI_UNIT($,.STERADIAN.)
SOLID_ANGLE_UNIT()
);
#1404=(
NAMED_UNIT(*)
PLANE_ANGLE_UNIT()
SI_UNIT($,.RADIAN.)
);
#1405=(
LENGTH_UNIT()
NAMED_UNIT(*)
SI_UNIT($,.METRE.)
);
#1406=PRODUCT_DEFINITION_SHAPE('','',#1407);
#1407=PRODUCT_DEFINITION('','',#1409,#1408);
#1408=PRODUCT_DEFINITION_CONTEXT('',#1415,'design');
#1409=PRODUCT_DEFINITION_FORMATION_WITH_SPECIFIED_SOURCE('','',#1411,
 .NOT_KNOWN.);
#1410=PRODUCT_RELATED_PRODUCT_CATEGORY('','',(#1411));
#1411=PRODUCT('Part 3','Part 3','Part 3',(#1413));
#1412=PRODUCT_CATEGORY('','');
#1413=PRODUCT_CONTEXT('',#1415,'mechanical');
#1414=APPLICATION_PROTOCOL_DEFINITION('international standard',
'ap242_managed_model_based_3d_engineering',2020,#1415);
#1415=APPLICATION_CONTEXT('managed model based 3d engineering');
ENDSEC;
END-ISO-10303-21;
