ISO-10303-21;
HEADER;
/* Generated by software containing ST-Developer
 * from STEP Tools, Inc. (www.steptools.com) 
 */
/* OPTION: using custom renumber hook */

FILE_DESCRIPTION(
/* description */ ('STEP AP242 Edition 2',
'CAx-IF Rec.Pracs.---Representation and Presentation of Product Manufa
cturing Information (PMI)---4.0---2014-10-13',
'CAx-IF Rec.Pracs.---3D Tessellated Geometry---0.4---2014-09-14','2;1',
'CAx-IF Rec.Pracs.---User Defined Attributes---1.5---2016-08-15'),
/* implementation_level */ '2;1');

FILE_NAME(
/* name */ 'Part Studio 1 - Part 1',
/* time_stamp */ '2026-07-06T21:54:50Z',
/* author */ (''),
/* organization */ (''),
/* preprocessor_version */ 'ST-DEVELOPER v20',
/* originating_system */ 'ONSHAPE BY PTC INC, 1.217',
/* authorisation */ '  ');

FILE_SCHEMA (('AP242_MANAGED_MODEL_BASED_3D_ENGINEERING_MIM_LF { 1 0 10303 442 3 1 4 }'));
ENDSEC;

DATA;
#10=SHAPE_REPRESENTATION_RELATIONSHIP('','',#364,#11);
#11=ADVANCED_BREP_SHAPE_REPRESENTATION('',(#362),#600);
#12=LINE('',#507,#47);
#13=LINE('',#510,#48);
#14=LINE('',#512,#49);
#15=LINE('',#514,#50);
#16=LINE('',#516,#51);
#17=LINE('',#518,#52);
#18=LINE('',#520,#53);
#19=LINE('',#522,#54);
#20=LINE('',#524,#55);
#21=LINE('',#526,#56);
#22=LINE('',#528,#57);
#23=LINE('',#529,#58);
#24=LINE('',#531,#59);
#25=LINE('',#536,#60);
#26=LINE('',#540,#61);
#27=LINE('',#544,#62);
#28=LINE('',#548,#63);
#29=LINE('',#552,#64);
#30=LINE('',#555,#65);
#31=LINE('',#557,#66);
#32=LINE('',#559,#67);
#33=LINE('',#561,#68);
#34=LINE('',#564,#69);
#35=LINE('',#565,#70);
#36=LINE('',#567,#71);
#37=LINE('',#570,#72);
#38=LINE('',#571,#73);
#39=LINE('',#573,#74);
#40=LINE('',#576,#75);
#41=LINE('',#577,#76);
#42=LINE('',#579,#77);
#43=LINE('',#581,#78);
#44=LINE('',#583,#79);
#45=LINE('',#585,#80);
#46=LINE('',#587,#81);
#47=VECTOR('',#410,1.);
#48=VECTOR('',#411,1.);
#49=VECTOR('',#412,1.);
#50=VECTOR('',#413,1.);
#51=VECTOR('',#416,1.);
#52=VECTOR('',#417,1.);
#53=VECTOR('',#418,1.);
#54=VECTOR('',#421,1.);
#55=VECTOR('',#422,1.);
#56=VECTOR('',#423,1.);
#57=VECTOR('',#426,1.);
#58=VECTOR('',#427,1.);
#59=VECTOR('',#430,1.);
#60=VECTOR('',#433,1.);
#61=VECTOR('',#436,1.);
#62=VECTOR('',#439,1.);
#63=VECTOR('',#442,1.);
#64=VECTOR('',#445,1.);
#65=VECTOR('',#450,1.);
#66=VECTOR('',#451,1.);
#67=VECTOR('',#452,1.);
#68=VECTOR('',#455,1.);
#69=VECTOR('',#456,1.);
#70=VECTOR('',#457,1.);
#71=VECTOR('',#460,1.);
#72=VECTOR('',#461,1.);
#73=VECTOR('',#462,1.);
#74=VECTOR('',#465,1.);
#75=VECTOR('',#466,1.);
#76=VECTOR('',#467,1.);
#77=VECTOR('',#470,1.);
#78=VECTOR('',#471,1.);
#79=VECTOR('',#472,1.);
#80=VECTOR('',#475,1.);
#81=VECTOR('',#476,1.);
#82=PLANE('',#369);
#83=PLANE('',#370);
#84=PLANE('',#371);
#85=PLANE('',#372);
#86=PLANE('',#373);
#87=PLANE('',#374);
#88=PLANE('',#380);
#89=PLANE('',#381);
#90=PLANE('',#382);
#91=PLANE('',#383);
#92=PLANE('',#384);
#93=PLANE('',#385);
#94=PLANE('',#386);
#95=PLANE('',#387);
#96=ORIENTED_EDGE('',*,*,#190,.F.);
#97=ORIENTED_EDGE('',*,*,#191,.T.);
#98=ORIENTED_EDGE('',*,*,#190,.T.);
#99=ORIENTED_EDGE('',*,*,#192,.F.);
#100=ORIENTED_EDGE('',*,*,#193,.F.);
#101=ORIENTED_EDGE('',*,*,#194,.T.);
#102=ORIENTED_EDGE('',*,*,#195,.T.);
#103=ORIENTED_EDGE('',*,*,#196,.T.);
#104=ORIENTED_EDGE('',*,*,#197,.F.);
#105=ORIENTED_EDGE('',*,*,#198,.F.);
#106=ORIENTED_EDGE('',*,*,#193,.T.);
#107=ORIENTED_EDGE('',*,*,#199,.T.);
#108=ORIENTED_EDGE('',*,*,#200,.F.);
#109=ORIENTED_EDGE('',*,*,#201,.F.);
#110=ORIENTED_EDGE('',*,*,#197,.T.);
#111=ORIENTED_EDGE('',*,*,#202,.F.);
#112=ORIENTED_EDGE('',*,*,#195,.F.);
#113=ORIENTED_EDGE('',*,*,#203,.T.);
#114=ORIENTED_EDGE('',*,*,#200,.T.);
#115=ORIENTED_EDGE('',*,*,#191,.F.);
#116=ORIENTED_EDGE('',*,*,#204,.F.);
#117=ORIENTED_EDGE('',*,*,#205,.T.);
#118=ORIENTED_EDGE('',*,*,#206,.F.);
#119=ORIENTED_EDGE('',*,*,#207,.T.);
#120=ORIENTED_EDGE('',*,*,#208,.T.);
#121=ORIENTED_EDGE('',*,*,#209,.T.);
#122=ORIENTED_EDGE('',*,*,#210,.T.);
#123=ORIENTED_EDGE('',*,*,#211,.T.);
#124=ORIENTED_EDGE('',*,*,#212,.F.);
#125=ORIENTED_EDGE('',*,*,#213,.T.);
#126=ORIENTED_EDGE('',*,*,#214,.F.);
#127=ORIENTED_EDGE('',*,*,#194,.F.);
#128=ORIENTED_EDGE('',*,*,#198,.T.);
#129=ORIENTED_EDGE('',*,*,#201,.T.);
#130=ORIENTED_EDGE('',*,*,#203,.F.);
#131=ORIENTED_EDGE('',*,*,#192,.T.);
#132=ORIENTED_EDGE('',*,*,#202,.T.);
#133=ORIENTED_EDGE('',*,*,#199,.F.);
#134=ORIENTED_EDGE('',*,*,#196,.F.);
#135=ORIENTED_EDGE('',*,*,#214,.T.);
#136=ORIENTED_EDGE('',*,*,#215,.T.);
#137=ORIENTED_EDGE('',*,*,#216,.F.);
#138=ORIENTED_EDGE('',*,*,#217,.T.);
#139=ORIENTED_EDGE('',*,*,#218,.F.);
#140=ORIENTED_EDGE('',*,*,#219,.T.);
#141=ORIENTED_EDGE('',*,*,#212,.T.);
#142=ORIENTED_EDGE('',*,*,#220,.T.);
#143=ORIENTED_EDGE('',*,*,#221,.T.);
#144=ORIENTED_EDGE('',*,*,#222,.T.);
#145=ORIENTED_EDGE('',*,*,#210,.F.);
#146=ORIENTED_EDGE('',*,*,#223,.T.);
#147=ORIENTED_EDGE('',*,*,#224,.T.);
#148=ORIENTED_EDGE('',*,*,#225,.T.);
#149=ORIENTED_EDGE('',*,*,#208,.F.);
#150=ORIENTED_EDGE('',*,*,#226,.T.);
#151=ORIENTED_EDGE('',*,*,#206,.T.);
#152=ORIENTED_EDGE('',*,*,#227,.T.);
#153=ORIENTED_EDGE('',*,*,#228,.F.);
#154=ORIENTED_EDGE('',*,*,#229,.T.);
#155=ORIENTED_EDGE('',*,*,#230,.F.);
#156=ORIENTED_EDGE('',*,*,#231,.T.);
#157=ORIENTED_EDGE('',*,*,#204,.T.);
#158=ORIENTED_EDGE('',*,*,#217,.F.);
#159=ORIENTED_EDGE('',*,*,#228,.T.);
#160=ORIENTED_EDGE('',*,*,#232,.T.);
#161=ORIENTED_EDGE('',*,*,#230,.T.);
#162=ORIENTED_EDGE('',*,*,#216,.T.);
#163=ORIENTED_EDGE('',*,*,#233,.T.);
#164=ORIENTED_EDGE('',*,*,#218,.T.);
#165=ORIENTED_EDGE('',*,*,#234,.T.);
#166=ORIENTED_EDGE('',*,*,#221,.F.);
#167=ORIENTED_EDGE('',*,*,#235,.T.);
#168=ORIENTED_EDGE('',*,*,#224,.F.);
#169=ORIENTED_EDGE('',*,*,#236,.T.);
#170=ORIENTED_EDGE('',*,*,#232,.F.);
#171=ORIENTED_EDGE('',*,*,#227,.F.);
#172=ORIENTED_EDGE('',*,*,#205,.F.);
#173=ORIENTED_EDGE('',*,*,#231,.F.);
#174=ORIENTED_EDGE('',*,*,#233,.F.);
#175=ORIENTED_EDGE('',*,*,#215,.F.);
#176=ORIENTED_EDGE('',*,*,#213,.F.);
#177=ORIENTED_EDGE('',*,*,#219,.F.);
#178=ORIENTED_EDGE('',*,*,#234,.F.);
#179=ORIENTED_EDGE('',*,*,#220,.F.);
#180=ORIENTED_EDGE('',*,*,#211,.F.);
#181=ORIENTED_EDGE('',*,*,#222,.F.);
#182=ORIENTED_EDGE('',*,*,#235,.F.);
#183=ORIENTED_EDGE('',*,*,#223,.F.);
#184=ORIENTED_EDGE('',*,*,#209,.F.);
#185=ORIENTED_EDGE('',*,*,#225,.F.);
#186=ORIENTED_EDGE('',*,*,#236,.F.);
#187=ORIENTED_EDGE('',*,*,#226,.F.);
#188=ORIENTED_EDGE('',*,*,#207,.F.);
#189=ORIENTED_EDGE('',*,*,#229,.F.);
#190=EDGE_CURVE('',#237,#237,#269,.T.);
#191=EDGE_CURVE('',#238,#238,#270,.T.);
#192=EDGE_CURVE('',#239,#240,#12,.T.);
#193=EDGE_CURVE('',#241,#239,#13,.T.);
#194=EDGE_CURVE('',#241,#242,#14,.T.);
#195=EDGE_CURVE('',#242,#240,#15,.T.);
#196=EDGE_CURVE('',#239,#243,#16,.T.);
#197=EDGE_CURVE('',#244,#243,#17,.T.);
#198=EDGE_CURVE('',#241,#244,#18,.T.);
#199=EDGE_CURVE('',#243,#245,#19,.T.);
#200=EDGE_CURVE('',#246,#245,#20,.T.);
#201=EDGE_CURVE('',#244,#246,#21,.T.);
#202=EDGE_CURVE('',#240,#245,#22,.T.);
#203=EDGE_CURVE('',#242,#246,#23,.T.);
#204=EDGE_CURVE('',#247,#248,#24,.T.);
#205=EDGE_CURVE('',#247,#249,#271,.F.);
#206=EDGE_CURVE('',#250,#249,#25,.T.);
#207=EDGE_CURVE('',#250,#251,#272,.F.);
#208=EDGE_CURVE('',#251,#252,#26,.T.);
#209=EDGE_CURVE('',#252,#253,#273,.F.);
#210=EDGE_CURVE('',#253,#254,#27,.T.);
#211=EDGE_CURVE('',#254,#255,#274,.F.);
#212=EDGE_CURVE('',#256,#255,#28,.T.);
#213=EDGE_CURVE('',#256,#257,#275,.F.);
#214=EDGE_CURVE('',#248,#257,#29,.T.);
#215=EDGE_CURVE('',#257,#258,#30,.F.);
#216=EDGE_CURVE('',#259,#258,#31,.T.);
#217=EDGE_CURVE('',#259,#248,#32,.T.);
#218=EDGE_CURVE('',#260,#261,#33,.T.);
#219=EDGE_CURVE('',#260,#256,#34,.T.);
#220=EDGE_CURVE('',#255,#261,#35,.F.);
#221=EDGE_CURVE('',#262,#263,#36,.T.);
#222=EDGE_CURVE('',#263,#254,#37,.T.);
#223=EDGE_CURVE('',#253,#262,#38,.F.);
#224=EDGE_CURVE('',#264,#265,#39,.T.);
#225=EDGE_CURVE('',#265,#252,#40,.T.);
#226=EDGE_CURVE('',#251,#264,#41,.F.);
#227=EDGE_CURVE('',#249,#266,#42,.F.);
#228=EDGE_CURVE('',#267,#266,#43,.T.);
#229=EDGE_CURVE('',#267,#250,#44,.T.);
#230=EDGE_CURVE('',#268,#259,#45,.T.);
#231=EDGE_CURVE('',#268,#247,#46,.T.);
#232=EDGE_CURVE('',#266,#268,#276,.T.);
#233=EDGE_CURVE('',#258,#260,#277,.T.);
#234=EDGE_CURVE('',#261,#263,#278,.T.);
#235=EDGE_CURVE('',#262,#265,#279,.T.);
#236=EDGE_CURVE('',#264,#267,#280,.T.);
#237=VERTEX_POINT('',#502);
#238=VERTEX_POINT('',#504);
#239=VERTEX_POINT('',#508);
#240=VERTEX_POINT('',#509);
#241=VERTEX_POINT('',#511);
#242=VERTEX_POINT('',#513);
#243=VERTEX_POINT('',#517);
#244=VERTEX_POINT('',#519);
#245=VERTEX_POINT('',#523);
#246=VERTEX_POINT('',#525);
#247=VERTEX_POINT('',#532);
#248=VERTEX_POINT('',#533);
#249=VERTEX_POINT('',#535);
#250=VERTEX_POINT('',#537);
#251=VERTEX_POINT('',#539);
#252=VERTEX_POINT('',#541);
#253=VERTEX_POINT('',#543);
#254=VERTEX_POINT('',#545);
#255=VERTEX_POINT('',#547);
#256=VERTEX_POINT('',#549);
#257=VERTEX_POINT('',#551);
#258=VERTEX_POINT('',#556);
#259=VERTEX_POINT('',#558);
#260=VERTEX_POINT('',#562);
#261=VERTEX_POINT('',#563);
#262=VERTEX_POINT('',#568);
#263=VERTEX_POINT('',#569);
#264=VERTEX_POINT('',#574);
#265=VERTEX_POINT('',#575);
#266=VERTEX_POINT('',#580);
#267=VERTEX_POINT('',#582);
#268=VERTEX_POINT('',#586);
#269=CIRCLE('',#367,0.001);
#270=CIRCLE('',#368,0.001);
#271=CIRCLE('',#375,0.0005);
#272=CIRCLE('',#376,0.0005);
#273=CIRCLE('',#377,0.0005);
#274=CIRCLE('',#378,0.0005);
#275=CIRCLE('',#379,0.0005);
#276=CIRCLE('',#388,0.0005);
#277=CIRCLE('',#389,0.0005);
#278=CIRCLE('',#390,0.0005);
#279=CIRCLE('',#391,0.0005);
#280=CIRCLE('',#392,0.0005);
#281=EDGE_LOOP('',(#96));
#282=EDGE_LOOP('',(#97));
#283=EDGE_LOOP('',(#98));
#284=EDGE_LOOP('',(#99,#100,#101,#102));
#285=EDGE_LOOP('',(#103,#104,#105,#106));
#286=EDGE_LOOP('',(#107,#108,#109,#110));
#287=EDGE_LOOP('',(#111,#112,#113,#114));
#288=EDGE_LOOP('',(#115));
#289=EDGE_LOOP('',(#116,#117,#118,#119,#120,#121,#122,#123,#124,#125,#126));
#290=EDGE_LOOP('',(#127,#128,#129,#130));
#291=EDGE_LOOP('',(#131,#132,#133,#134));
#292=EDGE_LOOP('',(#135,#136,#137,#138));
#293=EDGE_LOOP('',(#139,#140,#141,#142));
#294=EDGE_LOOP('',(#143,#144,#145,#146));
#295=EDGE_LOOP('',(#147,#148,#149,#150));
#296=EDGE_LOOP('',(#151,#152,#153,#154));
#297=EDGE_LOOP('',(#155,#156,#157,#158));
#298=EDGE_LOOP('',(#159,#160,#161,#162,#163,#164,#165,#166,#167,#168,#169));
#299=EDGE_LOOP('',(#170,#171,#172,#173));
#300=EDGE_LOOP('',(#174,#175,#176,#177));
#301=EDGE_LOOP('',(#178,#179,#180,#181));
#302=EDGE_LOOP('',(#182,#183,#184,#185));
#303=EDGE_LOOP('',(#186,#187,#188,#189));
#304=FACE_BOUND('',#281,.T.);
#305=FACE_BOUND('',#282,.T.);
#306=FACE_BOUND('',#283,.T.);
#307=FACE_BOUND('',#284,.T.);
#308=FACE_BOUND('',#285,.T.);
#309=FACE_BOUND('',#286,.T.);
#310=FACE_BOUND('',#287,.T.);
#311=FACE_BOUND('',#288,.T.);
#312=FACE_BOUND('',#289,.T.);
#313=FACE_BOUND('',#290,.T.);
#314=FACE_BOUND('',#291,.T.);
#315=FACE_BOUND('',#292,.T.);
#316=FACE_BOUND('',#293,.T.);
#317=FACE_BOUND('',#294,.T.);
#318=FACE_BOUND('',#295,.T.);
#319=FACE_BOUND('',#296,.T.);
#320=FACE_BOUND('',#297,.T.);
#321=FACE_BOUND('',#298,.T.);
#322=FACE_BOUND('',#299,.T.);
#323=FACE_BOUND('',#300,.T.);
#324=FACE_BOUND('',#301,.T.);
#325=FACE_BOUND('',#302,.T.);
#326=FACE_BOUND('',#303,.T.);
#327=CYLINDRICAL_SURFACE('',#366,0.001);
#328=CYLINDRICAL_SURFACE('',#393,0.0005);
#329=CYLINDRICAL_SURFACE('',#394,0.0005);
#330=CYLINDRICAL_SURFACE('',#395,0.0005);
#331=CYLINDRICAL_SURFACE('',#396,0.0005);
#332=CYLINDRICAL_SURFACE('',#397,0.0005);
#333=ADVANCED_FACE('',(#304,#305),#327,.T.);
#334=ADVANCED_FACE('',(#306),#82,.T.);
#335=ADVANCED_FACE('',(#307),#83,.T.);
#336=ADVANCED_FACE('',(#308),#84,.F.);
#337=ADVANCED_FACE('',(#309),#85,.F.);
#338=ADVANCED_FACE('',(#310),#86,.T.);
#339=ADVANCED_FACE('',(#311,#312,#313),#87,.T.);
#340=ADVANCED_FACE('',(#314),#88,.F.);
#341=ADVANCED_FACE('',(#315),#89,.F.);
#342=ADVANCED_FACE('',(#316),#90,.F.);
#343=ADVANCED_FACE('',(#317),#91,.T.);
#344=ADVANCED_FACE('',(#318),#92,.T.);
#345=ADVANCED_FACE('',(#319),#93,.F.);
#346=ADVANCED_FACE('',(#320),#94,.F.);
#347=ADVANCED_FACE('',(#321),#95,.T.);
#348=ADVANCED_FACE('',(#322),#328,.T.);
#349=ADVANCED_FACE('',(#323),#329,.T.);
#350=ADVANCED_FACE('',(#324),#330,.T.);
#351=ADVANCED_FACE('',(#325),#331,.T.);
#352=ADVANCED_FACE('',(#326),#332,.T.);
#353=CLOSED_SHELL('',(#333,#334,#335,#336,#337,#338,#339,#340,#341,#342,
#343,#344,#345,#346,#347,#348,#349,#350,#351,#352));
#354=STYLED_ITEM('',(#355),#362);
#355=PRESENTATION_STYLE_ASSIGNMENT((#356));
#356=SURFACE_STYLE_USAGE(.BOTH.,#357);
#357=SURFACE_SIDE_STYLE('',(#358));
#358=SURFACE_STYLE_FILL_AREA(#359);
#359=FILL_AREA_STYLE('',(#360));
#360=FILL_AREA_STYLE_COLOUR('',#361);
#361=COLOUR_RGB('',0.647058823529412,0.647058823529412,0.647058823529412);
#362=MANIFOLD_SOLID_BREP('Part 1',#353);
#363=SHAPE_DEFINITION_REPRESENTATION(#605,#364);
#364=SHAPE_REPRESENTATION('Part 1',(#365),#600);
#365=AXIS2_PLACEMENT_3D('',#499,#398,#399);
#366=AXIS2_PLACEMENT_3D('',#500,#400,#401);
#367=AXIS2_PLACEMENT_3D('',#501,#402,#403);
#368=AXIS2_PLACEMENT_3D('',#503,#404,#405);
#369=AXIS2_PLACEMENT_3D('',#505,#406,#407);
#370=AXIS2_PLACEMENT_3D('',#506,#408,#409);
#371=AXIS2_PLACEMENT_3D('',#515,#414,#415);
#372=AXIS2_PLACEMENT_3D('',#521,#419,#420);
#373=AXIS2_PLACEMENT_3D('',#527,#424,#425);
#374=AXIS2_PLACEMENT_3D('',#530,#428,#429);
#375=AXIS2_PLACEMENT_3D('',#534,#431,#432);
#376=AXIS2_PLACEMENT_3D('',#538,#434,#435);
#377=AXIS2_PLACEMENT_3D('',#542,#437,#438);
#378=AXIS2_PLACEMENT_3D('',#546,#440,#441);
#379=AXIS2_PLACEMENT_3D('',#550,#443,#444);
#380=AXIS2_PLACEMENT_3D('',#553,#446,#447);
#381=AXIS2_PLACEMENT_3D('',#554,#448,#449);
#382=AXIS2_PLACEMENT_3D('',#560,#453,#454);
#383=AXIS2_PLACEMENT_3D('',#566,#458,#459);
#384=AXIS2_PLACEMENT_3D('',#572,#463,#464);
#385=AXIS2_PLACEMENT_3D('',#578,#468,#469);
#386=AXIS2_PLACEMENT_3D('',#584,#473,#474);
#387=AXIS2_PLACEMENT_3D('',#588,#477,#478);
#388=AXIS2_PLACEMENT_3D('',#589,#479,#480);
#389=AXIS2_PLACEMENT_3D('',#590,#481,#482);
#390=AXIS2_PLACEMENT_3D('',#591,#483,#484);
#391=AXIS2_PLACEMENT_3D('',#592,#485,#486);
#392=AXIS2_PLACEMENT_3D('',#593,#487,#488);
#393=AXIS2_PLACEMENT_3D('',#594,#489,#490);
#394=AXIS2_PLACEMENT_3D('',#595,#491,#492);
#395=AXIS2_PLACEMENT_3D('',#596,#493,#494);
#396=AXIS2_PLACEMENT_3D('',#597,#495,#496);
#397=AXIS2_PLACEMENT_3D('',#598,#497,#498);
#398=DIRECTION('',(0.,0.,1.));
#399=DIRECTION('',(1.,0.,0.));
#400=DIRECTION('',(0.,0.,-1.));
#401=DIRECTION('',(-1.,0.,0.));
#402=DIRECTION('',(0.,0.,1.));
#403=DIRECTION('',(1.,0.,0.));
#404=DIRECTION('',(0.,0.,1.));
#405=DIRECTION('',(1.,0.,0.));
#406=DIRECTION('',(0.,0.,1.));
#407=DIRECTION('',(1.,0.,0.));
#408=DIRECTION('',(1.,-6.93889390390723E-17,0.));
#409=DIRECTION('',(6.93889390390723E-17,1.,0.));
#410=DIRECTION('',(-6.93889390390723E-17,-1.,0.));
#411=DIRECTION('',(0.,0.,-1.));
#412=DIRECTION('',(-6.93889390390723E-17,-1.,0.));
#413=DIRECTION('',(0.,0.,-1.));
#414=DIRECTION('',(0.,-1.,0.));
#415=DIRECTION('',(0.,0.,-1.));
#416=DIRECTION('',(-1.,0.,0.));
#417=DIRECTION('',(0.,0.,-1.));
#418=DIRECTION('',(-1.,0.,0.));
#419=DIRECTION('',(1.,-6.93889390390723E-17,0.));
#420=DIRECTION('',(6.93889390390723E-17,1.,0.));
#421=DIRECTION('',(-6.93889390390723E-17,-1.,0.));
#422=DIRECTION('',(0.,0.,-1.));
#423=DIRECTION('',(-6.93889390390723E-17,-1.,0.));
#424=DIRECTION('',(0.,-1.,0.));
#425=DIRECTION('',(0.,0.,-1.));
#426=DIRECTION('',(-1.,0.,0.));
#427=DIRECTION('',(-1.,0.,0.));
#428=DIRECTION('',(0.,0.,1.));
#429=DIRECTION('',(1.,0.,0.));
#430=DIRECTION('',(0.,-1.,0.));
#431=DIRECTION('',(0.,0.,1.));
#432=DIRECTION('',(1.,0.,0.));
#433=DIRECTION('',(-1.,0.,0.));
#434=DIRECTION('',(0.,0.,1.));
#435=DIRECTION('',(1.,0.,0.));
#436=DIRECTION('',(0.,-1.,0.));
#437=DIRECTION('',(0.,0.,1.));
#438=DIRECTION('',(1.,0.,0.));
#439=DIRECTION('',(-1.,0.,0.));
#440=DIRECTION('',(0.,0.,1.));
#441=DIRECTION('',(1.,0.,0.));
#442=DIRECTION('',(0.,-1.,0.));
#443=DIRECTION('',(0.,0.,1.));
#444=DIRECTION('',(1.,0.,0.));
#445=DIRECTION('',(-1.,0.,0.));
#446=DIRECTION('',(0.,0.,1.));
#447=DIRECTION('',(1.,0.,0.));
#448=DIRECTION('',(0.,-1.,0.));
#449=DIRECTION('',(0.,0.,-1.));
#450=DIRECTION('',(0.,0.,-1.));
#451=DIRECTION('',(-1.,0.,0.));
#452=DIRECTION('',(0.,0.,-1.));
#453=DIRECTION('',(1.,0.,0.));
#454=DIRECTION('',(0.,0.,-1.));
#455=DIRECTION('',(0.,-1.,0.));
#456=DIRECTION('',(0.,0.,-1.));
#457=DIRECTION('',(0.,0.,-1.));
#458=DIRECTION('',(0.,-1.,0.));
#459=DIRECTION('',(0.,0.,-1.));
#460=DIRECTION('',(-1.,0.,0.));
#461=DIRECTION('',(0.,0.,-1.));
#462=DIRECTION('',(0.,0.,-1.));
#463=DIRECTION('',(1.,0.,0.));
#464=DIRECTION('',(0.,0.,-1.));
#465=DIRECTION('',(0.,-1.,0.));
#466=DIRECTION('',(0.,0.,-1.));
#467=DIRECTION('',(0.,0.,-1.));
#468=DIRECTION('',(0.,-1.,0.));
#469=DIRECTION('',(0.,0.,-1.));
#470=DIRECTION('',(0.,0.,-1.));
#471=DIRECTION('',(-1.,0.,0.));
#472=DIRECTION('',(0.,0.,-1.));
#473=DIRECTION('',(1.,0.,0.));
#474=DIRECTION('',(0.,0.,-1.));
#475=DIRECTION('',(0.,-1.,0.));
#476=DIRECTION('',(0.,0.,-1.));
#477=DIRECTION('',(0.,0.,1.));
#478=DIRECTION('',(1.,0.,0.));
#479=DIRECTION('',(0.,0.,1.));
#480=DIRECTION('',(1.,0.,0.));
#481=DIRECTION('',(0.,0.,1.));
#482=DIRECTION('',(1.,0.,0.));
#483=DIRECTION('',(0.,0.,1.));
#484=DIRECTION('',(1.,0.,0.));
#485=DIRECTION('',(0.,0.,1.));
#486=DIRECTION('',(1.,0.,0.));
#487=DIRECTION('',(0.,0.,1.));
#488=DIRECTION('',(1.,0.,0.));
#489=DIRECTION('',(0.,0.,-1.));
#490=DIRECTION('',(-1.,0.,0.));
#491=DIRECTION('',(0.,0.,-1.));
#492=DIRECTION('',(-1.,0.,0.));
#493=DIRECTION('',(0.,0.,1.));
#494=DIRECTION('',(1.,0.,0.));
#495=DIRECTION('',(0.,0.,-1.));
#496=DIRECTION('',(-1.,0.,0.));
#497=DIRECTION('',(0.,0.,1.));
#498=DIRECTION('',(1.,0.,0.));
#499=CARTESIAN_POINT('',(0.,0.,0.));
#500=CARTESIAN_POINT('',(-0.0049,0.0047,0.00165));
#501=CARTESIAN_POINT('',(-0.0049,0.0047,0.00165));
#502=CARTESIAN_POINT('',(-0.0039,0.0047,0.00165));
#503=CARTESIAN_POINT('',(-0.0049,0.0047,0.0008));
#504=CARTESIAN_POINT('',(-0.0039,0.0047,0.0008));
#505=CARTESIAN_POINT('',(0.,0.,0.00165));
#506=CARTESIAN_POINT('',(0.0066,0.,0.0008));
#507=CARTESIAN_POINT('',(0.0066,0.,0.));
#508=CARTESIAN_POINT('',(0.0066,0.00625,0.));
#509=CARTESIAN_POINT('',(0.0066,-0.00625,0.));
#510=CARTESIAN_POINT('',(0.0066,0.00625,0.0008));
#511=CARTESIAN_POINT('',(0.0066,0.00625,0.0008));
#512=CARTESIAN_POINT('',(0.0066,0.,0.0008));
#513=CARTESIAN_POINT('',(0.0066,-0.00625,0.0008));
#514=CARTESIAN_POINT('',(0.0066,-0.00625,0.0008));
#515=CARTESIAN_POINT('',(0.,0.00625,0.0008));
#516=CARTESIAN_POINT('',(0.,0.00625,0.));
#517=CARTESIAN_POINT('',(-0.0066,0.00625,0.));
#518=CARTESIAN_POINT('',(-0.0066,0.00625,0.0008));
#519=CARTESIAN_POINT('',(-0.0066,0.00625,0.0008));
#520=CARTESIAN_POINT('',(0.,0.00625,0.0008));
#521=CARTESIAN_POINT('',(-0.0066,0.,0.0008));
#522=CARTESIAN_POINT('',(-0.0066,0.,0.));
#523=CARTESIAN_POINT('',(-0.0066,-0.00625,0.));
#524=CARTESIAN_POINT('',(-0.0066,-0.00625,0.0008));
#525=CARTESIAN_POINT('',(-0.0066,-0.00625,0.0008));
#526=CARTESIAN_POINT('',(-0.0066,0.,0.0008));
#527=CARTESIAN_POINT('',(-8.67361737988404E-19,-0.00625,0.0008));
#528=CARTESIAN_POINT('',(-8.67361737988404E-19,-0.00625,0.));
#529=CARTESIAN_POINT('',(-8.67361737988404E-19,-0.00625,0.0008));
#530=CARTESIAN_POINT('',(0.,0.,0.0008));
#531=CARTESIAN_POINT('',(-0.003015,0.00435,0.0008));
#532=CARTESIAN_POINT('',(-0.003015,0.005275,0.0008));
#533=CARTESIAN_POINT('',(-0.003015,0.002925,0.0008));
#534=CARTESIAN_POINT('',(-0.002515,0.005275,0.0008));
#535=CARTESIAN_POINT('',(-0.002515,0.005775,0.0008));
#536=CARTESIAN_POINT('',(0.001555,0.005775,0.0008));
#537=CARTESIAN_POINT('',(0.005625,0.005775,0.0008));
#538=CARTESIAN_POINT('',(0.005625,0.005275,0.0008));
#539=CARTESIAN_POINT('',(0.006125,0.005275,0.0008));
#540=CARTESIAN_POINT('',(0.006125,0.,0.0008));
#541=CARTESIAN_POINT('',(0.006125,-0.005275,0.0008));
#542=CARTESIAN_POINT('',(0.005625,-0.005275,0.0008));
#543=CARTESIAN_POINT('',(0.005625,-0.005775,0.0008));
#544=CARTESIAN_POINT('',(0.,-0.005775,0.0008));
#545=CARTESIAN_POINT('',(-0.005625,-0.005775,0.0008));
#546=CARTESIAN_POINT('',(-0.005625,-0.005275,0.0008));
#547=CARTESIAN_POINT('',(-0.006125,-0.005275,0.0008));
#548=CARTESIAN_POINT('',(-0.006125,-0.001425,0.0008));
#549=CARTESIAN_POINT('',(-0.006125,0.002425,0.0008));
#550=CARTESIAN_POINT('',(-0.005625,0.002425,0.0008));
#551=CARTESIAN_POINT('',(-0.005625,0.002925,0.0008));
#552=CARTESIAN_POINT('',(-0.00457,0.002925,0.0008));
#553=CARTESIAN_POINT('',(0.,0.,0.));
#554=CARTESIAN_POINT('',(-0.00457,0.002925,0.0024));
#555=CARTESIAN_POINT('',(-0.005625,0.002925,0.0024));
#556=CARTESIAN_POINT('',(-0.005625,0.002925,0.0024));
#557=CARTESIAN_POINT('',(-0.00457,0.002925,0.0024));
#558=CARTESIAN_POINT('',(-0.003015,0.002925,0.0024));
#559=CARTESIAN_POINT('',(-0.003015,0.002925,0.0024));
#560=CARTESIAN_POINT('',(-0.006125,-0.001425,0.0024));
#561=CARTESIAN_POINT('',(-0.006125,-0.001425,0.0024));
#562=CARTESIAN_POINT('',(-0.006125,0.002425,0.0024));
#563=CARTESIAN_POINT('',(-0.006125,-0.005275,0.0024));
#564=CARTESIAN_POINT('',(-0.006125,0.002425,0.0024));
#565=CARTESIAN_POINT('',(-0.006125,-0.005275,0.0024));
#566=CARTESIAN_POINT('',(0.,-0.005775,0.0024));
#567=CARTESIAN_POINT('',(0.,-0.005775,0.0024));
#568=CARTESIAN_POINT('',(0.005625,-0.005775,0.0024));
#569=CARTESIAN_POINT('',(-0.005625,-0.005775,0.0024));
#570=CARTESIAN_POINT('',(-0.005625,-0.005775,0.0008));
#571=CARTESIAN_POINT('',(0.005625,-0.005775,0.0024));
#572=CARTESIAN_POINT('',(0.006125,0.,0.0024));
#573=CARTESIAN_POINT('',(0.006125,0.,0.0024));
#574=CARTESIAN_POINT('',(0.006125,0.005275,0.0024));
#575=CARTESIAN_POINT('',(0.006125,-0.005275,0.0024));
#576=CARTESIAN_POINT('',(0.006125,-0.005275,0.0024));
#577=CARTESIAN_POINT('',(0.006125,0.005275,0.0024));
#578=CARTESIAN_POINT('',(0.001555,0.005775,0.0024));
#579=CARTESIAN_POINT('',(-0.002515,0.005775,0.0024));
#580=CARTESIAN_POINT('',(-0.002515,0.005775,0.0024));
#581=CARTESIAN_POINT('',(0.001555,0.005775,0.0024));
#582=CARTESIAN_POINT('',(0.005625,0.005775,0.0024));
#583=CARTESIAN_POINT('',(0.005625,0.005775,0.0008));
#584=CARTESIAN_POINT('',(-0.003015,0.00435,0.0024));
#585=CARTESIAN_POINT('',(-0.003015,0.00435,0.0024));
#586=CARTESIAN_POINT('',(-0.003015,0.005275,0.0024));
#587=CARTESIAN_POINT('',(-0.003015,0.005275,0.0024));
#588=CARTESIAN_POINT('',(0.,0.,0.0024));
#589=CARTESIAN_POINT('',(-0.002515,0.005275,0.0024));
#590=CARTESIAN_POINT('',(-0.005625,0.002425,0.0024));
#591=CARTESIAN_POINT('',(-0.005625,-0.005275,0.0024));
#592=CARTESIAN_POINT('',(0.005625,-0.005275,0.0024));
#593=CARTESIAN_POINT('',(0.005625,0.005275,0.0024));
#594=CARTESIAN_POINT('',(-0.002515,0.005275,0.0024));
#595=CARTESIAN_POINT('',(-0.005625,0.002425,0.0024));
#596=CARTESIAN_POINT('',(-0.005625,-0.005275,0.0024));
#597=CARTESIAN_POINT('',(0.005625,-0.005275,0.0024));
#598=CARTESIAN_POINT('',(0.005625,0.005275,0.0024));
#599=MECHANICAL_DESIGN_GEOMETRIC_PRESENTATION_REPRESENTATION('',(#354),
#600);
#600=(
GEOMETRIC_REPRESENTATION_CONTEXT(3)
GLOBAL_UNCERTAINTY_ASSIGNED_CONTEXT((#601))
GLOBAL_UNIT_ASSIGNED_CONTEXT((#604,#603,#602))
REPRESENTATION_CONTEXT('Part 1','TOP_LEVEL_ASSEMBLY_PART')
);
#601=UNCERTAINTY_MEASURE_WITH_UNIT(LENGTH_MEASURE(1.E-8),#604,
'DISTANCE_ACCURACY_VALUE','Maximum Tolerance applied to model');
#602=(
NAMED_UNIT(*)
SI_UNIT($,.STERADIAN.)
SOLID_ANGLE_UNIT()
);
#603=(
NAMED_UNIT(*)
PLANE_ANGLE_UNIT()
SI_UNIT($,.RADIAN.)
);
#604=(
LENGTH_UNIT()
NAMED_UNIT(*)
SI_UNIT($,.METRE.)
);
#605=PRODUCT_DEFINITION_SHAPE('','',#606);
#606=PRODUCT_DEFINITION('','',#608,#607);
#607=PRODUCT_DEFINITION_CONTEXT('',#614,'design');
#608=PRODUCT_DEFINITION_FORMATION_WITH_SPECIFIED_SOURCE('','',#610,
 .NOT_KNOWN.);
#609=PRODUCT_RELATED_PRODUCT_CATEGORY('','',(#610));
#610=PRODUCT('Part 1','Part 1','Part 1',(#612));
#611=PRODUCT_CATEGORY('','');
#612=PRODUCT_CONTEXT('',#614,'mechanical');
#613=APPLICATION_PROTOCOL_DEFINITION('international standard',
'ap242_managed_model_based_3d_engineering',2020,#614);
#614=APPLICATION_CONTEXT('managed model based 3d engineering');
ENDSEC;
END-ISO-10303-21;
