%TF.GenerationSoftware,KiCad,Pcbnew,10.0.1*%
%TF.CreationDate,2026-07-04T03:36:26-07:00*%
%TF.ProjectId,buck-converter-real,6275636b-2d63-46f6-9e76-65727465722d,rev?*%
%TF.SameCoordinates,Original*%
%TF.FileFunction,Legend,Bot*%
%TF.FilePolarity,Positive*%
%FSLAX46Y46*%
G04 Gerber Fmt 4.6, Leading zero omitted, Abs format (unit mm)*
G04 Created by KiCad (PCBNEW 10.0.1) date 2026-07-04 03:36:26*
%MOMM*%
%LPD*%
G01*
G04 APERTURE LIST*
%ADD10C,0.070000*%
%ADD11C,0.300000*%
G04 APERTURE END LIST*
D10*
X129153193Y-79235169D02*
X128986527Y-79735169D01*
X128986527Y-79735169D02*
X128819860Y-79235169D01*
X128653194Y-79235169D02*
X128653194Y-79639931D01*
X128653194Y-79639931D02*
X128629384Y-79687550D01*
X128629384Y-79687550D02*
X128605575Y-79711360D01*
X128605575Y-79711360D02*
X128557956Y-79735169D01*
X128557956Y-79735169D02*
X128462718Y-79735169D01*
X128462718Y-79735169D02*
X128415099Y-79711360D01*
X128415099Y-79711360D02*
X128391289Y-79687550D01*
X128391289Y-79687550D02*
X128367480Y-79639931D01*
X128367480Y-79639931D02*
X128367480Y-79235169D01*
X128153193Y-79711360D02*
X128081765Y-79735169D01*
X128081765Y-79735169D02*
X127962717Y-79735169D01*
X127962717Y-79735169D02*
X127915098Y-79711360D01*
X127915098Y-79711360D02*
X127891289Y-79687550D01*
X127891289Y-79687550D02*
X127867479Y-79639931D01*
X127867479Y-79639931D02*
X127867479Y-79592312D01*
X127867479Y-79592312D02*
X127891289Y-79544693D01*
X127891289Y-79544693D02*
X127915098Y-79520883D01*
X127915098Y-79520883D02*
X127962717Y-79497074D01*
X127962717Y-79497074D02*
X128057955Y-79473264D01*
X128057955Y-79473264D02*
X128105574Y-79449455D01*
X128105574Y-79449455D02*
X128129384Y-79425645D01*
X128129384Y-79425645D02*
X128153193Y-79378026D01*
X128153193Y-79378026D02*
X128153193Y-79330407D01*
X128153193Y-79330407D02*
X128129384Y-79282788D01*
X128129384Y-79282788D02*
X128105574Y-79258979D01*
X128105574Y-79258979D02*
X128057955Y-79235169D01*
X128057955Y-79235169D02*
X127938908Y-79235169D01*
X127938908Y-79235169D02*
X127867479Y-79258979D01*
X127486527Y-79473264D02*
X127415099Y-79497074D01*
X127415099Y-79497074D02*
X127391289Y-79520883D01*
X127391289Y-79520883D02*
X127367480Y-79568502D01*
X127367480Y-79568502D02*
X127367480Y-79639931D01*
X127367480Y-79639931D02*
X127391289Y-79687550D01*
X127391289Y-79687550D02*
X127415099Y-79711360D01*
X127415099Y-79711360D02*
X127462718Y-79735169D01*
X127462718Y-79735169D02*
X127653194Y-79735169D01*
X127653194Y-79735169D02*
X127653194Y-79235169D01*
X127653194Y-79235169D02*
X127486527Y-79235169D01*
X127486527Y-79235169D02*
X127438908Y-79258979D01*
X127438908Y-79258979D02*
X127415099Y-79282788D01*
X127415099Y-79282788D02*
X127391289Y-79330407D01*
X127391289Y-79330407D02*
X127391289Y-79378026D01*
X127391289Y-79378026D02*
X127415099Y-79425645D01*
X127415099Y-79425645D02*
X127438908Y-79449455D01*
X127438908Y-79449455D02*
X127486527Y-79473264D01*
X127486527Y-79473264D02*
X127653194Y-79473264D01*
X128617479Y-81808979D02*
X128665098Y-81785169D01*
X128665098Y-81785169D02*
X128736527Y-81785169D01*
X128736527Y-81785169D02*
X128807955Y-81808979D01*
X128807955Y-81808979D02*
X128855574Y-81856598D01*
X128855574Y-81856598D02*
X128879384Y-81904217D01*
X128879384Y-81904217D02*
X128903193Y-81999455D01*
X128903193Y-81999455D02*
X128903193Y-82070883D01*
X128903193Y-82070883D02*
X128879384Y-82166121D01*
X128879384Y-82166121D02*
X128855574Y-82213740D01*
X128855574Y-82213740D02*
X128807955Y-82261360D01*
X128807955Y-82261360D02*
X128736527Y-82285169D01*
X128736527Y-82285169D02*
X128688908Y-82285169D01*
X128688908Y-82285169D02*
X128617479Y-82261360D01*
X128617479Y-82261360D02*
X128593670Y-82237550D01*
X128593670Y-82237550D02*
X128593670Y-82070883D01*
X128593670Y-82070883D02*
X128688908Y-82070883D01*
X128379384Y-82285169D02*
X128379384Y-81785169D01*
X128379384Y-81785169D02*
X128093670Y-82285169D01*
X128093670Y-82285169D02*
X128093670Y-81785169D01*
X127855574Y-82285169D02*
X127855574Y-81785169D01*
X127855574Y-81785169D02*
X127736526Y-81785169D01*
X127736526Y-81785169D02*
X127665098Y-81808979D01*
X127665098Y-81808979D02*
X127617479Y-81856598D01*
X127617479Y-81856598D02*
X127593669Y-81904217D01*
X127593669Y-81904217D02*
X127569860Y-81999455D01*
X127569860Y-81999455D02*
X127569860Y-82070883D01*
X127569860Y-82070883D02*
X127593669Y-82166121D01*
X127593669Y-82166121D02*
X127617479Y-82213740D01*
X127617479Y-82213740D02*
X127665098Y-82261360D01*
X127665098Y-82261360D02*
X127736526Y-82285169D01*
X127736526Y-82285169D02*
X127855574Y-82285169D01*
X128855574Y-84335169D02*
X128546050Y-84335169D01*
X128546050Y-84335169D02*
X128712717Y-84525645D01*
X128712717Y-84525645D02*
X128641288Y-84525645D01*
X128641288Y-84525645D02*
X128593669Y-84549455D01*
X128593669Y-84549455D02*
X128569860Y-84573264D01*
X128569860Y-84573264D02*
X128546050Y-84620883D01*
X128546050Y-84620883D02*
X128546050Y-84739931D01*
X128546050Y-84739931D02*
X128569860Y-84787550D01*
X128569860Y-84787550D02*
X128593669Y-84811360D01*
X128593669Y-84811360D02*
X128641288Y-84835169D01*
X128641288Y-84835169D02*
X128784145Y-84835169D01*
X128784145Y-84835169D02*
X128831764Y-84811360D01*
X128831764Y-84811360D02*
X128855574Y-84787550D01*
X128403193Y-84335169D02*
X128236527Y-84835169D01*
X128236527Y-84835169D02*
X128069860Y-84335169D01*
X127950813Y-84335169D02*
X127641289Y-84335169D01*
X127641289Y-84335169D02*
X127807956Y-84525645D01*
X127807956Y-84525645D02*
X127736527Y-84525645D01*
X127736527Y-84525645D02*
X127688908Y-84549455D01*
X127688908Y-84549455D02*
X127665099Y-84573264D01*
X127665099Y-84573264D02*
X127641289Y-84620883D01*
X127641289Y-84620883D02*
X127641289Y-84739931D01*
X127641289Y-84739931D02*
X127665099Y-84787550D01*
X127665099Y-84787550D02*
X127688908Y-84811360D01*
X127688908Y-84811360D02*
X127736527Y-84835169D01*
X127736527Y-84835169D02*
X127879384Y-84835169D01*
X127879384Y-84835169D02*
X127927003Y-84811360D01*
X127927003Y-84811360D02*
X127950813Y-84787550D01*
X128355574Y-87242312D02*
X128117479Y-87242312D01*
X128403193Y-87385169D02*
X128236527Y-86885169D01*
X128236527Y-86885169D02*
X128069860Y-87385169D01*
X127807956Y-86885169D02*
X127760337Y-86885169D01*
X127760337Y-86885169D02*
X127712718Y-86908979D01*
X127712718Y-86908979D02*
X127688908Y-86932788D01*
X127688908Y-86932788D02*
X127665099Y-86980407D01*
X127665099Y-86980407D02*
X127641289Y-87075645D01*
X127641289Y-87075645D02*
X127641289Y-87194693D01*
X127641289Y-87194693D02*
X127665099Y-87289931D01*
X127665099Y-87289931D02*
X127688908Y-87337550D01*
X127688908Y-87337550D02*
X127712718Y-87361360D01*
X127712718Y-87361360D02*
X127760337Y-87385169D01*
X127760337Y-87385169D02*
X127807956Y-87385169D01*
X127807956Y-87385169D02*
X127855575Y-87361360D01*
X127855575Y-87361360D02*
X127879384Y-87337550D01*
X127879384Y-87337550D02*
X127903194Y-87289931D01*
X127903194Y-87289931D02*
X127927003Y-87194693D01*
X127927003Y-87194693D02*
X127927003Y-87075645D01*
X127927003Y-87075645D02*
X127903194Y-86980407D01*
X127903194Y-86980407D02*
X127879384Y-86932788D01*
X127879384Y-86932788D02*
X127855575Y-86908979D01*
X127855575Y-86908979D02*
X127807956Y-86885169D01*
X128355574Y-89742312D02*
X128117479Y-89742312D01*
X128403193Y-89885169D02*
X128236527Y-89385169D01*
X128236527Y-89385169D02*
X128069860Y-89885169D01*
X127641289Y-89885169D02*
X127927003Y-89885169D01*
X127784146Y-89885169D02*
X127784146Y-89385169D01*
X127784146Y-89385169D02*
X127831765Y-89456598D01*
X127831765Y-89456598D02*
X127879384Y-89504217D01*
X127879384Y-89504217D02*
X127927003Y-89528026D01*
X128355574Y-92342312D02*
X128117479Y-92342312D01*
X128403193Y-92485169D02*
X128236527Y-91985169D01*
X128236527Y-91985169D02*
X128069860Y-92485169D01*
X127927003Y-92032788D02*
X127903194Y-92008979D01*
X127903194Y-92008979D02*
X127855575Y-91985169D01*
X127855575Y-91985169D02*
X127736527Y-91985169D01*
X127736527Y-91985169D02*
X127688908Y-92008979D01*
X127688908Y-92008979D02*
X127665099Y-92032788D01*
X127665099Y-92032788D02*
X127641289Y-92080407D01*
X127641289Y-92080407D02*
X127641289Y-92128026D01*
X127641289Y-92128026D02*
X127665099Y-92199455D01*
X127665099Y-92199455D02*
X127950813Y-92485169D01*
X127950813Y-92485169D02*
X127641289Y-92485169D01*
X128355574Y-94842312D02*
X128117479Y-94842312D01*
X128403193Y-94985169D02*
X128236527Y-94485169D01*
X128236527Y-94485169D02*
X128069860Y-94985169D01*
X127950813Y-94485169D02*
X127641289Y-94485169D01*
X127641289Y-94485169D02*
X127807956Y-94675645D01*
X127807956Y-94675645D02*
X127736527Y-94675645D01*
X127736527Y-94675645D02*
X127688908Y-94699455D01*
X127688908Y-94699455D02*
X127665099Y-94723264D01*
X127665099Y-94723264D02*
X127641289Y-94770883D01*
X127641289Y-94770883D02*
X127641289Y-94889931D01*
X127641289Y-94889931D02*
X127665099Y-94937550D01*
X127665099Y-94937550D02*
X127688908Y-94961360D01*
X127688908Y-94961360D02*
X127736527Y-94985169D01*
X127736527Y-94985169D02*
X127879384Y-94985169D01*
X127879384Y-94985169D02*
X127927003Y-94961360D01*
X127927003Y-94961360D02*
X127950813Y-94937550D01*
X128355574Y-97442312D02*
X128117479Y-97442312D01*
X128403193Y-97585169D02*
X128236527Y-97085169D01*
X128236527Y-97085169D02*
X128069860Y-97585169D01*
X127688908Y-97251836D02*
X127688908Y-97585169D01*
X127807956Y-97061360D02*
X127927003Y-97418502D01*
X127927003Y-97418502D02*
X127617480Y-97418502D01*
X128355574Y-99942312D02*
X128117479Y-99942312D01*
X128403193Y-100085169D02*
X128236527Y-99585169D01*
X128236527Y-99585169D02*
X128069860Y-100085169D01*
X127665099Y-99585169D02*
X127903194Y-99585169D01*
X127903194Y-99585169D02*
X127927003Y-99823264D01*
X127927003Y-99823264D02*
X127903194Y-99799455D01*
X127903194Y-99799455D02*
X127855575Y-99775645D01*
X127855575Y-99775645D02*
X127736527Y-99775645D01*
X127736527Y-99775645D02*
X127688908Y-99799455D01*
X127688908Y-99799455D02*
X127665099Y-99823264D01*
X127665099Y-99823264D02*
X127641289Y-99870883D01*
X127641289Y-99870883D02*
X127641289Y-99989931D01*
X127641289Y-99989931D02*
X127665099Y-100037550D01*
X127665099Y-100037550D02*
X127688908Y-100061360D01*
X127688908Y-100061360D02*
X127736527Y-100085169D01*
X127736527Y-100085169D02*
X127855575Y-100085169D01*
X127855575Y-100085169D02*
X127903194Y-100061360D01*
X127903194Y-100061360D02*
X127927003Y-100037550D01*
X128355574Y-102442312D02*
X128117479Y-102442312D01*
X128403193Y-102585169D02*
X128236527Y-102085169D01*
X128236527Y-102085169D02*
X128069860Y-102585169D01*
X127688908Y-102085169D02*
X127784146Y-102085169D01*
X127784146Y-102085169D02*
X127831765Y-102108979D01*
X127831765Y-102108979D02*
X127855575Y-102132788D01*
X127855575Y-102132788D02*
X127903194Y-102204217D01*
X127903194Y-102204217D02*
X127927003Y-102299455D01*
X127927003Y-102299455D02*
X127927003Y-102489931D01*
X127927003Y-102489931D02*
X127903194Y-102537550D01*
X127903194Y-102537550D02*
X127879384Y-102561360D01*
X127879384Y-102561360D02*
X127831765Y-102585169D01*
X127831765Y-102585169D02*
X127736527Y-102585169D01*
X127736527Y-102585169D02*
X127688908Y-102561360D01*
X127688908Y-102561360D02*
X127665099Y-102537550D01*
X127665099Y-102537550D02*
X127641289Y-102489931D01*
X127641289Y-102489931D02*
X127641289Y-102370883D01*
X127641289Y-102370883D02*
X127665099Y-102323264D01*
X127665099Y-102323264D02*
X127688908Y-102299455D01*
X127688908Y-102299455D02*
X127736527Y-102275645D01*
X127736527Y-102275645D02*
X127831765Y-102275645D01*
X127831765Y-102275645D02*
X127879384Y-102299455D01*
X127879384Y-102299455D02*
X127903194Y-102323264D01*
X127903194Y-102323264D02*
X127927003Y-102370883D01*
X128355574Y-105042312D02*
X128117479Y-105042312D01*
X128403193Y-105185169D02*
X128236527Y-104685169D01*
X128236527Y-104685169D02*
X128069860Y-105185169D01*
X127950813Y-104685169D02*
X127617480Y-104685169D01*
X127617480Y-104685169D02*
X127831765Y-105185169D01*
X128355574Y-107542312D02*
X128117479Y-107542312D01*
X128403193Y-107685169D02*
X128236527Y-107185169D01*
X128236527Y-107185169D02*
X128069860Y-107685169D01*
X127831765Y-107399455D02*
X127879384Y-107375645D01*
X127879384Y-107375645D02*
X127903194Y-107351836D01*
X127903194Y-107351836D02*
X127927003Y-107304217D01*
X127927003Y-107304217D02*
X127927003Y-107280407D01*
X127927003Y-107280407D02*
X127903194Y-107232788D01*
X127903194Y-107232788D02*
X127879384Y-107208979D01*
X127879384Y-107208979D02*
X127831765Y-107185169D01*
X127831765Y-107185169D02*
X127736527Y-107185169D01*
X127736527Y-107185169D02*
X127688908Y-107208979D01*
X127688908Y-107208979D02*
X127665099Y-107232788D01*
X127665099Y-107232788D02*
X127641289Y-107280407D01*
X127641289Y-107280407D02*
X127641289Y-107304217D01*
X127641289Y-107304217D02*
X127665099Y-107351836D01*
X127665099Y-107351836D02*
X127688908Y-107375645D01*
X127688908Y-107375645D02*
X127736527Y-107399455D01*
X127736527Y-107399455D02*
X127831765Y-107399455D01*
X127831765Y-107399455D02*
X127879384Y-107423264D01*
X127879384Y-107423264D02*
X127903194Y-107447074D01*
X127903194Y-107447074D02*
X127927003Y-107494693D01*
X127927003Y-107494693D02*
X127927003Y-107589931D01*
X127927003Y-107589931D02*
X127903194Y-107637550D01*
X127903194Y-107637550D02*
X127879384Y-107661360D01*
X127879384Y-107661360D02*
X127831765Y-107685169D01*
X127831765Y-107685169D02*
X127736527Y-107685169D01*
X127736527Y-107685169D02*
X127688908Y-107661360D01*
X127688908Y-107661360D02*
X127665099Y-107637550D01*
X127665099Y-107637550D02*
X127641289Y-107589931D01*
X127641289Y-107589931D02*
X127641289Y-107494693D01*
X127641289Y-107494693D02*
X127665099Y-107447074D01*
X127665099Y-107447074D02*
X127688908Y-107423264D01*
X127688908Y-107423264D02*
X127736527Y-107399455D01*
X128831764Y-110092312D02*
X128593669Y-110092312D01*
X128879383Y-110235169D02*
X128712717Y-109735169D01*
X128712717Y-109735169D02*
X128546050Y-110235169D01*
X128117479Y-110235169D02*
X128403193Y-110235169D01*
X128260336Y-110235169D02*
X128260336Y-109735169D01*
X128260336Y-109735169D02*
X128307955Y-109806598D01*
X128307955Y-109806598D02*
X128355574Y-109854217D01*
X128355574Y-109854217D02*
X128403193Y-109878026D01*
X127665099Y-109735169D02*
X127903194Y-109735169D01*
X127903194Y-109735169D02*
X127927003Y-109973264D01*
X127927003Y-109973264D02*
X127903194Y-109949455D01*
X127903194Y-109949455D02*
X127855575Y-109925645D01*
X127855575Y-109925645D02*
X127736527Y-109925645D01*
X127736527Y-109925645D02*
X127688908Y-109949455D01*
X127688908Y-109949455D02*
X127665099Y-109973264D01*
X127665099Y-109973264D02*
X127641289Y-110020883D01*
X127641289Y-110020883D02*
X127641289Y-110139931D01*
X127641289Y-110139931D02*
X127665099Y-110187550D01*
X127665099Y-110187550D02*
X127688908Y-110211360D01*
X127688908Y-110211360D02*
X127736527Y-110235169D01*
X127736527Y-110235169D02*
X127855575Y-110235169D01*
X127855575Y-110235169D02*
X127903194Y-110211360D01*
X127903194Y-110211360D02*
X127927003Y-110187550D01*
X128236527Y-112523264D02*
X128165099Y-112547074D01*
X128165099Y-112547074D02*
X128141289Y-112570883D01*
X128141289Y-112570883D02*
X128117480Y-112618502D01*
X128117480Y-112618502D02*
X128117480Y-112689931D01*
X128117480Y-112689931D02*
X128141289Y-112737550D01*
X128141289Y-112737550D02*
X128165099Y-112761360D01*
X128165099Y-112761360D02*
X128212718Y-112785169D01*
X128212718Y-112785169D02*
X128403194Y-112785169D01*
X128403194Y-112785169D02*
X128403194Y-112285169D01*
X128403194Y-112285169D02*
X128236527Y-112285169D01*
X128236527Y-112285169D02*
X128188908Y-112308979D01*
X128188908Y-112308979D02*
X128165099Y-112332788D01*
X128165099Y-112332788D02*
X128141289Y-112380407D01*
X128141289Y-112380407D02*
X128141289Y-112428026D01*
X128141289Y-112428026D02*
X128165099Y-112475645D01*
X128165099Y-112475645D02*
X128188908Y-112499455D01*
X128188908Y-112499455D02*
X128236527Y-112523264D01*
X128236527Y-112523264D02*
X128403194Y-112523264D01*
X127807956Y-112285169D02*
X127760337Y-112285169D01*
X127760337Y-112285169D02*
X127712718Y-112308979D01*
X127712718Y-112308979D02*
X127688908Y-112332788D01*
X127688908Y-112332788D02*
X127665099Y-112380407D01*
X127665099Y-112380407D02*
X127641289Y-112475645D01*
X127641289Y-112475645D02*
X127641289Y-112594693D01*
X127641289Y-112594693D02*
X127665099Y-112689931D01*
X127665099Y-112689931D02*
X127688908Y-112737550D01*
X127688908Y-112737550D02*
X127712718Y-112761360D01*
X127712718Y-112761360D02*
X127760337Y-112785169D01*
X127760337Y-112785169D02*
X127807956Y-112785169D01*
X127807956Y-112785169D02*
X127855575Y-112761360D01*
X127855575Y-112761360D02*
X127879384Y-112737550D01*
X127879384Y-112737550D02*
X127903194Y-112689931D01*
X127903194Y-112689931D02*
X127927003Y-112594693D01*
X127927003Y-112594693D02*
X127927003Y-112475645D01*
X127927003Y-112475645D02*
X127903194Y-112380407D01*
X127903194Y-112380407D02*
X127879384Y-112332788D01*
X127879384Y-112332788D02*
X127855575Y-112308979D01*
X127855575Y-112308979D02*
X127807956Y-112285169D01*
X128236527Y-115073264D02*
X128165099Y-115097074D01*
X128165099Y-115097074D02*
X128141289Y-115120883D01*
X128141289Y-115120883D02*
X128117480Y-115168502D01*
X128117480Y-115168502D02*
X128117480Y-115239931D01*
X128117480Y-115239931D02*
X128141289Y-115287550D01*
X128141289Y-115287550D02*
X128165099Y-115311360D01*
X128165099Y-115311360D02*
X128212718Y-115335169D01*
X128212718Y-115335169D02*
X128403194Y-115335169D01*
X128403194Y-115335169D02*
X128403194Y-114835169D01*
X128403194Y-114835169D02*
X128236527Y-114835169D01*
X128236527Y-114835169D02*
X128188908Y-114858979D01*
X128188908Y-114858979D02*
X128165099Y-114882788D01*
X128165099Y-114882788D02*
X128141289Y-114930407D01*
X128141289Y-114930407D02*
X128141289Y-114978026D01*
X128141289Y-114978026D02*
X128165099Y-115025645D01*
X128165099Y-115025645D02*
X128188908Y-115049455D01*
X128188908Y-115049455D02*
X128236527Y-115073264D01*
X128236527Y-115073264D02*
X128403194Y-115073264D01*
X127641289Y-115335169D02*
X127927003Y-115335169D01*
X127784146Y-115335169D02*
X127784146Y-114835169D01*
X127784146Y-114835169D02*
X127831765Y-114906598D01*
X127831765Y-114906598D02*
X127879384Y-114954217D01*
X127879384Y-114954217D02*
X127927003Y-114978026D01*
D11*
X124158584Y-123249161D02*
X124253822Y-123344400D01*
X124253822Y-123344400D02*
X124539536Y-123439638D01*
X124539536Y-123439638D02*
X124730012Y-123439638D01*
X124730012Y-123439638D02*
X125015727Y-123344400D01*
X125015727Y-123344400D02*
X125206203Y-123153923D01*
X125206203Y-123153923D02*
X125301441Y-122963447D01*
X125301441Y-122963447D02*
X125396679Y-122582495D01*
X125396679Y-122582495D02*
X125396679Y-122296780D01*
X125396679Y-122296780D02*
X125301441Y-121915828D01*
X125301441Y-121915828D02*
X125206203Y-121725352D01*
X125206203Y-121725352D02*
X125015727Y-121534876D01*
X125015727Y-121534876D02*
X124730012Y-121439638D01*
X124730012Y-121439638D02*
X124539536Y-121439638D01*
X124539536Y-121439638D02*
X124253822Y-121534876D01*
X124253822Y-121534876D02*
X124158584Y-121630114D01*
X122920489Y-121439638D02*
X122539536Y-121439638D01*
X122539536Y-121439638D02*
X122349060Y-121534876D01*
X122349060Y-121534876D02*
X122158584Y-121725352D01*
X122158584Y-121725352D02*
X122063346Y-122106304D01*
X122063346Y-122106304D02*
X122063346Y-122772971D01*
X122063346Y-122772971D02*
X122158584Y-123153923D01*
X122158584Y-123153923D02*
X122349060Y-123344400D01*
X122349060Y-123344400D02*
X122539536Y-123439638D01*
X122539536Y-123439638D02*
X122920489Y-123439638D01*
X122920489Y-123439638D02*
X123110965Y-123344400D01*
X123110965Y-123344400D02*
X123301441Y-123153923D01*
X123301441Y-123153923D02*
X123396679Y-122772971D01*
X123396679Y-122772971D02*
X123396679Y-122106304D01*
X123396679Y-122106304D02*
X123301441Y-121725352D01*
X123301441Y-121725352D02*
X123110965Y-121534876D01*
X123110965Y-121534876D02*
X122920489Y-121439638D01*
X121301441Y-122868209D02*
X120349060Y-122868209D01*
X121491917Y-123439638D02*
X120825251Y-121439638D01*
X120825251Y-121439638D02*
X120158584Y-123439638D01*
X119777631Y-121439638D02*
X118634774Y-121439638D01*
X119206203Y-123439638D02*
X119206203Y-121439638D01*
X117015726Y-123439638D02*
X117968107Y-123439638D01*
X117968107Y-123439638D02*
X117968107Y-121439638D01*
X114158582Y-122392019D02*
X114825249Y-122392019D01*
X114825249Y-123439638D02*
X114825249Y-121439638D01*
X114825249Y-121439638D02*
X113872868Y-121439638D01*
X112825249Y-123439638D02*
X113015725Y-123344400D01*
X113015725Y-123344400D02*
X113110963Y-123249161D01*
X113110963Y-123249161D02*
X113206201Y-123058685D01*
X113206201Y-123058685D02*
X113206201Y-122487257D01*
X113206201Y-122487257D02*
X113110963Y-122296780D01*
X113110963Y-122296780D02*
X113015725Y-122201542D01*
X113015725Y-122201542D02*
X112825249Y-122106304D01*
X112825249Y-122106304D02*
X112539534Y-122106304D01*
X112539534Y-122106304D02*
X112349058Y-122201542D01*
X112349058Y-122201542D02*
X112253820Y-122296780D01*
X112253820Y-122296780D02*
X112158582Y-122487257D01*
X112158582Y-122487257D02*
X112158582Y-123058685D01*
X112158582Y-123058685D02*
X112253820Y-123249161D01*
X112253820Y-123249161D02*
X112349058Y-123344400D01*
X112349058Y-123344400D02*
X112539534Y-123439638D01*
X112539534Y-123439638D02*
X112825249Y-123439638D01*
X111301439Y-123439638D02*
X111301439Y-122106304D01*
X111301439Y-122487257D02*
X111206201Y-122296780D01*
X111206201Y-122296780D02*
X111110963Y-122201542D01*
X111110963Y-122201542D02*
X110920487Y-122106304D01*
X110920487Y-122106304D02*
X110730010Y-122106304D01*
X109301439Y-123344400D02*
X109491915Y-123439638D01*
X109491915Y-123439638D02*
X109872868Y-123439638D01*
X109872868Y-123439638D02*
X110063344Y-123344400D01*
X110063344Y-123344400D02*
X110158582Y-123153923D01*
X110158582Y-123153923D02*
X110158582Y-122392019D01*
X110158582Y-122392019D02*
X110063344Y-122201542D01*
X110063344Y-122201542D02*
X109872868Y-122106304D01*
X109872868Y-122106304D02*
X109491915Y-122106304D01*
X109491915Y-122106304D02*
X109301439Y-122201542D01*
X109301439Y-122201542D02*
X109206201Y-122392019D01*
X109206201Y-122392019D02*
X109206201Y-122582495D01*
X109206201Y-122582495D02*
X110158582Y-122772971D01*
X108444296Y-123344400D02*
X108253820Y-123439638D01*
X108253820Y-123439638D02*
X107872868Y-123439638D01*
X107872868Y-123439638D02*
X107682391Y-123344400D01*
X107682391Y-123344400D02*
X107587153Y-123153923D01*
X107587153Y-123153923D02*
X107587153Y-123058685D01*
X107587153Y-123058685D02*
X107682391Y-122868209D01*
X107682391Y-122868209D02*
X107872868Y-122772971D01*
X107872868Y-122772971D02*
X108158582Y-122772971D01*
X108158582Y-122772971D02*
X108349058Y-122677733D01*
X108349058Y-122677733D02*
X108444296Y-122487257D01*
X108444296Y-122487257D02*
X108444296Y-122392019D01*
X108444296Y-122392019D02*
X108349058Y-122201542D01*
X108349058Y-122201542D02*
X108158582Y-122106304D01*
X108158582Y-122106304D02*
X107872868Y-122106304D01*
X107872868Y-122106304D02*
X107682391Y-122201542D01*
X107015724Y-122106304D02*
X106253820Y-122106304D01*
X106730010Y-121439638D02*
X106730010Y-123153923D01*
X106730010Y-123153923D02*
X106634772Y-123344400D01*
X106634772Y-123344400D02*
X106444296Y-123439638D01*
X106444296Y-123439638D02*
X106253820Y-123439638D01*
X104158581Y-123344400D02*
X103872867Y-123439638D01*
X103872867Y-123439638D02*
X103396676Y-123439638D01*
X103396676Y-123439638D02*
X103206200Y-123344400D01*
X103206200Y-123344400D02*
X103110962Y-123249161D01*
X103110962Y-123249161D02*
X103015724Y-123058685D01*
X103015724Y-123058685D02*
X103015724Y-122868209D01*
X103015724Y-122868209D02*
X103110962Y-122677733D01*
X103110962Y-122677733D02*
X103206200Y-122582495D01*
X103206200Y-122582495D02*
X103396676Y-122487257D01*
X103396676Y-122487257D02*
X103777629Y-122392019D01*
X103777629Y-122392019D02*
X103968105Y-122296780D01*
X103968105Y-122296780D02*
X104063343Y-122201542D01*
X104063343Y-122201542D02*
X104158581Y-122011066D01*
X104158581Y-122011066D02*
X104158581Y-121820590D01*
X104158581Y-121820590D02*
X104063343Y-121630114D01*
X104063343Y-121630114D02*
X103968105Y-121534876D01*
X103968105Y-121534876D02*
X103777629Y-121439638D01*
X103777629Y-121439638D02*
X103301438Y-121439638D01*
X103301438Y-121439638D02*
X103015724Y-121534876D01*
X101396676Y-123344400D02*
X101587152Y-123439638D01*
X101587152Y-123439638D02*
X101968105Y-123439638D01*
X101968105Y-123439638D02*
X102158581Y-123344400D01*
X102158581Y-123344400D02*
X102253819Y-123153923D01*
X102253819Y-123153923D02*
X102253819Y-122392019D01*
X102253819Y-122392019D02*
X102158581Y-122201542D01*
X102158581Y-122201542D02*
X101968105Y-122106304D01*
X101968105Y-122106304D02*
X101587152Y-122106304D01*
X101587152Y-122106304D02*
X101396676Y-122201542D01*
X101396676Y-122201542D02*
X101301438Y-122392019D01*
X101301438Y-122392019D02*
X101301438Y-122582495D01*
X101301438Y-122582495D02*
X102253819Y-122772971D01*
X100444295Y-122106304D02*
X100444295Y-123439638D01*
X100444295Y-122296780D02*
X100349057Y-122201542D01*
X100349057Y-122201542D02*
X100158581Y-122106304D01*
X100158581Y-122106304D02*
X99872866Y-122106304D01*
X99872866Y-122106304D02*
X99682390Y-122201542D01*
X99682390Y-122201542D02*
X99587152Y-122392019D01*
X99587152Y-122392019D02*
X99587152Y-123439638D01*
X98730009Y-123344400D02*
X98539533Y-123439638D01*
X98539533Y-123439638D02*
X98158581Y-123439638D01*
X98158581Y-123439638D02*
X97968104Y-123344400D01*
X97968104Y-123344400D02*
X97872866Y-123153923D01*
X97872866Y-123153923D02*
X97872866Y-123058685D01*
X97872866Y-123058685D02*
X97968104Y-122868209D01*
X97968104Y-122868209D02*
X98158581Y-122772971D01*
X98158581Y-122772971D02*
X98444295Y-122772971D01*
X98444295Y-122772971D02*
X98634771Y-122677733D01*
X98634771Y-122677733D02*
X98730009Y-122487257D01*
X98730009Y-122487257D02*
X98730009Y-122392019D01*
X98730009Y-122392019D02*
X98634771Y-122201542D01*
X98634771Y-122201542D02*
X98444295Y-122106304D01*
X98444295Y-122106304D02*
X98158581Y-122106304D01*
X98158581Y-122106304D02*
X97968104Y-122201542D01*
X96730009Y-123439638D02*
X96920485Y-123344400D01*
X96920485Y-123344400D02*
X97015723Y-123249161D01*
X97015723Y-123249161D02*
X97110961Y-123058685D01*
X97110961Y-123058685D02*
X97110961Y-122487257D01*
X97110961Y-122487257D02*
X97015723Y-122296780D01*
X97015723Y-122296780D02*
X96920485Y-122201542D01*
X96920485Y-122201542D02*
X96730009Y-122106304D01*
X96730009Y-122106304D02*
X96444294Y-122106304D01*
X96444294Y-122106304D02*
X96253818Y-122201542D01*
X96253818Y-122201542D02*
X96158580Y-122296780D01*
X96158580Y-122296780D02*
X96063342Y-122487257D01*
X96063342Y-122487257D02*
X96063342Y-123058685D01*
X96063342Y-123058685D02*
X96158580Y-123249161D01*
X96158580Y-123249161D02*
X96253818Y-123344400D01*
X96253818Y-123344400D02*
X96444294Y-123439638D01*
X96444294Y-123439638D02*
X96730009Y-123439638D01*
X95206199Y-123439638D02*
X95206199Y-122106304D01*
X95206199Y-122487257D02*
X95110961Y-122296780D01*
X95110961Y-122296780D02*
X95015723Y-122201542D01*
X95015723Y-122201542D02*
X94825247Y-122106304D01*
X94825247Y-122106304D02*
X94634770Y-122106304D01*
X92444294Y-123439638D02*
X92444294Y-121439638D01*
X92444294Y-121439638D02*
X91682389Y-121439638D01*
X91682389Y-121439638D02*
X91491913Y-121534876D01*
X91491913Y-121534876D02*
X91396675Y-121630114D01*
X91396675Y-121630114D02*
X91301437Y-121820590D01*
X91301437Y-121820590D02*
X91301437Y-122106304D01*
X91301437Y-122106304D02*
X91396675Y-122296780D01*
X91396675Y-122296780D02*
X91491913Y-122392019D01*
X91491913Y-122392019D02*
X91682389Y-122487257D01*
X91682389Y-122487257D02*
X92444294Y-122487257D01*
X90158580Y-123439638D02*
X90349056Y-123344400D01*
X90349056Y-123344400D02*
X90444294Y-123153923D01*
X90444294Y-123153923D02*
X90444294Y-121439638D01*
X88539532Y-123439638D02*
X88539532Y-122392019D01*
X88539532Y-122392019D02*
X88634770Y-122201542D01*
X88634770Y-122201542D02*
X88825246Y-122106304D01*
X88825246Y-122106304D02*
X89206199Y-122106304D01*
X89206199Y-122106304D02*
X89396675Y-122201542D01*
X88539532Y-123344400D02*
X88730008Y-123439638D01*
X88730008Y-123439638D02*
X89206199Y-123439638D01*
X89206199Y-123439638D02*
X89396675Y-123344400D01*
X89396675Y-123344400D02*
X89491913Y-123153923D01*
X89491913Y-123153923D02*
X89491913Y-122963447D01*
X89491913Y-122963447D02*
X89396675Y-122772971D01*
X89396675Y-122772971D02*
X89206199Y-122677733D01*
X89206199Y-122677733D02*
X88730008Y-122677733D01*
X88730008Y-122677733D02*
X88539532Y-122582495D01*
X87872865Y-122106304D02*
X87110961Y-122106304D01*
X87587151Y-121439638D02*
X87587151Y-123153923D01*
X87587151Y-123153923D02*
X87491913Y-123344400D01*
X87491913Y-123344400D02*
X87301437Y-123439638D01*
X87301437Y-123439638D02*
X87110961Y-123439638D01*
X86730008Y-122106304D02*
X85968104Y-122106304D01*
X86444294Y-123439638D02*
X86444294Y-121725352D01*
X86444294Y-121725352D02*
X86349056Y-121534876D01*
X86349056Y-121534876D02*
X86158580Y-121439638D01*
X86158580Y-121439638D02*
X85968104Y-121439638D01*
X85015723Y-123439638D02*
X85206199Y-123344400D01*
X85206199Y-123344400D02*
X85301437Y-123249161D01*
X85301437Y-123249161D02*
X85396675Y-123058685D01*
X85396675Y-123058685D02*
X85396675Y-122487257D01*
X85396675Y-122487257D02*
X85301437Y-122296780D01*
X85301437Y-122296780D02*
X85206199Y-122201542D01*
X85206199Y-122201542D02*
X85015723Y-122106304D01*
X85015723Y-122106304D02*
X84730008Y-122106304D01*
X84730008Y-122106304D02*
X84539532Y-122201542D01*
X84539532Y-122201542D02*
X84444294Y-122296780D01*
X84444294Y-122296780D02*
X84349056Y-122487257D01*
X84349056Y-122487257D02*
X84349056Y-123058685D01*
X84349056Y-123058685D02*
X84444294Y-123249161D01*
X84444294Y-123249161D02*
X84539532Y-123344400D01*
X84539532Y-123344400D02*
X84730008Y-123439638D01*
X84730008Y-123439638D02*
X85015723Y-123439638D01*
X83491913Y-123439638D02*
X83491913Y-122106304D01*
X83491913Y-122487257D02*
X83396675Y-122296780D01*
X83396675Y-122296780D02*
X83301437Y-122201542D01*
X83301437Y-122201542D02*
X83110961Y-122106304D01*
X83110961Y-122106304D02*
X82920484Y-122106304D01*
X82253818Y-123439638D02*
X82253818Y-122106304D01*
X82253818Y-122296780D02*
X82158580Y-122201542D01*
X82158580Y-122201542D02*
X81968104Y-122106304D01*
X81968104Y-122106304D02*
X81682389Y-122106304D01*
X81682389Y-122106304D02*
X81491913Y-122201542D01*
X81491913Y-122201542D02*
X81396675Y-122392019D01*
X81396675Y-122392019D02*
X81396675Y-123439638D01*
X81396675Y-122392019D02*
X81301437Y-122201542D01*
X81301437Y-122201542D02*
X81110961Y-122106304D01*
X81110961Y-122106304D02*
X80825247Y-122106304D01*
X80825247Y-122106304D02*
X80634770Y-122201542D01*
X80634770Y-122201542D02*
X80539532Y-122392019D01*
X80539532Y-122392019D02*
X80539532Y-123439638D01*
X78349055Y-121439638D02*
X77682389Y-123439638D01*
X77682389Y-123439638D02*
X77015722Y-121439638D01*
X75301436Y-123439638D02*
X76444293Y-123439638D01*
X75872865Y-123439638D02*
X75872865Y-121439638D01*
X75872865Y-121439638D02*
X76063341Y-121725352D01*
X76063341Y-121725352D02*
X76253817Y-121915828D01*
X76253817Y-121915828D02*
X76444293Y-122011066D01*
M02*
