%TF.GenerationSoftware,KiCad,Pcbnew,10.0.1*%
%TF.CreationDate,2026-07-04T03:36:26-07:00*%
%TF.ProjectId,buck-converter-real,6275636b-2d63-46f6-9e76-65727465722d,rev?*%
%TF.SameCoordinates,Original*%
%TF.FileFunction,Other,User*%
%FSLAX46Y46*%
G04 Gerber Fmt 4.6, Leading zero omitted, Abs format (unit mm)*
G04 Created by KiCad (PCBNEW 10.0.1) date 2026-07-04 03:36:26*
%MOMM*%
%LPD*%
G01*
G04 APERTURE LIST*
%ADD10C,0.050000*%
%ADD11C,0.100000*%
G04 APERTURE END LIST*
%TO.C,C31*%
D10*
X111170000Y-116420000D02*
X114930000Y-116420000D01*
X114930000Y-118380000D01*
X111170000Y-118380000D01*
X111170000Y-116420000D01*
%TO.C,R25*%
X114650000Y-120500000D02*
X118350000Y-120500000D01*
X118350000Y-122400000D01*
X114650000Y-122400000D01*
X114650000Y-120500000D01*
%TO.C,J14*%
X105455000Y-112730000D02*
X111545000Y-112730000D01*
X111545000Y-116270000D01*
X105455000Y-116270000D01*
X105455000Y-112730000D01*
%TO.C,RST2*%
X70900000Y-94150000D02*
X81000000Y-94150000D01*
X70900000Y-96250000D02*
X70900000Y-94150000D01*
X70900000Y-98850000D02*
X72700000Y-98850000D01*
X70900000Y-100950000D02*
X70900000Y-98850000D01*
X72700000Y-96250000D02*
X70900000Y-96250000D01*
X72700000Y-98850000D02*
X72700000Y-96250000D01*
X79200000Y-96250000D02*
X79200000Y-98850000D01*
X79200000Y-98850000D02*
X81000000Y-98850000D01*
X81000000Y-94150000D02*
X81000000Y-96250000D01*
X81000000Y-96250000D02*
X79200000Y-96250000D01*
X81000000Y-98850000D02*
X81000000Y-100950000D01*
X81000000Y-100950000D02*
X70900000Y-100950000D01*
%TO.C,C15*%
X68720000Y-93270000D02*
X70680000Y-93270000D01*
X70680000Y-97030000D01*
X68720000Y-97030000D01*
X68720000Y-93270000D01*
%TO.C,C13*%
X68720000Y-97170000D02*
X70680000Y-97170000D01*
X70680000Y-100930000D01*
X68720000Y-100930000D01*
X68720000Y-97170000D01*
%TO.C,R32*%
X81200000Y-94200000D02*
X84900000Y-94200000D01*
X84900000Y-96100000D01*
X81200000Y-96100000D01*
X81200000Y-94200000D01*
%TO.C,Q1*%
X75925000Y-106775000D02*
X75925000Y-101115000D01*
X75925000Y-101115000D02*
X68765000Y-101115000D01*
X68765000Y-106775000D02*
X75925000Y-106775000D01*
X68765000Y-101115000D02*
X68765000Y-106775000D01*
%TO.C,J11*%
X120370000Y-116930000D02*
X131530000Y-116930000D01*
X131530000Y-120470000D01*
X120370000Y-120470000D01*
X120370000Y-116930000D01*
%TO.C,R20*%
X72400000Y-77950000D02*
X76100000Y-77950000D01*
X76100000Y-79850000D01*
X72400000Y-79850000D01*
X72400000Y-77950000D01*
%TO.C,J1*%
X123970000Y-131930000D02*
X113330000Y-131930000D01*
X123970000Y-122900000D02*
X123970000Y-131930000D01*
X113330000Y-131930000D02*
X113330000Y-122900000D01*
X113330000Y-122900000D02*
X123970000Y-122900000D01*
%TO.C,J8*%
X112000000Y-98650000D02*
X109200000Y-98650000D01*
X112000000Y-96440000D02*
X112000000Y-98650000D01*
X112000000Y-93060000D02*
X111800000Y-93060000D01*
X112000000Y-90850000D02*
X112000000Y-93060000D01*
X111800000Y-96440000D02*
X112000000Y-96440000D01*
X111800000Y-93060000D02*
X111800000Y-96440000D01*
X109200000Y-98650000D02*
X109200000Y-98250000D01*
X109200000Y-98250000D02*
X107900000Y-98250000D01*
X109200000Y-91250000D02*
X109200000Y-90850000D01*
X109200000Y-90850000D02*
X112000000Y-90850000D01*
X107900000Y-98250000D02*
X107900000Y-97050000D01*
X107900000Y-97050000D02*
X106800000Y-97050000D01*
X107900000Y-92450000D02*
X107900000Y-91250000D01*
X107900000Y-91250000D02*
X109200000Y-91250000D01*
X106800000Y-97050000D02*
X106800000Y-92450000D01*
X106800000Y-92450000D02*
X107900000Y-92450000D01*
%TO.C,R29*%
X81400000Y-75500000D02*
X85100000Y-75500000D01*
X85100000Y-77400000D01*
X81400000Y-77400000D01*
X81400000Y-75500000D01*
%TO.C,D1*%
X85600000Y-100125000D02*
X82100000Y-100125000D01*
X85600000Y-96725000D02*
X85600000Y-100125000D01*
X82100000Y-100125000D02*
X82100000Y-96725000D01*
X82100000Y-96725000D02*
X85600000Y-96725000D01*
%TO.C,L2*%
D11*
X88000000Y-111750000D02*
X100500000Y-111750000D01*
X100500000Y-124250000D01*
X88000000Y-124250000D01*
X88000000Y-111750000D01*
%TO.C,SW2*%
D10*
X102700000Y-102550000D02*
X104800000Y-102550000D01*
X102700000Y-112650000D02*
X102700000Y-102550000D01*
X104800000Y-102550000D02*
X104800000Y-104350000D01*
X104800000Y-104350000D02*
X107400000Y-104350000D01*
X104800000Y-110850000D02*
X104800000Y-112650000D01*
X104800000Y-112650000D02*
X102700000Y-112650000D01*
X107400000Y-102550000D02*
X109500000Y-102550000D01*
X107400000Y-104350000D02*
X107400000Y-102550000D01*
X107400000Y-110850000D02*
X104800000Y-110850000D01*
X107400000Y-112650000D02*
X107400000Y-110850000D01*
X109500000Y-102550000D02*
X109500000Y-112650000D01*
X109500000Y-112650000D02*
X107400000Y-112650000D01*
%TO.C,R22*%
X110850000Y-108750000D02*
X112750000Y-108750000D01*
X112750000Y-112450000D01*
X110850000Y-112450000D01*
X110850000Y-108750000D01*
%TO.C,R26*%
X119700000Y-120650000D02*
X123400000Y-120650000D01*
X123400000Y-122550000D01*
X119700000Y-122550000D01*
X119700000Y-120650000D01*
%TO.C,C19*%
X91720000Y-101820000D02*
X93680000Y-101820000D01*
X93680000Y-105580000D01*
X91720000Y-105580000D01*
X91720000Y-101820000D01*
%TO.C,C18*%
X88795000Y-100645000D02*
X90755000Y-100645000D01*
X90755000Y-104405000D01*
X88795000Y-104405000D01*
X88795000Y-100645000D01*
%TO.C,R11*%
X77300000Y-109150000D02*
X79200000Y-109150000D01*
X79200000Y-112850000D01*
X77300000Y-112850000D01*
X77300000Y-109150000D01*
%TO.C,D11*%
X128350000Y-123270000D02*
X131650000Y-123270000D01*
X131650000Y-124730000D01*
X128350000Y-124730000D01*
X128350000Y-123270000D01*
%TO.C,R13*%
X87850000Y-71950000D02*
X89750000Y-71950000D01*
X89750000Y-75650000D01*
X87850000Y-75650000D01*
X87850000Y-71950000D01*
%TO.C,R19*%
X76400000Y-77950000D02*
X80100000Y-77950000D01*
X80100000Y-79850000D01*
X76400000Y-79850000D01*
X76400000Y-77950000D01*
%TO.C,D3*%
X77000000Y-101800000D02*
X80500000Y-101800000D01*
X77000000Y-108800000D02*
X77000000Y-101800000D01*
X80500000Y-101800000D02*
X80500000Y-108800000D01*
X80500000Y-108800000D02*
X77000000Y-108800000D01*
%TO.C,C17*%
X85570000Y-109220000D02*
X87530000Y-109220000D01*
X87530000Y-112980000D01*
X85570000Y-112980000D01*
X85570000Y-109220000D01*
%TO.C,J5*%
X75500000Y-117750000D02*
X75500000Y-131750000D01*
X75500000Y-131750000D02*
X87500000Y-131750000D01*
X87500000Y-117750000D02*
X75500000Y-117750000D01*
X87500000Y-131750000D02*
X87500000Y-117750000D01*
%TO.C,R30*%
X104850000Y-75650000D02*
X106750000Y-75650000D01*
X106750000Y-79350000D01*
X104850000Y-79350000D01*
X104850000Y-75650000D01*
%TO.C,C33*%
X120170000Y-103270000D02*
X123930000Y-103270000D01*
X123930000Y-105230000D01*
X120170000Y-105230000D01*
X120170000Y-103270000D01*
%TO.C,C14*%
X98370000Y-101520000D02*
X102130000Y-101520000D01*
X102130000Y-103480000D01*
X98370000Y-103480000D01*
X98370000Y-101520000D01*
%TO.C,R18*%
X68250000Y-77900000D02*
X71950000Y-77900000D01*
X71950000Y-79800000D01*
X68250000Y-79800000D01*
X68250000Y-77900000D01*
%TO.C,D13*%
X94250000Y-104250000D02*
X97750000Y-104250000D01*
X94250000Y-111250000D02*
X94250000Y-104250000D01*
X97750000Y-104250000D02*
X97750000Y-111250000D01*
X97750000Y-111250000D02*
X94250000Y-111250000D01*
%TO.C,J12*%
X102430000Y-90980000D02*
X105970000Y-90980000D01*
X102430000Y-102140000D02*
X102430000Y-90980000D01*
X105970000Y-90980000D02*
X105970000Y-102140000D01*
X105970000Y-102140000D02*
X102430000Y-102140000D01*
%TO.C,C20*%
X69475000Y-115275000D02*
X74075000Y-115275000D01*
X69475000Y-117575000D02*
X69475000Y-115275000D01*
X74075000Y-115275000D02*
X74075000Y-117575000D01*
X74075000Y-117575000D02*
X69475000Y-117575000D01*
%TO.C,R31*%
X104850000Y-71700000D02*
X106750000Y-71700000D01*
X106750000Y-75400000D01*
X104850000Y-75400000D01*
X104850000Y-71700000D01*
%TO.C,R12*%
X103300000Y-113700000D02*
X105200000Y-113700000D01*
X105200000Y-117400000D01*
X103300000Y-117400000D01*
X103300000Y-113700000D01*
%TO.C,J1*%
X69230000Y-118205000D02*
X72770000Y-118205000D01*
X72770000Y-124295000D01*
X69230000Y-124295000D01*
X69230000Y-118205000D01*
%TO.C,J13*%
X128430000Y-77705000D02*
X131970000Y-77705000D01*
X128430000Y-116805000D02*
X128430000Y-77705000D01*
X131970000Y-77705000D02*
X131970000Y-116805000D01*
X131970000Y-116805000D02*
X128430000Y-116805000D01*
%TO.C,J9*%
X86650000Y-91100000D02*
X97550000Y-91100000D01*
X97550000Y-96600000D01*
X86650000Y-96600000D01*
X86650000Y-91100000D01*
%TO.C,J3*%
X100900000Y-130850000D02*
X100900000Y-124650000D01*
X110400000Y-124650000D02*
X100900000Y-124650000D01*
X110400000Y-130850000D02*
X100900000Y-130850000D01*
X112100000Y-125950000D02*
X110400000Y-124650000D01*
X112100000Y-129550000D02*
X110400000Y-130850000D01*
X112100000Y-129550000D02*
X112100000Y-125950000D01*
%TO.C,U6*%
X88687500Y-106050000D02*
X88687500Y-111150000D01*
X88687500Y-106050000D02*
X93687500Y-106050000D01*
X93687500Y-111150000D02*
X88687500Y-111150000D01*
X93687500Y-111150000D02*
X93687500Y-106050000D01*
%TO.C,U5*%
X87907500Y-107000000D02*
X87667500Y-107000000D01*
X87907500Y-102600000D02*
X87907500Y-107000000D01*
X87667500Y-108500000D02*
X82747500Y-108500000D01*
X87667500Y-107000000D02*
X87667500Y-108500000D01*
X87667500Y-102600000D02*
X87907500Y-102600000D01*
X87667500Y-101100000D02*
X87667500Y-102600000D01*
X82747500Y-108500000D02*
X82747500Y-107000000D01*
X82747500Y-107000000D02*
X82507500Y-107000000D01*
X82747500Y-102600000D02*
X82747500Y-101100000D01*
X82747500Y-101100000D02*
X87667500Y-101100000D01*
X82507500Y-107000000D02*
X82507500Y-102600000D01*
X82507500Y-102600000D02*
X82747500Y-102600000D01*
%TO.C,C29*%
X121870000Y-105470000D02*
X125630000Y-105470000D01*
X125630000Y-107430000D01*
X121870000Y-107430000D01*
X121870000Y-105470000D01*
%TO.C,D12*%
X98000000Y-104250000D02*
X101500000Y-104250000D01*
X98000000Y-111250000D02*
X98000000Y-104250000D01*
X101500000Y-104250000D02*
X101500000Y-111250000D01*
X101500000Y-111250000D02*
X98000000Y-111250000D01*
%TO.C,J6*%
X72220000Y-80100000D02*
X85220000Y-80100000D01*
X72220000Y-93900000D02*
X72220000Y-80100000D01*
X85220000Y-80100000D02*
X85220000Y-93900000D01*
X85220000Y-93900000D02*
X72220000Y-93900000D01*
%TO.C,R14*%
X101050000Y-113700000D02*
X102950000Y-113700000D01*
X102950000Y-117400000D01*
X101050000Y-117400000D01*
X101050000Y-113700000D01*
%TO.C,C10*%
X86495000Y-85970000D02*
X89455000Y-85970000D01*
X89455000Y-87430000D01*
X86495000Y-87430000D01*
X86495000Y-85970000D01*
%TO.C,C27*%
X110220000Y-104220000D02*
X113980000Y-104220000D01*
X113980000Y-106180000D01*
X110220000Y-106180000D01*
X110220000Y-104220000D01*
%TO.C,C12*%
X91120000Y-98770000D02*
X94880000Y-98770000D01*
X94880000Y-100730000D01*
X91120000Y-100730000D01*
X91120000Y-98770000D01*
%TO.C,R16*%
X85600000Y-71950000D02*
X87500000Y-71950000D01*
X87500000Y-75650000D01*
X85600000Y-75650000D01*
X85600000Y-71950000D01*
%TO.C,R23*%
X124400000Y-120650000D02*
X128100000Y-120650000D01*
X128100000Y-122550000D01*
X124400000Y-122550000D01*
X124400000Y-120650000D01*
%TO.C,C11*%
X69450000Y-112525000D02*
X74050000Y-112525000D01*
X69450000Y-114825000D02*
X69450000Y-112525000D01*
X74050000Y-112525000D02*
X74050000Y-114825000D01*
X74050000Y-114825000D02*
X69450000Y-114825000D01*
%TO.C,Y1*%
X114255899Y-98010953D02*
X125655899Y-98010953D01*
X114255899Y-102810953D02*
X114255899Y-98010953D01*
X125655899Y-98010953D02*
X125655899Y-102810953D01*
X125655899Y-102810953D02*
X114255899Y-102810953D01*
%TO.C,U2*%
X114850000Y-108500000D02*
X121850000Y-108500000D01*
X114850000Y-115500000D02*
X114850000Y-108500000D01*
X121850000Y-108500000D02*
X121850000Y-115500000D01*
X121850000Y-115500000D02*
X114850000Y-115500000D01*
%TO.C,R17*%
X80400000Y-77950000D02*
X84100000Y-77950000D01*
X84100000Y-79850000D01*
X80400000Y-79850000D01*
X80400000Y-77950000D01*
%TO.C,J7*%
X107930000Y-81380000D02*
X111470000Y-81380000D01*
X111470000Y-90000000D01*
X107930000Y-90000000D01*
X107930000Y-81380000D01*
%TO.C,C22*%
X101100000Y-121100000D02*
X105700000Y-121100000D01*
X101100000Y-123400000D02*
X101100000Y-121100000D01*
X105700000Y-121100000D02*
X105700000Y-123400000D01*
X105700000Y-123400000D02*
X101100000Y-123400000D01*
%TO.C,C28*%
X111170000Y-118520000D02*
X114930000Y-118520000D01*
X114930000Y-120480000D01*
X111170000Y-120480000D01*
X111170000Y-118520000D01*
%TO.C,J10*%
X107025000Y-74150000D02*
X108125000Y-74150000D01*
X107025000Y-78750000D02*
X107025000Y-74150000D01*
X108125000Y-72950000D02*
X109425000Y-72950000D01*
X108125000Y-74150000D02*
X108125000Y-72950000D01*
X108125000Y-78750000D02*
X107025000Y-78750000D01*
X108125000Y-79950000D02*
X108125000Y-78750000D01*
X109425000Y-72550000D02*
X112225000Y-72550000D01*
X109425000Y-72950000D02*
X109425000Y-72550000D01*
X109425000Y-79950000D02*
X108125000Y-79950000D01*
X109425000Y-80350000D02*
X109425000Y-79950000D01*
X112025000Y-74760000D02*
X112025000Y-78140000D01*
X112025000Y-78140000D02*
X112225000Y-78140000D01*
X112225000Y-72550000D02*
X112225000Y-74760000D01*
X112225000Y-74760000D02*
X112025000Y-74760000D01*
X112225000Y-78140000D02*
X112225000Y-80350000D01*
X112225000Y-80350000D02*
X109425000Y-80350000D01*
%TO.C,C23*%
X101100000Y-118450000D02*
X105700000Y-118450000D01*
X101100000Y-120750000D02*
X101100000Y-118450000D01*
X105700000Y-118450000D02*
X105700000Y-120750000D01*
X105700000Y-120750000D02*
X101100000Y-120750000D01*
%TO.C,C30*%
X110220000Y-106470000D02*
X113980000Y-106470000D01*
X113980000Y-108430000D01*
X110220000Y-108430000D01*
X110220000Y-106470000D01*
%TO.C,U1*%
X95100000Y-99400000D02*
X97900000Y-99400000D01*
X97900000Y-103600000D01*
X95100000Y-103600000D01*
X95100000Y-99400000D01*
%TO.C,C26*%
X115970000Y-103270000D02*
X119730000Y-103270000D01*
X119730000Y-105230000D01*
X115970000Y-105230000D01*
X115970000Y-103270000D01*
%TO.C,C9*%
X87195000Y-87795000D02*
X90155000Y-87795000D01*
X90155000Y-89255000D01*
X87195000Y-89255000D01*
X87195000Y-87795000D01*
%TO.C,J2*%
X88900000Y-130850000D02*
X88900000Y-124650000D01*
X98400000Y-124650000D02*
X88900000Y-124650000D01*
X98400000Y-130850000D02*
X88900000Y-130850000D01*
X100100000Y-125950000D02*
X98400000Y-124650000D01*
X100100000Y-129550000D02*
X98400000Y-130850000D01*
X100100000Y-129550000D02*
X100100000Y-125950000D01*
%TO.C,R24*%
X124400000Y-122850000D02*
X128100000Y-122850000D01*
X128100000Y-124750000D01*
X124400000Y-124750000D01*
X124400000Y-122850000D01*
%TO.C,R21*%
X123750000Y-109150000D02*
X125650000Y-109150000D01*
X125650000Y-112850000D01*
X123750000Y-112850000D01*
X123750000Y-109150000D01*
%TO.C,C32*%
X107670000Y-99520000D02*
X111430000Y-99520000D01*
X111430000Y-101480000D01*
X107670000Y-101480000D01*
X107670000Y-99520000D01*
%TO.C,R27*%
X100200000Y-89850000D02*
X102100000Y-89850000D01*
X102100000Y-93550000D01*
X100200000Y-93550000D01*
X100200000Y-89850000D01*
%TO.C,R28*%
X100200000Y-94500000D02*
X102100000Y-94500000D01*
X102100000Y-98200000D01*
X100200000Y-98200000D01*
X100200000Y-94500000D01*
%TO.C,D10*%
X128350000Y-120820000D02*
X131650000Y-120820000D01*
X131650000Y-122280000D01*
X128350000Y-122280000D01*
X128350000Y-120820000D01*
%TO.C,D6*%
X85820000Y-68350000D02*
X87280000Y-68350000D01*
X87280000Y-71650000D01*
X85820000Y-71650000D01*
X85820000Y-68350000D01*
%TO.C,SMA-915/433MHz1*%
X96000000Y-67500000D02*
X96000000Y-72700000D01*
X96320000Y-57980000D02*
X103680000Y-57980000D01*
X96320000Y-67500000D02*
X96000000Y-67500000D01*
X96320000Y-67500000D02*
X96320000Y-57980000D01*
X103680000Y-57980000D02*
X103680000Y-67500000D01*
X103680000Y-67500000D02*
X104000000Y-67500000D01*
X104000000Y-67500000D02*
X104000000Y-72700000D01*
X104000000Y-72700000D02*
X96000000Y-72700000D01*
%TO.C,RST1*%
X75000000Y-68350000D02*
X85100000Y-68350000D01*
X75000000Y-70450000D02*
X75000000Y-68350000D01*
X75000000Y-73050000D02*
X76800000Y-73050000D01*
X75000000Y-75150000D02*
X75000000Y-73050000D01*
X76800000Y-70450000D02*
X75000000Y-70450000D01*
X76800000Y-73050000D02*
X76800000Y-70450000D01*
X83300000Y-70450000D02*
X83300000Y-73050000D01*
X83300000Y-73050000D02*
X85100000Y-73050000D01*
X85100000Y-68350000D02*
X85100000Y-70450000D01*
X85100000Y-70450000D02*
X83300000Y-70450000D01*
X85100000Y-73050000D02*
X85100000Y-75150000D01*
X85100000Y-75150000D02*
X75000000Y-75150000D01*
%TO.C,D5*%
X75000000Y-113500000D02*
X82000000Y-113500000D01*
X75000000Y-117000000D02*
X75000000Y-113500000D01*
X82000000Y-113500000D02*
X82000000Y-117000000D01*
X82000000Y-117000000D02*
X75000000Y-117000000D01*
%TO.C,D4*%
X68625000Y-107025000D02*
X75925000Y-107025000D01*
X68625000Y-111525000D02*
X68625000Y-107025000D01*
X75925000Y-107025000D02*
X75925000Y-111525000D01*
X75925000Y-111525000D02*
X68625000Y-111525000D01*
%TO.C,D2*%
X88070000Y-68350000D02*
X89530000Y-68350000D01*
X89530000Y-71650000D01*
X88070000Y-71650000D01*
X88070000Y-68350000D01*
%TO.C,R15*%
X79500000Y-109150000D02*
X81400000Y-109150000D01*
X81400000Y-112850000D01*
X79500000Y-112850000D01*
X79500000Y-109150000D01*
%TO.C,R1*%
X106430000Y-124220000D02*
X106430000Y-116580000D01*
X110270000Y-124220000D02*
X106430000Y-124220000D01*
X106430000Y-116580000D02*
X110270000Y-116580000D01*
X110270000Y-116580000D02*
X110270000Y-124220000D01*
%TD*%
M02*
