M48
; DRILL file KiCad 10.0.1 date 2026-07-04T03:36:32
; FORMAT={-:-/ absolute / metric / decimal}
; #@! TF.CreationDate,2026-07-04T03:36:32-07:00
; #@! TF.GenerationSoftware,Kicad,Pcbnew,10.0.1
; #@! TF.FileFunction,Plated,1,4,PTH
FMAT,2
METRIC
; #@! TA.AperFunction,Plated,PTH,ViaDrill
T1C0.300
; #@! TA.AperFunction,Plated,PTH,ComponentDrill
T2C0.600
; #@! TA.AperFunction,Plated,PTH,ComponentDrill
T3C0.750
; #@! TA.AperFunction,Plated,PTH,ComponentDrill
T4C1.000
; #@! TA.AperFunction,Plated,PTH,ComponentDrill
T5C1.800
%
G90
G05
T1
X68.85Y-101.2
X68.9Y-115.05
X68.95Y-81.85
X68.95Y-92.35
X69.0Y-87.0
X69.05Y-75.85
X69.15Y-125.0
X69.2Y-119.95
X69.2Y-130.7
X69.25Y-69.3
X69.25Y-111.95
X70.1Y-107.6
X70.1Y-111.0
X71.0Y-118.3
X71.0Y-124.0
X71.5Y-113.65
X71.55Y-116.35
X71.95Y-109.2
X72.05Y-77.7
X72.179Y-80.068
X72.45Y-98.012
X72.494Y-76.244
X72.5Y-119.95
X72.7Y-122.5
X73.25Y-77.35
X73.7Y-96.6
X74.2Y-100.95
X74.45Y-69.0
X75.05Y-121.35
X75.2Y-91.55
X75.25Y-77.4
X75.25Y-125.55
X75.55Y-130.8
X75.75Y-111.5
X76.2Y-71.75
X76.3Y-85.75
X76.7Y-109.4
X77.0Y-123.75
X77.05Y-118.8
X77.25Y-129.15
X77.3Y-107.25
X77.35Y-102.05
X78.15Y-97.55
X78.3Y-69.25
X78.65Y-74.0
X78.75Y-105.35
X78.9Y-126.25
X79.25Y-92.2
X79.65Y-77.3
X79.75Y-123.2
X80.65Y-76.45
X81.25Y-74.0
X81.25Y-77.55
X81.95Y-69.2
X81.95Y-91.4
X82.1Y-107.1
X82.25Y-83.6
X82.446Y-111.987
X82.45Y-130.9
X83.9Y-126.3
X84.25Y-128.85
X84.3Y-71.85
X84.35Y-80.05
X84.45Y-94.0
X84.5Y-81.85
X84.9Y-120.7
X85.15Y-111.3
X85.7Y-69.975
X86.0Y-123.8
X86.25Y-115.0
X87.2Y-82.2
X87.35Y-83.5
X87.65Y-74.8
X87.95Y-85.7
X87.95Y-104.75
X88.05Y-126.75
X88.15Y-81.0
X88.15Y-131.1
X88.25Y-79.75
X88.251Y-76.151
X88.3Y-78.5
X88.75Y-84.75
X89.1Y-91.75
X89.45Y-89.65
X90.25Y-85.75
X90.3Y-74.35
X90.9Y-114.25
X91.1Y-105.65
X91.1Y-111.6
X91.55Y-101.25
X91.65Y-87.0
X91.7Y-71.8
X91.8Y-84.75
X92.5Y-85.45
X92.6Y-68.95
X93.15Y-88.95
X93.2Y-79.65
X93.9Y-84.85
X94.026Y-100.986
X94.05Y-98.65
X94.65Y-70.3
X94.8Y-68.95
X94.8Y-127.75
X95.0Y-82.2
X95.1Y-91.55
X95.1Y-94.95
X95.1Y-131.1
X95.25Y-71.85
X95.9Y-129.95
X96.25Y-82.2
X96.35Y-93.25
X96.4Y-72.85
X96.45Y-121.7
X96.95Y-125.55
X97.481Y-82.168
X97.5Y-76.55
X97.5Y-89.0
X97.7Y-72.85
X98.55Y-77.6
X98.6Y-129.55
X98.9Y-72.7
X99.25Y-127.75
X99.75Y-90.7
X99.9Y-78.35
X100.0Y-130.95
X100.1Y-82.95
X100.25Y-76.85
X100.375Y-84.175
X100.45Y-115.35
X100.75Y-81.0
X100.85Y-113.7
X101.05Y-72.7
X101.15Y-98.35
X101.3Y-73.8
X101.35Y-75.1
X102.5Y-74.35
X102.8Y-86.45
X102.85Y-73.0
X102.9Y-75.65
X103.45Y-122.95
X103.5Y-119.6
X104.1Y-72.3
X104.55Y-70.95
X104.75Y-69.25
X104.75Y-75.6
X105.35Y-112.2
X105.4Y-101.6
X105.55Y-98.95
X105.8Y-79.6
X105.9Y-124.0
X106.05Y-120.95
X106.2Y-131.2
X106.4Y-116.1
X107.1Y-107.25
X107.4Y-72.55
X107.7Y-69.0
X108.192Y-115.457
X108.2Y-81.3
X108.6Y-118.7
X109.5Y-76.95
X109.65Y-95.25
X109.7Y-118.75
X109.75Y-113.2
X109.85Y-106.35
X110.012Y-111.537
X110.6Y-117.45
X110.85Y-116.05
X110.95Y-75.0
X111.15Y-81.15
X111.3Y-93.7
X111.5Y-69.05
X111.9Y-102.9
X112.05Y-114.65
X112.1Y-113.5
X112.2Y-108.5
X112.35Y-121.45
X112.4Y-131.1
X112.45Y-97.85
X113.2Y-123.35
X114.8Y-126.85
X115.2Y-104.2
X115.4Y-114.0
X115.5Y-113.2
X115.55Y-106.55
X116.05Y-110.8
X116.2Y-102.25
X116.35Y-106.25
X116.75Y-111.5
X116.75Y-119.1
X116.8Y-130.85
X116.9Y-117.7
X117.144Y-105.95
X117.4Y-112.1
X117.45Y-69.0
X117.474Y-114.78
X117.85Y-125.25
X118.0Y-118.55
X118.318Y-114.782
X118.75Y-106.0
X119.0Y-112.25
X119.0Y-113.15
X119.9Y-99.9
X119.945Y-109.148
X120.05Y-112.25
X120.5Y-109.8
X120.5Y-114.05
X120.95Y-106.1
X121.1Y-114.65
X121.2Y-131.0
X121.8Y-105.45
X122.35Y-126.9
X122.45Y-69.0
X123.737Y-108.255
X123.8Y-123.0
X124.05Y-102.15
X124.25Y-114.55
X125.25Y-131.15
X126.3Y-110.4
X126.5Y-114.55
X126.85Y-105.05
X127.45Y-110.8
X127.85Y-84.7
X127.85Y-113.6
X128.2Y-120.2
X128.7Y-114.95
X129.45Y-120.25
X130.55Y-130.8
X130.7Y-69.4
X130.85Y-76.7
X130.95Y-125.4
X131.1Y-106.15
X131.15Y-83.2
X131.15Y-101.1
X131.2Y-95.9
X131.25Y-85.8
X131.25Y-90.85
X131.3Y-122.8
T3
X89.1Y-93.3
X91.1Y-93.3
X93.1Y-93.3
X95.1Y-93.3
T4
X71.0Y-119.985
X71.0Y-122.525
X104.2Y-92.75
X104.2Y-95.29
X104.2Y-97.83
X104.2Y-100.37
X107.235Y-114.5
X109.7Y-83.15
X109.7Y-85.69
X109.7Y-88.23
X109.775Y-114.5
X113.69Y-70.75
X113.69Y-73.29
X113.69Y-75.83
X113.69Y-78.37
X113.69Y-80.91
X113.69Y-83.45
X113.69Y-85.99
X113.69Y-88.53
X113.69Y-91.07
X113.69Y-93.61
X113.69Y-96.15
X116.23Y-70.75
X116.23Y-73.29
X116.23Y-75.83
X116.23Y-78.37
X116.23Y-80.91
X116.23Y-83.45
X116.23Y-85.99
X116.23Y-88.53
X116.23Y-91.07
X116.23Y-93.61
X116.23Y-96.15
X118.77Y-70.75
X118.77Y-73.29
X118.77Y-75.83
X118.77Y-78.37
X118.77Y-80.91
X118.77Y-83.45
X118.77Y-85.99
X118.77Y-88.53
X118.77Y-91.07
X118.77Y-93.61
X118.77Y-96.15
X121.31Y-70.75
X121.31Y-73.29
X121.31Y-75.83
X121.31Y-78.37
X121.31Y-80.91
X121.31Y-83.45
X121.31Y-85.99
X121.31Y-88.53
X121.31Y-91.07
X121.31Y-93.61
X121.31Y-96.15
X122.14Y-118.7
X123.85Y-70.75
X123.85Y-73.29
X123.85Y-75.83
X123.85Y-78.37
X123.85Y-80.91
X123.85Y-83.45
X123.85Y-85.99
X123.85Y-88.53
X123.85Y-91.07
X123.85Y-93.61
X123.85Y-96.15
X124.68Y-118.7
X126.39Y-75.83
X126.39Y-78.37
X126.39Y-80.91
X126.39Y-83.45
X126.39Y-85.99
X126.39Y-88.53
X126.39Y-91.07
X126.39Y-93.61
X126.39Y-96.15
X127.22Y-118.7
X129.76Y-118.7
X130.2Y-79.475
X130.2Y-82.015
X130.2Y-84.555
X130.2Y-87.095
X130.2Y-89.635
X130.2Y-92.175
X130.2Y-94.715
X130.2Y-97.255
X130.2Y-99.795
X130.2Y-102.335
X130.2Y-104.875
X130.2Y-107.415
X130.2Y-109.955
X130.2Y-112.495
X130.2Y-115.035
T5
X92.0Y-127.75
X97.0Y-127.75
X104.0Y-127.75
X109.0Y-127.75
T2
G00X114.33Y-124.075
M15
G01X114.33Y-125.175
M16
G05
G00X114.33Y-128.425
M15
G01X114.33Y-129.225
M16
G05
G00X122.97Y-124.075
M15
G01X122.97Y-125.175
M16
G05
G00X122.97Y-128.425
M15
G01X122.97Y-129.225
M16
G05
T4
G00X77.0Y-125.5
M15
G01X77.0Y-127.0
M16
G05
G00X80.5Y-119.25
M15
G01X82.5Y-119.25
M16
G05
G00X80.85Y-125.25
M15
G01X82.15Y-125.25
M16
G05
G00X86.0Y-125.5
M15
G01X86.0Y-127.0
M16
G05
M30
