ISO-10303-21;
HEADER;
FILE_DESCRIPTION(('FreeCAD Model'),'2;1');
FILE_NAME('Open CASCADE Shape Model','2026-08-08T20:07:57',(''),(''),
  'Open CASCADE STEP processor 7.8','FreeCAD','Unknown');
FILE_SCHEMA(('AUTOMOTIVE_DESIGN { 1 0 10303 214 1 1 1 1 }'));
ENDSEC;
DATA;
#1 = APPLICATION_PROTOCOL_DEFINITION('international standard',
  'automotive_design',2000,#2);
#2 = APPLICATION_CONTEXT(
  'core data for automotive mechanical design processes');
#3 = SHAPE_DEFINITION_REPRESENTATION(#4,#10);
#4 = PRODUCT_DEFINITION_SHAPE('','',#5);
#5 = PRODUCT_DEFINITION('design','',#6,#9);
#6 = PRODUCT_DEFINITION_FORMATION('','',#7);
#7 = PRODUCT('Unnamed1','Unnamed1','',(#8));
#8 = PRODUCT_CONTEXT('',#2,'mechanical');
#9 = PRODUCT_DEFINITION_CONTEXT('part definition',#2,'design');
#10 = SHAPE_REPRESENTATION('',(#11,#15,#19,#23,#27,#31,#35,#39,#43,#47,
    #51),#55);
#11 = AXIS2_PLACEMENT_3D('',#12,#13,#14);
#12 = CARTESIAN_POINT('',(0.,0.,0.));
#13 = DIRECTION('',(0.,0.,1.));
#14 = DIRECTION('',(1.,0.,-0.));
#15 = AXIS2_PLACEMENT_3D('',#16,#17,#18);
#16 = CARTESIAN_POINT('',(0.,0.,0.));
#17 = DIRECTION('',(0.,0.,1.));
#18 = DIRECTION('',(1.,0.,0.));
#19 = AXIS2_PLACEMENT_3D('',#20,#21,#22);
#20 = CARTESIAN_POINT('',(0.,0.,0.));
#21 = DIRECTION('',(0.,0.,1.));
#22 = DIRECTION('',(1.,0.,0.));
#23 = AXIS2_PLACEMENT_3D('',#24,#25,#26);
#24 = CARTESIAN_POINT('',(0.,0.,0.));
#25 = DIRECTION('',(0.,0.,-1.));
#26 = DIRECTION('',(1.,0.,0.));
#27 = AXIS2_PLACEMENT_3D('',#28,#29,#30);
#28 = CARTESIAN_POINT('',(0.,0.,0.));
#29 = DIRECTION('',(0.,0.,1.));
#30 = DIRECTION('',(1.,0.,0.));
#31 = AXIS2_PLACEMENT_3D('',#32,#33,#34);
#32 = CARTESIAN_POINT('',(0.,0.,0.35));
#33 = DIRECTION('',(0.,0.,1.));
#34 = DIRECTION('',(1.,0.,0.));
#35 = AXIS2_PLACEMENT_3D('',#36,#37,#38);
#36 = CARTESIAN_POINT('',(0.,0.,0.));
#37 = DIRECTION('',(0.,0.,1.));
#38 = DIRECTION('',(1.,0.,0.));
#39 = AXIS2_PLACEMENT_3D('',#40,#41,#42);
#40 = CARTESIAN_POINT('',(0.,0.,0.35));
#41 = DIRECTION('',(0.,0.,1.));
#42 = DIRECTION('',(1.,0.,0.));
#43 = AXIS2_PLACEMENT_3D('',#44,#45,#46);
#44 = CARTESIAN_POINT('',(0.,0.,0.));
#45 = DIRECTION('',(0.,0.,1.));
#46 = DIRECTION('',(1.,0.,0.));
#47 = AXIS2_PLACEMENT_3D('',#48,#49,#50);
#48 = CARTESIAN_POINT('',(0.,0.,0.));
#49 = DIRECTION('',(0.,0.,-1.));
#50 = DIRECTION('',(1.,0.,0.));
#51 = AXIS2_PLACEMENT_3D('',#52,#53,#54);
#52 = CARTESIAN_POINT('',(0.,0.,0.));
#53 = DIRECTION('',(0.,0.,1.));
#54 = DIRECTION('',(1.,0.,0.));
#55 = ( GEOMETRIC_REPRESENTATION_CONTEXT(3) 
GLOBAL_UNCERTAINTY_ASSIGNED_CONTEXT((#59)) GLOBAL_UNIT_ASSIGNED_CONTEXT(
(#56,#57,#58)) REPRESENTATION_CONTEXT('Context #1',
  '3D Context with UNIT and UNCERTAINTY') );
#56 = ( LENGTH_UNIT() NAMED_UNIT(*) SI_UNIT(.MILLI.,.METRE.) );
#57 = ( NAMED_UNIT(*) PLANE_ANGLE_UNIT() SI_UNIT($,.RADIAN.) );
#58 = ( NAMED_UNIT(*) SI_UNIT($,.STERADIAN.) SOLID_ANGLE_UNIT() );
#59 = UNCERTAINTY_MEASURE_WITH_UNIT(LENGTH_MEASURE(1.E-07),#56,
  'distance_accuracy_value','confusion accuracy');
#60 = PRODUCT_RELATED_PRODUCT_CATEGORY('part',$,(#7));
#61 = SHAPE_DEFINITION_REPRESENTATION(#62,#68);
#62 = PRODUCT_DEFINITION_SHAPE('','',#63);
#63 = PRODUCT_DEFINITION('design','',#64,#67);
#64 = PRODUCT_DEFINITION_FORMATION('','',#65);
#65 = PRODUCT('Sketch','Sketch','',(#66));
#66 = PRODUCT_CONTEXT('',#2,'mechanical');
#67 = PRODUCT_DEFINITION_CONTEXT('part definition',#2,'design');
#68 = GEOMETRICALLY_BOUNDED_WIREFRAME_SHAPE_REPRESENTATION('',(#11,#69),
  #112);
#69 = GEOMETRIC_CURVE_SET('',(#70,#77,#84,#91,#98,#105));
#70 = TRIMMED_CURVE('',#71,(#75,PARAMETER_VALUE(0.)),(#76,
    PARAMETER_VALUE(2.6)),.T.,.PARAMETER.);
#71 = LINE('',#72,#73);
#72 = CARTESIAN_POINT('',(1.3,-1.3,0.));
#73 = VECTOR('',#74,1.);
#74 = DIRECTION('',(-1.,0.,0.));
#75 = CARTESIAN_POINT('',(1.3,-1.3,0.));
#76 = CARTESIAN_POINT('',(-1.3,-1.3,0.));
#77 = TRIMMED_CURVE('',#78,(#82,PARAMETER_VALUE(0.)),(#83,
    PARAMETER_VALUE(2.3)),.T.,.PARAMETER.);
#78 = LINE('',#79,#80);
#79 = CARTESIAN_POINT('',(-1.3,-1.3,0.));
#80 = VECTOR('',#81,1.);
#81 = DIRECTION('',(0.,1.,0.));
#82 = CARTESIAN_POINT('',(-1.3,-1.3,0.));
#83 = CARTESIAN_POINT('',(-1.3,1.,0.));
#84 = TRIMMED_CURVE('',#85,(#89,PARAMETER_VALUE(0.)),(#90,
    PARAMETER_VALUE(0.424264068712)),.T.,.PARAMETER.);
#85 = LINE('',#86,#87);
#86 = CARTESIAN_POINT('',(-1.3,1.,0.));
#87 = VECTOR('',#88,1.);
#88 = DIRECTION('',(0.707106781187,0.707106781187,0.));
#89 = CARTESIAN_POINT('',(-1.3,1.,0.));
#90 = CARTESIAN_POINT('',(-1.,1.3,0.));
#91 = TRIMMED_CURVE('',#92,(#96,PARAMETER_VALUE(0.)),(#97,
    PARAMETER_VALUE(2.)),.T.,.PARAMETER.);
#92 = LINE('',#93,#94);
#93 = CARTESIAN_POINT('',(-1.,1.3,0.));
#94 = VECTOR('',#95,1.);
#95 = DIRECTION('',(1.,0.,0.));
#96 = CARTESIAN_POINT('',(-1.,1.3,0.));
#97 = CARTESIAN_POINT('',(1.,1.3,0.));
#98 = TRIMMED_CURVE('',#99,(#103,PARAMETER_VALUE(0.)),(#104,
    PARAMETER_VALUE(0.424264068712)),.T.,.PARAMETER.);
#99 = LINE('',#100,#101);
#100 = CARTESIAN_POINT('',(1.,1.3,0.));
#101 = VECTOR('',#102,1.);
#102 = DIRECTION('',(0.707106781187,-0.707106781187,0.));
#103 = CARTESIAN_POINT('',(1.,1.3,0.));
#104 = CARTESIAN_POINT('',(1.3,1.,0.));
#105 = TRIMMED_CURVE('',#106,(#110,PARAMETER_VALUE(0.)),(#111,
    PARAMETER_VALUE(2.3)),.T.,.PARAMETER.);
#106 = LINE('',#107,#108);
#107 = CARTESIAN_POINT('',(1.3,-1.3,0.));
#108 = VECTOR('',#109,1.);
#109 = DIRECTION('',(0.,1.,0.));
#110 = CARTESIAN_POINT('',(1.3,-1.3,0.));
#111 = CARTESIAN_POINT('',(1.3,1.,0.));
#112 = ( GEOMETRIC_REPRESENTATION_CONTEXT(3) 
GLOBAL_UNCERTAINTY_ASSIGNED_CONTEXT((#116)) GLOBAL_UNIT_ASSIGNED_CONTEXT
((#113,#114,#115)) REPRESENTATION_CONTEXT('Context #1',
  '3D Context with UNIT and UNCERTAINTY') );
#113 = ( LENGTH_UNIT() NAMED_UNIT(*) SI_UNIT(.MILLI.,.METRE.) );
#114 = ( NAMED_UNIT(*) PLANE_ANGLE_UNIT() SI_UNIT($,.RADIAN.) );
#115 = ( NAMED_UNIT(*) SI_UNIT($,.STERADIAN.) SOLID_ANGLE_UNIT() );
#116 = UNCERTAINTY_MEASURE_WITH_UNIT(LENGTH_MEASURE(1.E-07),#113,
  'distance_accuracy_value','confusion accuracy');
#117 = CONTEXT_DEPENDENT_SHAPE_REPRESENTATION(#118,#120);
#118 = ( REPRESENTATION_RELATIONSHIP('','',#68,#10) 
REPRESENTATION_RELATIONSHIP_WITH_TRANSFORMATION(#119) 
SHAPE_REPRESENTATION_RELATIONSHIP() );
#119 = ITEM_DEFINED_TRANSFORMATION('','',#11,#15);
#120 = PRODUCT_DEFINITION_SHAPE('Placement','Placement of an item',#121
  );
#121 = NEXT_ASSEMBLY_USAGE_OCCURRENCE('16','Sketch','',#5,#63,$);
#122 = PRODUCT_RELATED_PRODUCT_CATEGORY('part',$,(#65));
#123 = SHAPE_DEFINITION_REPRESENTATION(#124,#130);
#124 = PRODUCT_DEFINITION_SHAPE('','',#125);
#125 = PRODUCT_DEFINITION('design','',#126,#129);
#126 = PRODUCT_DEFINITION_FORMATION('','',#127);
#127 = PRODUCT('Extrude','Extrude','',(#128));
#128 = PRODUCT_CONTEXT('',#2,'mechanical');
#129 = PRODUCT_DEFINITION_CONTEXT('part definition',#2,'design');
#130 = ADVANCED_BREP_SHAPE_REPRESENTATION('',(#11,#131),#347);
#131 = MANIFOLD_SOLID_BREP('',#132);
#132 = CLOSED_SHELL('',(#133,#173,#204,#235,#266,#297,#319,#333));
#133 = ADVANCED_FACE('',(#134),#168,.T.);
#134 = FACE_BOUND('',#135,.T.);
#135 = EDGE_LOOP('',(#136,#146,#154,#162));
#136 = ORIENTED_EDGE('',*,*,#137,.T.);
#137 = EDGE_CURVE('',#138,#140,#142,.T.);
#138 = VERTEX_POINT('',#139);
#139 = CARTESIAN_POINT('',(1.3,-1.3,0.));
#140 = VERTEX_POINT('',#141);
#141 = CARTESIAN_POINT('',(1.3,-1.3,0.35));
#142 = LINE('',#143,#144);
#143 = CARTESIAN_POINT('',(1.3,-1.3,0.));
#144 = VECTOR('',#145,1.);
#145 = DIRECTION('',(0.,0.,1.));
#146 = ORIENTED_EDGE('',*,*,#147,.T.);
#147 = EDGE_CURVE('',#140,#148,#150,.T.);
#148 = VERTEX_POINT('',#149);
#149 = CARTESIAN_POINT('',(-1.3,-1.3,0.35));
#150 = LINE('',#151,#152);
#151 = CARTESIAN_POINT('',(1.3,-1.3,0.35));
#152 = VECTOR('',#153,1.);
#153 = DIRECTION('',(-1.,0.,0.));
#154 = ORIENTED_EDGE('',*,*,#155,.F.);
#155 = EDGE_CURVE('',#156,#148,#158,.T.);
#156 = VERTEX_POINT('',#157);
#157 = CARTESIAN_POINT('',(-1.3,-1.3,0.));
#158 = LINE('',#159,#160);
#159 = CARTESIAN_POINT('',(-1.3,-1.3,0.));
#160 = VECTOR('',#161,1.);
#161 = DIRECTION('',(0.,0.,1.));
#162 = ORIENTED_EDGE('',*,*,#163,.F.);
#163 = EDGE_CURVE('',#138,#156,#164,.T.);
#164 = LINE('',#165,#166);
#165 = CARTESIAN_POINT('',(1.3,-1.3,0.));
#166 = VECTOR('',#167,1.);
#167 = DIRECTION('',(-1.,0.,0.));
#168 = PLANE('',#169);
#169 = AXIS2_PLACEMENT_3D('',#170,#171,#172);
#170 = CARTESIAN_POINT('',(1.3,-1.3,0.));
#171 = DIRECTION('',(0.,-1.,0.));
#172 = DIRECTION('',(-1.,0.,0.));
#173 = ADVANCED_FACE('',(#174),#199,.T.);
#174 = FACE_BOUND('',#175,.T.);
#175 = EDGE_LOOP('',(#176,#177,#185,#193));
#176 = ORIENTED_EDGE('',*,*,#155,.T.);
#177 = ORIENTED_EDGE('',*,*,#178,.T.);
#178 = EDGE_CURVE('',#148,#179,#181,.T.);
#179 = VERTEX_POINT('',#180);
#180 = CARTESIAN_POINT('',(-1.3,1.,0.35));
#181 = LINE('',#182,#183);
#182 = CARTESIAN_POINT('',(-1.3,-1.3,0.35));
#183 = VECTOR('',#184,1.);
#184 = DIRECTION('',(0.,1.,0.));
#185 = ORIENTED_EDGE('',*,*,#186,.F.);
#186 = EDGE_CURVE('',#187,#179,#189,.T.);
#187 = VERTEX_POINT('',#188);
#188 = CARTESIAN_POINT('',(-1.3,1.,0.));
#189 = LINE('',#190,#191);
#190 = CARTESIAN_POINT('',(-1.3,1.,0.));
#191 = VECTOR('',#192,1.);
#192 = DIRECTION('',(0.,0.,1.));
#193 = ORIENTED_EDGE('',*,*,#194,.F.);
#194 = EDGE_CURVE('',#156,#187,#195,.T.);
#195 = LINE('',#196,#197);
#196 = CARTESIAN_POINT('',(-1.3,-1.3,0.));
#197 = VECTOR('',#198,1.);
#198 = DIRECTION('',(0.,1.,0.));
#199 = PLANE('',#200);
#200 = AXIS2_PLACEMENT_3D('',#201,#202,#203);
#201 = CARTESIAN_POINT('',(-1.3,-1.3,0.));
#202 = DIRECTION('',(-1.,0.,0.));
#203 = DIRECTION('',(0.,1.,0.));
#204 = ADVANCED_FACE('',(#205),#230,.T.);
#205 = FACE_BOUND('',#206,.T.);
#206 = EDGE_LOOP('',(#207,#208,#216,#224));
#207 = ORIENTED_EDGE('',*,*,#186,.T.);
#208 = ORIENTED_EDGE('',*,*,#209,.T.);
#209 = EDGE_CURVE('',#179,#210,#212,.T.);
#210 = VERTEX_POINT('',#211);
#211 = CARTESIAN_POINT('',(-1.,1.3,0.35));
#212 = LINE('',#213,#214);
#213 = CARTESIAN_POINT('',(-1.3,1.,0.35));
#214 = VECTOR('',#215,1.);
#215 = DIRECTION('',(0.707106781187,0.707106781187,0.));
#216 = ORIENTED_EDGE('',*,*,#217,.F.);
#217 = EDGE_CURVE('',#218,#210,#220,.T.);
#218 = VERTEX_POINT('',#219);
#219 = CARTESIAN_POINT('',(-1.,1.3,0.));
#220 = LINE('',#221,#222);
#221 = CARTESIAN_POINT('',(-1.,1.3,0.));
#222 = VECTOR('',#223,1.);
#223 = DIRECTION('',(0.,0.,1.));
#224 = ORIENTED_EDGE('',*,*,#225,.F.);
#225 = EDGE_CURVE('',#187,#218,#226,.T.);
#226 = LINE('',#227,#228);
#227 = CARTESIAN_POINT('',(-1.3,1.,0.));
#228 = VECTOR('',#229,1.);
#229 = DIRECTION('',(0.707106781187,0.707106781187,0.));
#230 = PLANE('',#231);
#231 = AXIS2_PLACEMENT_3D('',#232,#233,#234);
#232 = CARTESIAN_POINT('',(-1.3,1.,0.));
#233 = DIRECTION('',(-0.707106781187,0.707106781187,0.));
#234 = DIRECTION('',(0.707106781187,0.707106781187,0.));
#235 = ADVANCED_FACE('',(#236),#261,.T.);
#236 = FACE_BOUND('',#237,.T.);
#237 = EDGE_LOOP('',(#238,#239,#247,#255));
#238 = ORIENTED_EDGE('',*,*,#217,.T.);
#239 = ORIENTED_EDGE('',*,*,#240,.T.);
#240 = EDGE_CURVE('',#210,#241,#243,.T.);
#241 = VERTEX_POINT('',#242);
#242 = CARTESIAN_POINT('',(1.,1.3,0.35));
#243 = LINE('',#244,#245);
#244 = CARTESIAN_POINT('',(-1.,1.3,0.35));
#245 = VECTOR('',#246,1.);
#246 = DIRECTION('',(1.,0.,0.));
#247 = ORIENTED_EDGE('',*,*,#248,.F.);
#248 = EDGE_CURVE('',#249,#241,#251,.T.);
#249 = VERTEX_POINT('',#250);
#250 = CARTESIAN_POINT('',(1.,1.3,0.));
#251 = LINE('',#252,#253);
#252 = CARTESIAN_POINT('',(1.,1.3,0.));
#253 = VECTOR('',#254,1.);
#254 = DIRECTION('',(0.,0.,1.));
#255 = ORIENTED_EDGE('',*,*,#256,.F.);
#256 = EDGE_CURVE('',#218,#249,#257,.T.);
#257 = LINE('',#258,#259);
#258 = CARTESIAN_POINT('',(-1.,1.3,0.));
#259 = VECTOR('',#260,1.);
#260 = DIRECTION('',(1.,0.,0.));
#261 = PLANE('',#262);
#262 = AXIS2_PLACEMENT_3D('',#263,#264,#265);
#263 = CARTESIAN_POINT('',(-1.,1.3,0.));
#264 = DIRECTION('',(0.,1.,0.));
#265 = DIRECTION('',(1.,0.,0.));
#266 = ADVANCED_FACE('',(#267),#292,.T.);
#267 = FACE_BOUND('',#268,.T.);
#268 = EDGE_LOOP('',(#269,#270,#278,#286));
#269 = ORIENTED_EDGE('',*,*,#248,.T.);
#270 = ORIENTED_EDGE('',*,*,#271,.T.);
#271 = EDGE_CURVE('',#241,#272,#274,.T.);
#272 = VERTEX_POINT('',#273);
#273 = CARTESIAN_POINT('',(1.3,1.,0.35));
#274 = LINE('',#275,#276);
#275 = CARTESIAN_POINT('',(1.,1.3,0.35));
#276 = VECTOR('',#277,1.);
#277 = DIRECTION('',(0.707106781187,-0.707106781187,0.));
#278 = ORIENTED_EDGE('',*,*,#279,.F.);
#279 = EDGE_CURVE('',#280,#272,#282,.T.);
#280 = VERTEX_POINT('',#281);
#281 = CARTESIAN_POINT('',(1.3,1.,0.));
#282 = LINE('',#283,#284);
#283 = CARTESIAN_POINT('',(1.3,1.,0.));
#284 = VECTOR('',#285,1.);
#285 = DIRECTION('',(0.,0.,1.));
#286 = ORIENTED_EDGE('',*,*,#287,.F.);
#287 = EDGE_CURVE('',#249,#280,#288,.T.);
#288 = LINE('',#289,#290);
#289 = CARTESIAN_POINT('',(1.,1.3,0.));
#290 = VECTOR('',#291,1.);
#291 = DIRECTION('',(0.707106781187,-0.707106781187,0.));
#292 = PLANE('',#293);
#293 = AXIS2_PLACEMENT_3D('',#294,#295,#296);
#294 = CARTESIAN_POINT('',(1.,1.3,0.));
#295 = DIRECTION('',(0.707106781187,0.707106781187,-0.));
#296 = DIRECTION('',(0.707106781187,-0.707106781187,0.));
#297 = ADVANCED_FACE('',(#298),#314,.F.);
#298 = FACE_BOUND('',#299,.F.);
#299 = EDGE_LOOP('',(#300,#301,#307,#308));
#300 = ORIENTED_EDGE('',*,*,#137,.T.);
#301 = ORIENTED_EDGE('',*,*,#302,.T.);
#302 = EDGE_CURVE('',#140,#272,#303,.T.);
#303 = LINE('',#304,#305);
#304 = CARTESIAN_POINT('',(1.3,-1.3,0.35));
#305 = VECTOR('',#306,1.);
#306 = DIRECTION('',(0.,1.,0.));
#307 = ORIENTED_EDGE('',*,*,#279,.F.);
#308 = ORIENTED_EDGE('',*,*,#309,.F.);
#309 = EDGE_CURVE('',#138,#280,#310,.T.);
#310 = LINE('',#311,#312);
#311 = CARTESIAN_POINT('',(1.3,-1.3,0.));
#312 = VECTOR('',#313,1.);
#313 = DIRECTION('',(0.,1.,0.));
#314 = PLANE('',#315);
#315 = AXIS2_PLACEMENT_3D('',#316,#317,#318);
#316 = CARTESIAN_POINT('',(1.3,-1.3,0.));
#317 = DIRECTION('',(-1.,0.,0.));
#318 = DIRECTION('',(0.,1.,0.));
#319 = ADVANCED_FACE('',(#320),#328,.F.);
#320 = FACE_BOUND('',#321,.T.);
#321 = EDGE_LOOP('',(#322,#323,#324,#325,#326,#327));
#322 = ORIENTED_EDGE('',*,*,#163,.T.);
#323 = ORIENTED_EDGE('',*,*,#194,.T.);
#324 = ORIENTED_EDGE('',*,*,#225,.T.);
#325 = ORIENTED_EDGE('',*,*,#256,.T.);
#326 = ORIENTED_EDGE('',*,*,#287,.T.);
#327 = ORIENTED_EDGE('',*,*,#309,.F.);
#328 = PLANE('',#329);
#329 = AXIS2_PLACEMENT_3D('',#330,#331,#332);
#330 = CARTESIAN_POINT('',(-4.419445353356E-17,-4.918059990518E-02,0.));
#331 = DIRECTION('',(0.,0.,1.));
#332 = DIRECTION('',(1.,0.,-0.));
#333 = ADVANCED_FACE('',(#334),#342,.T.);
#334 = FACE_BOUND('',#335,.F.);
#335 = EDGE_LOOP('',(#336,#337,#338,#339,#340,#341));
#336 = ORIENTED_EDGE('',*,*,#147,.T.);
#337 = ORIENTED_EDGE('',*,*,#178,.T.);
#338 = ORIENTED_EDGE('',*,*,#209,.T.);
#339 = ORIENTED_EDGE('',*,*,#240,.T.);
#340 = ORIENTED_EDGE('',*,*,#271,.T.);
#341 = ORIENTED_EDGE('',*,*,#302,.F.);
#342 = PLANE('',#343);
#343 = AXIS2_PLACEMENT_3D('',#344,#345,#346);
#344 = CARTESIAN_POINT('',(-4.419445353356E-17,-4.918059990518E-02,0.35)
  );
#345 = DIRECTION('',(0.,0.,1.));
#346 = DIRECTION('',(1.,0.,-0.));
#347 = ( GEOMETRIC_REPRESENTATION_CONTEXT(3) 
GLOBAL_UNCERTAINTY_ASSIGNED_CONTEXT((#351)) GLOBAL_UNIT_ASSIGNED_CONTEXT
((#348,#349,#350)) REPRESENTATION_CONTEXT('Context #1',
  '3D Context with UNIT and UNCERTAINTY') );
#348 = ( LENGTH_UNIT() NAMED_UNIT(*) SI_UNIT(.MILLI.,.METRE.) );
#349 = ( NAMED_UNIT(*) PLANE_ANGLE_UNIT() SI_UNIT($,.RADIAN.) );
#350 = ( NAMED_UNIT(*) SI_UNIT($,.STERADIAN.) SOLID_ANGLE_UNIT() );
#351 = UNCERTAINTY_MEASURE_WITH_UNIT(LENGTH_MEASURE(1.E-07),#348,
  'distance_accuracy_value','confusion accuracy');
#352 = CONTEXT_DEPENDENT_SHAPE_REPRESENTATION(#353,#355);
#353 = ( REPRESENTATION_RELATIONSHIP('','',#130,#10) 
REPRESENTATION_RELATIONSHIP_WITH_TRANSFORMATION(#354) 
SHAPE_REPRESENTATION_RELATIONSHIP() );
#354 = ITEM_DEFINED_TRANSFORMATION('','',#11,#19);
#355 = PRODUCT_DEFINITION_SHAPE('Placement','Placement of an item',#356
  );
#356 = NEXT_ASSEMBLY_USAGE_OCCURRENCE('17','Extrude','',#5,#125,$);
#357 = PRODUCT_RELATED_PRODUCT_CATEGORY('part',$,(#127));
#358 = SHAPE_DEFINITION_REPRESENTATION(#359,#365);
#359 = PRODUCT_DEFINITION_SHAPE('','',#360);
#360 = PRODUCT_DEFINITION('design','',#361,#364);
#361 = PRODUCT_DEFINITION_FORMATION('','',#362);
#362 = PRODUCT('Sketch001','Sketch001','',(#363));
#363 = PRODUCT_CONTEXT('',#2,'mechanical');
#364 = PRODUCT_DEFINITION_CONTEXT('part definition',#2,'design');
#365 = SHAPE_REPRESENTATION('',(#11,#366,#395),#424);
#366 = GEOMETRIC_CURVE_SET('',(#367,#374,#381,#388));
#367 = TRIMMED_CURVE('',#368,(#372,PARAMETER_VALUE(0.)),(#373,
    PARAMETER_VALUE(0.25)),.T.,.PARAMETER.);
#368 = LINE('',#369,#370);
#369 = CARTESIAN_POINT('',(-1.55,-0.9,0.));
#370 = VECTOR('',#371,1.);
#371 = DIRECTION('',(1.,0.,0.));
#372 = CARTESIAN_POINT('',(-1.55,-0.9,0.));
#373 = CARTESIAN_POINT('',(-1.3,-0.9,0.));
#374 = TRIMMED_CURVE('',#375,(#379,PARAMETER_VALUE(0.)),(#380,
    PARAMETER_VALUE(1.8)),.T.,.PARAMETER.);
#375 = LINE('',#376,#377);
#376 = CARTESIAN_POINT('',(-1.3,-0.9,0.));
#377 = VECTOR('',#378,1.);
#378 = DIRECTION('',(0.,1.,0.));
#379 = CARTESIAN_POINT('',(-1.3,-0.9,0.));
#380 = CARTESIAN_POINT('',(-1.3,0.9,0.));
#381 = TRIMMED_CURVE('',#382,(#386,PARAMETER_VALUE(0.)),(#387,
    PARAMETER_VALUE(0.25)),.T.,.PARAMETER.);
#382 = LINE('',#383,#384);
#383 = CARTESIAN_POINT('',(-1.3,0.9,0.));
#384 = VECTOR('',#385,1.);
#385 = DIRECTION('',(-1.,0.,0.));
#386 = CARTESIAN_POINT('',(-1.3,0.9,0.));
#387 = CARTESIAN_POINT('',(-1.55,0.9,0.));
#388 = TRIMMED_CURVE('',#389,(#393,PARAMETER_VALUE(0.)),(#394,
    PARAMETER_VALUE(1.8)),.T.,.PARAMETER.);
#389 = LINE('',#390,#391);
#390 = CARTESIAN_POINT('',(-1.55,0.9,0.));
#391 = VECTOR('',#392,1.);
#392 = DIRECTION('',(0.,-1.,0.));
#393 = CARTESIAN_POINT('',(-1.55,0.9,0.));
#394 = CARTESIAN_POINT('',(-1.55,-0.9,0.));
#395 = GEOMETRIC_CURVE_SET('',(#396,#403,#410,#417));
#396 = TRIMMED_CURVE('',#397,(#401,PARAMETER_VALUE(0.)),(#402,
    PARAMETER_VALUE(0.25)),.T.,.PARAMETER.);
#397 = LINE('',#398,#399);
#398 = CARTESIAN_POINT('',(1.55,-0.9,0.));
#399 = VECTOR('',#400,1.);
#400 = DIRECTION('',(-1.,0.,0.));
#401 = CARTESIAN_POINT('',(1.55,-0.9,0.));
#402 = CARTESIAN_POINT('',(1.3,-0.9,0.));
#403 = TRIMMED_CURVE('',#404,(#408,PARAMETER_VALUE(0.)),(#409,
    PARAMETER_VALUE(1.8)),.T.,.PARAMETER.);
#404 = LINE('',#405,#406);
#405 = CARTESIAN_POINT('',(1.3,-0.9,0.));
#406 = VECTOR('',#407,1.);
#407 = DIRECTION('',(0.,1.,0.));
#408 = CARTESIAN_POINT('',(1.3,-0.9,0.));
#409 = CARTESIAN_POINT('',(1.3,0.9,0.));
#410 = TRIMMED_CURVE('',#411,(#415,PARAMETER_VALUE(0.)),(#416,
    PARAMETER_VALUE(0.25)),.T.,.PARAMETER.);
#411 = LINE('',#412,#413);
#412 = CARTESIAN_POINT('',(1.3,0.9,0.));
#413 = VECTOR('',#414,1.);
#414 = DIRECTION('',(1.,0.,0.));
#415 = CARTESIAN_POINT('',(1.3,0.9,0.));
#416 = CARTESIAN_POINT('',(1.55,0.9,0.));
#417 = TRIMMED_CURVE('',#418,(#422,PARAMETER_VALUE(0.)),(#423,
    PARAMETER_VALUE(1.8)),.T.,.PARAMETER.);
#418 = LINE('',#419,#420);
#419 = CARTESIAN_POINT('',(1.55,0.9,0.));
#420 = VECTOR('',#421,1.);
#421 = DIRECTION('',(0.,-1.,0.));
#422 = CARTESIAN_POINT('',(1.55,0.9,0.));
#423 = CARTESIAN_POINT('',(1.55,-0.9,0.));
#424 = ( GEOMETRIC_REPRESENTATION_CONTEXT(3) 
GLOBAL_UNCERTAINTY_ASSIGNED_CONTEXT((#428)) GLOBAL_UNIT_ASSIGNED_CONTEXT
((#425,#426,#427)) REPRESENTATION_CONTEXT('Context #1',
  '3D Context with UNIT and UNCERTAINTY') );
#425 = ( LENGTH_UNIT() NAMED_UNIT(*) SI_UNIT(.MILLI.,.METRE.) );
#426 = ( NAMED_UNIT(*) PLANE_ANGLE_UNIT() SI_UNIT($,.RADIAN.) );
#427 = ( NAMED_UNIT(*) SI_UNIT($,.STERADIAN.) SOLID_ANGLE_UNIT() );
#428 = UNCERTAINTY_MEASURE_WITH_UNIT(LENGTH_MEASURE(1.E-07),#425,
  'distance_accuracy_value','confusion accuracy');
#429 = CONTEXT_DEPENDENT_SHAPE_REPRESENTATION(#430,#432);
#430 = ( REPRESENTATION_RELATIONSHIP('','',#365,#10) 
REPRESENTATION_RELATIONSHIP_WITH_TRANSFORMATION(#431) 
SHAPE_REPRESENTATION_RELATIONSHIP() );
#431 = ITEM_DEFINED_TRANSFORMATION('','',#11,#23);
#432 = PRODUCT_DEFINITION_SHAPE('Placement','Placement of an item',#433
  );
#433 = NEXT_ASSEMBLY_USAGE_OCCURRENCE('18','Sketch001','',#5,#360,$);
#434 = PRODUCT_RELATED_PRODUCT_CATEGORY('part',$,(#362));
#435 = SHAPE_DEFINITION_REPRESENTATION(#436,#442);
#436 = PRODUCT_DEFINITION_SHAPE('','',#437);
#437 = PRODUCT_DEFINITION('design','',#438,#441);
#438 = PRODUCT_DEFINITION_FORMATION('','',#439);
#439 = PRODUCT('Extrude001','Extrude001','',(#440));
#440 = PRODUCT_CONTEXT('',#2,'mechanical');
#441 = PRODUCT_DEFINITION_CONTEXT('part definition',#2,'design');
#442 = SHAPE_REPRESENTATION('',(#11,#443,#593),#743);
#443 = MANIFOLD_SOLID_BREP('',#444);
#444 = CLOSED_SHELL('',(#445,#485,#516,#547,#569,#581));
#445 = ADVANCED_FACE('',(#446),#480,.T.);
#446 = FACE_BOUND('',#447,.T.);
#447 = EDGE_LOOP('',(#448,#458,#466,#474));
#448 = ORIENTED_EDGE('',*,*,#449,.T.);
#449 = EDGE_CURVE('',#450,#452,#454,.T.);
#450 = VERTEX_POINT('',#451);
#451 = CARTESIAN_POINT('',(-1.55,0.9,0.));
#452 = VERTEX_POINT('',#453);
#453 = CARTESIAN_POINT('',(-1.55,0.9,0.17));
#454 = LINE('',#455,#456);
#455 = CARTESIAN_POINT('',(-1.55,0.9,0.));
#456 = VECTOR('',#457,1.);
#457 = DIRECTION('',(-0.,-0.,1.));
#458 = ORIENTED_EDGE('',*,*,#459,.T.);
#459 = EDGE_CURVE('',#452,#460,#462,.T.);
#460 = VERTEX_POINT('',#461);
#461 = CARTESIAN_POINT('',(-1.3,0.9,0.17));
#462 = LINE('',#463,#464);
#463 = CARTESIAN_POINT('',(-1.55,0.9,0.17));
#464 = VECTOR('',#465,1.);
#465 = DIRECTION('',(1.,0.,0.));
#466 = ORIENTED_EDGE('',*,*,#467,.F.);
#467 = EDGE_CURVE('',#468,#460,#470,.T.);
#468 = VERTEX_POINT('',#469);
#469 = CARTESIAN_POINT('',(-1.3,0.9,0.));
#470 = LINE('',#471,#472);
#471 = CARTESIAN_POINT('',(-1.3,0.9,0.));
#472 = VECTOR('',#473,1.);
#473 = DIRECTION('',(-0.,-0.,1.));
#474 = ORIENTED_EDGE('',*,*,#475,.F.);
#475 = EDGE_CURVE('',#450,#468,#476,.T.);
#476 = LINE('',#477,#478);
#477 = CARTESIAN_POINT('',(-1.55,0.9,0.));
#478 = VECTOR('',#479,1.);
#479 = DIRECTION('',(1.,0.,0.));
#480 = PLANE('',#481);
#481 = AXIS2_PLACEMENT_3D('',#482,#483,#484);
#482 = CARTESIAN_POINT('',(-1.55,0.9,0.));
#483 = DIRECTION('',(-0.,1.,0.));
#484 = DIRECTION('',(1.,0.,0.));
#485 = ADVANCED_FACE('',(#486),#511,.T.);
#486 = FACE_BOUND('',#487,.T.);
#487 = EDGE_LOOP('',(#488,#489,#497,#505));
#488 = ORIENTED_EDGE('',*,*,#467,.T.);
#489 = ORIENTED_EDGE('',*,*,#490,.T.);
#490 = EDGE_CURVE('',#460,#491,#493,.T.);
#491 = VERTEX_POINT('',#492);
#492 = CARTESIAN_POINT('',(-1.3,-0.9,0.17));
#493 = LINE('',#494,#495);
#494 = CARTESIAN_POINT('',(-1.3,0.9,0.17));
#495 = VECTOR('',#496,1.);
#496 = DIRECTION('',(0.,-1.,0.));
#497 = ORIENTED_EDGE('',*,*,#498,.F.);
#498 = EDGE_CURVE('',#499,#491,#501,.T.);
#499 = VERTEX_POINT('',#500);
#500 = CARTESIAN_POINT('',(-1.3,-0.9,0.));
#501 = LINE('',#502,#503);
#502 = CARTESIAN_POINT('',(-1.3,-0.9,0.));
#503 = VECTOR('',#504,1.);
#504 = DIRECTION('',(-0.,-0.,1.));
#505 = ORIENTED_EDGE('',*,*,#506,.F.);
#506 = EDGE_CURVE('',#468,#499,#507,.T.);
#507 = LINE('',#508,#509);
#508 = CARTESIAN_POINT('',(-1.3,0.9,0.));
#509 = VECTOR('',#510,1.);
#510 = DIRECTION('',(0.,-1.,0.));
#511 = PLANE('',#512);
#512 = AXIS2_PLACEMENT_3D('',#513,#514,#515);
#513 = CARTESIAN_POINT('',(-1.3,0.9,0.));
#514 = DIRECTION('',(1.,0.,0.));
#515 = DIRECTION('',(0.,-1.,0.));
#516 = ADVANCED_FACE('',(#517),#542,.T.);
#517 = FACE_BOUND('',#518,.T.);
#518 = EDGE_LOOP('',(#519,#520,#528,#536));
#519 = ORIENTED_EDGE('',*,*,#498,.T.);
#520 = ORIENTED_EDGE('',*,*,#521,.T.);
#521 = EDGE_CURVE('',#491,#522,#524,.T.);
#522 = VERTEX_POINT('',#523);
#523 = CARTESIAN_POINT('',(-1.55,-0.9,0.17));
#524 = LINE('',#525,#526);
#525 = CARTESIAN_POINT('',(-1.3,-0.9,0.17));
#526 = VECTOR('',#527,1.);
#527 = DIRECTION('',(-1.,0.,0.));
#528 = ORIENTED_EDGE('',*,*,#529,.F.);
#529 = EDGE_CURVE('',#530,#522,#532,.T.);
#530 = VERTEX_POINT('',#531);
#531 = CARTESIAN_POINT('',(-1.55,-0.9,0.));
#532 = LINE('',#533,#534);
#533 = CARTESIAN_POINT('',(-1.55,-0.9,0.));
#534 = VECTOR('',#535,1.);
#535 = DIRECTION('',(-0.,-0.,1.));
#536 = ORIENTED_EDGE('',*,*,#537,.F.);
#537 = EDGE_CURVE('',#499,#530,#538,.T.);
#538 = LINE('',#539,#540);
#539 = CARTESIAN_POINT('',(-1.3,-0.9,0.));
#540 = VECTOR('',#541,1.);
#541 = DIRECTION('',(-1.,0.,0.));
#542 = PLANE('',#543);
#543 = AXIS2_PLACEMENT_3D('',#544,#545,#546);
#544 = CARTESIAN_POINT('',(-1.3,-0.9,0.));
#545 = DIRECTION('',(-0.,-1.,-0.));
#546 = DIRECTION('',(-1.,0.,0.));
#547 = ADVANCED_FACE('',(#548),#564,.T.);
#548 = FACE_BOUND('',#549,.T.);
#549 = EDGE_LOOP('',(#550,#551,#557,#558));
#550 = ORIENTED_EDGE('',*,*,#529,.T.);
#551 = ORIENTED_EDGE('',*,*,#552,.T.);
#552 = EDGE_CURVE('',#522,#452,#553,.T.);
#553 = LINE('',#554,#555);
#554 = CARTESIAN_POINT('',(-1.55,-0.9,0.17));
#555 = VECTOR('',#556,1.);
#556 = DIRECTION('',(0.,1.,0.));
#557 = ORIENTED_EDGE('',*,*,#449,.F.);
#558 = ORIENTED_EDGE('',*,*,#559,.F.);
#559 = EDGE_CURVE('',#530,#450,#560,.T.);
#560 = LINE('',#561,#562);
#561 = CARTESIAN_POINT('',(-1.55,-0.9,0.));
#562 = VECTOR('',#563,1.);
#563 = DIRECTION('',(0.,1.,0.));
#564 = PLANE('',#565);
#565 = AXIS2_PLACEMENT_3D('',#566,#567,#568);
#566 = CARTESIAN_POINT('',(-1.55,-0.9,0.));
#567 = DIRECTION('',(-1.,0.,0.));
#568 = DIRECTION('',(0.,1.,0.));
#569 = ADVANCED_FACE('',(#570),#576,.F.);
#570 = FACE_BOUND('',#571,.T.);
#571 = EDGE_LOOP('',(#572,#573,#574,#575));
#572 = ORIENTED_EDGE('',*,*,#475,.T.);
#573 = ORIENTED_EDGE('',*,*,#506,.T.);
#574 = ORIENTED_EDGE('',*,*,#537,.T.);
#575 = ORIENTED_EDGE('',*,*,#559,.T.);
#576 = PLANE('',#577);
#577 = AXIS2_PLACEMENT_3D('',#578,#579,#580);
#578 = CARTESIAN_POINT('',(0.,1.353930517836E-17,0.));
#579 = DIRECTION('',(0.,0.,1.));
#580 = DIRECTION('',(1.,0.,-0.));
#581 = ADVANCED_FACE('',(#582),#588,.T.);
#582 = FACE_BOUND('',#583,.F.);
#583 = EDGE_LOOP('',(#584,#585,#586,#587));
#584 = ORIENTED_EDGE('',*,*,#459,.T.);
#585 = ORIENTED_EDGE('',*,*,#490,.T.);
#586 = ORIENTED_EDGE('',*,*,#521,.T.);
#587 = ORIENTED_EDGE('',*,*,#552,.T.);
#588 = PLANE('',#589);
#589 = AXIS2_PLACEMENT_3D('',#590,#591,#592);
#590 = CARTESIAN_POINT('',(0.,1.353930517836E-17,0.17));
#591 = DIRECTION('',(0.,0.,1.));
#592 = DIRECTION('',(1.,0.,-0.));
#593 = MANIFOLD_SOLID_BREP('',#594);
#594 = CLOSED_SHELL('',(#595,#635,#666,#697,#719,#731));
#595 = ADVANCED_FACE('',(#596),#630,.F.);
#596 = FACE_BOUND('',#597,.F.);
#597 = EDGE_LOOP('',(#598,#608,#616,#624));
#598 = ORIENTED_EDGE('',*,*,#599,.T.);
#599 = EDGE_CURVE('',#600,#602,#604,.T.);
#600 = VERTEX_POINT('',#601);
#601 = CARTESIAN_POINT('',(1.55,0.9,0.));
#602 = VERTEX_POINT('',#603);
#603 = CARTESIAN_POINT('',(1.55,0.9,0.17));
#604 = LINE('',#605,#606);
#605 = CARTESIAN_POINT('',(1.55,0.9,0.));
#606 = VECTOR('',#607,1.);
#607 = DIRECTION('',(-0.,-0.,1.));
#608 = ORIENTED_EDGE('',*,*,#609,.T.);
#609 = EDGE_CURVE('',#602,#610,#612,.T.);
#610 = VERTEX_POINT('',#611);
#611 = CARTESIAN_POINT('',(1.3,0.9,0.17));
#612 = LINE('',#613,#614);
#613 = CARTESIAN_POINT('',(1.55,0.9,0.17));
#614 = VECTOR('',#615,1.);
#615 = DIRECTION('',(-1.,0.,0.));
#616 = ORIENTED_EDGE('',*,*,#617,.F.);
#617 = EDGE_CURVE('',#618,#610,#620,.T.);
#618 = VERTEX_POINT('',#619);
#619 = CARTESIAN_POINT('',(1.3,0.9,0.));
#620 = LINE('',#621,#622);
#621 = CARTESIAN_POINT('',(1.3,0.9,0.));
#622 = VECTOR('',#623,1.);
#623 = DIRECTION('',(-0.,-0.,1.));
#624 = ORIENTED_EDGE('',*,*,#625,.F.);
#625 = EDGE_CURVE('',#600,#618,#626,.T.);
#626 = LINE('',#627,#628);
#627 = CARTESIAN_POINT('',(1.55,0.9,0.));
#628 = VECTOR('',#629,1.);
#629 = DIRECTION('',(-1.,0.,0.));
#630 = PLANE('',#631);
#631 = AXIS2_PLACEMENT_3D('',#632,#633,#634);
#632 = CARTESIAN_POINT('',(1.55,0.9,0.));
#633 = DIRECTION('',(-0.,-1.,-0.));
#634 = DIRECTION('',(-1.,0.,0.));
#635 = ADVANCED_FACE('',(#636),#661,.F.);
#636 = FACE_BOUND('',#637,.F.);
#637 = EDGE_LOOP('',(#638,#639,#647,#655));
#638 = ORIENTED_EDGE('',*,*,#617,.T.);
#639 = ORIENTED_EDGE('',*,*,#640,.T.);
#640 = EDGE_CURVE('',#610,#641,#643,.T.);
#641 = VERTEX_POINT('',#642);
#642 = CARTESIAN_POINT('',(1.3,-0.9,0.17));
#643 = LINE('',#644,#645);
#644 = CARTESIAN_POINT('',(1.3,0.9,0.17));
#645 = VECTOR('',#646,1.);
#646 = DIRECTION('',(0.,-1.,0.));
#647 = ORIENTED_EDGE('',*,*,#648,.F.);
#648 = EDGE_CURVE('',#649,#641,#651,.T.);
#649 = VERTEX_POINT('',#650);
#650 = CARTESIAN_POINT('',(1.3,-0.9,0.));
#651 = LINE('',#652,#653);
#652 = CARTESIAN_POINT('',(1.3,-0.9,0.));
#653 = VECTOR('',#654,1.);
#654 = DIRECTION('',(-0.,-0.,1.));
#655 = ORIENTED_EDGE('',*,*,#656,.F.);
#656 = EDGE_CURVE('',#618,#649,#657,.T.);
#657 = LINE('',#658,#659);
#658 = CARTESIAN_POINT('',(1.3,0.9,0.));
#659 = VECTOR('',#660,1.);
#660 = DIRECTION('',(0.,-1.,0.));
#661 = PLANE('',#662);
#662 = AXIS2_PLACEMENT_3D('',#663,#664,#665);
#663 = CARTESIAN_POINT('',(1.3,0.9,0.));
#664 = DIRECTION('',(1.,0.,0.));
#665 = DIRECTION('',(0.,-1.,0.));
#666 = ADVANCED_FACE('',(#667),#692,.F.);
#667 = FACE_BOUND('',#668,.F.);
#668 = EDGE_LOOP('',(#669,#670,#678,#686));
#669 = ORIENTED_EDGE('',*,*,#648,.T.);
#670 = ORIENTED_EDGE('',*,*,#671,.T.);
#671 = EDGE_CURVE('',#641,#672,#674,.T.);
#672 = VERTEX_POINT('',#673);
#673 = CARTESIAN_POINT('',(1.55,-0.9,0.17));
#674 = LINE('',#675,#676);
#675 = CARTESIAN_POINT('',(1.3,-0.9,0.17));
#676 = VECTOR('',#677,1.);
#677 = DIRECTION('',(1.,0.,0.));
#678 = ORIENTED_EDGE('',*,*,#679,.F.);
#679 = EDGE_CURVE('',#680,#672,#682,.T.);
#680 = VERTEX_POINT('',#681);
#681 = CARTESIAN_POINT('',(1.55,-0.9,0.));
#682 = LINE('',#683,#684);
#683 = CARTESIAN_POINT('',(1.55,-0.9,0.));
#684 = VECTOR('',#685,1.);
#685 = DIRECTION('',(-0.,-0.,1.));
#686 = ORIENTED_EDGE('',*,*,#687,.F.);
#687 = EDGE_CURVE('',#649,#680,#688,.T.);
#688 = LINE('',#689,#690);
#689 = CARTESIAN_POINT('',(1.3,-0.9,0.));
#690 = VECTOR('',#691,1.);
#691 = DIRECTION('',(1.,0.,0.));
#692 = PLANE('',#693);
#693 = AXIS2_PLACEMENT_3D('',#694,#695,#696);
#694 = CARTESIAN_POINT('',(1.3,-0.9,0.));
#695 = DIRECTION('',(-0.,1.,0.));
#696 = DIRECTION('',(1.,0.,0.));
#697 = ADVANCED_FACE('',(#698),#714,.F.);
#698 = FACE_BOUND('',#699,.F.);
#699 = EDGE_LOOP('',(#700,#701,#707,#708));
#700 = ORIENTED_EDGE('',*,*,#679,.T.);
#701 = ORIENTED_EDGE('',*,*,#702,.T.);
#702 = EDGE_CURVE('',#672,#602,#703,.T.);
#703 = LINE('',#704,#705);
#704 = CARTESIAN_POINT('',(1.55,-0.9,0.17));
#705 = VECTOR('',#706,1.);
#706 = DIRECTION('',(0.,1.,0.));
#707 = ORIENTED_EDGE('',*,*,#599,.F.);
#708 = ORIENTED_EDGE('',*,*,#709,.F.);
#709 = EDGE_CURVE('',#680,#600,#710,.T.);
#710 = LINE('',#711,#712);
#711 = CARTESIAN_POINT('',(1.55,-0.9,0.));
#712 = VECTOR('',#713,1.);
#713 = DIRECTION('',(0.,1.,0.));
#714 = PLANE('',#715);
#715 = AXIS2_PLACEMENT_3D('',#716,#717,#718);
#716 = CARTESIAN_POINT('',(1.55,-0.9,0.));
#717 = DIRECTION('',(-1.,0.,0.));
#718 = DIRECTION('',(0.,1.,0.));
#719 = ADVANCED_FACE('',(#720),#726,.F.);
#720 = FACE_BOUND('',#721,.F.);
#721 = EDGE_LOOP('',(#722,#723,#724,#725));
#722 = ORIENTED_EDGE('',*,*,#625,.T.);
#723 = ORIENTED_EDGE('',*,*,#656,.T.);
#724 = ORIENTED_EDGE('',*,*,#687,.T.);
#725 = ORIENTED_EDGE('',*,*,#709,.T.);
#726 = PLANE('',#727);
#727 = AXIS2_PLACEMENT_3D('',#728,#729,#730);
#728 = CARTESIAN_POINT('',(0.,1.353930517836E-17,0.));
#729 = DIRECTION('',(0.,0.,1.));
#730 = DIRECTION('',(1.,0.,-0.));
#731 = ADVANCED_FACE('',(#732),#738,.T.);
#732 = FACE_BOUND('',#733,.T.);
#733 = EDGE_LOOP('',(#734,#735,#736,#737));
#734 = ORIENTED_EDGE('',*,*,#609,.T.);
#735 = ORIENTED_EDGE('',*,*,#640,.T.);
#736 = ORIENTED_EDGE('',*,*,#671,.T.);
#737 = ORIENTED_EDGE('',*,*,#702,.T.);
#738 = PLANE('',#739);
#739 = AXIS2_PLACEMENT_3D('',#740,#741,#742);
#740 = CARTESIAN_POINT('',(0.,1.353930517836E-17,0.17));
#741 = DIRECTION('',(0.,0.,1.));
#742 = DIRECTION('',(1.,0.,-0.));
#743 = ( GEOMETRIC_REPRESENTATION_CONTEXT(3) 
GLOBAL_UNCERTAINTY_ASSIGNED_CONTEXT((#747)) GLOBAL_UNIT_ASSIGNED_CONTEXT
((#744,#745,#746)) REPRESENTATION_CONTEXT('Context #1',
  '3D Context with UNIT and UNCERTAINTY') );
#744 = ( LENGTH_UNIT() NAMED_UNIT(*) SI_UNIT(.MILLI.,.METRE.) );
#745 = ( NAMED_UNIT(*) PLANE_ANGLE_UNIT() SI_UNIT($,.RADIAN.) );
#746 = ( NAMED_UNIT(*) SI_UNIT($,.STERADIAN.) SOLID_ANGLE_UNIT() );
#747 = UNCERTAINTY_MEASURE_WITH_UNIT(LENGTH_MEASURE(1.E-07),#744,
  'distance_accuracy_value','confusion accuracy');
#748 = CONTEXT_DEPENDENT_SHAPE_REPRESENTATION(#749,#751);
#749 = ( REPRESENTATION_RELATIONSHIP('','',#442,#10) 
REPRESENTATION_RELATIONSHIP_WITH_TRANSFORMATION(#750) 
SHAPE_REPRESENTATION_RELATIONSHIP() );
#750 = ITEM_DEFINED_TRANSFORMATION('','',#11,#27);
#751 = PRODUCT_DEFINITION_SHAPE('Placement','Placement of an item',#752
  );
#752 = NEXT_ASSEMBLY_USAGE_OCCURRENCE('19','Extrude001','',#5,#437,$);
#753 = PRODUCT_RELATED_PRODUCT_CATEGORY('part',$,(#439));
#754 = SHAPE_DEFINITION_REPRESENTATION(#755,#761);
#755 = PRODUCT_DEFINITION_SHAPE('','',#756);
#756 = PRODUCT_DEFINITION('design','',#757,#760);
#757 = PRODUCT_DEFINITION_FORMATION('','',#758);
#758 = PRODUCT('Sketch002','Sketch002','',(#759));
#759 = PRODUCT_CONTEXT('',#2,'mechanical');
#760 = PRODUCT_DEFINITION_CONTEXT('part definition',#2,'design');
#761 = SHAPE_REPRESENTATION('',(#11,#762,#771),#780);
#762 = GEOMETRIC_CURVE_SET('',(#763));
#763 = TRIMMED_CURVE('',#764,(#769,PARAMETER_VALUE(0.)),(#770,
    PARAMETER_VALUE(6.28318530718)),.T.,.PARAMETER.);
#764 = CIRCLE('',#765,1.);
#765 = AXIS2_PLACEMENT_3D('',#766,#767,#768);
#766 = CARTESIAN_POINT('',(0.,0.,0.));
#767 = DIRECTION('',(0.,0.,1.));
#768 = DIRECTION('',(1.,0.,-0.));
#769 = CARTESIAN_POINT('',(1.,0.,0.));
#770 = CARTESIAN_POINT('',(1.,0.,0.));
#771 = GEOMETRIC_CURVE_SET('',(#772));
#772 = TRIMMED_CURVE('',#773,(#778,PARAMETER_VALUE(0.)),(#779,
    PARAMETER_VALUE(6.28318530718)),.T.,.PARAMETER.);
#773 = CIRCLE('',#774,0.9);
#774 = AXIS2_PLACEMENT_3D('',#775,#776,#777);
#775 = CARTESIAN_POINT('',(0.,0.,0.));
#776 = DIRECTION('',(0.,0.,1.));
#777 = DIRECTION('',(1.,0.,-0.));
#778 = CARTESIAN_POINT('',(0.9,0.,0.));
#779 = CARTESIAN_POINT('',(0.9,0.,0.));
#780 = ( GEOMETRIC_REPRESENTATION_CONTEXT(3) 
GLOBAL_UNCERTAINTY_ASSIGNED_CONTEXT((#784)) GLOBAL_UNIT_ASSIGNED_CONTEXT
((#781,#782,#783)) REPRESENTATION_CONTEXT('Context #1',
  '3D Context with UNIT and UNCERTAINTY') );
#781 = ( LENGTH_UNIT() NAMED_UNIT(*) SI_UNIT(.MILLI.,.METRE.) );
#782 = ( NAMED_UNIT(*) PLANE_ANGLE_UNIT() SI_UNIT($,.RADIAN.) );
#783 = ( NAMED_UNIT(*) SI_UNIT($,.STERADIAN.) SOLID_ANGLE_UNIT() );
#784 = UNCERTAINTY_MEASURE_WITH_UNIT(LENGTH_MEASURE(1.E-07),#781,
  'distance_accuracy_value','confusion accuracy');
#785 = CONTEXT_DEPENDENT_SHAPE_REPRESENTATION(#786,#788);
#786 = ( REPRESENTATION_RELATIONSHIP('','',#761,#10) 
REPRESENTATION_RELATIONSHIP_WITH_TRANSFORMATION(#787) 
SHAPE_REPRESENTATION_RELATIONSHIP() );
#787 = ITEM_DEFINED_TRANSFORMATION('','',#11,#31);
#788 = PRODUCT_DEFINITION_SHAPE('Placement','Placement of an item',#789
  );
#789 = NEXT_ASSEMBLY_USAGE_OCCURRENCE('20','Sketch002','',#5,#756,$);
#790 = PRODUCT_RELATED_PRODUCT_CATEGORY('part',$,(#758));
#791 = SHAPE_DEFINITION_REPRESENTATION(#792,#798);
#792 = PRODUCT_DEFINITION_SHAPE('','',#793);
#793 = PRODUCT_DEFINITION('design','',#794,#797);
#794 = PRODUCT_DEFINITION_FORMATION('','',#795);
#795 = PRODUCT('Extrude002','Extrude002','',(#796));
#796 = PRODUCT_CONTEXT('',#2,'mechanical');
#797 = PRODUCT_DEFINITION_CONTEXT('part definition',#2,'design');
#798 = ADVANCED_BREP_SHAPE_REPRESENTATION('',(#11,#799),#891);
#799 = MANIFOLD_SOLID_BREP('',#800);
#800 = CLOSED_SHELL('',(#801,#834,#867,#879));
#801 = ADVANCED_FACE('',(#802),#829,.T.);
#802 = FACE_BOUND('',#803,.F.);
#803 = EDGE_LOOP('',(#804,#814,#821,#822));
#804 = ORIENTED_EDGE('',*,*,#805,.T.);
#805 = EDGE_CURVE('',#806,#808,#810,.T.);
#806 = VERTEX_POINT('',#807);
#807 = CARTESIAN_POINT('',(1.,0.,0.35));
#808 = VERTEX_POINT('',#809);
#809 = CARTESIAN_POINT('',(1.,0.,1.25));
#810 = LINE('',#811,#812);
#811 = CARTESIAN_POINT('',(1.,0.,0.35));
#812 = VECTOR('',#813,1.);
#813 = DIRECTION('',(0.,0.,1.));
#814 = ORIENTED_EDGE('',*,*,#815,.T.);
#815 = EDGE_CURVE('',#808,#808,#816,.T.);
#816 = CIRCLE('',#817,1.);
#817 = AXIS2_PLACEMENT_3D('',#818,#819,#820);
#818 = CARTESIAN_POINT('',(0.,0.,1.25));
#819 = DIRECTION('',(0.,0.,1.));
#820 = DIRECTION('',(1.,0.,0.));
#821 = ORIENTED_EDGE('',*,*,#805,.F.);
#822 = ORIENTED_EDGE('',*,*,#823,.F.);
#823 = EDGE_CURVE('',#806,#806,#824,.T.);
#824 = CIRCLE('',#825,1.);
#825 = AXIS2_PLACEMENT_3D('',#826,#827,#828);
#826 = CARTESIAN_POINT('',(0.,0.,0.35));
#827 = DIRECTION('',(0.,0.,1.));
#828 = DIRECTION('',(1.,0.,0.));
#829 = CYLINDRICAL_SURFACE('',#830,1.);
#830 = AXIS2_PLACEMENT_3D('',#831,#832,#833);
#831 = CARTESIAN_POINT('',(0.,0.,0.35));
#832 = DIRECTION('',(-0.,-0.,-1.));
#833 = DIRECTION('',(1.,0.,0.));
#834 = ADVANCED_FACE('',(#835),#862,.F.);
#835 = FACE_BOUND('',#836,.T.);
#836 = EDGE_LOOP('',(#837,#847,#854,#855));
#837 = ORIENTED_EDGE('',*,*,#838,.T.);
#838 = EDGE_CURVE('',#839,#841,#843,.T.);
#839 = VERTEX_POINT('',#840);
#840 = CARTESIAN_POINT('',(0.9,0.,0.35));
#841 = VERTEX_POINT('',#842);
#842 = CARTESIAN_POINT('',(0.9,0.,1.25));
#843 = LINE('',#844,#845);
#844 = CARTESIAN_POINT('',(0.9,0.,0.35));
#845 = VECTOR('',#846,1.);
#846 = DIRECTION('',(0.,0.,1.));
#847 = ORIENTED_EDGE('',*,*,#848,.T.);
#848 = EDGE_CURVE('',#841,#841,#849,.T.);
#849 = CIRCLE('',#850,0.9);
#850 = AXIS2_PLACEMENT_3D('',#851,#852,#853);
#851 = CARTESIAN_POINT('',(0.,0.,1.25));
#852 = DIRECTION('',(0.,0.,1.));
#853 = DIRECTION('',(1.,0.,0.));
#854 = ORIENTED_EDGE('',*,*,#838,.F.);
#855 = ORIENTED_EDGE('',*,*,#856,.F.);
#856 = EDGE_CURVE('',#839,#839,#857,.T.);
#857 = CIRCLE('',#858,0.9);
#858 = AXIS2_PLACEMENT_3D('',#859,#860,#861);
#859 = CARTESIAN_POINT('',(0.,0.,0.35));
#860 = DIRECTION('',(0.,0.,1.));
#861 = DIRECTION('',(1.,0.,0.));
#862 = CYLINDRICAL_SURFACE('',#863,0.9);
#863 = AXIS2_PLACEMENT_3D('',#864,#865,#866);
#864 = CARTESIAN_POINT('',(0.,0.,0.35));
#865 = DIRECTION('',(-0.,-0.,-1.));
#866 = DIRECTION('',(1.,0.,0.));
#867 = ADVANCED_FACE('',(#868,#871),#874,.F.);
#868 = FACE_BOUND('',#869,.F.);
#869 = EDGE_LOOP('',(#870));
#870 = ORIENTED_EDGE('',*,*,#823,.T.);
#871 = FACE_BOUND('',#872,.T.);
#872 = EDGE_LOOP('',(#873));
#873 = ORIENTED_EDGE('',*,*,#856,.T.);
#874 = PLANE('',#875);
#875 = AXIS2_PLACEMENT_3D('',#876,#877,#878);
#876 = CARTESIAN_POINT('',(-4.498158330722E-17,7.25602910476E-17,0.35));
#877 = DIRECTION('',(0.,0.,1.));
#878 = DIRECTION('',(1.,0.,-0.));
#879 = ADVANCED_FACE('',(#880,#883),#886,.T.);
#880 = FACE_BOUND('',#881,.T.);
#881 = EDGE_LOOP('',(#882));
#882 = ORIENTED_EDGE('',*,*,#815,.T.);
#883 = FACE_BOUND('',#884,.F.);
#884 = EDGE_LOOP('',(#885));
#885 = ORIENTED_EDGE('',*,*,#848,.T.);
#886 = PLANE('',#887);
#887 = AXIS2_PLACEMENT_3D('',#888,#889,#890);
#888 = CARTESIAN_POINT('',(-4.498158330722E-17,7.25602910476E-17,1.25));
#889 = DIRECTION('',(0.,0.,1.));
#890 = DIRECTION('',(1.,0.,-0.));
#891 = ( GEOMETRIC_REPRESENTATION_CONTEXT(3) 
GLOBAL_UNCERTAINTY_ASSIGNED_CONTEXT((#895)) GLOBAL_UNIT_ASSIGNED_CONTEXT
((#892,#893,#894)) REPRESENTATION_CONTEXT('Context #1',
  '3D Context with UNIT and UNCERTAINTY') );
#892 = ( LENGTH_UNIT() NAMED_UNIT(*) SI_UNIT(.MILLI.,.METRE.) );
#893 = ( NAMED_UNIT(*) PLANE_ANGLE_UNIT() SI_UNIT($,.RADIAN.) );
#894 = ( NAMED_UNIT(*) SI_UNIT($,.STERADIAN.) SOLID_ANGLE_UNIT() );
#895 = UNCERTAINTY_MEASURE_WITH_UNIT(LENGTH_MEASURE(1.E-07),#892,
  'distance_accuracy_value','confusion accuracy');
#896 = CONTEXT_DEPENDENT_SHAPE_REPRESENTATION(#897,#899);
#897 = ( REPRESENTATION_RELATIONSHIP('','',#798,#10) 
REPRESENTATION_RELATIONSHIP_WITH_TRANSFORMATION(#898) 
SHAPE_REPRESENTATION_RELATIONSHIP() );
#898 = ITEM_DEFINED_TRANSFORMATION('','',#11,#35);
#899 = PRODUCT_DEFINITION_SHAPE('Placement','Placement of an item',#900
  );
#900 = NEXT_ASSEMBLY_USAGE_OCCURRENCE('21','Extrude002','',#5,#793,$);
#901 = PRODUCT_RELATED_PRODUCT_CATEGORY('part',$,(#795));
#902 = SHAPE_DEFINITION_REPRESENTATION(#903,#909);
#903 = PRODUCT_DEFINITION_SHAPE('','',#904);
#904 = PRODUCT_DEFINITION('design','',#905,#908);
#905 = PRODUCT_DEFINITION_FORMATION('','',#906);
#906 = PRODUCT('Sketch003','Sketch003','',(#907));
#907 = PRODUCT_CONTEXT('',#2,'mechanical');
#908 = PRODUCT_DEFINITION_CONTEXT('part definition',#2,'design');
#909 = GEOMETRICALLY_BOUNDED_WIREFRAME_SHAPE_REPRESENTATION('',(#11,#910
    ),#919);
#910 = GEOMETRIC_CURVE_SET('',(#911));
#911 = TRIMMED_CURVE('',#912,(#917,PARAMETER_VALUE(0.)),(#918,
    PARAMETER_VALUE(6.28318530718)),.T.,.PARAMETER.);
#912 = CIRCLE('',#913,0.25);
#913 = AXIS2_PLACEMENT_3D('',#914,#915,#916);
#914 = CARTESIAN_POINT('',(0.,0.,0.));
#915 = DIRECTION('',(0.,0.,1.));
#916 = DIRECTION('',(1.,0.,0.));
#917 = CARTESIAN_POINT('',(0.25,0.,0.));
#918 = CARTESIAN_POINT('',(0.25,0.,0.));
#919 = ( GEOMETRIC_REPRESENTATION_CONTEXT(3) 
GLOBAL_UNCERTAINTY_ASSIGNED_CONTEXT((#923)) GLOBAL_UNIT_ASSIGNED_CONTEXT
((#920,#921,#922)) REPRESENTATION_CONTEXT('Context #1',
  '3D Context with UNIT and UNCERTAINTY') );
#920 = ( LENGTH_UNIT() NAMED_UNIT(*) SI_UNIT(.MILLI.,.METRE.) );
#921 = ( NAMED_UNIT(*) PLANE_ANGLE_UNIT() SI_UNIT($,.RADIAN.) );
#922 = ( NAMED_UNIT(*) SI_UNIT($,.STERADIAN.) SOLID_ANGLE_UNIT() );
#923 = UNCERTAINTY_MEASURE_WITH_UNIT(LENGTH_MEASURE(1.E-07),#920,
  'distance_accuracy_value','confusion accuracy');
#924 = CONTEXT_DEPENDENT_SHAPE_REPRESENTATION(#925,#927);
#925 = ( REPRESENTATION_RELATIONSHIP('','',#909,#10) 
REPRESENTATION_RELATIONSHIP_WITH_TRANSFORMATION(#926) 
SHAPE_REPRESENTATION_RELATIONSHIP() );
#926 = ITEM_DEFINED_TRANSFORMATION('','',#11,#39);
#927 = PRODUCT_DEFINITION_SHAPE('Placement','Placement of an item',#928
  );
#928 = NEXT_ASSEMBLY_USAGE_OCCURRENCE('22','Sketch003','',#5,#904,$);
#929 = PRODUCT_RELATED_PRODUCT_CATEGORY('part',$,(#906));
#930 = SHAPE_DEFINITION_REPRESENTATION(#931,#937);
#931 = PRODUCT_DEFINITION_SHAPE('','',#932);
#932 = PRODUCT_DEFINITION('design','',#933,#936);
#933 = PRODUCT_DEFINITION_FORMATION('','',#934);
#934 = PRODUCT('Extrude003','Extrude003','',(#935));
#935 = PRODUCT_CONTEXT('',#2,'mechanical');
#936 = PRODUCT_DEFINITION_CONTEXT('part definition',#2,'design');
#937 = ADVANCED_BREP_SHAPE_REPRESENTATION('',(#11,#938),#991);
#938 = MANIFOLD_SOLID_BREP('',#939);
#939 = CLOSED_SHELL('',(#940,#973,#982));
#940 = ADVANCED_FACE('',(#941),#968,.T.);
#941 = FACE_BOUND('',#942,.F.);
#942 = EDGE_LOOP('',(#943,#953,#960,#961));
#943 = ORIENTED_EDGE('',*,*,#944,.T.);
#944 = EDGE_CURVE('',#945,#947,#949,.T.);
#945 = VERTEX_POINT('',#946);
#946 = CARTESIAN_POINT('',(0.25,0.,0.35));
#947 = VERTEX_POINT('',#948);
#948 = CARTESIAN_POINT('',(0.25,0.,1.31));
#949 = LINE('',#950,#951);
#950 = CARTESIAN_POINT('',(0.25,0.,0.35));
#951 = VECTOR('',#952,1.);
#952 = DIRECTION('',(0.,0.,1.));
#953 = ORIENTED_EDGE('',*,*,#954,.T.);
#954 = EDGE_CURVE('',#947,#947,#955,.T.);
#955 = CIRCLE('',#956,0.25);
#956 = AXIS2_PLACEMENT_3D('',#957,#958,#959);
#957 = CARTESIAN_POINT('',(0.,0.,1.31));
#958 = DIRECTION('',(0.,0.,1.));
#959 = DIRECTION('',(1.,0.,0.));
#960 = ORIENTED_EDGE('',*,*,#944,.F.);
#961 = ORIENTED_EDGE('',*,*,#962,.F.);
#962 = EDGE_CURVE('',#945,#945,#963,.T.);
#963 = CIRCLE('',#964,0.25);
#964 = AXIS2_PLACEMENT_3D('',#965,#966,#967);
#965 = CARTESIAN_POINT('',(0.,0.,0.35));
#966 = DIRECTION('',(0.,0.,1.));
#967 = DIRECTION('',(1.,0.,0.));
#968 = CYLINDRICAL_SURFACE('',#969,0.25);
#969 = AXIS2_PLACEMENT_3D('',#970,#971,#972);
#970 = CARTESIAN_POINT('',(0.,0.,0.35));
#971 = DIRECTION('',(-0.,-0.,-1.));
#972 = DIRECTION('',(1.,0.,0.));
#973 = ADVANCED_FACE('',(#974),#977,.F.);
#974 = FACE_BOUND('',#975,.F.);
#975 = EDGE_LOOP('',(#976));
#976 = ORIENTED_EDGE('',*,*,#962,.T.);
#977 = PLANE('',#978);
#978 = AXIS2_PLACEMENT_3D('',#979,#980,#981);
#979 = CARTESIAN_POINT('',(-1.60246890532E-17,2.18439881135E-17,0.35));
#980 = DIRECTION('',(0.,0.,1.));
#981 = DIRECTION('',(1.,0.,-0.));
#982 = ADVANCED_FACE('',(#983),#986,.T.);
#983 = FACE_BOUND('',#984,.T.);
#984 = EDGE_LOOP('',(#985));
#985 = ORIENTED_EDGE('',*,*,#954,.T.);
#986 = PLANE('',#987);
#987 = AXIS2_PLACEMENT_3D('',#988,#989,#990);
#988 = CARTESIAN_POINT('',(-1.60246890532E-17,2.18439881135E-17,1.31));
#989 = DIRECTION('',(0.,0.,1.));
#990 = DIRECTION('',(1.,0.,-0.));
#991 = ( GEOMETRIC_REPRESENTATION_CONTEXT(3) 
GLOBAL_UNCERTAINTY_ASSIGNED_CONTEXT((#995)) GLOBAL_UNIT_ASSIGNED_CONTEXT
((#992,#993,#994)) REPRESENTATION_CONTEXT('Context #1',
  '3D Context with UNIT and UNCERTAINTY') );
#992 = ( LENGTH_UNIT() NAMED_UNIT(*) SI_UNIT(.MILLI.,.METRE.) );
#993 = ( NAMED_UNIT(*) PLANE_ANGLE_UNIT() SI_UNIT($,.RADIAN.) );
#994 = ( NAMED_UNIT(*) SI_UNIT($,.STERADIAN.) SOLID_ANGLE_UNIT() );
#995 = UNCERTAINTY_MEASURE_WITH_UNIT(LENGTH_MEASURE(1.E-07),#992,
  'distance_accuracy_value','confusion accuracy');
#996 = CONTEXT_DEPENDENT_SHAPE_REPRESENTATION(#997,#999);
#997 = ( REPRESENTATION_RELATIONSHIP('','',#937,#10) 
REPRESENTATION_RELATIONSHIP_WITH_TRANSFORMATION(#998) 
SHAPE_REPRESENTATION_RELATIONSHIP() );
#998 = ITEM_DEFINED_TRANSFORMATION('','',#11,#43);
#999 = PRODUCT_DEFINITION_SHAPE('Placement','Placement of an item',#1000
  );
#1000 = NEXT_ASSEMBLY_USAGE_OCCURRENCE('23','Extrude003','',#5,#932,$);
#1001 = PRODUCT_RELATED_PRODUCT_CATEGORY('part',$,(#934));
#1002 = SHAPE_DEFINITION_REPRESENTATION(#1003,#1009);
#1003 = PRODUCT_DEFINITION_SHAPE('','',#1004);
#1004 = PRODUCT_DEFINITION('design','',#1005,#1008);
#1005 = PRODUCT_DEFINITION_FORMATION('','',#1006);
#1006 = PRODUCT('Sketch004','Sketch004','',(#1007));
#1007 = PRODUCT_CONTEXT('',#2,'mechanical');
#1008 = PRODUCT_DEFINITION_CONTEXT('part definition',#2,'design');
#1009 = SHAPE_REPRESENTATION('',(#11,#1010,#1039),#1068);
#1010 = GEOMETRIC_CURVE_SET('',(#1011,#1018,#1025,#1032));
#1011 = TRIMMED_CURVE('',#1012,(#1016,PARAMETER_VALUE(0.)),(#1017,
    PARAMETER_VALUE(0.25)),.T.,.PARAMETER.);
#1012 = LINE('',#1013,#1014);
#1013 = CARTESIAN_POINT('',(0.26,1.3,0.));
#1014 = VECTOR('',#1015,1.);
#1015 = DIRECTION('',(0.,1.,0.));
#1016 = CARTESIAN_POINT('',(0.26,1.3,0.));
#1017 = CARTESIAN_POINT('',(0.26,1.55,0.));
#1018 = TRIMMED_CURVE('',#1019,(#1023,PARAMETER_VALUE(0.)),(#1024,
    PARAMETER_VALUE(0.52)),.T.,.PARAMETER.);
#1019 = LINE('',#1020,#1021);
#1020 = CARTESIAN_POINT('',(0.26,1.55,0.));
#1021 = VECTOR('',#1022,1.);
#1022 = DIRECTION('',(-1.,0.,0.));
#1023 = CARTESIAN_POINT('',(0.26,1.55,0.));
#1024 = CARTESIAN_POINT('',(-0.26,1.55,0.));
#1025 = TRIMMED_CURVE('',#1026,(#1030,PARAMETER_VALUE(0.)),(#1031,
    PARAMETER_VALUE(0.25)),.T.,.PARAMETER.);
#1026 = LINE('',#1027,#1028);
#1027 = CARTESIAN_POINT('',(-0.26,1.55,0.));
#1028 = VECTOR('',#1029,1.);
#1029 = DIRECTION('',(0.,-1.,0.));
#1030 = CARTESIAN_POINT('',(-0.26,1.55,0.));
#1031 = CARTESIAN_POINT('',(-0.26,1.3,0.));
#1032 = TRIMMED_CURVE('',#1033,(#1037,PARAMETER_VALUE(0.)),(#1038,
    PARAMETER_VALUE(0.52)),.T.,.PARAMETER.);
#1033 = LINE('',#1034,#1035);
#1034 = CARTESIAN_POINT('',(-0.26,1.3,0.));
#1035 = VECTOR('',#1036,1.);
#1036 = DIRECTION('',(1.,0.,0.));
#1037 = CARTESIAN_POINT('',(-0.26,1.3,0.));
#1038 = CARTESIAN_POINT('',(0.26,1.3,0.));
#1039 = GEOMETRIC_CURVE_SET('',(#1040,#1047,#1054,#1061));
#1040 = TRIMMED_CURVE('',#1041,(#1045,PARAMETER_VALUE(0.)),(#1046,
    PARAMETER_VALUE(0.25)),.T.,.PARAMETER.);
#1041 = LINE('',#1042,#1043);
#1042 = CARTESIAN_POINT('',(0.26,-1.3,0.));
#1043 = VECTOR('',#1044,1.);
#1044 = DIRECTION('',(0.,-1.,0.));
#1045 = CARTESIAN_POINT('',(0.26,-1.3,0.));
#1046 = CARTESIAN_POINT('',(0.26,-1.55,0.));
#1047 = TRIMMED_CURVE('',#1048,(#1052,PARAMETER_VALUE(0.)),(#1053,
    PARAMETER_VALUE(0.52)),.T.,.PARAMETER.);
#1048 = LINE('',#1049,#1050);
#1049 = CARTESIAN_POINT('',(0.26,-1.55,0.));
#1050 = VECTOR('',#1051,1.);
#1051 = DIRECTION('',(-1.,0.,0.));
#1052 = CARTESIAN_POINT('',(0.26,-1.55,0.));
#1053 = CARTESIAN_POINT('',(-0.26,-1.55,0.));
#1054 = TRIMMED_CURVE('',#1055,(#1059,PARAMETER_VALUE(0.)),(#1060,
    PARAMETER_VALUE(0.25)),.T.,.PARAMETER.);
#1055 = LINE('',#1056,#1057);
#1056 = CARTESIAN_POINT('',(-0.26,-1.55,0.));
#1057 = VECTOR('',#1058,1.);
#1058 = DIRECTION('',(0.,1.,0.));
#1059 = CARTESIAN_POINT('',(-0.26,-1.55,0.));
#1060 = CARTESIAN_POINT('',(-0.26,-1.3,0.));
#1061 = TRIMMED_CURVE('',#1062,(#1066,PARAMETER_VALUE(0.)),(#1067,
    PARAMETER_VALUE(0.52)),.T.,.PARAMETER.);
#1062 = LINE('',#1063,#1064);
#1063 = CARTESIAN_POINT('',(-0.26,-1.3,0.));
#1064 = VECTOR('',#1065,1.);
#1065 = DIRECTION('',(1.,0.,0.));
#1066 = CARTESIAN_POINT('',(-0.26,-1.3,0.));
#1067 = CARTESIAN_POINT('',(0.26,-1.3,0.));
#1068 = ( GEOMETRIC_REPRESENTATION_CONTEXT(3) 
GLOBAL_UNCERTAINTY_ASSIGNED_CONTEXT((#1072)) 
GLOBAL_UNIT_ASSIGNED_CONTEXT((#1069,#1070,#1071)) REPRESENTATION_CONTEXT
('Context #1','3D Context with UNIT and UNCERTAINTY') );
#1069 = ( LENGTH_UNIT() NAMED_UNIT(*) SI_UNIT(.MILLI.,.METRE.) );
#1070 = ( NAMED_UNIT(*) PLANE_ANGLE_UNIT() SI_UNIT($,.RADIAN.) );
#1071 = ( NAMED_UNIT(*) SI_UNIT($,.STERADIAN.) SOLID_ANGLE_UNIT() );
#1072 = UNCERTAINTY_MEASURE_WITH_UNIT(LENGTH_MEASURE(1.E-07),#1069,
  'distance_accuracy_value','confusion accuracy');
#1073 = CONTEXT_DEPENDENT_SHAPE_REPRESENTATION(#1074,#1076);
#1074 = ( REPRESENTATION_RELATIONSHIP('','',#1009,#10) 
REPRESENTATION_RELATIONSHIP_WITH_TRANSFORMATION(#1075) 
SHAPE_REPRESENTATION_RELATIONSHIP() );
#1075 = ITEM_DEFINED_TRANSFORMATION('','',#11,#47);
#1076 = PRODUCT_DEFINITION_SHAPE('Placement','Placement of an item',
  #1077);
#1077 = NEXT_ASSEMBLY_USAGE_OCCURRENCE('24','Sketch004','',#5,#1004,$);
#1078 = PRODUCT_RELATED_PRODUCT_CATEGORY('part',$,(#1006));
#1079 = SHAPE_DEFINITION_REPRESENTATION(#1080,#1086);
#1080 = PRODUCT_DEFINITION_SHAPE('','',#1081);
#1081 = PRODUCT_DEFINITION('design','',#1082,#1085);
#1082 = PRODUCT_DEFINITION_FORMATION('','',#1083);
#1083 = PRODUCT('Extrude004','Extrude004','',(#1084));
#1084 = PRODUCT_CONTEXT('',#2,'mechanical');
#1085 = PRODUCT_DEFINITION_CONTEXT('part definition',#2,'design');
#1086 = SHAPE_REPRESENTATION('',(#11,#1087,#1237),#1387);
#1087 = MANIFOLD_SOLID_BREP('',#1088);
#1088 = CLOSED_SHELL('',(#1089,#1129,#1160,#1191,#1213,#1225));
#1089 = ADVANCED_FACE('',(#1090),#1124,.T.);
#1090 = FACE_BOUND('',#1091,.T.);
#1091 = EDGE_LOOP('',(#1092,#1102,#1110,#1118));
#1092 = ORIENTED_EDGE('',*,*,#1093,.T.);
#1093 = EDGE_CURVE('',#1094,#1096,#1098,.T.);
#1094 = VERTEX_POINT('',#1095);
#1095 = CARTESIAN_POINT('',(0.26,-1.3,0.));
#1096 = VERTEX_POINT('',#1097);
#1097 = CARTESIAN_POINT('',(0.26,-1.3,0.25));
#1098 = LINE('',#1099,#1100);
#1099 = CARTESIAN_POINT('',(0.26,-1.3,0.));
#1100 = VECTOR('',#1101,1.);
#1101 = DIRECTION('',(-0.,-0.,1.));
#1102 = ORIENTED_EDGE('',*,*,#1103,.T.);
#1103 = EDGE_CURVE('',#1096,#1104,#1106,.T.);
#1104 = VERTEX_POINT('',#1105);
#1105 = CARTESIAN_POINT('',(0.26,-1.55,0.25));
#1106 = LINE('',#1107,#1108);
#1107 = CARTESIAN_POINT('',(0.26,-1.3,0.25));
#1108 = VECTOR('',#1109,1.);
#1109 = DIRECTION('',(0.,-1.,0.));
#1110 = ORIENTED_EDGE('',*,*,#1111,.F.);
#1111 = EDGE_CURVE('',#1112,#1104,#1114,.T.);
#1112 = VERTEX_POINT('',#1113);
#1113 = CARTESIAN_POINT('',(0.26,-1.55,0.));
#1114 = LINE('',#1115,#1116);
#1115 = CARTESIAN_POINT('',(0.26,-1.55,0.));
#1116 = VECTOR('',#1117,1.);
#1117 = DIRECTION('',(-0.,-0.,1.));
#1118 = ORIENTED_EDGE('',*,*,#1119,.F.);
#1119 = EDGE_CURVE('',#1094,#1112,#1120,.T.);
#1120 = LINE('',#1121,#1122);
#1121 = CARTESIAN_POINT('',(0.26,-1.3,0.));
#1122 = VECTOR('',#1123,1.);
#1123 = DIRECTION('',(0.,-1.,0.));
#1124 = PLANE('',#1125);
#1125 = AXIS2_PLACEMENT_3D('',#1126,#1127,#1128);
#1126 = CARTESIAN_POINT('',(0.26,-1.3,0.));
#1127 = DIRECTION('',(1.,0.,0.));
#1128 = DIRECTION('',(0.,-1.,0.));
#1129 = ADVANCED_FACE('',(#1130),#1155,.T.);
#1130 = FACE_BOUND('',#1131,.T.);
#1131 = EDGE_LOOP('',(#1132,#1133,#1141,#1149));
#1132 = ORIENTED_EDGE('',*,*,#1111,.T.);
#1133 = ORIENTED_EDGE('',*,*,#1134,.T.);
#1134 = EDGE_CURVE('',#1104,#1135,#1137,.T.);
#1135 = VERTEX_POINT('',#1136);
#1136 = CARTESIAN_POINT('',(-0.26,-1.55,0.25));
#1137 = LINE('',#1138,#1139);
#1138 = CARTESIAN_POINT('',(0.26,-1.55,0.25));
#1139 = VECTOR('',#1140,1.);
#1140 = DIRECTION('',(-1.,0.,0.));
#1141 = ORIENTED_EDGE('',*,*,#1142,.F.);
#1142 = EDGE_CURVE('',#1143,#1135,#1145,.T.);
#1143 = VERTEX_POINT('',#1144);
#1144 = CARTESIAN_POINT('',(-0.26,-1.55,0.));
#1145 = LINE('',#1146,#1147);
#1146 = CARTESIAN_POINT('',(-0.26,-1.55,0.));
#1147 = VECTOR('',#1148,1.);
#1148 = DIRECTION('',(-0.,-0.,1.));
#1149 = ORIENTED_EDGE('',*,*,#1150,.F.);
#1150 = EDGE_CURVE('',#1112,#1143,#1151,.T.);
#1151 = LINE('',#1152,#1153);
#1152 = CARTESIAN_POINT('',(0.26,-1.55,0.));
#1153 = VECTOR('',#1154,1.);
#1154 = DIRECTION('',(-1.,0.,0.));
#1155 = PLANE('',#1156);
#1156 = AXIS2_PLACEMENT_3D('',#1157,#1158,#1159);
#1157 = CARTESIAN_POINT('',(0.26,-1.55,0.));
#1158 = DIRECTION('',(-0.,-1.,-0.));
#1159 = DIRECTION('',(-1.,0.,0.));
#1160 = ADVANCED_FACE('',(#1161),#1186,.T.);
#1161 = FACE_BOUND('',#1162,.T.);
#1162 = EDGE_LOOP('',(#1163,#1164,#1172,#1180));
#1163 = ORIENTED_EDGE('',*,*,#1142,.T.);
#1164 = ORIENTED_EDGE('',*,*,#1165,.T.);
#1165 = EDGE_CURVE('',#1135,#1166,#1168,.T.);
#1166 = VERTEX_POINT('',#1167);
#1167 = CARTESIAN_POINT('',(-0.26,-1.3,0.25));
#1168 = LINE('',#1169,#1170);
#1169 = CARTESIAN_POINT('',(-0.26,-1.55,0.25));
#1170 = VECTOR('',#1171,1.);
#1171 = DIRECTION('',(0.,1.,0.));
#1172 = ORIENTED_EDGE('',*,*,#1173,.F.);
#1173 = EDGE_CURVE('',#1174,#1166,#1176,.T.);
#1174 = VERTEX_POINT('',#1175);
#1175 = CARTESIAN_POINT('',(-0.26,-1.3,0.));
#1176 = LINE('',#1177,#1178);
#1177 = CARTESIAN_POINT('',(-0.26,-1.3,0.));
#1178 = VECTOR('',#1179,1.);
#1179 = DIRECTION('',(-0.,-0.,1.));
#1180 = ORIENTED_EDGE('',*,*,#1181,.F.);
#1181 = EDGE_CURVE('',#1143,#1174,#1182,.T.);
#1182 = LINE('',#1183,#1184);
#1183 = CARTESIAN_POINT('',(-0.26,-1.55,0.));
#1184 = VECTOR('',#1185,1.);
#1185 = DIRECTION('',(0.,1.,0.));
#1186 = PLANE('',#1187);
#1187 = AXIS2_PLACEMENT_3D('',#1188,#1189,#1190);
#1188 = CARTESIAN_POINT('',(-0.26,-1.55,0.));
#1189 = DIRECTION('',(-1.,0.,0.));
#1190 = DIRECTION('',(0.,1.,0.));
#1191 = ADVANCED_FACE('',(#1192),#1208,.T.);
#1192 = FACE_BOUND('',#1193,.T.);
#1193 = EDGE_LOOP('',(#1194,#1195,#1201,#1202));
#1194 = ORIENTED_EDGE('',*,*,#1173,.T.);
#1195 = ORIENTED_EDGE('',*,*,#1196,.T.);
#1196 = EDGE_CURVE('',#1166,#1096,#1197,.T.);
#1197 = LINE('',#1198,#1199);
#1198 = CARTESIAN_POINT('',(-0.26,-1.3,0.25));
#1199 = VECTOR('',#1200,1.);
#1200 = DIRECTION('',(1.,0.,0.));
#1201 = ORIENTED_EDGE('',*,*,#1093,.F.);
#1202 = ORIENTED_EDGE('',*,*,#1203,.F.);
#1203 = EDGE_CURVE('',#1174,#1094,#1204,.T.);
#1204 = LINE('',#1205,#1206);
#1205 = CARTESIAN_POINT('',(-0.26,-1.3,0.));
#1206 = VECTOR('',#1207,1.);
#1207 = DIRECTION('',(1.,0.,0.));
#1208 = PLANE('',#1209);
#1209 = AXIS2_PLACEMENT_3D('',#1210,#1211,#1212);
#1210 = CARTESIAN_POINT('',(-0.26,-1.3,0.));
#1211 = DIRECTION('',(-0.,1.,0.));
#1212 = DIRECTION('',(1.,0.,0.));
#1213 = ADVANCED_FACE('',(#1214),#1220,.F.);
#1214 = FACE_BOUND('',#1215,.T.);
#1215 = EDGE_LOOP('',(#1216,#1217,#1218,#1219));
#1216 = ORIENTED_EDGE('',*,*,#1119,.T.);
#1217 = ORIENTED_EDGE('',*,*,#1150,.T.);
#1218 = ORIENTED_EDGE('',*,*,#1181,.T.);
#1219 = ORIENTED_EDGE('',*,*,#1203,.T.);
#1220 = PLANE('',#1221);
#1221 = AXIS2_PLACEMENT_3D('',#1222,#1223,#1224);
#1222 = CARTESIAN_POINT('',(-4.956352788505E-17,3.604620209822E-17,0.));
#1223 = DIRECTION('',(0.,0.,1.));
#1224 = DIRECTION('',(1.,0.,-0.));
#1225 = ADVANCED_FACE('',(#1226),#1232,.T.);
#1226 = FACE_BOUND('',#1227,.F.);
#1227 = EDGE_LOOP('',(#1228,#1229,#1230,#1231));
#1228 = ORIENTED_EDGE('',*,*,#1103,.T.);
#1229 = ORIENTED_EDGE('',*,*,#1134,.T.);
#1230 = ORIENTED_EDGE('',*,*,#1165,.T.);
#1231 = ORIENTED_EDGE('',*,*,#1196,.T.);
#1232 = PLANE('',#1233);
#1233 = AXIS2_PLACEMENT_3D('',#1234,#1235,#1236);
#1234 = CARTESIAN_POINT('',(-4.956352788505E-17,3.604620209822E-17,0.25)
  );
#1235 = DIRECTION('',(0.,0.,1.));
#1236 = DIRECTION('',(1.,0.,-0.));
#1237 = MANIFOLD_SOLID_BREP('',#1238);
#1238 = CLOSED_SHELL('',(#1239,#1279,#1310,#1341,#1363,#1375));
#1239 = ADVANCED_FACE('',(#1240),#1274,.F.);
#1240 = FACE_BOUND('',#1241,.F.);
#1241 = EDGE_LOOP('',(#1242,#1252,#1260,#1268));
#1242 = ORIENTED_EDGE('',*,*,#1243,.T.);
#1243 = EDGE_CURVE('',#1244,#1246,#1248,.T.);
#1244 = VERTEX_POINT('',#1245);
#1245 = CARTESIAN_POINT('',(0.26,1.3,0.));
#1246 = VERTEX_POINT('',#1247);
#1247 = CARTESIAN_POINT('',(0.26,1.3,0.25));
#1248 = LINE('',#1249,#1250);
#1249 = CARTESIAN_POINT('',(0.26,1.3,0.));
#1250 = VECTOR('',#1251,1.);
#1251 = DIRECTION('',(-0.,-0.,1.));
#1252 = ORIENTED_EDGE('',*,*,#1253,.T.);
#1253 = EDGE_CURVE('',#1246,#1254,#1256,.T.);
#1254 = VERTEX_POINT('',#1255);
#1255 = CARTESIAN_POINT('',(0.26,1.55,0.25));
#1256 = LINE('',#1257,#1258);
#1257 = CARTESIAN_POINT('',(0.26,1.3,0.25));
#1258 = VECTOR('',#1259,1.);
#1259 = DIRECTION('',(0.,1.,0.));
#1260 = ORIENTED_EDGE('',*,*,#1261,.F.);
#1261 = EDGE_CURVE('',#1262,#1254,#1264,.T.);
#1262 = VERTEX_POINT('',#1263);
#1263 = CARTESIAN_POINT('',(0.26,1.55,0.));
#1264 = LINE('',#1265,#1266);
#1265 = CARTESIAN_POINT('',(0.26,1.55,0.));
#1266 = VECTOR('',#1267,1.);
#1267 = DIRECTION('',(-0.,-0.,1.));
#1268 = ORIENTED_EDGE('',*,*,#1269,.F.);
#1269 = EDGE_CURVE('',#1244,#1262,#1270,.T.);
#1270 = LINE('',#1271,#1272);
#1271 = CARTESIAN_POINT('',(0.26,1.3,0.));
#1272 = VECTOR('',#1273,1.);
#1273 = DIRECTION('',(0.,1.,0.));
#1274 = PLANE('',#1275);
#1275 = AXIS2_PLACEMENT_3D('',#1276,#1277,#1278);
#1276 = CARTESIAN_POINT('',(0.26,1.3,0.));
#1277 = DIRECTION('',(-1.,0.,0.));
#1278 = DIRECTION('',(0.,1.,0.));
#1279 = ADVANCED_FACE('',(#1280),#1305,.F.);
#1280 = FACE_BOUND('',#1281,.F.);
#1281 = EDGE_LOOP('',(#1282,#1283,#1291,#1299));
#1282 = ORIENTED_EDGE('',*,*,#1261,.T.);
#1283 = ORIENTED_EDGE('',*,*,#1284,.T.);
#1284 = EDGE_CURVE('',#1254,#1285,#1287,.T.);
#1285 = VERTEX_POINT('',#1286);
#1286 = CARTESIAN_POINT('',(-0.26,1.55,0.25));
#1287 = LINE('',#1288,#1289);
#1288 = CARTESIAN_POINT('',(0.26,1.55,0.25));
#1289 = VECTOR('',#1290,1.);
#1290 = DIRECTION('',(-1.,0.,0.));
#1291 = ORIENTED_EDGE('',*,*,#1292,.F.);
#1292 = EDGE_CURVE('',#1293,#1285,#1295,.T.);
#1293 = VERTEX_POINT('',#1294);
#1294 = CARTESIAN_POINT('',(-0.26,1.55,0.));
#1295 = LINE('',#1296,#1297);
#1296 = CARTESIAN_POINT('',(-0.26,1.55,0.));
#1297 = VECTOR('',#1298,1.);
#1298 = DIRECTION('',(-0.,-0.,1.));
#1299 = ORIENTED_EDGE('',*,*,#1300,.F.);
#1300 = EDGE_CURVE('',#1262,#1293,#1301,.T.);
#1301 = LINE('',#1302,#1303);
#1302 = CARTESIAN_POINT('',(0.26,1.55,0.));
#1303 = VECTOR('',#1304,1.);
#1304 = DIRECTION('',(-1.,0.,0.));
#1305 = PLANE('',#1306);
#1306 = AXIS2_PLACEMENT_3D('',#1307,#1308,#1309);
#1307 = CARTESIAN_POINT('',(0.26,1.55,0.));
#1308 = DIRECTION('',(-0.,-1.,-0.));
#1309 = DIRECTION('',(-1.,0.,0.));
#1310 = ADVANCED_FACE('',(#1311),#1336,.F.);
#1311 = FACE_BOUND('',#1312,.F.);
#1312 = EDGE_LOOP('',(#1313,#1314,#1322,#1330));
#1313 = ORIENTED_EDGE('',*,*,#1292,.T.);
#1314 = ORIENTED_EDGE('',*,*,#1315,.T.);
#1315 = EDGE_CURVE('',#1285,#1316,#1318,.T.);
#1316 = VERTEX_POINT('',#1317);
#1317 = CARTESIAN_POINT('',(-0.26,1.3,0.25));
#1318 = LINE('',#1319,#1320);
#1319 = CARTESIAN_POINT('',(-0.26,1.55,0.25));
#1320 = VECTOR('',#1321,1.);
#1321 = DIRECTION('',(0.,-1.,0.));
#1322 = ORIENTED_EDGE('',*,*,#1323,.F.);
#1323 = EDGE_CURVE('',#1324,#1316,#1326,.T.);
#1324 = VERTEX_POINT('',#1325);
#1325 = CARTESIAN_POINT('',(-0.26,1.3,0.));
#1326 = LINE('',#1327,#1328);
#1327 = CARTESIAN_POINT('',(-0.26,1.3,0.));
#1328 = VECTOR('',#1329,1.);
#1329 = DIRECTION('',(-0.,-0.,1.));
#1330 = ORIENTED_EDGE('',*,*,#1331,.F.);
#1331 = EDGE_CURVE('',#1293,#1324,#1332,.T.);
#1332 = LINE('',#1333,#1334);
#1333 = CARTESIAN_POINT('',(-0.26,1.55,0.));
#1334 = VECTOR('',#1335,1.);
#1335 = DIRECTION('',(0.,-1.,0.));
#1336 = PLANE('',#1337);
#1337 = AXIS2_PLACEMENT_3D('',#1338,#1339,#1340);
#1338 = CARTESIAN_POINT('',(-0.26,1.55,0.));
#1339 = DIRECTION('',(1.,0.,0.));
#1340 = DIRECTION('',(0.,-1.,0.));
#1341 = ADVANCED_FACE('',(#1342),#1358,.F.);
#1342 = FACE_BOUND('',#1343,.F.);
#1343 = EDGE_LOOP('',(#1344,#1345,#1351,#1352));
#1344 = ORIENTED_EDGE('',*,*,#1323,.T.);
#1345 = ORIENTED_EDGE('',*,*,#1346,.T.);
#1346 = EDGE_CURVE('',#1316,#1246,#1347,.T.);
#1347 = LINE('',#1348,#1349);
#1348 = CARTESIAN_POINT('',(-0.26,1.3,0.25));
#1349 = VECTOR('',#1350,1.);
#1350 = DIRECTION('',(1.,0.,0.));
#1351 = ORIENTED_EDGE('',*,*,#1243,.F.);
#1352 = ORIENTED_EDGE('',*,*,#1353,.F.);
#1353 = EDGE_CURVE('',#1324,#1244,#1354,.T.);
#1354 = LINE('',#1355,#1356);
#1355 = CARTESIAN_POINT('',(-0.26,1.3,0.));
#1356 = VECTOR('',#1357,1.);
#1357 = DIRECTION('',(1.,0.,0.));
#1358 = PLANE('',#1359);
#1359 = AXIS2_PLACEMENT_3D('',#1360,#1361,#1362);
#1360 = CARTESIAN_POINT('',(-0.26,1.3,0.));
#1361 = DIRECTION('',(-0.,1.,0.));
#1362 = DIRECTION('',(1.,0.,0.));
#1363 = ADVANCED_FACE('',(#1364),#1370,.F.);
#1364 = FACE_BOUND('',#1365,.F.);
#1365 = EDGE_LOOP('',(#1366,#1367,#1368,#1369));
#1366 = ORIENTED_EDGE('',*,*,#1269,.T.);
#1367 = ORIENTED_EDGE('',*,*,#1300,.T.);
#1368 = ORIENTED_EDGE('',*,*,#1331,.T.);
#1369 = ORIENTED_EDGE('',*,*,#1353,.T.);
#1370 = PLANE('',#1371);
#1371 = AXIS2_PLACEMENT_3D('',#1372,#1373,#1374);
#1372 = CARTESIAN_POINT('',(-4.956352788505E-17,3.604620209822E-17,0.));
#1373 = DIRECTION('',(0.,0.,1.));
#1374 = DIRECTION('',(1.,0.,-0.));
#1375 = ADVANCED_FACE('',(#1376),#1382,.T.);
#1376 = FACE_BOUND('',#1377,.T.);
#1377 = EDGE_LOOP('',(#1378,#1379,#1380,#1381));
#1378 = ORIENTED_EDGE('',*,*,#1253,.T.);
#1379 = ORIENTED_EDGE('',*,*,#1284,.T.);
#1380 = ORIENTED_EDGE('',*,*,#1315,.T.);
#1381 = ORIENTED_EDGE('',*,*,#1346,.T.);
#1382 = PLANE('',#1383);
#1383 = AXIS2_PLACEMENT_3D('',#1384,#1385,#1386);
#1384 = CARTESIAN_POINT('',(-4.956352788505E-17,3.604620209822E-17,0.25)
  );
#1385 = DIRECTION('',(0.,0.,1.));
#1386 = DIRECTION('',(1.,0.,-0.));
#1387 = ( GEOMETRIC_REPRESENTATION_CONTEXT(3) 
GLOBAL_UNCERTAINTY_ASSIGNED_CONTEXT((#1391)) 
GLOBAL_UNIT_ASSIGNED_CONTEXT((#1388,#1389,#1390)) REPRESENTATION_CONTEXT
('Context #1','3D Context with UNIT and UNCERTAINTY') );
#1388 = ( LENGTH_UNIT() NAMED_UNIT(*) SI_UNIT(.MILLI.,.METRE.) );
#1389 = ( NAMED_UNIT(*) PLANE_ANGLE_UNIT() SI_UNIT($,.RADIAN.) );
#1390 = ( NAMED_UNIT(*) SI_UNIT($,.STERADIAN.) SOLID_ANGLE_UNIT() );
#1391 = UNCERTAINTY_MEASURE_WITH_UNIT(LENGTH_MEASURE(1.E-07),#1388,
  'distance_accuracy_value','confusion accuracy');
#1392 = CONTEXT_DEPENDENT_SHAPE_REPRESENTATION(#1393,#1395);
#1393 = ( REPRESENTATION_RELATIONSHIP('','',#1086,#10) 
REPRESENTATION_RELATIONSHIP_WITH_TRANSFORMATION(#1394) 
SHAPE_REPRESENTATION_RELATIONSHIP() );
#1394 = ITEM_DEFINED_TRANSFORMATION('','',#11,#51);
#1395 = PRODUCT_DEFINITION_SHAPE('Placement','Placement of an item',
  #1396);
#1396 = NEXT_ASSEMBLY_USAGE_OCCURRENCE('25','Extrude004','',#5,#1081,$);
#1397 = PRODUCT_RELATED_PRODUCT_CATEGORY('part',$,(#1083));
#1398 = MECHANICAL_DESIGN_GEOMETRIC_PRESENTATION_REPRESENTATION('',(
    #1399,#1412),#424);
#1399 = STYLED_ITEM('color',(#1400),#366);
#1400 = PRESENTATION_STYLE_ASSIGNMENT((#1401,#1409));
#1401 = SURFACE_STYLE_USAGE(.BOTH.,#1402);
#1402 = SURFACE_SIDE_STYLE('',(#1403,#1407));
#1403 = SURFACE_STYLE_FILL_AREA(#1404);
#1404 = FILL_AREA_STYLE('',(#1405));
#1405 = FILL_AREA_STYLE_COLOUR('',#1406);
#1406 = COLOUR_RGB('',0.329411773243,0.670588257465,1.);
#1407 = SURFACE_STYLE_RENDERING_WITH_PROPERTIES(.NORMAL_SHADING.,#1406,(
    #1408));
#1408 = SURFACE_STYLE_TRANSPARENT(0.759999990463);
#1409 = CURVE_STYLE('',#1410,POSITIVE_LENGTH_MEASURE(0.1),#1411);
#1410 = DRAUGHTING_PRE_DEFINED_CURVE_FONT('continuous');
#1411 = COLOUR_RGB('',0.129411774038,0.145098047169,0.160784315601);
#1412 = STYLED_ITEM('color',(#1413),#395);
#1413 = PRESENTATION_STYLE_ASSIGNMENT((#1414,#1421));
#1414 = SURFACE_STYLE_USAGE(.BOTH.,#1415);
#1415 = SURFACE_SIDE_STYLE('',(#1416,#1419));
#1416 = SURFACE_STYLE_FILL_AREA(#1417);
#1417 = FILL_AREA_STYLE('',(#1418));
#1418 = FILL_AREA_STYLE_COLOUR('',#1406);
#1419 = SURFACE_STYLE_RENDERING_WITH_PROPERTIES(.NORMAL_SHADING.,#1406,(
    #1420));
#1420 = SURFACE_STYLE_TRANSPARENT(0.759999990463);
#1421 = CURVE_STYLE('',#1422,POSITIVE_LENGTH_MEASURE(0.1),#1411);
#1422 = DRAUGHTING_PRE_DEFINED_CURVE_FONT('continuous');
#1423 = MECHANICAL_DESIGN_GEOMETRIC_PRESENTATION_REPRESENTATION('',(
    #1424),#991);
#1424 = STYLED_ITEM('color',(#1425),#938);
#1425 = PRESENTATION_STYLE_ASSIGNMENT((#1426,#1432));
#1426 = SURFACE_STYLE_USAGE(.BOTH.,#1427);
#1427 = SURFACE_SIDE_STYLE('',(#1428));
#1428 = SURFACE_STYLE_FILL_AREA(#1429);
#1429 = FILL_AREA_STYLE('',(#1430));
#1430 = FILL_AREA_STYLE_COLOUR('',#1431);
#1431 = COLOUR_RGB('',0.666666687201,0.666666687201,0.);
#1432 = CURVE_STYLE('',#1433,POSITIVE_LENGTH_MEASURE(0.1),#1434);
#1433 = DRAUGHTING_PRE_DEFINED_CURVE_FONT('continuous');
#1434 = COLOUR_RGB('',9.803921802644E-02,9.803921802644E-02,
  9.803921802644E-02);
#1435 = MECHANICAL_DESIGN_GEOMETRIC_PRESENTATION_REPRESENTATION('',(
    #1436,#1446),#1387);
#1436 = STYLED_ITEM('color',(#1437),#1087);
#1437 = PRESENTATION_STYLE_ASSIGNMENT((#1438,#1444));
#1438 = SURFACE_STYLE_USAGE(.BOTH.,#1439);
#1439 = SURFACE_SIDE_STYLE('',(#1440));
#1440 = SURFACE_STYLE_FILL_AREA(#1441);
#1441 = FILL_AREA_STYLE('',(#1442));
#1442 = FILL_AREA_STYLE_COLOUR('',#1443);
#1443 = COLOUR_RGB('',0.505882386539,0.505882386539,0.505882386539);
#1444 = CURVE_STYLE('',#1445,POSITIVE_LENGTH_MEASURE(0.1),#1434);
#1445 = DRAUGHTING_PRE_DEFINED_CURVE_FONT('continuous');
#1446 = STYLED_ITEM('color',(#1447),#1237);
#1447 = PRESENTATION_STYLE_ASSIGNMENT((#1448,#1453));
#1448 = SURFACE_STYLE_USAGE(.BOTH.,#1449);
#1449 = SURFACE_SIDE_STYLE('',(#1450));
#1450 = SURFACE_STYLE_FILL_AREA(#1451);
#1451 = FILL_AREA_STYLE('',(#1452));
#1452 = FILL_AREA_STYLE_COLOUR('',#1443);
#1453 = CURVE_STYLE('',#1454,POSITIVE_LENGTH_MEASURE(0.1),#1434);
#1454 = DRAUGHTING_PRE_DEFINED_CURVE_FONT('continuous');
#1455 = MECHANICAL_DESIGN_GEOMETRIC_PRESENTATION_REPRESENTATION('',(
    #1456,#1467),#1068);
#1456 = STYLED_ITEM('color',(#1457),#1010);
#1457 = PRESENTATION_STYLE_ASSIGNMENT((#1458,#1465));
#1458 = SURFACE_STYLE_USAGE(.BOTH.,#1459);
#1459 = SURFACE_SIDE_STYLE('',(#1460,#1463));
#1460 = SURFACE_STYLE_FILL_AREA(#1461);
#1461 = FILL_AREA_STYLE('',(#1462));
#1462 = FILL_AREA_STYLE_COLOUR('',#1406);
#1463 = SURFACE_STYLE_RENDERING_WITH_PROPERTIES(.NORMAL_SHADING.,#1406,(
    #1464));
#1464 = SURFACE_STYLE_TRANSPARENT(0.759999990463);
#1465 = CURVE_STYLE('',#1466,POSITIVE_LENGTH_MEASURE(0.1),#1411);
#1466 = DRAUGHTING_PRE_DEFINED_CURVE_FONT('continuous');
#1467 = STYLED_ITEM('color',(#1468),#1039);
#1468 = PRESENTATION_STYLE_ASSIGNMENT((#1469,#1476));
#1469 = SURFACE_STYLE_USAGE(.BOTH.,#1470);
#1470 = SURFACE_SIDE_STYLE('',(#1471,#1474));
#1471 = SURFACE_STYLE_FILL_AREA(#1472);
#1472 = FILL_AREA_STYLE('',(#1473));
#1473 = FILL_AREA_STYLE_COLOUR('',#1406);
#1474 = SURFACE_STYLE_RENDERING_WITH_PROPERTIES(.NORMAL_SHADING.,#1406,(
    #1475));
#1475 = SURFACE_STYLE_TRANSPARENT(0.759999990463);
#1476 = CURVE_STYLE('',#1477,POSITIVE_LENGTH_MEASURE(0.1),#1411);
#1477 = DRAUGHTING_PRE_DEFINED_CURVE_FONT('continuous');
#1478 = MECHANICAL_DESIGN_GEOMETRIC_PRESENTATION_REPRESENTATION('',(
    #1479),#347);
#1479 = STYLED_ITEM('color',(#1480),#131);
#1480 = PRESENTATION_STYLE_ASSIGNMENT((#1481,#1487));
#1481 = SURFACE_STYLE_USAGE(.BOTH.,#1482);
#1482 = SURFACE_SIDE_STYLE('',(#1483));
#1483 = SURFACE_STYLE_FILL_AREA(#1484);
#1484 = FILL_AREA_STYLE('',(#1485));
#1485 = FILL_AREA_STYLE_COLOUR('',#1486);
#1486 = COLOUR_RGB('',0.219607846375,0.219607846375,0.219607846375);
#1487 = CURVE_STYLE('',#1488,POSITIVE_LENGTH_MEASURE(0.1),#1434);
#1488 = DRAUGHTING_PRE_DEFINED_CURVE_FONT('continuous');
#1489 = MECHANICAL_DESIGN_GEOMETRIC_PRESENTATION_REPRESENTATION('',(
    #1490,#1501),#780);
#1490 = STYLED_ITEM('color',(#1491),#762);
#1491 = PRESENTATION_STYLE_ASSIGNMENT((#1492,#1499));
#1492 = SURFACE_STYLE_USAGE(.BOTH.,#1493);
#1493 = SURFACE_SIDE_STYLE('',(#1494,#1497));
#1494 = SURFACE_STYLE_FILL_AREA(#1495);
#1495 = FILL_AREA_STYLE('',(#1496));
#1496 = FILL_AREA_STYLE_COLOUR('',#1406);
#1497 = SURFACE_STYLE_RENDERING_WITH_PROPERTIES(.NORMAL_SHADING.,#1406,(
    #1498));
#1498 = SURFACE_STYLE_TRANSPARENT(0.759999990463);
#1499 = CURVE_STYLE('',#1500,POSITIVE_LENGTH_MEASURE(0.1),#1411);
#1500 = DRAUGHTING_PRE_DEFINED_CURVE_FONT('continuous');
#1501 = STYLED_ITEM('color',(#1502),#771);
#1502 = PRESENTATION_STYLE_ASSIGNMENT((#1503,#1510));
#1503 = SURFACE_STYLE_USAGE(.BOTH.,#1504);
#1504 = SURFACE_SIDE_STYLE('',(#1505,#1508));
#1505 = SURFACE_STYLE_FILL_AREA(#1506);
#1506 = FILL_AREA_STYLE('',(#1507));
#1507 = FILL_AREA_STYLE_COLOUR('',#1406);
#1508 = SURFACE_STYLE_RENDERING_WITH_PROPERTIES(.NORMAL_SHADING.,#1406,(
    #1509));
#1509 = SURFACE_STYLE_TRANSPARENT(0.759999990463);
#1510 = CURVE_STYLE('',#1511,POSITIVE_LENGTH_MEASURE(0.1),#1411);
#1511 = DRAUGHTING_PRE_DEFINED_CURVE_FONT('continuous');
#1512 = MECHANICAL_DESIGN_GEOMETRIC_PRESENTATION_REPRESENTATION('',(
    #1513,#1522),#743);
#1513 = STYLED_ITEM('color',(#1514),#443);
#1514 = PRESENTATION_STYLE_ASSIGNMENT((#1515,#1520));
#1515 = SURFACE_STYLE_USAGE(.BOTH.,#1516);
#1516 = SURFACE_SIDE_STYLE('',(#1517));
#1517 = SURFACE_STYLE_FILL_AREA(#1518);
#1518 = FILL_AREA_STYLE('',(#1519));
#1519 = FILL_AREA_STYLE_COLOUR('',#1443);
#1520 = CURVE_STYLE('',#1521,POSITIVE_LENGTH_MEASURE(0.1),#1434);
#1521 = DRAUGHTING_PRE_DEFINED_CURVE_FONT('continuous');
#1522 = STYLED_ITEM('color',(#1523),#593);
#1523 = PRESENTATION_STYLE_ASSIGNMENT((#1524,#1529));
#1524 = SURFACE_STYLE_USAGE(.BOTH.,#1525);
#1525 = SURFACE_SIDE_STYLE('',(#1526));
#1526 = SURFACE_STYLE_FILL_AREA(#1527);
#1527 = FILL_AREA_STYLE('',(#1528));
#1528 = FILL_AREA_STYLE_COLOUR('',#1443);
#1529 = CURVE_STYLE('',#1530,POSITIVE_LENGTH_MEASURE(0.1),#1434);
#1530 = DRAUGHTING_PRE_DEFINED_CURVE_FONT('continuous');
#1531 = MECHANICAL_DESIGN_GEOMETRIC_PRESENTATION_REPRESENTATION('',(
    #1532),#112);
#1532 = STYLED_ITEM('color',(#1533),#69);
#1533 = PRESENTATION_STYLE_ASSIGNMENT((#1534,#1541));
#1534 = SURFACE_STYLE_USAGE(.BOTH.,#1535);
#1535 = SURFACE_SIDE_STYLE('',(#1536,#1539));
#1536 = SURFACE_STYLE_FILL_AREA(#1537);
#1537 = FILL_AREA_STYLE('',(#1538));
#1538 = FILL_AREA_STYLE_COLOUR('',#1406);
#1539 = SURFACE_STYLE_RENDERING_WITH_PROPERTIES(.NORMAL_SHADING.,#1406,(
    #1540));
#1540 = SURFACE_STYLE_TRANSPARENT(0.759999990463);
#1541 = CURVE_STYLE('',#1542,POSITIVE_LENGTH_MEASURE(0.1),#1411);
#1542 = DRAUGHTING_PRE_DEFINED_CURVE_FONT('continuous');
#1543 = MECHANICAL_DESIGN_GEOMETRIC_PRESENTATION_REPRESENTATION('',(
    #1544),#919);
#1544 = STYLED_ITEM('color',(#1545),#910);
#1545 = PRESENTATION_STYLE_ASSIGNMENT((#1546,#1553));
#1546 = SURFACE_STYLE_USAGE(.BOTH.,#1547);
#1547 = SURFACE_SIDE_STYLE('',(#1548,#1551));
#1548 = SURFACE_STYLE_FILL_AREA(#1549);
#1549 = FILL_AREA_STYLE('',(#1550));
#1550 = FILL_AREA_STYLE_COLOUR('',#1406);
#1551 = SURFACE_STYLE_RENDERING_WITH_PROPERTIES(.NORMAL_SHADING.,#1406,(
    #1552));
#1552 = SURFACE_STYLE_TRANSPARENT(0.759999990463);
#1553 = CURVE_STYLE('',#1554,POSITIVE_LENGTH_MEASURE(0.1),#1411);
#1554 = DRAUGHTING_PRE_DEFINED_CURVE_FONT('continuous');
#1555 = MECHANICAL_DESIGN_GEOMETRIC_PRESENTATION_REPRESENTATION('',(
    #1556),#891);
#1556 = STYLED_ITEM('color',(#1557),#799);
#1557 = PRESENTATION_STYLE_ASSIGNMENT((#1558,#1564));
#1558 = SURFACE_STYLE_USAGE(.BOTH.,#1559);
#1559 = SURFACE_SIDE_STYLE('',(#1560));
#1560 = SURFACE_STYLE_FILL_AREA(#1561);
#1561 = FILL_AREA_STYLE('',(#1562));
#1562 = FILL_AREA_STYLE_COLOUR('',#1563);
#1563 = COLOUR_RGB('',0.678431390124,0.709803936702,0.741176476869);
#1564 = CURVE_STYLE('',#1565,POSITIVE_LENGTH_MEASURE(0.1),#1434);
#1565 = DRAUGHTING_PRE_DEFINED_CURVE_FONT('continuous');
ENDSEC;
END-ISO-10303-21;
