ISO-10303-21;
HEADER;
FILE_DESCRIPTION(('FreeCAD Model'),'2;1');
FILE_NAME('Open CASCADE Shape Model','2026-08-08T21:25:58',(''),(''),
  'Open CASCADE STEP processor 7.8','FreeCAD','Unknown');
FILE_SCHEMA(('AUTOMOTIVE_DESIGN { 1 0 10303 214 1 1 1 1 }'));
ENDSEC;
DATA;
#1 = APPLICATION_PROTOCOL_DEFINITION('international standard',
  'automotive_design',2000,#2);
#2 = APPLICATION_CONTEXT(
  'core data for automotive mechanical design processes');
#3 = SHAPE_DEFINITION_REPRESENTATION(#4,#10);
#4 = PRODUCT_DEFINITION_SHAPE('','',#5);
#5 = PRODUCT_DEFINITION('design','',#6,#9);
#6 = PRODUCT_DEFINITION_FORMATION('','',#7);
#7 = PRODUCT('Unnamed','Unnamed','',(#8));
#8 = PRODUCT_CONTEXT('',#2,'mechanical');
#9 = PRODUCT_DEFINITION_CONTEXT('part definition',#2,'design');
#10 = SHAPE_REPRESENTATION('',(#11,#15,#19),#23);
#11 = AXIS2_PLACEMENT_3D('',#12,#13,#14);
#12 = CARTESIAN_POINT('',(0.,0.,0.));
#13 = DIRECTION('',(0.,0.,1.));
#14 = DIRECTION('',(1.,0.,-0.));
#15 = AXIS2_PLACEMENT_3D('',#16,#17,#18);
#16 = CARTESIAN_POINT('',(0.,0.,0.));
#17 = DIRECTION('',(0.,0.,1.));
#18 = DIRECTION('',(1.,0.,0.));
#19 = AXIS2_PLACEMENT_3D('',#20,#21,#22);
#20 = CARTESIAN_POINT('',(0.,0.,0.));
#21 = DIRECTION('',(0.,0.,1.));
#22 = DIRECTION('',(1.,0.,0.));
#23 = ( GEOMETRIC_REPRESENTATION_CONTEXT(3) 
GLOBAL_UNCERTAINTY_ASSIGNED_CONTEXT((#27)) GLOBAL_UNIT_ASSIGNED_CONTEXT(
(#24,#25,#26)) REPRESENTATION_CONTEXT('Context #1',
  '3D Context with UNIT and UNCERTAINTY') );
#24 = ( LENGTH_UNIT() NAMED_UNIT(*) SI_UNIT(.MILLI.,.METRE.) );
#25 = ( NAMED_UNIT(*) PLANE_ANGLE_UNIT() SI_UNIT($,.RADIAN.) );
#26 = ( NAMED_UNIT(*) SI_UNIT($,.STERADIAN.) SOLID_ANGLE_UNIT() );
#27 = UNCERTAINTY_MEASURE_WITH_UNIT(LENGTH_MEASURE(1.E-07),#24,
  'distance_accuracy_value','confusion accuracy');
#28 = PRODUCT_RELATED_PRODUCT_CATEGORY('part',$,(#7));
#29 = SHAPE_DEFINITION_REPRESENTATION(#30,#36);
#30 = PRODUCT_DEFINITION_SHAPE('','',#31);
#31 = PRODUCT_DEFINITION('design','',#32,#35);
#32 = PRODUCT_DEFINITION_FORMATION('','',#33);
#33 = PRODUCT('Extrude','Extrude','',(#34));
#34 = PRODUCT_CONTEXT('',#2,'mechanical');
#35 = PRODUCT_DEFINITION_CONTEXT('part definition',#2,'design');
#36 = SHAPE_REPRESENTATION('',(#11,#37,#257),#477);
#37 = MANIFOLD_SOLID_BREP('',#38);
#38 = CLOSED_SHELL('',(#39,#81,#112,#145,#176,#207,#229,#243));
#39 = ADVANCED_FACE('',(#40),#76,.T.);
#40 = FACE_BOUND('',#41,.F.);
#41 = EDGE_LOOP('',(#42,#52,#61,#69));
#42 = ORIENTED_EDGE('',*,*,#43,.T.);
#43 = EDGE_CURVE('',#44,#46,#48,.T.);
#44 = VERTEX_POINT('',#45);
#45 = CARTESIAN_POINT('',(-1.645,-2.9,0.));
#46 = VERTEX_POINT('',#47);
#47 = CARTESIAN_POINT('',(-1.645,-2.9,0.9));
#48 = LINE('',#49,#50);
#49 = CARTESIAN_POINT('',(-1.645,-2.9,0.));
#50 = VECTOR('',#51,1.);
#51 = DIRECTION('',(0.,0.,1.));
#52 = ORIENTED_EDGE('',*,*,#53,.T.);
#53 = EDGE_CURVE('',#46,#54,#56,.T.);
#54 = VERTEX_POINT('',#55);
#55 = CARTESIAN_POINT('',(-1.245,-3.3,0.9));
#56 = CIRCLE('',#57,0.4);
#57 = AXIS2_PLACEMENT_3D('',#58,#59,#60);
#58 = CARTESIAN_POINT('',(-1.245,-2.9,0.9));
#59 = DIRECTION('',(0.,0.,1.));
#60 = DIRECTION('',(1.,0.,0.));
#61 = ORIENTED_EDGE('',*,*,#62,.F.);
#62 = EDGE_CURVE('',#63,#54,#65,.T.);
#63 = VERTEX_POINT('',#64);
#64 = CARTESIAN_POINT('',(-1.245,-3.3,0.));
#65 = LINE('',#66,#67);
#66 = CARTESIAN_POINT('',(-1.245,-3.3,0.));
#67 = VECTOR('',#68,1.);
#68 = DIRECTION('',(0.,0.,1.));
#69 = ORIENTED_EDGE('',*,*,#70,.F.);
#70 = EDGE_CURVE('',#44,#63,#71,.T.);
#71 = CIRCLE('',#72,0.4);
#72 = AXIS2_PLACEMENT_3D('',#73,#74,#75);
#73 = CARTESIAN_POINT('',(-1.245,-2.9,0.));
#74 = DIRECTION('',(0.,0.,1.));
#75 = DIRECTION('',(1.,0.,0.));
#76 = CYLINDRICAL_SURFACE('',#77,0.4);
#77 = AXIS2_PLACEMENT_3D('',#78,#79,#80);
#78 = CARTESIAN_POINT('',(-1.245,-2.9,0.));
#79 = DIRECTION('',(-0.,-0.,-1.));
#80 = DIRECTION('',(1.,0.,0.));
#81 = ADVANCED_FACE('',(#82),#107,.F.);
#82 = FACE_BOUND('',#83,.F.);
#83 = EDGE_LOOP('',(#84,#85,#93,#101));
#84 = ORIENTED_EDGE('',*,*,#62,.T.);
#85 = ORIENTED_EDGE('',*,*,#86,.T.);
#86 = EDGE_CURVE('',#54,#87,#89,.T.);
#87 = VERTEX_POINT('',#88);
#88 = CARTESIAN_POINT('',(1.245,-3.3,0.9));
#89 = LINE('',#90,#91);
#90 = CARTESIAN_POINT('',(-1.245,-3.3,0.9));
#91 = VECTOR('',#92,1.);
#92 = DIRECTION('',(1.,0.,0.));
#93 = ORIENTED_EDGE('',*,*,#94,.F.);
#94 = EDGE_CURVE('',#95,#87,#97,.T.);
#95 = VERTEX_POINT('',#96);
#96 = CARTESIAN_POINT('',(1.245,-3.3,0.));
#97 = LINE('',#98,#99);
#98 = CARTESIAN_POINT('',(1.245,-3.3,0.));
#99 = VECTOR('',#100,1.);
#100 = DIRECTION('',(0.,0.,1.));
#101 = ORIENTED_EDGE('',*,*,#102,.F.);
#102 = EDGE_CURVE('',#63,#95,#103,.T.);
#103 = LINE('',#104,#105);
#104 = CARTESIAN_POINT('',(-1.245,-3.3,0.));
#105 = VECTOR('',#106,1.);
#106 = DIRECTION('',(1.,0.,0.));
#107 = PLANE('',#108);
#108 = AXIS2_PLACEMENT_3D('',#109,#110,#111);
#109 = CARTESIAN_POINT('',(-1.245,-3.3,0.));
#110 = DIRECTION('',(0.,1.,0.));
#111 = DIRECTION('',(1.,0.,0.));
#112 = ADVANCED_FACE('',(#113),#140,.T.);
#113 = FACE_BOUND('',#114,.F.);
#114 = EDGE_LOOP('',(#115,#116,#125,#133));
#115 = ORIENTED_EDGE('',*,*,#94,.T.);
#116 = ORIENTED_EDGE('',*,*,#117,.T.);
#117 = EDGE_CURVE('',#87,#118,#120,.T.);
#118 = VERTEX_POINT('',#119);
#119 = CARTESIAN_POINT('',(1.645,-2.9,0.9));
#120 = CIRCLE('',#121,0.4);
#121 = AXIS2_PLACEMENT_3D('',#122,#123,#124);
#122 = CARTESIAN_POINT('',(1.245,-2.9,0.9));
#123 = DIRECTION('',(0.,0.,1.));
#124 = DIRECTION('',(1.,0.,0.));
#125 = ORIENTED_EDGE('',*,*,#126,.F.);
#126 = EDGE_CURVE('',#127,#118,#129,.T.);
#127 = VERTEX_POINT('',#128);
#128 = CARTESIAN_POINT('',(1.645,-2.9,0.));
#129 = LINE('',#130,#131);
#130 = CARTESIAN_POINT('',(1.645,-2.9,0.));
#131 = VECTOR('',#132,1.);
#132 = DIRECTION('',(0.,0.,1.));
#133 = ORIENTED_EDGE('',*,*,#134,.F.);
#134 = EDGE_CURVE('',#95,#127,#135,.T.);
#135 = CIRCLE('',#136,0.4);
#136 = AXIS2_PLACEMENT_3D('',#137,#138,#139);
#137 = CARTESIAN_POINT('',(1.245,-2.9,0.));
#138 = DIRECTION('',(0.,0.,1.));
#139 = DIRECTION('',(1.,0.,0.));
#140 = CYLINDRICAL_SURFACE('',#141,0.4);
#141 = AXIS2_PLACEMENT_3D('',#142,#143,#144);
#142 = CARTESIAN_POINT('',(1.245,-2.9,0.));
#143 = DIRECTION('',(-0.,-0.,-1.));
#144 = DIRECTION('',(1.,0.,0.));
#145 = ADVANCED_FACE('',(#146),#171,.T.);
#146 = FACE_BOUND('',#147,.T.);
#147 = EDGE_LOOP('',(#148,#158,#164,#165));
#148 = ORIENTED_EDGE('',*,*,#149,.T.);
#149 = EDGE_CURVE('',#150,#152,#154,.T.);
#150 = VERTEX_POINT('',#151);
#151 = CARTESIAN_POINT('',(1.645,-2.5,0.));
#152 = VERTEX_POINT('',#153);
#153 = CARTESIAN_POINT('',(1.645,-2.5,0.9));
#154 = LINE('',#155,#156);
#155 = CARTESIAN_POINT('',(1.645,-2.5,0.));
#156 = VECTOR('',#157,1.);
#157 = DIRECTION('',(0.,0.,1.));
#158 = ORIENTED_EDGE('',*,*,#159,.T.);
#159 = EDGE_CURVE('',#152,#118,#160,.T.);
#160 = LINE('',#161,#162);
#161 = CARTESIAN_POINT('',(1.645,-2.5,0.9));
#162 = VECTOR('',#163,1.);
#163 = DIRECTION('',(1.110223024625E-15,-1.,0.));
#164 = ORIENTED_EDGE('',*,*,#126,.F.);
#165 = ORIENTED_EDGE('',*,*,#166,.F.);
#166 = EDGE_CURVE('',#150,#127,#167,.T.);
#167 = LINE('',#168,#169);
#168 = CARTESIAN_POINT('',(1.645,-2.5,0.));
#169 = VECTOR('',#170,1.);
#170 = DIRECTION('',(1.110223024625E-15,-1.,0.));
#171 = PLANE('',#172);
#172 = AXIS2_PLACEMENT_3D('',#173,#174,#175);
#173 = CARTESIAN_POINT('',(1.645,-2.5,0.));
#174 = DIRECTION('',(1.,1.110223024625E-15,-0.));
#175 = DIRECTION('',(1.110223024625E-15,-1.,0.));
#176 = ADVANCED_FACE('',(#177),#202,.T.);
#177 = FACE_BOUND('',#178,.T.);
#178 = EDGE_LOOP('',(#179,#189,#195,#196));
#179 = ORIENTED_EDGE('',*,*,#180,.T.);
#180 = EDGE_CURVE('',#181,#183,#185,.T.);
#181 = VERTEX_POINT('',#182);
#182 = CARTESIAN_POINT('',(-1.645,-2.5,0.));
#183 = VERTEX_POINT('',#184);
#184 = CARTESIAN_POINT('',(-1.645,-2.5,0.9));
#185 = LINE('',#186,#187);
#186 = CARTESIAN_POINT('',(-1.645,-2.5,0.));
#187 = VECTOR('',#188,1.);
#188 = DIRECTION('',(0.,0.,1.));
#189 = ORIENTED_EDGE('',*,*,#190,.T.);
#190 = EDGE_CURVE('',#183,#152,#191,.T.);
#191 = LINE('',#192,#193);
#192 = CARTESIAN_POINT('',(-1.645,-2.5,0.9));
#193 = VECTOR('',#194,1.);
#194 = DIRECTION('',(1.,0.,0.));
#195 = ORIENTED_EDGE('',*,*,#149,.F.);
#196 = ORIENTED_EDGE('',*,*,#197,.F.);
#197 = EDGE_CURVE('',#181,#150,#198,.T.);
#198 = LINE('',#199,#200);
#199 = CARTESIAN_POINT('',(-1.645,-2.5,0.));
#200 = VECTOR('',#201,1.);
#201 = DIRECTION('',(1.,0.,0.));
#202 = PLANE('',#203);
#203 = AXIS2_PLACEMENT_3D('',#204,#205,#206);
#204 = CARTESIAN_POINT('',(-1.645,-2.5,0.));
#205 = DIRECTION('',(0.,1.,0.));
#206 = DIRECTION('',(1.,0.,0.));
#207 = ADVANCED_FACE('',(#208),#224,.T.);
#208 = FACE_BOUND('',#209,.T.);
#209 = EDGE_LOOP('',(#210,#211,#217,#218));
#210 = ORIENTED_EDGE('',*,*,#43,.T.);
#211 = ORIENTED_EDGE('',*,*,#212,.T.);
#212 = EDGE_CURVE('',#46,#183,#213,.T.);
#213 = LINE('',#214,#215);
#214 = CARTESIAN_POINT('',(-1.645,-2.9,0.9));
#215 = VECTOR('',#216,1.);
#216 = DIRECTION('',(0.,1.,0.));
#217 = ORIENTED_EDGE('',*,*,#180,.F.);
#218 = ORIENTED_EDGE('',*,*,#219,.F.);
#219 = EDGE_CURVE('',#44,#181,#220,.T.);
#220 = LINE('',#221,#222);
#221 = CARTESIAN_POINT('',(-1.645,-2.9,0.));
#222 = VECTOR('',#223,1.);
#223 = DIRECTION('',(0.,1.,0.));
#224 = PLANE('',#225);
#225 = AXIS2_PLACEMENT_3D('',#226,#227,#228);
#226 = CARTESIAN_POINT('',(-1.645,-2.9,0.));
#227 = DIRECTION('',(-1.,0.,0.));
#228 = DIRECTION('',(0.,1.,0.));
#229 = ADVANCED_FACE('',(#230),#238,.F.);
#230 = FACE_BOUND('',#231,.F.);
#231 = EDGE_LOOP('',(#232,#233,#234,#235,#236,#237));
#232 = ORIENTED_EDGE('',*,*,#70,.T.);
#233 = ORIENTED_EDGE('',*,*,#102,.T.);
#234 = ORIENTED_EDGE('',*,*,#134,.T.);
#235 = ORIENTED_EDGE('',*,*,#166,.F.);
#236 = ORIENTED_EDGE('',*,*,#197,.F.);
#237 = ORIENTED_EDGE('',*,*,#219,.F.);
#238 = PLANE('',#239);
#239 = AXIS2_PLACEMENT_3D('',#240,#241,#242);
#240 = CARTESIAN_POINT('',(1.135439515932E-16,1.135439515932E-16,0.));
#241 = DIRECTION('',(0.,0.,1.));
#242 = DIRECTION('',(1.,0.,-0.));
#243 = ADVANCED_FACE('',(#244),#252,.T.);
#244 = FACE_BOUND('',#245,.T.);
#245 = EDGE_LOOP('',(#246,#247,#248,#249,#250,#251));
#246 = ORIENTED_EDGE('',*,*,#53,.T.);
#247 = ORIENTED_EDGE('',*,*,#86,.T.);
#248 = ORIENTED_EDGE('',*,*,#117,.T.);
#249 = ORIENTED_EDGE('',*,*,#159,.F.);
#250 = ORIENTED_EDGE('',*,*,#190,.F.);
#251 = ORIENTED_EDGE('',*,*,#212,.F.);
#252 = PLANE('',#253);
#253 = AXIS2_PLACEMENT_3D('',#254,#255,#256);
#254 = CARTESIAN_POINT('',(1.135439515932E-16,1.135439515932E-16,0.9));
#255 = DIRECTION('',(0.,0.,1.));
#256 = DIRECTION('',(1.,0.,-0.));
#257 = MANIFOLD_SOLID_BREP('',#258);
#258 = CLOSED_SHELL('',(#259,#299,#332,#363,#396,#427,#449,#463));
#259 = ADVANCED_FACE('',(#260),#294,.F.);
#260 = FACE_BOUND('',#261,.F.);
#261 = EDGE_LOOP('',(#262,#272,#280,#288));
#262 = ORIENTED_EDGE('',*,*,#263,.T.);
#263 = EDGE_CURVE('',#264,#266,#268,.T.);
#264 = VERTEX_POINT('',#265);
#265 = CARTESIAN_POINT('',(1.645,2.5,0.));
#266 = VERTEX_POINT('',#267);
#267 = CARTESIAN_POINT('',(1.645,2.5,0.9));
#268 = LINE('',#269,#270);
#269 = CARTESIAN_POINT('',(1.645,2.5,0.));
#270 = VECTOR('',#271,1.);
#271 = DIRECTION('',(0.,0.,1.));
#272 = ORIENTED_EDGE('',*,*,#273,.T.);
#273 = EDGE_CURVE('',#266,#274,#276,.T.);
#274 = VERTEX_POINT('',#275);
#275 = CARTESIAN_POINT('',(1.645,2.9,0.9));
#276 = LINE('',#277,#278);
#277 = CARTESIAN_POINT('',(1.645,2.5,0.9));
#278 = VECTOR('',#279,1.);
#279 = DIRECTION('',(1.110223024625E-15,1.,0.));
#280 = ORIENTED_EDGE('',*,*,#281,.F.);
#281 = EDGE_CURVE('',#282,#274,#284,.T.);
#282 = VERTEX_POINT('',#283);
#283 = CARTESIAN_POINT('',(1.645,2.9,0.));
#284 = LINE('',#285,#286);
#285 = CARTESIAN_POINT('',(1.645,2.9,0.));
#286 = VECTOR('',#287,1.);
#287 = DIRECTION('',(0.,0.,1.));
#288 = ORIENTED_EDGE('',*,*,#289,.F.);
#289 = EDGE_CURVE('',#264,#282,#290,.T.);
#290 = LINE('',#291,#292);
#291 = CARTESIAN_POINT('',(1.645,2.5,0.));
#292 = VECTOR('',#293,1.);
#293 = DIRECTION('',(1.110223024625E-15,1.,0.));
#294 = PLANE('',#295);
#295 = AXIS2_PLACEMENT_3D('',#296,#297,#298);
#296 = CARTESIAN_POINT('',(1.645,2.5,0.));
#297 = DIRECTION('',(-1.,1.110223024625E-15,0.));
#298 = DIRECTION('',(1.110223024625E-15,1.,0.));
#299 = ADVANCED_FACE('',(#300),#327,.T.);
#300 = FACE_BOUND('',#301,.F.);
#301 = EDGE_LOOP('',(#302,#303,#312,#320));
#302 = ORIENTED_EDGE('',*,*,#281,.T.);
#303 = ORIENTED_EDGE('',*,*,#304,.T.);
#304 = EDGE_CURVE('',#274,#305,#307,.T.);
#305 = VERTEX_POINT('',#306);
#306 = CARTESIAN_POINT('',(1.245,3.3,0.9));
#307 = CIRCLE('',#308,0.4);
#308 = AXIS2_PLACEMENT_3D('',#309,#310,#311);
#309 = CARTESIAN_POINT('',(1.245,2.9,0.9));
#310 = DIRECTION('',(0.,0.,1.));
#311 = DIRECTION('',(1.,0.,0.));
#312 = ORIENTED_EDGE('',*,*,#313,.F.);
#313 = EDGE_CURVE('',#314,#305,#316,.T.);
#314 = VERTEX_POINT('',#315);
#315 = CARTESIAN_POINT('',(1.245,3.3,0.));
#316 = LINE('',#317,#318);
#317 = CARTESIAN_POINT('',(1.245,3.3,0.));
#318 = VECTOR('',#319,1.);
#319 = DIRECTION('',(0.,0.,1.));
#320 = ORIENTED_EDGE('',*,*,#321,.F.);
#321 = EDGE_CURVE('',#282,#314,#322,.T.);
#322 = CIRCLE('',#323,0.4);
#323 = AXIS2_PLACEMENT_3D('',#324,#325,#326);
#324 = CARTESIAN_POINT('',(1.245,2.9,0.));
#325 = DIRECTION('',(0.,0.,1.));
#326 = DIRECTION('',(1.,0.,0.));
#327 = CYLINDRICAL_SURFACE('',#328,0.4);
#328 = AXIS2_PLACEMENT_3D('',#329,#330,#331);
#329 = CARTESIAN_POINT('',(1.245,2.9,0.));
#330 = DIRECTION('',(-0.,-0.,-1.));
#331 = DIRECTION('',(1.,0.,0.));
#332 = ADVANCED_FACE('',(#333),#358,.F.);
#333 = FACE_BOUND('',#334,.F.);
#334 = EDGE_LOOP('',(#335,#336,#344,#352));
#335 = ORIENTED_EDGE('',*,*,#313,.T.);
#336 = ORIENTED_EDGE('',*,*,#337,.T.);
#337 = EDGE_CURVE('',#305,#338,#340,.T.);
#338 = VERTEX_POINT('',#339);
#339 = CARTESIAN_POINT('',(-1.245,3.3,0.9));
#340 = LINE('',#341,#342);
#341 = CARTESIAN_POINT('',(1.245,3.3,0.9));
#342 = VECTOR('',#343,1.);
#343 = DIRECTION('',(-1.,0.,0.));
#344 = ORIENTED_EDGE('',*,*,#345,.F.);
#345 = EDGE_CURVE('',#346,#338,#348,.T.);
#346 = VERTEX_POINT('',#347);
#347 = CARTESIAN_POINT('',(-1.245,3.3,0.));
#348 = LINE('',#349,#350);
#349 = CARTESIAN_POINT('',(-1.245,3.3,0.));
#350 = VECTOR('',#351,1.);
#351 = DIRECTION('',(0.,0.,1.));
#352 = ORIENTED_EDGE('',*,*,#353,.F.);
#353 = EDGE_CURVE('',#314,#346,#354,.T.);
#354 = LINE('',#355,#356);
#355 = CARTESIAN_POINT('',(1.245,3.3,0.));
#356 = VECTOR('',#357,1.);
#357 = DIRECTION('',(-1.,0.,0.));
#358 = PLANE('',#359);
#359 = AXIS2_PLACEMENT_3D('',#360,#361,#362);
#360 = CARTESIAN_POINT('',(1.245,3.3,0.));
#361 = DIRECTION('',(0.,-1.,0.));
#362 = DIRECTION('',(-1.,0.,0.));
#363 = ADVANCED_FACE('',(#364),#391,.T.);
#364 = FACE_BOUND('',#365,.F.);
#365 = EDGE_LOOP('',(#366,#367,#376,#384));
#366 = ORIENTED_EDGE('',*,*,#345,.T.);
#367 = ORIENTED_EDGE('',*,*,#368,.T.);
#368 = EDGE_CURVE('',#338,#369,#371,.T.);
#369 = VERTEX_POINT('',#370);
#370 = CARTESIAN_POINT('',(-1.645,2.9,0.9));
#371 = CIRCLE('',#372,0.4);
#372 = AXIS2_PLACEMENT_3D('',#373,#374,#375);
#373 = CARTESIAN_POINT('',(-1.245,2.9,0.9));
#374 = DIRECTION('',(0.,0.,1.));
#375 = DIRECTION('',(1.,0.,0.));
#376 = ORIENTED_EDGE('',*,*,#377,.F.);
#377 = EDGE_CURVE('',#378,#369,#380,.T.);
#378 = VERTEX_POINT('',#379);
#379 = CARTESIAN_POINT('',(-1.645,2.9,0.));
#380 = LINE('',#381,#382);
#381 = CARTESIAN_POINT('',(-1.645,2.9,0.));
#382 = VECTOR('',#383,1.);
#383 = DIRECTION('',(0.,0.,1.));
#384 = ORIENTED_EDGE('',*,*,#385,.F.);
#385 = EDGE_CURVE('',#346,#378,#386,.T.);
#386 = CIRCLE('',#387,0.4);
#387 = AXIS2_PLACEMENT_3D('',#388,#389,#390);
#388 = CARTESIAN_POINT('',(-1.245,2.9,0.));
#389 = DIRECTION('',(0.,0.,1.));
#390 = DIRECTION('',(1.,0.,0.));
#391 = CYLINDRICAL_SURFACE('',#392,0.4);
#392 = AXIS2_PLACEMENT_3D('',#393,#394,#395);
#393 = CARTESIAN_POINT('',(-1.245,2.9,0.));
#394 = DIRECTION('',(-0.,-0.,-1.));
#395 = DIRECTION('',(1.,0.,0.));
#396 = ADVANCED_FACE('',(#397),#422,.T.);
#397 = FACE_BOUND('',#398,.T.);
#398 = EDGE_LOOP('',(#399,#409,#415,#416));
#399 = ORIENTED_EDGE('',*,*,#400,.T.);
#400 = EDGE_CURVE('',#401,#403,#405,.T.);
#401 = VERTEX_POINT('',#402);
#402 = CARTESIAN_POINT('',(-1.645,2.5,0.));
#403 = VERTEX_POINT('',#404);
#404 = CARTESIAN_POINT('',(-1.645,2.5,0.9));
#405 = LINE('',#406,#407);
#406 = CARTESIAN_POINT('',(-1.645,2.5,0.));
#407 = VECTOR('',#408,1.);
#408 = DIRECTION('',(0.,0.,1.));
#409 = ORIENTED_EDGE('',*,*,#410,.T.);
#410 = EDGE_CURVE('',#403,#369,#411,.T.);
#411 = LINE('',#412,#413);
#412 = CARTESIAN_POINT('',(-1.645,2.5,0.9));
#413 = VECTOR('',#414,1.);
#414 = DIRECTION('',(0.,1.,0.));
#415 = ORIENTED_EDGE('',*,*,#377,.F.);
#416 = ORIENTED_EDGE('',*,*,#417,.F.);
#417 = EDGE_CURVE('',#401,#378,#418,.T.);
#418 = LINE('',#419,#420);
#419 = CARTESIAN_POINT('',(-1.645,2.5,0.));
#420 = VECTOR('',#421,1.);
#421 = DIRECTION('',(0.,1.,0.));
#422 = PLANE('',#423);
#423 = AXIS2_PLACEMENT_3D('',#424,#425,#426);
#424 = CARTESIAN_POINT('',(-1.645,2.5,0.));
#425 = DIRECTION('',(-1.,0.,0.));
#426 = DIRECTION('',(0.,1.,0.));
#427 = ADVANCED_FACE('',(#428),#444,.T.);
#428 = FACE_BOUND('',#429,.T.);
#429 = EDGE_LOOP('',(#430,#431,#437,#438));
#430 = ORIENTED_EDGE('',*,*,#263,.T.);
#431 = ORIENTED_EDGE('',*,*,#432,.T.);
#432 = EDGE_CURVE('',#266,#403,#433,.T.);
#433 = LINE('',#434,#435);
#434 = CARTESIAN_POINT('',(1.645,2.5,0.9));
#435 = VECTOR('',#436,1.);
#436 = DIRECTION('',(-1.,0.,0.));
#437 = ORIENTED_EDGE('',*,*,#400,.F.);
#438 = ORIENTED_EDGE('',*,*,#439,.F.);
#439 = EDGE_CURVE('',#264,#401,#440,.T.);
#440 = LINE('',#441,#442);
#441 = CARTESIAN_POINT('',(1.645,2.5,0.));
#442 = VECTOR('',#443,1.);
#443 = DIRECTION('',(-1.,0.,0.));
#444 = PLANE('',#445);
#445 = AXIS2_PLACEMENT_3D('',#446,#447,#448);
#446 = CARTESIAN_POINT('',(1.645,2.5,0.));
#447 = DIRECTION('',(0.,-1.,0.));
#448 = DIRECTION('',(-1.,0.,0.));
#449 = ADVANCED_FACE('',(#450),#458,.F.);
#450 = FACE_BOUND('',#451,.F.);
#451 = EDGE_LOOP('',(#452,#453,#454,#455,#456,#457));
#452 = ORIENTED_EDGE('',*,*,#289,.T.);
#453 = ORIENTED_EDGE('',*,*,#321,.T.);
#454 = ORIENTED_EDGE('',*,*,#353,.T.);
#455 = ORIENTED_EDGE('',*,*,#385,.T.);
#456 = ORIENTED_EDGE('',*,*,#417,.F.);
#457 = ORIENTED_EDGE('',*,*,#439,.F.);
#458 = PLANE('',#459);
#459 = AXIS2_PLACEMENT_3D('',#460,#461,#462);
#460 = CARTESIAN_POINT('',(1.135439515932E-16,1.135439515932E-16,0.));
#461 = DIRECTION('',(0.,0.,1.));
#462 = DIRECTION('',(1.,0.,-0.));
#463 = ADVANCED_FACE('',(#464),#472,.T.);
#464 = FACE_BOUND('',#465,.T.);
#465 = EDGE_LOOP('',(#466,#467,#468,#469,#470,#471));
#466 = ORIENTED_EDGE('',*,*,#273,.T.);
#467 = ORIENTED_EDGE('',*,*,#304,.T.);
#468 = ORIENTED_EDGE('',*,*,#337,.T.);
#469 = ORIENTED_EDGE('',*,*,#368,.T.);
#470 = ORIENTED_EDGE('',*,*,#410,.F.);
#471 = ORIENTED_EDGE('',*,*,#432,.F.);
#472 = PLANE('',#473);
#473 = AXIS2_PLACEMENT_3D('',#474,#475,#476);
#474 = CARTESIAN_POINT('',(1.135439515932E-16,1.135439515932E-16,0.9));
#475 = DIRECTION('',(0.,0.,1.));
#476 = DIRECTION('',(1.,0.,-0.));
#477 = ( GEOMETRIC_REPRESENTATION_CONTEXT(3) 
GLOBAL_UNCERTAINTY_ASSIGNED_CONTEXT((#481)) GLOBAL_UNIT_ASSIGNED_CONTEXT
((#478,#479,#480)) REPRESENTATION_CONTEXT('Context #1',
  '3D Context with UNIT and UNCERTAINTY') );
#478 = ( LENGTH_UNIT() NAMED_UNIT(*) SI_UNIT(.MILLI.,.METRE.) );
#479 = ( NAMED_UNIT(*) PLANE_ANGLE_UNIT() SI_UNIT($,.RADIAN.) );
#480 = ( NAMED_UNIT(*) SI_UNIT($,.STERADIAN.) SOLID_ANGLE_UNIT() );
#481 = UNCERTAINTY_MEASURE_WITH_UNIT(LENGTH_MEASURE(1.E-07),#478,
  'distance_accuracy_value','confusion accuracy');
#482 = CONTEXT_DEPENDENT_SHAPE_REPRESENTATION(#483,#485);
#483 = ( REPRESENTATION_RELATIONSHIP('','',#36,#10) 
REPRESENTATION_RELATIONSHIP_WITH_TRANSFORMATION(#484) 
SHAPE_REPRESENTATION_RELATIONSHIP() );
#484 = ITEM_DEFINED_TRANSFORMATION('','',#11,#15);
#485 = PRODUCT_DEFINITION_SHAPE('Placement','Placement of an item',#486
  );
#486 = NEXT_ASSEMBLY_USAGE_OCCURRENCE('1','Extrude','',#5,#31,$);
#487 = PRODUCT_RELATED_PRODUCT_CATEGORY('part',$,(#33));
#488 = SHAPE_DEFINITION_REPRESENTATION(#489,#495);
#489 = PRODUCT_DEFINITION_SHAPE('','',#490);
#490 = PRODUCT_DEFINITION('design','',#491,#494);
#491 = PRODUCT_DEFINITION_FORMATION('','',#492);
#492 = PRODUCT('Extrude001','Extrude001','',(#493));
#493 = PRODUCT_CONTEXT('',#2,'mechanical');
#494 = PRODUCT_DEFINITION_CONTEXT('part definition',#2,'design');
#495 = ADVANCED_BREP_SHAPE_REPRESENTATION('',(#11,#496),#646);
#496 = MANIFOLD_SOLID_BREP('',#497);
#497 = CLOSED_SHELL('',(#498,#538,#569,#600,#622,#634));
#498 = ADVANCED_FACE('',(#499),#533,.T.);
#499 = FACE_BOUND('',#500,.T.);
#500 = EDGE_LOOP('',(#501,#511,#519,#527));
#501 = ORIENTED_EDGE('',*,*,#502,.T.);
#502 = EDGE_CURVE('',#503,#505,#507,.T.);
#503 = VERTEX_POINT('',#504);
#504 = CARTESIAN_POINT('',(1.645,2.5,0.));
#505 = VERTEX_POINT('',#506);
#506 = CARTESIAN_POINT('',(1.645,2.5,0.9));
#507 = LINE('',#508,#509);
#508 = CARTESIAN_POINT('',(1.645,2.5,0.));
#509 = VECTOR('',#510,1.);
#510 = DIRECTION('',(-0.,-0.,1.));
#511 = ORIENTED_EDGE('',*,*,#512,.T.);
#512 = EDGE_CURVE('',#505,#513,#515,.T.);
#513 = VERTEX_POINT('',#514);
#514 = CARTESIAN_POINT('',(1.645,-2.5,0.9));
#515 = LINE('',#516,#517);
#516 = CARTESIAN_POINT('',(1.645,2.5,0.9));
#517 = VECTOR('',#518,1.);
#518 = DIRECTION('',(0.,-1.,0.));
#519 = ORIENTED_EDGE('',*,*,#520,.F.);
#520 = EDGE_CURVE('',#521,#513,#523,.T.);
#521 = VERTEX_POINT('',#522);
#522 = CARTESIAN_POINT('',(1.645,-2.5,0.));
#523 = LINE('',#524,#525);
#524 = CARTESIAN_POINT('',(1.645,-2.5,0.));
#525 = VECTOR('',#526,1.);
#526 = DIRECTION('',(-0.,-0.,1.));
#527 = ORIENTED_EDGE('',*,*,#528,.F.);
#528 = EDGE_CURVE('',#503,#521,#529,.T.);
#529 = LINE('',#530,#531);
#530 = CARTESIAN_POINT('',(1.645,2.5,0.));
#531 = VECTOR('',#532,1.);
#532 = DIRECTION('',(0.,-1.,0.));
#533 = PLANE('',#534);
#534 = AXIS2_PLACEMENT_3D('',#535,#536,#537);
#535 = CARTESIAN_POINT('',(1.645,2.5,0.));
#536 = DIRECTION('',(1.,0.,0.));
#537 = DIRECTION('',(0.,-1.,0.));
#538 = ADVANCED_FACE('',(#539),#564,.F.);
#539 = FACE_BOUND('',#540,.F.);
#540 = EDGE_LOOP('',(#541,#551,#557,#558));
#541 = ORIENTED_EDGE('',*,*,#542,.T.);
#542 = EDGE_CURVE('',#543,#545,#547,.T.);
#543 = VERTEX_POINT('',#544);
#544 = CARTESIAN_POINT('',(-1.645,-2.5,0.));
#545 = VERTEX_POINT('',#546);
#546 = CARTESIAN_POINT('',(-1.645,-2.5,0.9));
#547 = LINE('',#548,#549);
#548 = CARTESIAN_POINT('',(-1.645,-2.5,0.));
#549 = VECTOR('',#550,1.);
#550 = DIRECTION('',(-0.,-0.,1.));
#551 = ORIENTED_EDGE('',*,*,#552,.T.);
#552 = EDGE_CURVE('',#545,#513,#553,.T.);
#553 = LINE('',#554,#555);
#554 = CARTESIAN_POINT('',(-1.645,-2.5,0.9));
#555 = VECTOR('',#556,1.);
#556 = DIRECTION('',(1.,0.,0.));
#557 = ORIENTED_EDGE('',*,*,#520,.F.);
#558 = ORIENTED_EDGE('',*,*,#559,.F.);
#559 = EDGE_CURVE('',#543,#521,#560,.T.);
#560 = LINE('',#561,#562);
#561 = CARTESIAN_POINT('',(-1.645,-2.5,0.));
#562 = VECTOR('',#563,1.);
#563 = DIRECTION('',(1.,0.,0.));
#564 = PLANE('',#565);
#565 = AXIS2_PLACEMENT_3D('',#566,#567,#568);
#566 = CARTESIAN_POINT('',(-1.645,-2.5,0.));
#567 = DIRECTION('',(-0.,1.,0.));
#568 = DIRECTION('',(1.,0.,0.));
#569 = ADVANCED_FACE('',(#570),#595,.T.);
#570 = FACE_BOUND('',#571,.T.);
#571 = EDGE_LOOP('',(#572,#573,#581,#589));
#572 = ORIENTED_EDGE('',*,*,#542,.T.);
#573 = ORIENTED_EDGE('',*,*,#574,.T.);
#574 = EDGE_CURVE('',#545,#575,#577,.T.);
#575 = VERTEX_POINT('',#576);
#576 = CARTESIAN_POINT('',(-1.645,2.5,0.9));
#577 = LINE('',#578,#579);
#578 = CARTESIAN_POINT('',(-1.645,-2.5,0.9));
#579 = VECTOR('',#580,1.);
#580 = DIRECTION('',(0.,1.,0.));
#581 = ORIENTED_EDGE('',*,*,#582,.F.);
#582 = EDGE_CURVE('',#583,#575,#585,.T.);
#583 = VERTEX_POINT('',#584);
#584 = CARTESIAN_POINT('',(-1.645,2.5,0.));
#585 = LINE('',#586,#587);
#586 = CARTESIAN_POINT('',(-1.645,2.5,0.));
#587 = VECTOR('',#588,1.);
#588 = DIRECTION('',(-0.,-0.,1.));
#589 = ORIENTED_EDGE('',*,*,#590,.F.);
#590 = EDGE_CURVE('',#543,#583,#591,.T.);
#591 = LINE('',#592,#593);
#592 = CARTESIAN_POINT('',(-1.645,-2.5,0.));
#593 = VECTOR('',#594,1.);
#594 = DIRECTION('',(0.,1.,0.));
#595 = PLANE('',#596);
#596 = AXIS2_PLACEMENT_3D('',#597,#598,#599);
#597 = CARTESIAN_POINT('',(-1.645,-2.5,0.));
#598 = DIRECTION('',(-1.,0.,0.));
#599 = DIRECTION('',(0.,1.,0.));
#600 = ADVANCED_FACE('',(#601),#617,.F.);
#601 = FACE_BOUND('',#602,.F.);
#602 = EDGE_LOOP('',(#603,#604,#610,#611));
#603 = ORIENTED_EDGE('',*,*,#502,.T.);
#604 = ORIENTED_EDGE('',*,*,#605,.T.);
#605 = EDGE_CURVE('',#505,#575,#606,.T.);
#606 = LINE('',#607,#608);
#607 = CARTESIAN_POINT('',(1.645,2.5,0.9));
#608 = VECTOR('',#609,1.);
#609 = DIRECTION('',(-1.,0.,0.));
#610 = ORIENTED_EDGE('',*,*,#582,.F.);
#611 = ORIENTED_EDGE('',*,*,#612,.F.);
#612 = EDGE_CURVE('',#503,#583,#613,.T.);
#613 = LINE('',#614,#615);
#614 = CARTESIAN_POINT('',(1.645,2.5,0.));
#615 = VECTOR('',#616,1.);
#616 = DIRECTION('',(-1.,0.,0.));
#617 = PLANE('',#618);
#618 = AXIS2_PLACEMENT_3D('',#619,#620,#621);
#619 = CARTESIAN_POINT('',(1.645,2.5,0.));
#620 = DIRECTION('',(-0.,-1.,-0.));
#621 = DIRECTION('',(-1.,0.,0.));
#622 = ADVANCED_FACE('',(#623),#629,.F.);
#623 = FACE_BOUND('',#624,.T.);
#624 = EDGE_LOOP('',(#625,#626,#627,#628));
#625 = ORIENTED_EDGE('',*,*,#528,.T.);
#626 = ORIENTED_EDGE('',*,*,#559,.F.);
#627 = ORIENTED_EDGE('',*,*,#590,.T.);
#628 = ORIENTED_EDGE('',*,*,#612,.F.);
#629 = PLANE('',#630);
#630 = AXIS2_PLACEMENT_3D('',#631,#632,#633);
#631 = CARTESIAN_POINT('',(0.,0.,0.));
#632 = DIRECTION('',(0.,0.,1.));
#633 = DIRECTION('',(1.,0.,-0.));
#634 = ADVANCED_FACE('',(#635),#641,.T.);
#635 = FACE_BOUND('',#636,.F.);
#636 = EDGE_LOOP('',(#637,#638,#639,#640));
#637 = ORIENTED_EDGE('',*,*,#512,.T.);
#638 = ORIENTED_EDGE('',*,*,#552,.F.);
#639 = ORIENTED_EDGE('',*,*,#574,.T.);
#640 = ORIENTED_EDGE('',*,*,#605,.F.);
#641 = PLANE('',#642);
#642 = AXIS2_PLACEMENT_3D('',#643,#644,#645);
#643 = CARTESIAN_POINT('',(0.,0.,0.9));
#644 = DIRECTION('',(0.,0.,1.));
#645 = DIRECTION('',(1.,0.,-0.));
#646 = ( GEOMETRIC_REPRESENTATION_CONTEXT(3) 
GLOBAL_UNCERTAINTY_ASSIGNED_CONTEXT((#650)) GLOBAL_UNIT_ASSIGNED_CONTEXT
((#647,#648,#649)) REPRESENTATION_CONTEXT('Context #1',
  '3D Context with UNIT and UNCERTAINTY') );
#647 = ( LENGTH_UNIT() NAMED_UNIT(*) SI_UNIT(.MILLI.,.METRE.) );
#648 = ( NAMED_UNIT(*) PLANE_ANGLE_UNIT() SI_UNIT($,.RADIAN.) );
#649 = ( NAMED_UNIT(*) SI_UNIT($,.STERADIAN.) SOLID_ANGLE_UNIT() );
#650 = UNCERTAINTY_MEASURE_WITH_UNIT(LENGTH_MEASURE(1.E-07),#647,
  'distance_accuracy_value','confusion accuracy');
#651 = CONTEXT_DEPENDENT_SHAPE_REPRESENTATION(#652,#654);
#652 = ( REPRESENTATION_RELATIONSHIP('','',#495,#10) 
REPRESENTATION_RELATIONSHIP_WITH_TRANSFORMATION(#653) 
SHAPE_REPRESENTATION_RELATIONSHIP() );
#653 = ITEM_DEFINED_TRANSFORMATION('','',#11,#19);
#654 = PRODUCT_DEFINITION_SHAPE('Placement','Placement of an item',#655
  );
#655 = NEXT_ASSEMBLY_USAGE_OCCURRENCE('2','Extrude001','',#5,#490,$);
#656 = PRODUCT_RELATED_PRODUCT_CATEGORY('part',$,(#492));
#657 = MECHANICAL_DESIGN_GEOMETRIC_PRESENTATION_REPRESENTATION('',(#658)
  ,#646);
#658 = STYLED_ITEM('color',(#659),#496);
#659 = PRESENTATION_STYLE_ASSIGNMENT((#660,#666));
#660 = SURFACE_STYLE_USAGE(.BOTH.,#661);
#661 = SURFACE_SIDE_STYLE('',(#662));
#662 = SURFACE_STYLE_FILL_AREA(#663);
#663 = FILL_AREA_STYLE('',(#664));
#664 = FILL_AREA_STYLE_COLOUR('',#665);
#665 = COLOUR_RGB('',0.243137258719,0.254901970902,0.266666683833);
#666 = CURVE_STYLE('',#667,POSITIVE_LENGTH_MEASURE(0.1),#668);
#667 = DRAUGHTING_PRE_DEFINED_CURVE_FONT('continuous');
#668 = COLOUR_RGB('',9.803921802644E-02,9.803921802644E-02,
  9.803921802644E-02);
#669 = MECHANICAL_DESIGN_GEOMETRIC_PRESENTATION_REPRESENTATION('',(#670,
    #680),#477);
#670 = STYLED_ITEM('color',(#671),#37);
#671 = PRESENTATION_STYLE_ASSIGNMENT((#672,#678));
#672 = SURFACE_STYLE_USAGE(.BOTH.,#673);
#673 = SURFACE_SIDE_STYLE('',(#674));
#674 = SURFACE_STYLE_FILL_AREA(#675);
#675 = FILL_AREA_STYLE('',(#676));
#676 = FILL_AREA_STYLE_COLOUR('',#677);
#677 = COLOUR_RGB('',0.678431390124,0.709803936702,0.741176476869);
#678 = CURVE_STYLE('',#679,POSITIVE_LENGTH_MEASURE(0.1),#668);
#679 = DRAUGHTING_PRE_DEFINED_CURVE_FONT('continuous');
#680 = STYLED_ITEM('color',(#681),#257);
#681 = PRESENTATION_STYLE_ASSIGNMENT((#682,#687));
#682 = SURFACE_STYLE_USAGE(.BOTH.,#683);
#683 = SURFACE_SIDE_STYLE('',(#684));
#684 = SURFACE_STYLE_FILL_AREA(#685);
#685 = FILL_AREA_STYLE('',(#686));
#686 = FILL_AREA_STYLE_COLOUR('',#677);
#687 = CURVE_STYLE('',#688,POSITIVE_LENGTH_MEASURE(0.1),#668);
#688 = DRAUGHTING_PRE_DEFINED_CURVE_FONT('continuous');
ENDSEC;
END-ISO-10303-21;
