ISO-10303-21;
HEADER;
FILE_DESCRIPTION(('FreeCAD Model'),'2;1');
FILE_NAME('Open CASCADE Shape Model','2026-08-10T14:21:41',(''),(''),
  'Open CASCADE STEP processor 7.8','FreeCAD','Unknown');
FILE_SCHEMA(('AUTOMOTIVE_DESIGN { 1 0 10303 214 1 1 1 1 }'));
ENDSEC;
DATA;
#1 = APPLICATION_PROTOCOL_DEFINITION('international standard',
  'automotive_design',2000,#2);
#2 = APPLICATION_CONTEXT(
  'core data for automotive mechanical design processes');
#3 = SHAPE_DEFINITION_REPRESENTATION(#4,#10);
#4 = PRODUCT_DEFINITION_SHAPE('','',#5);
#5 = PRODUCT_DEFINITION('design','',#6,#9);
#6 = PRODUCT_DEFINITION_FORMATION('','',#7);
#7 = PRODUCT('Unnamed','Unnamed','',(#8));
#8 = PRODUCT_CONTEXT('',#2,'mechanical');
#9 = PRODUCT_DEFINITION_CONTEXT('part definition',#2,'design');
#10 = SHAPE_REPRESENTATION('',(#11,#15,#19),#23);
#11 = AXIS2_PLACEMENT_3D('',#12,#13,#14);
#12 = CARTESIAN_POINT('',(0.,0.,0.));
#13 = DIRECTION('',(0.,0.,1.));
#14 = DIRECTION('',(1.,0.,-0.));
#15 = AXIS2_PLACEMENT_3D('',#16,#17,#18);
#16 = CARTESIAN_POINT('',(0.,0.,0.));
#17 = DIRECTION('',(0.,0.,1.));
#18 = DIRECTION('',(1.,0.,0.));
#19 = AXIS2_PLACEMENT_3D('',#20,#21,#22);
#20 = CARTESIAN_POINT('',(0.,0.,0.));
#21 = DIRECTION('',(0.,0.,1.));
#22 = DIRECTION('',(1.,0.,0.));
#23 = ( GEOMETRIC_REPRESENTATION_CONTEXT(3) 
GLOBAL_UNCERTAINTY_ASSIGNED_CONTEXT((#27)) GLOBAL_UNIT_ASSIGNED_CONTEXT(
(#24,#25,#26)) REPRESENTATION_CONTEXT('Context #1',
  '3D Context with UNIT and UNCERTAINTY') );
#24 = ( LENGTH_UNIT() NAMED_UNIT(*) SI_UNIT(.MILLI.,.METRE.) );
#25 = ( NAMED_UNIT(*) PLANE_ANGLE_UNIT() SI_UNIT($,.RADIAN.) );
#26 = ( NAMED_UNIT(*) SI_UNIT($,.STERADIAN.) SOLID_ANGLE_UNIT() );
#27 = UNCERTAINTY_MEASURE_WITH_UNIT(LENGTH_MEASURE(1.E-07),#24,
  'distance_accuracy_value','confusion accuracy');
#28 = PRODUCT_RELATED_PRODUCT_CATEGORY('part',$,(#7));
#29 = SHAPE_DEFINITION_REPRESENTATION(#30,#36);
#30 = PRODUCT_DEFINITION_SHAPE('','',#31);
#31 = PRODUCT_DEFINITION('design','',#32,#35);
#32 = PRODUCT_DEFINITION_FORMATION('','',#33);
#33 = PRODUCT('Extrude','Extrude','',(#34));
#34 = PRODUCT_CONTEXT('',#2,'mechanical');
#35 = PRODUCT_DEFINITION_CONTEXT('part definition',#2,'design');
#36 = ADVANCED_BREP_SHAPE_REPRESENTATION('',(#11,#37),#187);
#37 = MANIFOLD_SOLID_BREP('',#38);
#38 = CLOSED_SHELL('',(#39,#79,#110,#141,#163,#175));
#39 = ADVANCED_FACE('',(#40),#74,.F.);
#40 = FACE_BOUND('',#41,.F.);
#41 = EDGE_LOOP('',(#42,#52,#60,#68));
#42 = ORIENTED_EDGE('',*,*,#43,.T.);
#43 = EDGE_CURVE('',#44,#46,#48,.T.);
#44 = VERTEX_POINT('',#45);
#45 = CARTESIAN_POINT('',(-0.45,-0.4,0.));
#46 = VERTEX_POINT('',#47);
#47 = CARTESIAN_POINT('',(-0.45,-0.4,0.6));
#48 = LINE('',#49,#50);
#49 = CARTESIAN_POINT('',(-0.45,-0.4,0.));
#50 = VECTOR('',#51,1.);
#51 = DIRECTION('',(0.,0.,1.));
#52 = ORIENTED_EDGE('',*,*,#53,.T.);
#53 = EDGE_CURVE('',#46,#54,#56,.T.);
#54 = VERTEX_POINT('',#55);
#55 = CARTESIAN_POINT('',(0.45,-0.4,0.6));
#56 = LINE('',#57,#58);
#57 = CARTESIAN_POINT('',(-0.45,-0.4,0.6));
#58 = VECTOR('',#59,1.);
#59 = DIRECTION('',(1.,0.,0.));
#60 = ORIENTED_EDGE('',*,*,#61,.F.);
#61 = EDGE_CURVE('',#62,#54,#64,.T.);
#62 = VERTEX_POINT('',#63);
#63 = CARTESIAN_POINT('',(0.45,-0.4,0.));
#64 = LINE('',#65,#66);
#65 = CARTESIAN_POINT('',(0.45,-0.4,0.));
#66 = VECTOR('',#67,1.);
#67 = DIRECTION('',(0.,0.,1.));
#68 = ORIENTED_EDGE('',*,*,#69,.F.);
#69 = EDGE_CURVE('',#44,#62,#70,.T.);
#70 = LINE('',#71,#72);
#71 = CARTESIAN_POINT('',(-0.45,-0.4,0.));
#72 = VECTOR('',#73,1.);
#73 = DIRECTION('',(1.,0.,0.));
#74 = PLANE('',#75);
#75 = AXIS2_PLACEMENT_3D('',#76,#77,#78);
#76 = CARTESIAN_POINT('',(-0.45,-0.4,0.));
#77 = DIRECTION('',(0.,1.,0.));
#78 = DIRECTION('',(1.,0.,0.));
#79 = ADVANCED_FACE('',(#80),#105,.F.);
#80 = FACE_BOUND('',#81,.F.);
#81 = EDGE_LOOP('',(#82,#83,#91,#99));
#82 = ORIENTED_EDGE('',*,*,#61,.T.);
#83 = ORIENTED_EDGE('',*,*,#84,.T.);
#84 = EDGE_CURVE('',#54,#85,#87,.T.);
#85 = VERTEX_POINT('',#86);
#86 = CARTESIAN_POINT('',(0.45,0.4,0.6));
#87 = LINE('',#88,#89);
#88 = CARTESIAN_POINT('',(0.45,-0.4,0.6));
#89 = VECTOR('',#90,1.);
#90 = DIRECTION('',(0.,1.,0.));
#91 = ORIENTED_EDGE('',*,*,#92,.F.);
#92 = EDGE_CURVE('',#93,#85,#95,.T.);
#93 = VERTEX_POINT('',#94);
#94 = CARTESIAN_POINT('',(0.45,0.4,0.));
#95 = LINE('',#96,#97);
#96 = CARTESIAN_POINT('',(0.45,0.4,0.));
#97 = VECTOR('',#98,1.);
#98 = DIRECTION('',(0.,0.,1.));
#99 = ORIENTED_EDGE('',*,*,#100,.F.);
#100 = EDGE_CURVE('',#62,#93,#101,.T.);
#101 = LINE('',#102,#103);
#102 = CARTESIAN_POINT('',(0.45,-0.4,0.));
#103 = VECTOR('',#104,1.);
#104 = DIRECTION('',(0.,1.,0.));
#105 = PLANE('',#106);
#106 = AXIS2_PLACEMENT_3D('',#107,#108,#109);
#107 = CARTESIAN_POINT('',(0.45,-0.4,0.));
#108 = DIRECTION('',(-1.,0.,0.));
#109 = DIRECTION('',(0.,1.,0.));
#110 = ADVANCED_FACE('',(#111),#136,.F.);
#111 = FACE_BOUND('',#112,.F.);
#112 = EDGE_LOOP('',(#113,#114,#122,#130));
#113 = ORIENTED_EDGE('',*,*,#92,.T.);
#114 = ORIENTED_EDGE('',*,*,#115,.T.);
#115 = EDGE_CURVE('',#85,#116,#118,.T.);
#116 = VERTEX_POINT('',#117);
#117 = CARTESIAN_POINT('',(-0.45,0.4,0.6));
#118 = LINE('',#119,#120);
#119 = CARTESIAN_POINT('',(0.45,0.4,0.6));
#120 = VECTOR('',#121,1.);
#121 = DIRECTION('',(-1.,0.,0.));
#122 = ORIENTED_EDGE('',*,*,#123,.F.);
#123 = EDGE_CURVE('',#124,#116,#126,.T.);
#124 = VERTEX_POINT('',#125);
#125 = CARTESIAN_POINT('',(-0.45,0.4,0.));
#126 = LINE('',#127,#128);
#127 = CARTESIAN_POINT('',(-0.45,0.4,0.));
#128 = VECTOR('',#129,1.);
#129 = DIRECTION('',(0.,0.,1.));
#130 = ORIENTED_EDGE('',*,*,#131,.F.);
#131 = EDGE_CURVE('',#93,#124,#132,.T.);
#132 = LINE('',#133,#134);
#133 = CARTESIAN_POINT('',(0.45,0.4,0.));
#134 = VECTOR('',#135,1.);
#135 = DIRECTION('',(-1.,0.,0.));
#136 = PLANE('',#137);
#137 = AXIS2_PLACEMENT_3D('',#138,#139,#140);
#138 = CARTESIAN_POINT('',(0.45,0.4,0.));
#139 = DIRECTION('',(0.,-1.,0.));
#140 = DIRECTION('',(-1.,0.,0.));
#141 = ADVANCED_FACE('',(#142),#158,.F.);
#142 = FACE_BOUND('',#143,.F.);
#143 = EDGE_LOOP('',(#144,#145,#151,#152));
#144 = ORIENTED_EDGE('',*,*,#123,.T.);
#145 = ORIENTED_EDGE('',*,*,#146,.T.);
#146 = EDGE_CURVE('',#116,#46,#147,.T.);
#147 = LINE('',#148,#149);
#148 = CARTESIAN_POINT('',(-0.45,0.4,0.6));
#149 = VECTOR('',#150,1.);
#150 = DIRECTION('',(0.,-1.,0.));
#151 = ORIENTED_EDGE('',*,*,#43,.F.);
#152 = ORIENTED_EDGE('',*,*,#153,.F.);
#153 = EDGE_CURVE('',#124,#44,#154,.T.);
#154 = LINE('',#155,#156);
#155 = CARTESIAN_POINT('',(-0.45,0.4,0.));
#156 = VECTOR('',#157,1.);
#157 = DIRECTION('',(0.,-1.,0.));
#158 = PLANE('',#159);
#159 = AXIS2_PLACEMENT_3D('',#160,#161,#162);
#160 = CARTESIAN_POINT('',(-0.45,0.4,0.));
#161 = DIRECTION('',(1.,0.,-0.));
#162 = DIRECTION('',(0.,-1.,0.));
#163 = ADVANCED_FACE('',(#164),#170,.F.);
#164 = FACE_BOUND('',#165,.F.);
#165 = EDGE_LOOP('',(#166,#167,#168,#169));
#166 = ORIENTED_EDGE('',*,*,#69,.T.);
#167 = ORIENTED_EDGE('',*,*,#100,.T.);
#168 = ORIENTED_EDGE('',*,*,#131,.T.);
#169 = ORIENTED_EDGE('',*,*,#153,.T.);
#170 = PLANE('',#171);
#171 = AXIS2_PLACEMENT_3D('',#172,#173,#174);
#172 = CARTESIAN_POINT('',(-1.632680918566E-17,1.632680918566E-17,0.));
#173 = DIRECTION('',(0.,0.,1.));
#174 = DIRECTION('',(1.,0.,-0.));
#175 = ADVANCED_FACE('',(#176),#182,.T.);
#176 = FACE_BOUND('',#177,.T.);
#177 = EDGE_LOOP('',(#178,#179,#180,#181));
#178 = ORIENTED_EDGE('',*,*,#53,.T.);
#179 = ORIENTED_EDGE('',*,*,#84,.T.);
#180 = ORIENTED_EDGE('',*,*,#115,.T.);
#181 = ORIENTED_EDGE('',*,*,#146,.T.);
#182 = PLANE('',#183);
#183 = AXIS2_PLACEMENT_3D('',#184,#185,#186);
#184 = CARTESIAN_POINT('',(-1.632680918566E-17,1.632680918566E-17,0.6));
#185 = DIRECTION('',(0.,0.,1.));
#186 = DIRECTION('',(1.,0.,-0.));
#187 = ( GEOMETRIC_REPRESENTATION_CONTEXT(3) 
GLOBAL_UNCERTAINTY_ASSIGNED_CONTEXT((#191)) GLOBAL_UNIT_ASSIGNED_CONTEXT
((#188,#189,#190)) REPRESENTATION_CONTEXT('Context #1',
  '3D Context with UNIT and UNCERTAINTY') );
#188 = ( LENGTH_UNIT() NAMED_UNIT(*) SI_UNIT(.MILLI.,.METRE.) );
#189 = ( NAMED_UNIT(*) PLANE_ANGLE_UNIT() SI_UNIT($,.RADIAN.) );
#190 = ( NAMED_UNIT(*) SI_UNIT($,.STERADIAN.) SOLID_ANGLE_UNIT() );
#191 = UNCERTAINTY_MEASURE_WITH_UNIT(LENGTH_MEASURE(1.E-07),#188,
  'distance_accuracy_value','confusion accuracy');
#192 = CONTEXT_DEPENDENT_SHAPE_REPRESENTATION(#193,#195);
#193 = ( REPRESENTATION_RELATIONSHIP('','',#36,#10) 
REPRESENTATION_RELATIONSHIP_WITH_TRANSFORMATION(#194) 
SHAPE_REPRESENTATION_RELATIONSHIP() );
#194 = ITEM_DEFINED_TRANSFORMATION('','',#11,#15);
#195 = PRODUCT_DEFINITION_SHAPE('Placement','Placement of an item',#196
  );
#196 = NEXT_ASSEMBLY_USAGE_OCCURRENCE('1','Extrude','',#5,#31,$);
#197 = PRODUCT_RELATED_PRODUCT_CATEGORY('part',$,(#33));
#198 = SHAPE_DEFINITION_REPRESENTATION(#199,#205);
#199 = PRODUCT_DEFINITION_SHAPE('','',#200);
#200 = PRODUCT_DEFINITION('design','',#201,#204);
#201 = PRODUCT_DEFINITION_FORMATION('','',#202);
#202 = PRODUCT('Body','Body','',(#203));
#203 = PRODUCT_CONTEXT('',#2,'mechanical');
#204 = PRODUCT_DEFINITION_CONTEXT('part definition',#2,'design');
#205 = SHAPE_REPRESENTATION('',(#11,#206,#422,#638,#854),#1070);
#206 = MANIFOLD_SOLID_BREP('',#207);
#207 = CLOSED_SHELL('',(#208,#248,#279,#310,#341,#372,#391,#408));
#208 = ADVANCED_FACE('',(#209),#243,.F.);
#209 = FACE_BOUND('',#210,.F.);
#210 = EDGE_LOOP('',(#211,#221,#229,#237));
#211 = ORIENTED_EDGE('',*,*,#212,.T.);
#212 = EDGE_CURVE('',#213,#215,#217,.T.);
#213 = VERTEX_POINT('',#214);
#214 = CARTESIAN_POINT('',(-0.3,-0.12,0.));
#215 = VERTEX_POINT('',#216);
#216 = CARTESIAN_POINT('',(-0.3,-0.12,-5.E-02));
#217 = LINE('',#218,#219);
#218 = CARTESIAN_POINT('',(-0.3,-0.12,0.));
#219 = VECTOR('',#220,1.);
#220 = DIRECTION('',(0.,0.,-1.));
#221 = ORIENTED_EDGE('',*,*,#222,.T.);
#222 = EDGE_CURVE('',#215,#223,#225,.T.);
#223 = VERTEX_POINT('',#224);
#224 = CARTESIAN_POINT('',(-0.1,-0.12,-5.E-02));
#225 = LINE('',#226,#227);
#226 = CARTESIAN_POINT('',(-0.3,-0.12,-5.E-02));
#227 = VECTOR('',#228,1.);
#228 = DIRECTION('',(1.,0.,0.));
#229 = ORIENTED_EDGE('',*,*,#230,.F.);
#230 = EDGE_CURVE('',#231,#223,#233,.T.);
#231 = VERTEX_POINT('',#232);
#232 = CARTESIAN_POINT('',(-0.1,-0.12,0.));
#233 = LINE('',#234,#235);
#234 = CARTESIAN_POINT('',(-0.1,-0.12,0.));
#235 = VECTOR('',#236,1.);
#236 = DIRECTION('',(0.,0.,-1.));
#237 = ORIENTED_EDGE('',*,*,#238,.F.);
#238 = EDGE_CURVE('',#213,#231,#239,.T.);
#239 = LINE('',#240,#241);
#240 = CARTESIAN_POINT('',(-0.3,-0.12,0.));
#241 = VECTOR('',#242,1.);
#242 = DIRECTION('',(1.,0.,0.));
#243 = PLANE('',#244);
#244 = AXIS2_PLACEMENT_3D('',#245,#246,#247);
#245 = CARTESIAN_POINT('',(-0.3,-0.12,0.));
#246 = DIRECTION('',(0.,-1.,0.));
#247 = DIRECTION('',(1.,0.,0.));
#248 = ADVANCED_FACE('',(#249),#274,.T.);
#249 = FACE_BOUND('',#250,.T.);
#250 = EDGE_LOOP('',(#251,#259,#267,#273));
#251 = ORIENTED_EDGE('',*,*,#252,.F.);
#252 = EDGE_CURVE('',#253,#213,#255,.T.);
#253 = VERTEX_POINT('',#254);
#254 = CARTESIAN_POINT('',(-0.3,-0.4,0.));
#255 = LINE('',#256,#257);
#256 = CARTESIAN_POINT('',(-0.3,-0.45,0.));
#257 = VECTOR('',#258,1.);
#258 = DIRECTION('',(0.,1.,0.));
#259 = ORIENTED_EDGE('',*,*,#260,.F.);
#260 = EDGE_CURVE('',#261,#253,#263,.T.);
#261 = VERTEX_POINT('',#262);
#262 = CARTESIAN_POINT('',(-0.1,-0.4,0.));
#263 = LINE('',#264,#265);
#264 = CARTESIAN_POINT('',(-0.1,-0.4,0.));
#265 = VECTOR('',#266,1.);
#266 = DIRECTION('',(-1.,0.,0.));
#267 = ORIENTED_EDGE('',*,*,#268,.F.);
#268 = EDGE_CURVE('',#231,#261,#269,.T.);
#269 = LINE('',#270,#271);
#270 = CARTESIAN_POINT('',(-0.1,-0.12,0.));
#271 = VECTOR('',#272,1.);
#272 = DIRECTION('',(0.,-1.,0.));
#273 = ORIENTED_EDGE('',*,*,#238,.F.);
#274 = PLANE('',#275);
#275 = AXIS2_PLACEMENT_3D('',#276,#277,#278);
#276 = CARTESIAN_POINT('',(-0.2,-0.285,0.));
#277 = DIRECTION('',(0.,0.,1.));
#278 = DIRECTION('',(1.,0.,0.));
#279 = ADVANCED_FACE('',(#280),#305,.F.);
#280 = FACE_BOUND('',#281,.T.);
#281 = EDGE_LOOP('',(#282,#290,#291,#299));
#282 = ORIENTED_EDGE('',*,*,#283,.T.);
#283 = EDGE_CURVE('',#284,#215,#286,.T.);
#284 = VERTEX_POINT('',#285);
#285 = CARTESIAN_POINT('',(-0.3,-0.45,-5.E-02));
#286 = LINE('',#287,#288);
#287 = CARTESIAN_POINT('',(-0.3,-0.45,-5.E-02));
#288 = VECTOR('',#289,1.);
#289 = DIRECTION('',(0.,1.,0.));
#290 = ORIENTED_EDGE('',*,*,#222,.T.);
#291 = ORIENTED_EDGE('',*,*,#292,.T.);
#292 = EDGE_CURVE('',#223,#293,#295,.T.);
#293 = VERTEX_POINT('',#294);
#294 = CARTESIAN_POINT('',(-0.1,-0.45,-5.E-02));
#295 = LINE('',#296,#297);
#296 = CARTESIAN_POINT('',(-0.1,-0.12,-5.E-02));
#297 = VECTOR('',#298,1.);
#298 = DIRECTION('',(0.,-1.,0.));
#299 = ORIENTED_EDGE('',*,*,#300,.T.);
#300 = EDGE_CURVE('',#293,#284,#301,.T.);
#301 = LINE('',#302,#303);
#302 = CARTESIAN_POINT('',(-0.1,-0.45,-5.E-02));
#303 = VECTOR('',#304,1.);
#304 = DIRECTION('',(-1.,0.,0.));
#305 = PLANE('',#306);
#306 = AXIS2_PLACEMENT_3D('',#307,#308,#309);
#307 = CARTESIAN_POINT('',(-0.2,-0.285,-5.E-02));
#308 = DIRECTION('',(0.,0.,1.));
#309 = DIRECTION('',(1.,0.,0.));
#310 = ADVANCED_FACE('',(#311),#336,.F.);
#311 = FACE_BOUND('',#312,.F.);
#312 = EDGE_LOOP('',(#313,#321,#329,#335));
#313 = ORIENTED_EDGE('',*,*,#314,.T.);
#314 = EDGE_CURVE('',#261,#315,#317,.T.);
#315 = VERTEX_POINT('',#316);
#316 = CARTESIAN_POINT('',(-0.1,-0.4,5.E-02));
#317 = LINE('',#318,#319);
#318 = CARTESIAN_POINT('',(-0.1,-0.4,0.));
#319 = VECTOR('',#320,1.);
#320 = DIRECTION('',(0.,0.,1.));
#321 = ORIENTED_EDGE('',*,*,#322,.T.);
#322 = EDGE_CURVE('',#315,#323,#325,.T.);
#323 = VERTEX_POINT('',#324);
#324 = CARTESIAN_POINT('',(-0.3,-0.4,5.E-02));
#325 = LINE('',#326,#327);
#326 = CARTESIAN_POINT('',(-0.1,-0.4,5.E-02));
#327 = VECTOR('',#328,1.);
#328 = DIRECTION('',(-1.,0.,0.));
#329 = ORIENTED_EDGE('',*,*,#330,.F.);
#330 = EDGE_CURVE('',#253,#323,#331,.T.);
#331 = LINE('',#332,#333);
#332 = CARTESIAN_POINT('',(-0.3,-0.4,0.));
#333 = VECTOR('',#334,1.);
#334 = DIRECTION('',(0.,0.,1.));
#335 = ORIENTED_EDGE('',*,*,#260,.F.);
#336 = PLANE('',#337);
#337 = AXIS2_PLACEMENT_3D('',#338,#339,#340);
#338 = CARTESIAN_POINT('',(-0.1,-0.4,0.));
#339 = DIRECTION('',(0.,-1.,0.));
#340 = DIRECTION('',(-1.,0.,0.));
#341 = ADVANCED_FACE('',(#342),#367,.T.);
#342 = FACE_BOUND('',#343,.T.);
#343 = EDGE_LOOP('',(#344,#354,#360,#361));
#344 = ORIENTED_EDGE('',*,*,#345,.T.);
#345 = EDGE_CURVE('',#346,#348,#350,.T.);
#346 = VERTEX_POINT('',#347);
#347 = CARTESIAN_POINT('',(-0.3,-0.45,5.E-02));
#348 = VERTEX_POINT('',#349);
#349 = CARTESIAN_POINT('',(-0.1,-0.45,5.E-02));
#350 = LINE('',#351,#352);
#351 = CARTESIAN_POINT('',(-0.3,-0.45,5.E-02));
#352 = VECTOR('',#353,1.);
#353 = DIRECTION('',(1.,0.,0.));
#354 = ORIENTED_EDGE('',*,*,#355,.T.);
#355 = EDGE_CURVE('',#348,#315,#356,.T.);
#356 = LINE('',#357,#358);
#357 = CARTESIAN_POINT('',(-0.1,-0.45,5.E-02));
#358 = VECTOR('',#359,1.);
#359 = DIRECTION('',(0.,1.,0.));
#360 = ORIENTED_EDGE('',*,*,#322,.T.);
#361 = ORIENTED_EDGE('',*,*,#362,.T.);
#362 = EDGE_CURVE('',#323,#346,#363,.T.);
#363 = LINE('',#364,#365);
#364 = CARTESIAN_POINT('',(-0.3,-0.4,5.E-02));
#365 = VECTOR('',#366,1.);
#366 = DIRECTION('',(0.,-1.,0.));
#367 = PLANE('',#368);
#368 = AXIS2_PLACEMENT_3D('',#369,#370,#371);
#369 = CARTESIAN_POINT('',(-0.2,-0.425,5.E-02));
#370 = DIRECTION('',(0.,0.,1.));
#371 = DIRECTION('',(1.,0.,0.));
#372 = ADVANCED_FACE('',(#373),#386,.T.);
#373 = FACE_BOUND('',#374,.T.);
#374 = EDGE_LOOP('',(#375,#381,#382,#383,#384,#385));
#375 = ORIENTED_EDGE('',*,*,#376,.F.);
#376 = EDGE_CURVE('',#346,#284,#377,.T.);
#377 = LINE('',#378,#379);
#378 = CARTESIAN_POINT('',(-0.3,-0.45,0.));
#379 = VECTOR('',#380,1.);
#380 = DIRECTION('',(0.,0.,-1.));
#381 = ORIENTED_EDGE('',*,*,#362,.F.);
#382 = ORIENTED_EDGE('',*,*,#330,.F.);
#383 = ORIENTED_EDGE('',*,*,#252,.T.);
#384 = ORIENTED_EDGE('',*,*,#212,.T.);
#385 = ORIENTED_EDGE('',*,*,#283,.F.);
#386 = PLANE('',#387);
#387 = AXIS2_PLACEMENT_3D('',#388,#389,#390);
#388 = CARTESIAN_POINT('',(-0.3,-0.301279069767,-1.627906976744E-02));
#389 = DIRECTION('',(-1.,-0.,-0.));
#390 = DIRECTION('',(0.,0.,-1.));
#391 = ADVANCED_FACE('',(#392),#403,.T.);
#392 = FACE_BOUND('',#393,.T.);
#393 = EDGE_LOOP('',(#394,#400,#401,#402));
#394 = ORIENTED_EDGE('',*,*,#395,.F.);
#395 = EDGE_CURVE('',#348,#293,#396,.T.);
#396 = LINE('',#397,#398);
#397 = CARTESIAN_POINT('',(-0.1,-0.45,0.));
#398 = VECTOR('',#399,1.);
#399 = DIRECTION('',(0.,0.,-1.));
#400 = ORIENTED_EDGE('',*,*,#345,.F.);
#401 = ORIENTED_EDGE('',*,*,#376,.T.);
#402 = ORIENTED_EDGE('',*,*,#300,.F.);
#403 = PLANE('',#404);
#404 = AXIS2_PLACEMENT_3D('',#405,#406,#407);
#405 = CARTESIAN_POINT('',(-0.2,-0.45,0.));
#406 = DIRECTION('',(-0.,-1.,-9.992007221626E-15));
#407 = DIRECTION('',(0.,9.992007221626E-15,-1.));
#408 = ADVANCED_FACE('',(#409),#417,.T.);
#409 = FACE_BOUND('',#410,.T.);
#410 = EDGE_LOOP('',(#411,#412,#413,#414,#415,#416));
#411 = ORIENTED_EDGE('',*,*,#230,.F.);
#412 = ORIENTED_EDGE('',*,*,#268,.T.);
#413 = ORIENTED_EDGE('',*,*,#314,.T.);
#414 = ORIENTED_EDGE('',*,*,#355,.F.);
#415 = ORIENTED_EDGE('',*,*,#395,.T.);
#416 = ORIENTED_EDGE('',*,*,#292,.F.);
#417 = PLANE('',#418);
#418 = AXIS2_PLACEMENT_3D('',#419,#420,#421);
#419 = CARTESIAN_POINT('',(-1.E-01,-0.301279069767,-1.627906976744E-02)
  );
#420 = DIRECTION('',(1.,0.,0.));
#421 = DIRECTION('',(0.,0.,1.));
#422 = MANIFOLD_SOLID_BREP('',#423);
#423 = CLOSED_SHELL('',(#424,#464,#495,#526,#557,#588,#607,#624));
#424 = ADVANCED_FACE('',(#425),#459,.F.);
#425 = FACE_BOUND('',#426,.T.);
#426 = EDGE_LOOP('',(#427,#437,#445,#453));
#427 = ORIENTED_EDGE('',*,*,#428,.T.);
#428 = EDGE_CURVE('',#429,#431,#433,.T.);
#429 = VERTEX_POINT('',#430);
#430 = CARTESIAN_POINT('',(-0.3,0.12,0.));
#431 = VERTEX_POINT('',#432);
#432 = CARTESIAN_POINT('',(-0.3,0.12,-5.E-02));
#433 = LINE('',#434,#435);
#434 = CARTESIAN_POINT('',(-0.3,0.12,0.));
#435 = VECTOR('',#436,1.);
#436 = DIRECTION('',(-0.,-0.,-1.));
#437 = ORIENTED_EDGE('',*,*,#438,.T.);
#438 = EDGE_CURVE('',#431,#439,#441,.T.);
#439 = VERTEX_POINT('',#440);
#440 = CARTESIAN_POINT('',(-0.1,0.12,-5.E-02));
#441 = LINE('',#442,#443);
#442 = CARTESIAN_POINT('',(-0.3,0.12,-5.E-02));
#443 = VECTOR('',#444,1.);
#444 = DIRECTION('',(1.,0.,0.));
#445 = ORIENTED_EDGE('',*,*,#446,.F.);
#446 = EDGE_CURVE('',#447,#439,#449,.T.);
#447 = VERTEX_POINT('',#448);
#448 = CARTESIAN_POINT('',(-0.1,0.12,0.));
#449 = LINE('',#450,#451);
#450 = CARTESIAN_POINT('',(-0.1,0.12,0.));
#451 = VECTOR('',#452,1.);
#452 = DIRECTION('',(-0.,-0.,-1.));
#453 = ORIENTED_EDGE('',*,*,#454,.F.);
#454 = EDGE_CURVE('',#429,#447,#455,.T.);
#455 = LINE('',#456,#457);
#456 = CARTESIAN_POINT('',(-0.3,0.12,0.));
#457 = VECTOR('',#458,1.);
#458 = DIRECTION('',(1.,0.,0.));
#459 = PLANE('',#460);
#460 = AXIS2_PLACEMENT_3D('',#461,#462,#463);
#461 = CARTESIAN_POINT('',(-0.3,0.12,0.));
#462 = DIRECTION('',(0.,1.,0.));
#463 = DIRECTION('',(-1.,-0.,-0.));
#464 = ADVANCED_FACE('',(#465),#490,.T.);
#465 = FACE_BOUND('',#466,.F.);
#466 = EDGE_LOOP('',(#467,#475,#483,#489));
#467 = ORIENTED_EDGE('',*,*,#468,.F.);
#468 = EDGE_CURVE('',#469,#429,#471,.T.);
#469 = VERTEX_POINT('',#470);
#470 = CARTESIAN_POINT('',(-0.3,0.4,0.));
#471 = LINE('',#472,#473);
#472 = CARTESIAN_POINT('',(-0.3,0.45,0.));
#473 = VECTOR('',#474,1.);
#474 = DIRECTION('',(0.,-1.,0.));
#475 = ORIENTED_EDGE('',*,*,#476,.F.);
#476 = EDGE_CURVE('',#477,#469,#479,.T.);
#477 = VERTEX_POINT('',#478);
#478 = CARTESIAN_POINT('',(-0.1,0.4,0.));
#479 = LINE('',#480,#481);
#480 = CARTESIAN_POINT('',(-0.1,0.4,0.));
#481 = VECTOR('',#482,1.);
#482 = DIRECTION('',(-1.,-0.,-0.));
#483 = ORIENTED_EDGE('',*,*,#484,.F.);
#484 = EDGE_CURVE('',#447,#477,#485,.T.);
#485 = LINE('',#486,#487);
#486 = CARTESIAN_POINT('',(-0.1,0.12,0.));
#487 = VECTOR('',#488,1.);
#488 = DIRECTION('',(-0.,1.,0.));
#489 = ORIENTED_EDGE('',*,*,#454,.F.);
#490 = PLANE('',#491);
#491 = AXIS2_PLACEMENT_3D('',#492,#493,#494);
#492 = CARTESIAN_POINT('',(-0.2,0.285,0.));
#493 = DIRECTION('',(0.,0.,1.));
#494 = DIRECTION('',(-1.,-0.,-0.));
#495 = ADVANCED_FACE('',(#496),#521,.F.);
#496 = FACE_BOUND('',#497,.F.);
#497 = EDGE_LOOP('',(#498,#506,#507,#515));
#498 = ORIENTED_EDGE('',*,*,#499,.T.);
#499 = EDGE_CURVE('',#500,#431,#502,.T.);
#500 = VERTEX_POINT('',#501);
#501 = CARTESIAN_POINT('',(-0.3,0.45,-5.E-02));
#502 = LINE('',#503,#504);
#503 = CARTESIAN_POINT('',(-0.3,0.45,-5.E-02));
#504 = VECTOR('',#505,1.);
#505 = DIRECTION('',(0.,-1.,0.));
#506 = ORIENTED_EDGE('',*,*,#438,.T.);
#507 = ORIENTED_EDGE('',*,*,#508,.T.);
#508 = EDGE_CURVE('',#439,#509,#511,.T.);
#509 = VERTEX_POINT('',#510);
#510 = CARTESIAN_POINT('',(-0.1,0.45,-5.E-02));
#511 = LINE('',#512,#513);
#512 = CARTESIAN_POINT('',(-0.1,0.12,-5.E-02));
#513 = VECTOR('',#514,1.);
#514 = DIRECTION('',(-0.,1.,0.));
#515 = ORIENTED_EDGE('',*,*,#516,.T.);
#516 = EDGE_CURVE('',#509,#500,#517,.T.);
#517 = LINE('',#518,#519);
#518 = CARTESIAN_POINT('',(-0.1,0.45,-5.E-02));
#519 = VECTOR('',#520,1.);
#520 = DIRECTION('',(-1.,0.,0.));
#521 = PLANE('',#522);
#522 = AXIS2_PLACEMENT_3D('',#523,#524,#525);
#523 = CARTESIAN_POINT('',(-0.2,0.285,-5.E-02));
#524 = DIRECTION('',(0.,0.,1.));
#525 = DIRECTION('',(-1.,-0.,-0.));
#526 = ADVANCED_FACE('',(#527),#552,.F.);
#527 = FACE_BOUND('',#528,.T.);
#528 = EDGE_LOOP('',(#529,#537,#545,#551));
#529 = ORIENTED_EDGE('',*,*,#530,.T.);
#530 = EDGE_CURVE('',#477,#531,#533,.T.);
#531 = VERTEX_POINT('',#532);
#532 = CARTESIAN_POINT('',(-0.1,0.4,5.E-02));
#533 = LINE('',#534,#535);
#534 = CARTESIAN_POINT('',(-0.1,0.4,0.));
#535 = VECTOR('',#536,1.);
#536 = DIRECTION('',(0.,0.,1.));
#537 = ORIENTED_EDGE('',*,*,#538,.T.);
#538 = EDGE_CURVE('',#531,#539,#541,.T.);
#539 = VERTEX_POINT('',#540);
#540 = CARTESIAN_POINT('',(-0.3,0.4,5.E-02));
#541 = LINE('',#542,#543);
#542 = CARTESIAN_POINT('',(-0.1,0.4,5.E-02));
#543 = VECTOR('',#544,1.);
#544 = DIRECTION('',(-1.,-0.,-0.));
#545 = ORIENTED_EDGE('',*,*,#546,.F.);
#546 = EDGE_CURVE('',#469,#539,#547,.T.);
#547 = LINE('',#548,#549);
#548 = CARTESIAN_POINT('',(-0.3,0.4,0.));
#549 = VECTOR('',#550,1.);
#550 = DIRECTION('',(0.,0.,1.));
#551 = ORIENTED_EDGE('',*,*,#476,.F.);
#552 = PLANE('',#553);
#553 = AXIS2_PLACEMENT_3D('',#554,#555,#556);
#554 = CARTESIAN_POINT('',(-0.1,0.4,0.));
#555 = DIRECTION('',(0.,1.,0.));
#556 = DIRECTION('',(1.,0.,0.));
#557 = ADVANCED_FACE('',(#558),#583,.T.);
#558 = FACE_BOUND('',#559,.F.);
#559 = EDGE_LOOP('',(#560,#570,#576,#577));
#560 = ORIENTED_EDGE('',*,*,#561,.T.);
#561 = EDGE_CURVE('',#562,#564,#566,.T.);
#562 = VERTEX_POINT('',#563);
#563 = CARTESIAN_POINT('',(-0.3,0.45,5.E-02));
#564 = VERTEX_POINT('',#565);
#565 = CARTESIAN_POINT('',(-0.1,0.45,5.E-02));
#566 = LINE('',#567,#568);
#567 = CARTESIAN_POINT('',(-0.3,0.45,5.E-02));
#568 = VECTOR('',#569,1.);
#569 = DIRECTION('',(1.,0.,0.));
#570 = ORIENTED_EDGE('',*,*,#571,.T.);
#571 = EDGE_CURVE('',#564,#531,#572,.T.);
#572 = LINE('',#573,#574);
#573 = CARTESIAN_POINT('',(-0.1,0.45,5.E-02));
#574 = VECTOR('',#575,1.);
#575 = DIRECTION('',(-0.,-1.,-0.));
#576 = ORIENTED_EDGE('',*,*,#538,.T.);
#577 = ORIENTED_EDGE('',*,*,#578,.T.);
#578 = EDGE_CURVE('',#539,#562,#579,.T.);
#579 = LINE('',#580,#581);
#580 = CARTESIAN_POINT('',(-0.3,0.4,5.E-02));
#581 = VECTOR('',#582,1.);
#582 = DIRECTION('',(0.,1.,0.));
#583 = PLANE('',#584);
#584 = AXIS2_PLACEMENT_3D('',#585,#586,#587);
#585 = CARTESIAN_POINT('',(-0.2,0.425,5.E-02));
#586 = DIRECTION('',(0.,0.,1.));
#587 = DIRECTION('',(-1.,-0.,-0.));
#588 = ADVANCED_FACE('',(#589),#602,.T.);
#589 = FACE_BOUND('',#590,.F.);
#590 = EDGE_LOOP('',(#591,#597,#598,#599,#600,#601));
#591 = ORIENTED_EDGE('',*,*,#592,.F.);
#592 = EDGE_CURVE('',#562,#500,#593,.T.);
#593 = LINE('',#594,#595);
#594 = CARTESIAN_POINT('',(-0.3,0.45,0.));
#595 = VECTOR('',#596,1.);
#596 = DIRECTION('',(-0.,-0.,-1.));
#597 = ORIENTED_EDGE('',*,*,#578,.F.);
#598 = ORIENTED_EDGE('',*,*,#546,.F.);
#599 = ORIENTED_EDGE('',*,*,#468,.T.);
#600 = ORIENTED_EDGE('',*,*,#428,.T.);
#601 = ORIENTED_EDGE('',*,*,#499,.F.);
#602 = PLANE('',#603);
#603 = AXIS2_PLACEMENT_3D('',#604,#605,#606);
#604 = CARTESIAN_POINT('',(-0.3,0.301279069767,-1.627906976744E-02));
#605 = DIRECTION('',(-1.,0.,0.));
#606 = DIRECTION('',(0.,0.,1.));
#607 = ADVANCED_FACE('',(#608),#619,.T.);
#608 = FACE_BOUND('',#609,.F.);
#609 = EDGE_LOOP('',(#610,#616,#617,#618));
#610 = ORIENTED_EDGE('',*,*,#611,.F.);
#611 = EDGE_CURVE('',#564,#509,#612,.T.);
#612 = LINE('',#613,#614);
#613 = CARTESIAN_POINT('',(-0.1,0.45,0.));
#614 = VECTOR('',#615,1.);
#615 = DIRECTION('',(-0.,-0.,-1.));
#616 = ORIENTED_EDGE('',*,*,#561,.F.);
#617 = ORIENTED_EDGE('',*,*,#592,.T.);
#618 = ORIENTED_EDGE('',*,*,#516,.F.);
#619 = PLANE('',#620);
#620 = AXIS2_PLACEMENT_3D('',#621,#622,#623);
#621 = CARTESIAN_POINT('',(-0.2,0.45,0.));
#622 = DIRECTION('',(0.,1.,-9.992007221626E-15));
#623 = DIRECTION('',(0.,9.992007221626E-15,1.));
#624 = ADVANCED_FACE('',(#625),#633,.T.);
#625 = FACE_BOUND('',#626,.F.);
#626 = EDGE_LOOP('',(#627,#628,#629,#630,#631,#632));
#627 = ORIENTED_EDGE('',*,*,#446,.F.);
#628 = ORIENTED_EDGE('',*,*,#484,.T.);
#629 = ORIENTED_EDGE('',*,*,#530,.T.);
#630 = ORIENTED_EDGE('',*,*,#571,.F.);
#631 = ORIENTED_EDGE('',*,*,#611,.T.);
#632 = ORIENTED_EDGE('',*,*,#508,.F.);
#633 = PLANE('',#634);
#634 = AXIS2_PLACEMENT_3D('',#635,#636,#637);
#635 = CARTESIAN_POINT('',(-1.E-01,0.301279069767,-1.627906976744E-02));
#636 = DIRECTION('',(1.,0.,0.));
#637 = DIRECTION('',(-0.,-0.,-1.));
#638 = MANIFOLD_SOLID_BREP('',#639);
#639 = CLOSED_SHELL('',(#640,#680,#711,#742,#773,#804,#823,#840));
#640 = ADVANCED_FACE('',(#641),#675,.F.);
#641 = FACE_BOUND('',#642,.T.);
#642 = EDGE_LOOP('',(#643,#653,#661,#669));
#643 = ORIENTED_EDGE('',*,*,#644,.T.);
#644 = EDGE_CURVE('',#645,#647,#649,.T.);
#645 = VERTEX_POINT('',#646);
#646 = CARTESIAN_POINT('',(0.3,-0.12,6.661338147751E-17));
#647 = VERTEX_POINT('',#648);
#648 = CARTESIAN_POINT('',(0.3,-0.12,-5.E-02));
#649 = LINE('',#650,#651);
#650 = CARTESIAN_POINT('',(0.3,-0.12,6.661338147751E-17));
#651 = VECTOR('',#652,1.);
#652 = DIRECTION('',(2.22044604925E-16,-2.465190328816E-32,-1.));
#653 = ORIENTED_EDGE('',*,*,#654,.T.);
#654 = EDGE_CURVE('',#647,#655,#657,.T.);
#655 = VERTEX_POINT('',#656);
#656 = CARTESIAN_POINT('',(1.E-01,-0.12,-5.E-02));
#657 = LINE('',#658,#659);
#658 = CARTESIAN_POINT('',(0.3,-0.12,-5.E-02));
#659 = VECTOR('',#660,1.);
#660 = DIRECTION('',(-1.,2.22044604925E-16,-2.22044604925E-16));
#661 = ORIENTED_EDGE('',*,*,#662,.F.);
#662 = EDGE_CURVE('',#663,#655,#665,.T.);
#663 = VERTEX_POINT('',#664);
#664 = CARTESIAN_POINT('',(1.E-01,-0.12,2.22044604925E-17));
#665 = LINE('',#666,#667);
#666 = CARTESIAN_POINT('',(1.E-01,-0.12,2.22044604925E-17));
#667 = VECTOR('',#668,1.);
#668 = DIRECTION('',(2.22044604925E-16,-2.465190328816E-32,-1.));
#669 = ORIENTED_EDGE('',*,*,#670,.F.);
#670 = EDGE_CURVE('',#645,#663,#671,.T.);
#671 = LINE('',#672,#673);
#672 = CARTESIAN_POINT('',(0.3,-0.12,6.661338147751E-17));
#673 = VECTOR('',#674,1.);
#674 = DIRECTION('',(-1.,2.22044604925E-16,-2.22044604925E-16));
#675 = PLANE('',#676);
#676 = AXIS2_PLACEMENT_3D('',#677,#678,#679);
#677 = CARTESIAN_POINT('',(0.3,-0.12,6.661338147751E-17));
#678 = DIRECTION('',(-2.22044604925E-16,-1.,-2.465190328816E-32));
#679 = DIRECTION('',(1.,-2.22044604925E-16,2.22044604925E-16));
#680 = ADVANCED_FACE('',(#681),#706,.T.);
#681 = FACE_BOUND('',#682,.F.);
#682 = EDGE_LOOP('',(#683,#691,#699,#705));
#683 = ORIENTED_EDGE('',*,*,#684,.F.);
#684 = EDGE_CURVE('',#685,#645,#687,.T.);
#685 = VERTEX_POINT('',#686);
#686 = CARTESIAN_POINT('',(0.3,-0.4,6.661338147751E-17));
#687 = LINE('',#688,#689);
#688 = CARTESIAN_POINT('',(0.3,-0.45,6.661338147751E-17));
#689 = VECTOR('',#690,1.);
#690 = DIRECTION('',(2.22044604925E-16,1.,2.465190328816E-32));
#691 = ORIENTED_EDGE('',*,*,#692,.F.);
#692 = EDGE_CURVE('',#693,#685,#695,.T.);
#693 = VERTEX_POINT('',#694);
#694 = CARTESIAN_POINT('',(1.E-01,-0.4,2.22044604925E-17));
#695 = LINE('',#696,#697);
#696 = CARTESIAN_POINT('',(1.E-01,-0.4,2.22044604925E-17));
#697 = VECTOR('',#698,1.);
#698 = DIRECTION('',(1.,-2.22044604925E-16,2.22044604925E-16));
#699 = ORIENTED_EDGE('',*,*,#700,.F.);
#700 = EDGE_CURVE('',#663,#693,#701,.T.);
#701 = LINE('',#702,#703);
#702 = CARTESIAN_POINT('',(1.E-01,-0.12,2.22044604925E-17));
#703 = VECTOR('',#704,1.);
#704 = DIRECTION('',(-2.22044604925E-16,-1.,-2.465190328816E-32));
#705 = ORIENTED_EDGE('',*,*,#670,.F.);
#706 = PLANE('',#707);
#707 = AXIS2_PLACEMENT_3D('',#708,#709,#710);
#708 = CARTESIAN_POINT('',(0.2,-0.285,4.440892098501E-17));
#709 = DIRECTION('',(-2.22044604925E-16,2.465190328816E-32,1.));
#710 = DIRECTION('',(1.,-2.22044604925E-16,2.22044604925E-16));
#711 = ADVANCED_FACE('',(#712),#737,.F.);
#712 = FACE_BOUND('',#713,.F.);
#713 = EDGE_LOOP('',(#714,#722,#723,#731));
#714 = ORIENTED_EDGE('',*,*,#715,.T.);
#715 = EDGE_CURVE('',#716,#647,#718,.T.);
#716 = VERTEX_POINT('',#717);
#717 = CARTESIAN_POINT('',(0.3,-0.45,-5.E-02));
#718 = LINE('',#719,#720);
#719 = CARTESIAN_POINT('',(0.3,-0.45,-5.E-02));
#720 = VECTOR('',#721,1.);
#721 = DIRECTION('',(2.22044604925E-16,1.,2.465190328816E-32));
#722 = ORIENTED_EDGE('',*,*,#654,.T.);
#723 = ORIENTED_EDGE('',*,*,#724,.T.);
#724 = EDGE_CURVE('',#655,#725,#727,.T.);
#725 = VERTEX_POINT('',#726);
#726 = CARTESIAN_POINT('',(1.E-01,-0.45,-5.E-02));
#727 = LINE('',#728,#729);
#728 = CARTESIAN_POINT('',(1.E-01,-0.12,-5.E-02));
#729 = VECTOR('',#730,1.);
#730 = DIRECTION('',(-2.22044604925E-16,-1.,-2.465190328816E-32));
#731 = ORIENTED_EDGE('',*,*,#732,.T.);
#732 = EDGE_CURVE('',#725,#716,#733,.T.);
#733 = LINE('',#734,#735);
#734 = CARTESIAN_POINT('',(1.E-01,-0.45,-5.E-02));
#735 = VECTOR('',#736,1.);
#736 = DIRECTION('',(1.,-2.22044604925E-16,2.22044604925E-16));
#737 = PLANE('',#738);
#738 = AXIS2_PLACEMENT_3D('',#739,#740,#741);
#739 = CARTESIAN_POINT('',(0.2,-0.285,-5.E-02));
#740 = DIRECTION('',(-2.22044604925E-16,2.465190328816E-32,1.));
#741 = DIRECTION('',(1.,-2.22044604925E-16,2.22044604925E-16));
#742 = ADVANCED_FACE('',(#743),#768,.F.);
#743 = FACE_BOUND('',#744,.T.);
#744 = EDGE_LOOP('',(#745,#753,#761,#767));
#745 = ORIENTED_EDGE('',*,*,#746,.T.);
#746 = EDGE_CURVE('',#693,#747,#749,.T.);
#747 = VERTEX_POINT('',#748);
#748 = CARTESIAN_POINT('',(1.E-01,-0.4,5.E-02));
#749 = LINE('',#750,#751);
#750 = CARTESIAN_POINT('',(1.E-01,-0.4,2.22044604925E-17));
#751 = VECTOR('',#752,1.);
#752 = DIRECTION('',(-2.22044604925E-16,2.465190328816E-32,1.));
#753 = ORIENTED_EDGE('',*,*,#754,.T.);
#754 = EDGE_CURVE('',#747,#755,#757,.T.);
#755 = VERTEX_POINT('',#756);
#756 = CARTESIAN_POINT('',(0.3,-0.4,5.E-02));
#757 = LINE('',#758,#759);
#758 = CARTESIAN_POINT('',(1.E-01,-0.4,5.E-02));
#759 = VECTOR('',#760,1.);
#760 = DIRECTION('',(1.,-2.22044604925E-16,2.22044604925E-16));
#761 = ORIENTED_EDGE('',*,*,#762,.F.);
#762 = EDGE_CURVE('',#685,#755,#763,.T.);
#763 = LINE('',#764,#765);
#764 = CARTESIAN_POINT('',(0.3,-0.4,6.661338147751E-17));
#765 = VECTOR('',#766,1.);
#766 = DIRECTION('',(-2.22044604925E-16,2.465190328816E-32,1.));
#767 = ORIENTED_EDGE('',*,*,#692,.F.);
#768 = PLANE('',#769);
#769 = AXIS2_PLACEMENT_3D('',#770,#771,#772);
#770 = CARTESIAN_POINT('',(1.E-01,-0.4,2.22044604925E-17));
#771 = DIRECTION('',(-2.22044604925E-16,-1.,-2.465190328816E-32));
#772 = DIRECTION('',(-1.,2.22044604925E-16,-2.22044604925E-16));
#773 = ADVANCED_FACE('',(#774),#799,.T.);
#774 = FACE_BOUND('',#775,.F.);
#775 = EDGE_LOOP('',(#776,#786,#792,#793));
#776 = ORIENTED_EDGE('',*,*,#777,.T.);
#777 = EDGE_CURVE('',#778,#780,#782,.T.);
#778 = VERTEX_POINT('',#779);
#779 = CARTESIAN_POINT('',(0.3,-0.45,5.E-02));
#780 = VERTEX_POINT('',#781);
#781 = CARTESIAN_POINT('',(1.E-01,-0.45,5.E-02));
#782 = LINE('',#783,#784);
#783 = CARTESIAN_POINT('',(0.3,-0.45,5.E-02));
#784 = VECTOR('',#785,1.);
#785 = DIRECTION('',(-1.,2.22044604925E-16,-2.22044604925E-16));
#786 = ORIENTED_EDGE('',*,*,#787,.T.);
#787 = EDGE_CURVE('',#780,#747,#788,.T.);
#788 = LINE('',#789,#790);
#789 = CARTESIAN_POINT('',(1.E-01,-0.45,5.E-02));
#790 = VECTOR('',#791,1.);
#791 = DIRECTION('',(2.22044604925E-16,1.,2.465190328816E-32));
#792 = ORIENTED_EDGE('',*,*,#754,.T.);
#793 = ORIENTED_EDGE('',*,*,#794,.T.);
#794 = EDGE_CURVE('',#755,#778,#795,.T.);
#795 = LINE('',#796,#797);
#796 = CARTESIAN_POINT('',(0.3,-0.4,5.E-02));
#797 = VECTOR('',#798,1.);
#798 = DIRECTION('',(-2.22044604925E-16,-1.,-2.465190328816E-32));
#799 = PLANE('',#800);
#800 = AXIS2_PLACEMENT_3D('',#801,#802,#803);
#801 = CARTESIAN_POINT('',(0.2,-0.425,5.E-02));
#802 = DIRECTION('',(-2.22044604925E-16,2.465190328816E-32,1.));
#803 = DIRECTION('',(1.,-2.22044604925E-16,2.22044604925E-16));
#804 = ADVANCED_FACE('',(#805),#818,.T.);
#805 = FACE_BOUND('',#806,.F.);
#806 = EDGE_LOOP('',(#807,#813,#814,#815,#816,#817));
#807 = ORIENTED_EDGE('',*,*,#808,.F.);
#808 = EDGE_CURVE('',#778,#716,#809,.T.);
#809 = LINE('',#810,#811);
#810 = CARTESIAN_POINT('',(0.3,-0.45,6.661338147751E-17));
#811 = VECTOR('',#812,1.);
#812 = DIRECTION('',(2.22044604925E-16,-2.465190328816E-32,-1.));
#813 = ORIENTED_EDGE('',*,*,#794,.F.);
#814 = ORIENTED_EDGE('',*,*,#762,.F.);
#815 = ORIENTED_EDGE('',*,*,#684,.T.);
#816 = ORIENTED_EDGE('',*,*,#644,.T.);
#817 = ORIENTED_EDGE('',*,*,#715,.F.);
#818 = PLANE('',#819);
#819 = AXIS2_PLACEMENT_3D('',#820,#821,#822);
#820 = CARTESIAN_POINT('',(0.3,-0.301279069767,-1.627906976744E-02));
#821 = DIRECTION('',(1.,-2.22044604925E-16,2.22044604925E-16));
#822 = DIRECTION('',(-2.22044604925E-16,2.465190328816E-32,1.));
#823 = ADVANCED_FACE('',(#824),#835,.T.);
#824 = FACE_BOUND('',#825,.F.);
#825 = EDGE_LOOP('',(#826,#832,#833,#834));
#826 = ORIENTED_EDGE('',*,*,#827,.F.);
#827 = EDGE_CURVE('',#780,#725,#828,.T.);
#828 = LINE('',#829,#830);
#829 = CARTESIAN_POINT('',(1.E-01,-0.45,2.22044604925E-17));
#830 = VECTOR('',#831,1.);
#831 = DIRECTION('',(2.22044604925E-16,-2.465190328816E-32,-1.));
#832 = ORIENTED_EDGE('',*,*,#777,.F.);
#833 = ORIENTED_EDGE('',*,*,#808,.T.);
#834 = ORIENTED_EDGE('',*,*,#732,.F.);
#835 = PLANE('',#836);
#836 = AXIS2_PLACEMENT_3D('',#837,#838,#839);
#837 = CARTESIAN_POINT('',(0.2,-0.45,4.440892098501E-17));
#838 = DIRECTION('',(-2.22044604925E-16,-1.,-9.992007221626E-15));
#839 = DIRECTION('',(-2.22044604925E-16,-9.992007221626E-15,1.));
#840 = ADVANCED_FACE('',(#841),#849,.T.);
#841 = FACE_BOUND('',#842,.F.);
#842 = EDGE_LOOP('',(#843,#844,#845,#846,#847,#848));
#843 = ORIENTED_EDGE('',*,*,#662,.F.);
#844 = ORIENTED_EDGE('',*,*,#700,.T.);
#845 = ORIENTED_EDGE('',*,*,#746,.T.);
#846 = ORIENTED_EDGE('',*,*,#787,.F.);
#847 = ORIENTED_EDGE('',*,*,#827,.T.);
#848 = ORIENTED_EDGE('',*,*,#724,.F.);
#849 = PLANE('',#850);
#850 = AXIS2_PLACEMENT_3D('',#851,#852,#853);
#851 = CARTESIAN_POINT('',(1.E-01,-0.301279069767,-1.627906976744E-02));
#852 = DIRECTION('',(-1.,2.22044604925E-16,-2.22044604925E-16));
#853 = DIRECTION('',(2.22044604925E-16,-2.465190328816E-32,-1.));
#854 = MANIFOLD_SOLID_BREP('',#855);
#855 = CLOSED_SHELL('',(#856,#896,#927,#958,#989,#1020,#1039,#1056));
#856 = ADVANCED_FACE('',(#857),#891,.F.);
#857 = FACE_BOUND('',#858,.F.);
#858 = EDGE_LOOP('',(#859,#869,#877,#885));
#859 = ORIENTED_EDGE('',*,*,#860,.T.);
#860 = EDGE_CURVE('',#861,#863,#865,.T.);
#861 = VERTEX_POINT('',#862);
#862 = CARTESIAN_POINT('',(0.3,0.12,6.661338147751E-17));
#863 = VERTEX_POINT('',#864);
#864 = CARTESIAN_POINT('',(0.3,0.12,-5.E-02));
#865 = LINE('',#866,#867);
#866 = CARTESIAN_POINT('',(0.3,0.12,6.661338147751E-17));
#867 = VECTOR('',#868,1.);
#868 = DIRECTION('',(2.22044604925E-16,-2.465190328816E-32,-1.));
#869 = ORIENTED_EDGE('',*,*,#870,.T.);
#870 = EDGE_CURVE('',#863,#871,#873,.T.);
#871 = VERTEX_POINT('',#872);
#872 = CARTESIAN_POINT('',(0.1,0.12,-5.E-02));
#873 = LINE('',#874,#875);
#874 = CARTESIAN_POINT('',(0.3,0.12,-5.E-02));
#875 = VECTOR('',#876,1.);
#876 = DIRECTION('',(-1.,2.22044604925E-16,-2.22044604925E-16));
#877 = ORIENTED_EDGE('',*,*,#878,.F.);
#878 = EDGE_CURVE('',#879,#871,#881,.T.);
#879 = VERTEX_POINT('',#880);
#880 = CARTESIAN_POINT('',(0.1,0.12,2.22044604925E-17));
#881 = LINE('',#882,#883);
#882 = CARTESIAN_POINT('',(0.1,0.12,2.22044604925E-17));
#883 = VECTOR('',#884,1.);
#884 = DIRECTION('',(2.22044604925E-16,-2.465190328816E-32,-1.));
#885 = ORIENTED_EDGE('',*,*,#886,.F.);
#886 = EDGE_CURVE('',#861,#879,#887,.T.);
#887 = LINE('',#888,#889);
#888 = CARTESIAN_POINT('',(0.3,0.12,6.661338147751E-17));
#889 = VECTOR('',#890,1.);
#890 = DIRECTION('',(-1.,2.22044604925E-16,-2.22044604925E-16));
#891 = PLANE('',#892);
#892 = AXIS2_PLACEMENT_3D('',#893,#894,#895);
#893 = CARTESIAN_POINT('',(0.3,0.12,6.661338147751E-17));
#894 = DIRECTION('',(2.22044604925E-16,1.,2.465190328816E-32));
#895 = DIRECTION('',(-1.,2.22044604925E-16,-2.22044604925E-16));
#896 = ADVANCED_FACE('',(#897),#922,.T.);
#897 = FACE_BOUND('',#898,.T.);
#898 = EDGE_LOOP('',(#899,#907,#915,#921));
#899 = ORIENTED_EDGE('',*,*,#900,.F.);
#900 = EDGE_CURVE('',#901,#861,#903,.T.);
#901 = VERTEX_POINT('',#902);
#902 = CARTESIAN_POINT('',(0.3,0.4,6.661338147751E-17));
#903 = LINE('',#904,#905);
#904 = CARTESIAN_POINT('',(0.3,0.45,6.661338147751E-17));
#905 = VECTOR('',#906,1.);
#906 = DIRECTION('',(-2.22044604925E-16,-1.,-2.465190328816E-32));
#907 = ORIENTED_EDGE('',*,*,#908,.F.);
#908 = EDGE_CURVE('',#909,#901,#911,.T.);
#909 = VERTEX_POINT('',#910);
#910 = CARTESIAN_POINT('',(0.1,0.4,2.22044604925E-17));
#911 = LINE('',#912,#913);
#912 = CARTESIAN_POINT('',(0.1,0.4,2.22044604925E-17));
#913 = VECTOR('',#914,1.);
#914 = DIRECTION('',(1.,-2.22044604925E-16,2.22044604925E-16));
#915 = ORIENTED_EDGE('',*,*,#916,.F.);
#916 = EDGE_CURVE('',#879,#909,#917,.T.);
#917 = LINE('',#918,#919);
#918 = CARTESIAN_POINT('',(0.1,0.12,2.22044604925E-17));
#919 = VECTOR('',#920,1.);
#920 = DIRECTION('',(2.22044604925E-16,1.,2.465190328816E-32));
#921 = ORIENTED_EDGE('',*,*,#886,.F.);
#922 = PLANE('',#923);
#923 = AXIS2_PLACEMENT_3D('',#924,#925,#926);
#924 = CARTESIAN_POINT('',(0.2,0.285,4.440892098501E-17));
#925 = DIRECTION('',(-2.22044604925E-16,2.465190328816E-32,1.));
#926 = DIRECTION('',(-1.,2.22044604925E-16,-2.22044604925E-16));
#927 = ADVANCED_FACE('',(#928),#953,.F.);
#928 = FACE_BOUND('',#929,.T.);
#929 = EDGE_LOOP('',(#930,#938,#939,#947));
#930 = ORIENTED_EDGE('',*,*,#931,.T.);
#931 = EDGE_CURVE('',#932,#863,#934,.T.);
#932 = VERTEX_POINT('',#933);
#933 = CARTESIAN_POINT('',(0.3,0.45,-5.E-02));
#934 = LINE('',#935,#936);
#935 = CARTESIAN_POINT('',(0.3,0.45,-5.E-02));
#936 = VECTOR('',#937,1.);
#937 = DIRECTION('',(-2.22044604925E-16,-1.,-2.465190328816E-32));
#938 = ORIENTED_EDGE('',*,*,#870,.T.);
#939 = ORIENTED_EDGE('',*,*,#940,.T.);
#940 = EDGE_CURVE('',#871,#941,#943,.T.);
#941 = VERTEX_POINT('',#942);
#942 = CARTESIAN_POINT('',(0.1,0.45,-5.E-02));
#943 = LINE('',#944,#945);
#944 = CARTESIAN_POINT('',(0.1,0.12,-5.E-02));
#945 = VECTOR('',#946,1.);
#946 = DIRECTION('',(2.22044604925E-16,1.,2.465190328816E-32));
#947 = ORIENTED_EDGE('',*,*,#948,.T.);
#948 = EDGE_CURVE('',#941,#932,#949,.T.);
#949 = LINE('',#950,#951);
#950 = CARTESIAN_POINT('',(0.1,0.45,-5.E-02));
#951 = VECTOR('',#952,1.);
#952 = DIRECTION('',(1.,-2.22044604925E-16,2.22044604925E-16));
#953 = PLANE('',#954);
#954 = AXIS2_PLACEMENT_3D('',#955,#956,#957);
#955 = CARTESIAN_POINT('',(0.2,0.285,-5.E-02));
#956 = DIRECTION('',(-2.22044604925E-16,2.465190328816E-32,1.));
#957 = DIRECTION('',(-1.,2.22044604925E-16,-2.22044604925E-16));
#958 = ADVANCED_FACE('',(#959),#984,.F.);
#959 = FACE_BOUND('',#960,.F.);
#960 = EDGE_LOOP('',(#961,#969,#977,#983));
#961 = ORIENTED_EDGE('',*,*,#962,.T.);
#962 = EDGE_CURVE('',#909,#963,#965,.T.);
#963 = VERTEX_POINT('',#964);
#964 = CARTESIAN_POINT('',(0.1,0.4,5.E-02));
#965 = LINE('',#966,#967);
#966 = CARTESIAN_POINT('',(0.1,0.4,2.22044604925E-17));
#967 = VECTOR('',#968,1.);
#968 = DIRECTION('',(-2.22044604925E-16,2.465190328816E-32,1.));
#969 = ORIENTED_EDGE('',*,*,#970,.T.);
#970 = EDGE_CURVE('',#963,#971,#973,.T.);
#971 = VERTEX_POINT('',#972);
#972 = CARTESIAN_POINT('',(0.3,0.4,5.E-02));
#973 = LINE('',#974,#975);
#974 = CARTESIAN_POINT('',(0.1,0.4,5.E-02));
#975 = VECTOR('',#976,1.);
#976 = DIRECTION('',(1.,-2.22044604925E-16,2.22044604925E-16));
#977 = ORIENTED_EDGE('',*,*,#978,.F.);
#978 = EDGE_CURVE('',#901,#971,#979,.T.);
#979 = LINE('',#980,#981);
#980 = CARTESIAN_POINT('',(0.3,0.4,6.661338147751E-17));
#981 = VECTOR('',#982,1.);
#982 = DIRECTION('',(-2.22044604925E-16,2.465190328816E-32,1.));
#983 = ORIENTED_EDGE('',*,*,#908,.F.);
#984 = PLANE('',#985);
#985 = AXIS2_PLACEMENT_3D('',#986,#987,#988);
#986 = CARTESIAN_POINT('',(0.1,0.4,2.22044604925E-17));
#987 = DIRECTION('',(2.22044604925E-16,1.,2.465190328816E-32));
#988 = DIRECTION('',(1.,-2.22044604925E-16,2.22044604925E-16));
#989 = ADVANCED_FACE('',(#990),#1015,.T.);
#990 = FACE_BOUND('',#991,.T.);
#991 = EDGE_LOOP('',(#992,#1002,#1008,#1009));
#992 = ORIENTED_EDGE('',*,*,#993,.T.);
#993 = EDGE_CURVE('',#994,#996,#998,.T.);
#994 = VERTEX_POINT('',#995);
#995 = CARTESIAN_POINT('',(0.3,0.45,5.E-02));
#996 = VERTEX_POINT('',#997);
#997 = CARTESIAN_POINT('',(0.1,0.45,5.E-02));
#998 = LINE('',#999,#1000);
#999 = CARTESIAN_POINT('',(0.3,0.45,5.E-02));
#1000 = VECTOR('',#1001,1.);
#1001 = DIRECTION('',(-1.,2.22044604925E-16,-2.22044604925E-16));
#1002 = ORIENTED_EDGE('',*,*,#1003,.T.);
#1003 = EDGE_CURVE('',#996,#963,#1004,.T.);
#1004 = LINE('',#1005,#1006);
#1005 = CARTESIAN_POINT('',(0.1,0.45,5.E-02));
#1006 = VECTOR('',#1007,1.);
#1007 = DIRECTION('',(-2.22044604925E-16,-1.,-2.465190328816E-32));
#1008 = ORIENTED_EDGE('',*,*,#970,.T.);
#1009 = ORIENTED_EDGE('',*,*,#1010,.T.);
#1010 = EDGE_CURVE('',#971,#994,#1011,.T.);
#1011 = LINE('',#1012,#1013);
#1012 = CARTESIAN_POINT('',(0.3,0.4,5.E-02));
#1013 = VECTOR('',#1014,1.);
#1014 = DIRECTION('',(2.22044604925E-16,1.,2.465190328816E-32));
#1015 = PLANE('',#1016);
#1016 = AXIS2_PLACEMENT_3D('',#1017,#1018,#1019);
#1017 = CARTESIAN_POINT('',(0.2,0.425,5.E-02));
#1018 = DIRECTION('',(-2.22044604925E-16,2.465190328816E-32,1.));
#1019 = DIRECTION('',(-1.,2.22044604925E-16,-2.22044604925E-16));
#1020 = ADVANCED_FACE('',(#1021),#1034,.T.);
#1021 = FACE_BOUND('',#1022,.T.);
#1022 = EDGE_LOOP('',(#1023,#1029,#1030,#1031,#1032,#1033));
#1023 = ORIENTED_EDGE('',*,*,#1024,.F.);
#1024 = EDGE_CURVE('',#994,#932,#1025,.T.);
#1025 = LINE('',#1026,#1027);
#1026 = CARTESIAN_POINT('',(0.3,0.45,6.661338147751E-17));
#1027 = VECTOR('',#1028,1.);
#1028 = DIRECTION('',(2.22044604925E-16,-2.465190328816E-32,-1.));
#1029 = ORIENTED_EDGE('',*,*,#1010,.F.);
#1030 = ORIENTED_EDGE('',*,*,#978,.F.);
#1031 = ORIENTED_EDGE('',*,*,#900,.T.);
#1032 = ORIENTED_EDGE('',*,*,#860,.T.);
#1033 = ORIENTED_EDGE('',*,*,#931,.F.);
#1034 = PLANE('',#1035);
#1035 = AXIS2_PLACEMENT_3D('',#1036,#1037,#1038);
#1036 = CARTESIAN_POINT('',(0.3,0.301279069767,-1.627906976744E-02));
#1037 = DIRECTION('',(1.,-2.22044604925E-16,2.22044604925E-16));
#1038 = DIRECTION('',(2.22044604925E-16,-2.465190328816E-32,-1.));
#1039 = ADVANCED_FACE('',(#1040),#1051,.T.);
#1040 = FACE_BOUND('',#1041,.T.);
#1041 = EDGE_LOOP('',(#1042,#1048,#1049,#1050));
#1042 = ORIENTED_EDGE('',*,*,#1043,.F.);
#1043 = EDGE_CURVE('',#996,#941,#1044,.T.);
#1044 = LINE('',#1045,#1046);
#1045 = CARTESIAN_POINT('',(0.1,0.45,2.22044604925E-17));
#1046 = VECTOR('',#1047,1.);
#1047 = DIRECTION('',(2.22044604925E-16,-2.465190328816E-32,-1.));
#1048 = ORIENTED_EDGE('',*,*,#993,.F.);
#1049 = ORIENTED_EDGE('',*,*,#1024,.T.);
#1050 = ORIENTED_EDGE('',*,*,#948,.F.);
#1051 = PLANE('',#1052);
#1052 = AXIS2_PLACEMENT_3D('',#1053,#1054,#1055);
#1053 = CARTESIAN_POINT('',(0.2,0.45,4.440892098501E-17));
#1054 = DIRECTION('',(2.22044604925E-16,1.,-9.992007221626E-15));
#1055 = DIRECTION('',(2.22044604925E-16,-9.992007221626E-15,-1.));
#1056 = ADVANCED_FACE('',(#1057),#1065,.T.);
#1057 = FACE_BOUND('',#1058,.T.);
#1058 = EDGE_LOOP('',(#1059,#1060,#1061,#1062,#1063,#1064));
#1059 = ORIENTED_EDGE('',*,*,#878,.F.);
#1060 = ORIENTED_EDGE('',*,*,#916,.T.);
#1061 = ORIENTED_EDGE('',*,*,#962,.T.);
#1062 = ORIENTED_EDGE('',*,*,#1003,.F.);
#1063 = ORIENTED_EDGE('',*,*,#1043,.T.);
#1064 = ORIENTED_EDGE('',*,*,#940,.F.);
#1065 = PLANE('',#1066);
#1066 = AXIS2_PLACEMENT_3D('',#1067,#1068,#1069);
#1067 = CARTESIAN_POINT('',(0.1,0.301279069767,-1.627906976744E-02));
#1068 = DIRECTION('',(-1.,2.22044604925E-16,-2.22044604925E-16));
#1069 = DIRECTION('',(-2.22044604925E-16,2.465190328816E-32,1.));
#1070 = ( GEOMETRIC_REPRESENTATION_CONTEXT(3) 
GLOBAL_UNCERTAINTY_ASSIGNED_CONTEXT((#1074)) 
GLOBAL_UNIT_ASSIGNED_CONTEXT((#1071,#1072,#1073)) REPRESENTATION_CONTEXT
('Context #1','3D Context with UNIT and UNCERTAINTY') );
#1071 = ( LENGTH_UNIT() NAMED_UNIT(*) SI_UNIT(.MILLI.,.METRE.) );
#1072 = ( NAMED_UNIT(*) PLANE_ANGLE_UNIT() SI_UNIT($,.RADIAN.) );
#1073 = ( NAMED_UNIT(*) SI_UNIT($,.STERADIAN.) SOLID_ANGLE_UNIT() );
#1074 = UNCERTAINTY_MEASURE_WITH_UNIT(LENGTH_MEASURE(1.E-07),#1071,
  'distance_accuracy_value','confusion accuracy');
#1075 = CONTEXT_DEPENDENT_SHAPE_REPRESENTATION(#1076,#1078);
#1076 = ( REPRESENTATION_RELATIONSHIP('','',#205,#10) 
REPRESENTATION_RELATIONSHIP_WITH_TRANSFORMATION(#1077) 
SHAPE_REPRESENTATION_RELATIONSHIP() );
#1077 = ITEM_DEFINED_TRANSFORMATION('','',#11,#19);
#1078 = PRODUCT_DEFINITION_SHAPE('Placement','Placement of an item',
  #1079);
#1079 = NEXT_ASSEMBLY_USAGE_OCCURRENCE('2','Body','',#5,#200,$);
#1080 = PRODUCT_RELATED_PRODUCT_CATEGORY('part',$,(#202));
#1081 = MECHANICAL_DESIGN_GEOMETRIC_PRESENTATION_REPRESENTATION('',(
    #1082,#1093,#1102,#1111),#1070);
#1082 = STYLED_ITEM('color',(#1083),#206);
#1083 = PRESENTATION_STYLE_ASSIGNMENT((#1084,#1090));
#1084 = SURFACE_STYLE_USAGE(.BOTH.,#1085);
#1085 = SURFACE_SIDE_STYLE('',(#1086));
#1086 = SURFACE_STYLE_FILL_AREA(#1087);
#1087 = FILL_AREA_STYLE('',(#1088));
#1088 = FILL_AREA_STYLE_COLOUR('',#1089);
#1089 = COLOUR_RGB('',0.678431390124,0.709803936702,0.741176476869);
#1090 = CURVE_STYLE('',#1091,POSITIVE_LENGTH_MEASURE(0.1),#1092);
#1091 = DRAUGHTING_PRE_DEFINED_CURVE_FONT('continuous');
#1092 = COLOUR_RGB('',9.803921802644E-02,9.803921802644E-02,
  9.803921802644E-02);
#1093 = STYLED_ITEM('color',(#1094),#422);
#1094 = PRESENTATION_STYLE_ASSIGNMENT((#1095,#1100));
#1095 = SURFACE_STYLE_USAGE(.BOTH.,#1096);
#1096 = SURFACE_SIDE_STYLE('',(#1097));
#1097 = SURFACE_STYLE_FILL_AREA(#1098);
#1098 = FILL_AREA_STYLE('',(#1099));
#1099 = FILL_AREA_STYLE_COLOUR('',#1089);
#1100 = CURVE_STYLE('',#1101,POSITIVE_LENGTH_MEASURE(0.1),#1092);
#1101 = DRAUGHTING_PRE_DEFINED_CURVE_FONT('continuous');
#1102 = STYLED_ITEM('color',(#1103),#638);
#1103 = PRESENTATION_STYLE_ASSIGNMENT((#1104,#1109));
#1104 = SURFACE_STYLE_USAGE(.BOTH.,#1105);
#1105 = SURFACE_SIDE_STYLE('',(#1106));
#1106 = SURFACE_STYLE_FILL_AREA(#1107);
#1107 = FILL_AREA_STYLE('',(#1108));
#1108 = FILL_AREA_STYLE_COLOUR('',#1089);
#1109 = CURVE_STYLE('',#1110,POSITIVE_LENGTH_MEASURE(0.1),#1092);
#1110 = DRAUGHTING_PRE_DEFINED_CURVE_FONT('continuous');
#1111 = STYLED_ITEM('color',(#1112),#854);
#1112 = PRESENTATION_STYLE_ASSIGNMENT((#1113,#1118));
#1113 = SURFACE_STYLE_USAGE(.BOTH.,#1114);
#1114 = SURFACE_SIDE_STYLE('',(#1115));
#1115 = SURFACE_STYLE_FILL_AREA(#1116);
#1116 = FILL_AREA_STYLE('',(#1117));
#1117 = FILL_AREA_STYLE_COLOUR('',#1089);
#1118 = CURVE_STYLE('',#1119,POSITIVE_LENGTH_MEASURE(0.1),#1092);
#1119 = DRAUGHTING_PRE_DEFINED_CURVE_FONT('continuous');
#1120 = MECHANICAL_DESIGN_GEOMETRIC_PRESENTATION_REPRESENTATION('',(
    #1121),#187);
#1121 = STYLED_ITEM('color',(#1122),#37);
#1122 = PRESENTATION_STYLE_ASSIGNMENT((#1123,#1129));
#1123 = SURFACE_STYLE_USAGE(.BOTH.,#1124);
#1124 = SURFACE_SIDE_STYLE('',(#1125));
#1125 = SURFACE_STYLE_FILL_AREA(#1126);
#1126 = FILL_AREA_STYLE('',(#1127));
#1127 = FILL_AREA_STYLE_COLOUR('',#1128);
#1128 = COLOUR_RGB('',0.207843135047,0.207843135047,0.207843135047);
#1129 = CURVE_STYLE('',#1130,POSITIVE_LENGTH_MEASURE(0.1),#1092);
#1130 = DRAUGHTING_PRE_DEFINED_CURVE_FONT('continuous');
ENDSEC;
END-ISO-10303-21;
