ISO-10303-21;
HEADER;
FILE_DESCRIPTION(('FreeCAD Model'),'2;1');
FILE_NAME('Open CASCADE Shape Model','2026-08-08T19:28:19',(''),(''),
  'Open CASCADE STEP processor 7.8','FreeCAD','Unknown');
FILE_SCHEMA(('AUTOMOTIVE_DESIGN { 1 0 10303 214 1 1 1 1 }'));
ENDSEC;
DATA;
#1 = APPLICATION_PROTOCOL_DEFINITION('international standard',
  'automotive_design',2000,#2);
#2 = APPLICATION_CONTEXT(
  'core data for automotive mechanical design processes');
#3 = SHAPE_DEFINITION_REPRESENTATION(#4,#10);
#4 = PRODUCT_DEFINITION_SHAPE('','',#5);
#5 = PRODUCT_DEFINITION('design','',#6,#9);
#6 = PRODUCT_DEFINITION_FORMATION('','',#7);
#7 = PRODUCT('Unnamed1','Unnamed1','',(#8));
#8 = PRODUCT_CONTEXT('',#2,'mechanical');
#9 = PRODUCT_DEFINITION_CONTEXT('part definition',#2,'design');
#10 = SHAPE_REPRESENTATION('',(#11,#15,#19),#23);
#11 = AXIS2_PLACEMENT_3D('',#12,#13,#14);
#12 = CARTESIAN_POINT('',(0.,0.,0.));
#13 = DIRECTION('',(0.,0.,1.));
#14 = DIRECTION('',(1.,0.,-0.));
#15 = AXIS2_PLACEMENT_3D('',#16,#17,#18);
#16 = CARTESIAN_POINT('',(0.,0.,0.));
#17 = DIRECTION('',(0.,0.,1.));
#18 = DIRECTION('',(1.,0.,0.));
#19 = AXIS2_PLACEMENT_3D('',#20,#21,#22);
#20 = CARTESIAN_POINT('',(0.,0.,0.));
#21 = DIRECTION('',(0.,0.,1.));
#22 = DIRECTION('',(1.,0.,0.));
#23 = ( GEOMETRIC_REPRESENTATION_CONTEXT(3) 
GLOBAL_UNCERTAINTY_ASSIGNED_CONTEXT((#27)) GLOBAL_UNIT_ASSIGNED_CONTEXT(
(#24,#25,#26)) REPRESENTATION_CONTEXT('Context #1',
  '3D Context with UNIT and UNCERTAINTY') );
#24 = ( LENGTH_UNIT() NAMED_UNIT(*) SI_UNIT(.MILLI.,.METRE.) );
#25 = ( NAMED_UNIT(*) PLANE_ANGLE_UNIT() SI_UNIT($,.RADIAN.) );
#26 = ( NAMED_UNIT(*) SI_UNIT($,.STERADIAN.) SOLID_ANGLE_UNIT() );
#27 = UNCERTAINTY_MEASURE_WITH_UNIT(LENGTH_MEASURE(1.E-07),#24,
  'distance_accuracy_value','confusion accuracy');
#28 = PRODUCT_RELATED_PRODUCT_CATEGORY('part',$,(#7));
#29 = SHAPE_DEFINITION_REPRESENTATION(#30,#36);
#30 = PRODUCT_DEFINITION_SHAPE('','',#31);
#31 = PRODUCT_DEFINITION('design','',#32,#35);
#32 = PRODUCT_DEFINITION_FORMATION('','',#33);
#33 = PRODUCT('Extrude','Extrude','',(#34));
#34 = PRODUCT_CONTEXT('',#2,'mechanical');
#35 = PRODUCT_DEFINITION_CONTEXT('part definition',#2,'design');
#36 = ADVANCED_BREP_SHAPE_REPRESENTATION('',(#11,#37),#327);
#37 = MANIFOLD_SOLID_BREP('',#38);
#38 = CLOSED_SHELL('',(#39,#81,#112,#145,#176,#209,#240,#273,#295,#311)
  );
#39 = ADVANCED_FACE('',(#40),#76,.F.);
#40 = FACE_BOUND('',#41,.T.);
#41 = EDGE_LOOP('',(#42,#52,#61,#69));
#42 = ORIENTED_EDGE('',*,*,#43,.T.);
#43 = EDGE_CURVE('',#44,#46,#48,.T.);
#44 = VERTEX_POINT('',#45);
#45 = CARTESIAN_POINT('',(-0.962184,-0.85,0.));
#46 = VERTEX_POINT('',#47);
#47 = CARTESIAN_POINT('',(-0.962184,-0.85,0.3));
#48 = LINE('',#49,#50);
#49 = CARTESIAN_POINT('',(-0.962184,-0.85,0.));
#50 = VECTOR('',#51,1.);
#51 = DIRECTION('',(0.,0.,1.));
#52 = ORIENTED_EDGE('',*,*,#53,.T.);
#53 = EDGE_CURVE('',#46,#54,#56,.T.);
#54 = VERTEX_POINT('',#55);
#55 = CARTESIAN_POINT('',(-1.05,-0.762184,0.3));
#56 = CIRCLE('',#57,8.7816E-02);
#57 = AXIS2_PLACEMENT_3D('',#58,#59,#60);
#58 = CARTESIAN_POINT('',(-1.05,-0.85,0.3));
#59 = DIRECTION('',(0.,0.,1.));
#60 = DIRECTION('',(1.,0.,0.));
#61 = ORIENTED_EDGE('',*,*,#62,.F.);
#62 = EDGE_CURVE('',#63,#54,#65,.T.);
#63 = VERTEX_POINT('',#64);
#64 = CARTESIAN_POINT('',(-1.05,-0.762184,0.));
#65 = LINE('',#66,#67);
#66 = CARTESIAN_POINT('',(-1.05,-0.762184,0.));
#67 = VECTOR('',#68,1.);
#68 = DIRECTION('',(0.,0.,1.));
#69 = ORIENTED_EDGE('',*,*,#70,.F.);
#70 = EDGE_CURVE('',#44,#63,#71,.T.);
#71 = CIRCLE('',#72,8.7816E-02);
#72 = AXIS2_PLACEMENT_3D('',#73,#74,#75);
#73 = CARTESIAN_POINT('',(-1.05,-0.85,0.));
#74 = DIRECTION('',(0.,0.,1.));
#75 = DIRECTION('',(1.,0.,0.));
#76 = CYLINDRICAL_SURFACE('',#77,8.7816E-02);
#77 = AXIS2_PLACEMENT_3D('',#78,#79,#80);
#78 = CARTESIAN_POINT('',(-1.05,-0.85,0.));
#79 = DIRECTION('',(-0.,-0.,-1.));
#80 = DIRECTION('',(1.,0.,0.));
#81 = ADVANCED_FACE('',(#82),#107,.F.);
#82 = FACE_BOUND('',#83,.F.);
#83 = EDGE_LOOP('',(#84,#94,#100,#101));
#84 = ORIENTED_EDGE('',*,*,#85,.T.);
#85 = EDGE_CURVE('',#86,#88,#90,.T.);
#86 = VERTEX_POINT('',#87);
#87 = CARTESIAN_POINT('',(-1.05,0.762184,0.));
#88 = VERTEX_POINT('',#89);
#89 = CARTESIAN_POINT('',(-1.05,0.762184,0.3));
#90 = LINE('',#91,#92);
#91 = CARTESIAN_POINT('',(-1.05,0.762184,0.));
#92 = VECTOR('',#93,1.);
#93 = DIRECTION('',(0.,0.,1.));
#94 = ORIENTED_EDGE('',*,*,#95,.T.);
#95 = EDGE_CURVE('',#88,#54,#96,.T.);
#96 = LINE('',#97,#98);
#97 = CARTESIAN_POINT('',(-1.05,0.762184,0.3));
#98 = VECTOR('',#99,1.);
#99 = DIRECTION('',(0.,-1.,0.));
#100 = ORIENTED_EDGE('',*,*,#62,.F.);
#101 = ORIENTED_EDGE('',*,*,#102,.F.);
#102 = EDGE_CURVE('',#86,#63,#103,.T.);
#103 = LINE('',#104,#105);
#104 = CARTESIAN_POINT('',(-1.05,0.762184,0.));
#105 = VECTOR('',#106,1.);
#106 = DIRECTION('',(0.,-1.,0.));
#107 = PLANE('',#108);
#108 = AXIS2_PLACEMENT_3D('',#109,#110,#111);
#109 = CARTESIAN_POINT('',(-1.05,0.762184,0.));
#110 = DIRECTION('',(1.,0.,-0.));
#111 = DIRECTION('',(0.,-1.,0.));
#112 = ADVANCED_FACE('',(#113),#140,.F.);
#113 = FACE_BOUND('',#114,.T.);
#114 = EDGE_LOOP('',(#115,#116,#125,#133));
#115 = ORIENTED_EDGE('',*,*,#85,.T.);
#116 = ORIENTED_EDGE('',*,*,#117,.T.);
#117 = EDGE_CURVE('',#88,#118,#120,.T.);
#118 = VERTEX_POINT('',#119);
#119 = CARTESIAN_POINT('',(-0.962184,0.85,0.3));
#120 = CIRCLE('',#121,8.7816E-02);
#121 = AXIS2_PLACEMENT_3D('',#122,#123,#124);
#122 = CARTESIAN_POINT('',(-1.05,0.85,0.3));
#123 = DIRECTION('',(0.,0.,1.));
#124 = DIRECTION('',(1.,0.,0.));
#125 = ORIENTED_EDGE('',*,*,#126,.F.);
#126 = EDGE_CURVE('',#127,#118,#129,.T.);
#127 = VERTEX_POINT('',#128);
#128 = CARTESIAN_POINT('',(-0.962184,0.85,0.));
#129 = LINE('',#130,#131);
#130 = CARTESIAN_POINT('',(-0.962184,0.85,0.));
#131 = VECTOR('',#132,1.);
#132 = DIRECTION('',(0.,0.,1.));
#133 = ORIENTED_EDGE('',*,*,#134,.F.);
#134 = EDGE_CURVE('',#86,#127,#135,.T.);
#135 = CIRCLE('',#136,8.7816E-02);
#136 = AXIS2_PLACEMENT_3D('',#137,#138,#139);
#137 = CARTESIAN_POINT('',(-1.05,0.85,0.));
#138 = DIRECTION('',(0.,0.,1.));
#139 = DIRECTION('',(1.,0.,0.));
#140 = CYLINDRICAL_SURFACE('',#141,8.7816E-02);
#141 = AXIS2_PLACEMENT_3D('',#142,#143,#144);
#142 = CARTESIAN_POINT('',(-1.05,0.85,0.));
#143 = DIRECTION('',(-0.,-0.,-1.));
#144 = DIRECTION('',(1.,0.,0.));
#145 = ADVANCED_FACE('',(#146),#171,.F.);
#146 = FACE_BOUND('',#147,.F.);
#147 = EDGE_LOOP('',(#148,#158,#164,#165));
#148 = ORIENTED_EDGE('',*,*,#149,.T.);
#149 = EDGE_CURVE('',#150,#152,#154,.T.);
#150 = VERTEX_POINT('',#151);
#151 = CARTESIAN_POINT('',(0.962184,0.85,0.));
#152 = VERTEX_POINT('',#153);
#153 = CARTESIAN_POINT('',(0.962184,0.85,0.3));
#154 = LINE('',#155,#156);
#155 = CARTESIAN_POINT('',(0.962184,0.85,0.));
#156 = VECTOR('',#157,1.);
#157 = DIRECTION('',(0.,0.,1.));
#158 = ORIENTED_EDGE('',*,*,#159,.T.);
#159 = EDGE_CURVE('',#152,#118,#160,.T.);
#160 = LINE('',#161,#162);
#161 = CARTESIAN_POINT('',(0.962184,0.85,0.3));
#162 = VECTOR('',#163,1.);
#163 = DIRECTION('',(-1.,0.,0.));
#164 = ORIENTED_EDGE('',*,*,#126,.F.);
#165 = ORIENTED_EDGE('',*,*,#166,.F.);
#166 = EDGE_CURVE('',#150,#127,#167,.T.);
#167 = LINE('',#168,#169);
#168 = CARTESIAN_POINT('',(0.962184,0.85,0.));
#169 = VECTOR('',#170,1.);
#170 = DIRECTION('',(-1.,0.,0.));
#171 = PLANE('',#172);
#172 = AXIS2_PLACEMENT_3D('',#173,#174,#175);
#173 = CARTESIAN_POINT('',(0.962184,0.85,0.));
#174 = DIRECTION('',(0.,-1.,0.));
#175 = DIRECTION('',(-1.,0.,0.));
#176 = ADVANCED_FACE('',(#177),#204,.F.);
#177 = FACE_BOUND('',#178,.T.);
#178 = EDGE_LOOP('',(#179,#180,#189,#197));
#179 = ORIENTED_EDGE('',*,*,#149,.T.);
#180 = ORIENTED_EDGE('',*,*,#181,.T.);
#181 = EDGE_CURVE('',#152,#182,#184,.T.);
#182 = VERTEX_POINT('',#183);
#183 = CARTESIAN_POINT('',(1.05,0.762184,0.3));
#184 = CIRCLE('',#185,8.7816E-02);
#185 = AXIS2_PLACEMENT_3D('',#186,#187,#188);
#186 = CARTESIAN_POINT('',(1.05,0.85,0.3));
#187 = DIRECTION('',(0.,0.,1.));
#188 = DIRECTION('',(1.,0.,0.));
#189 = ORIENTED_EDGE('',*,*,#190,.F.);
#190 = EDGE_CURVE('',#191,#182,#193,.T.);
#191 = VERTEX_POINT('',#192);
#192 = CARTESIAN_POINT('',(1.05,0.762184,0.));
#193 = LINE('',#194,#195);
#194 = CARTESIAN_POINT('',(1.05,0.762184,0.));
#195 = VECTOR('',#196,1.);
#196 = DIRECTION('',(0.,0.,1.));
#197 = ORIENTED_EDGE('',*,*,#198,.F.);
#198 = EDGE_CURVE('',#150,#191,#199,.T.);
#199 = CIRCLE('',#200,8.7816E-02);
#200 = AXIS2_PLACEMENT_3D('',#201,#202,#203);
#201 = CARTESIAN_POINT('',(1.05,0.85,0.));
#202 = DIRECTION('',(0.,0.,1.));
#203 = DIRECTION('',(1.,0.,0.));
#204 = CYLINDRICAL_SURFACE('',#205,8.7816E-02);
#205 = AXIS2_PLACEMENT_3D('',#206,#207,#208);
#206 = CARTESIAN_POINT('',(1.05,0.85,0.));
#207 = DIRECTION('',(-0.,-0.,-1.));
#208 = DIRECTION('',(1.,0.,0.));
#209 = ADVANCED_FACE('',(#210),#235,.F.);
#210 = FACE_BOUND('',#211,.F.);
#211 = EDGE_LOOP('',(#212,#222,#228,#229));
#212 = ORIENTED_EDGE('',*,*,#213,.T.);
#213 = EDGE_CURVE('',#214,#216,#218,.T.);
#214 = VERTEX_POINT('',#215);
#215 = CARTESIAN_POINT('',(1.05,-0.762184,0.));
#216 = VERTEX_POINT('',#217);
#217 = CARTESIAN_POINT('',(1.05,-0.762184,0.3));
#218 = LINE('',#219,#220);
#219 = CARTESIAN_POINT('',(1.05,-0.762184,0.));
#220 = VECTOR('',#221,1.);
#221 = DIRECTION('',(0.,0.,1.));
#222 = ORIENTED_EDGE('',*,*,#223,.T.);
#223 = EDGE_CURVE('',#216,#182,#224,.T.);
#224 = LINE('',#225,#226);
#225 = CARTESIAN_POINT('',(1.05,-0.762184,0.3));
#226 = VECTOR('',#227,1.);
#227 = DIRECTION('',(0.,1.,0.));
#228 = ORIENTED_EDGE('',*,*,#190,.F.);
#229 = ORIENTED_EDGE('',*,*,#230,.F.);
#230 = EDGE_CURVE('',#214,#191,#231,.T.);
#231 = LINE('',#232,#233);
#232 = CARTESIAN_POINT('',(1.05,-0.762184,0.));
#233 = VECTOR('',#234,1.);
#234 = DIRECTION('',(0.,1.,0.));
#235 = PLANE('',#236);
#236 = AXIS2_PLACEMENT_3D('',#237,#238,#239);
#237 = CARTESIAN_POINT('',(1.05,-0.762184,0.));
#238 = DIRECTION('',(-1.,0.,0.));
#239 = DIRECTION('',(0.,1.,0.));
#240 = ADVANCED_FACE('',(#241),#268,.F.);
#241 = FACE_BOUND('',#242,.T.);
#242 = EDGE_LOOP('',(#243,#244,#253,#261));
#243 = ORIENTED_EDGE('',*,*,#213,.T.);
#244 = ORIENTED_EDGE('',*,*,#245,.T.);
#245 = EDGE_CURVE('',#216,#246,#248,.T.);
#246 = VERTEX_POINT('',#247);
#247 = CARTESIAN_POINT('',(0.962184,-0.85,0.3));
#248 = CIRCLE('',#249,8.7816E-02);
#249 = AXIS2_PLACEMENT_3D('',#250,#251,#252);
#250 = CARTESIAN_POINT('',(1.05,-0.85,0.3));
#251 = DIRECTION('',(0.,0.,1.));
#252 = DIRECTION('',(1.,0.,0.));
#253 = ORIENTED_EDGE('',*,*,#254,.F.);
#254 = EDGE_CURVE('',#255,#246,#257,.T.);
#255 = VERTEX_POINT('',#256);
#256 = CARTESIAN_POINT('',(0.962184,-0.85,0.));
#257 = LINE('',#258,#259);
#258 = CARTESIAN_POINT('',(0.962184,-0.85,0.));
#259 = VECTOR('',#260,1.);
#260 = DIRECTION('',(0.,0.,1.));
#261 = ORIENTED_EDGE('',*,*,#262,.F.);
#262 = EDGE_CURVE('',#214,#255,#263,.T.);
#263 = CIRCLE('',#264,8.7816E-02);
#264 = AXIS2_PLACEMENT_3D('',#265,#266,#267);
#265 = CARTESIAN_POINT('',(1.05,-0.85,0.));
#266 = DIRECTION('',(0.,0.,1.));
#267 = DIRECTION('',(1.,0.,0.));
#268 = CYLINDRICAL_SURFACE('',#269,8.7816E-02);
#269 = AXIS2_PLACEMENT_3D('',#270,#271,#272);
#270 = CARTESIAN_POINT('',(1.05,-0.85,0.));
#271 = DIRECTION('',(-0.,-0.,-1.));
#272 = DIRECTION('',(1.,0.,0.));
#273 = ADVANCED_FACE('',(#274),#290,.F.);
#274 = FACE_BOUND('',#275,.F.);
#275 = EDGE_LOOP('',(#276,#277,#283,#284));
#276 = ORIENTED_EDGE('',*,*,#43,.T.);
#277 = ORIENTED_EDGE('',*,*,#278,.T.);
#278 = EDGE_CURVE('',#46,#246,#279,.T.);
#279 = LINE('',#280,#281);
#280 = CARTESIAN_POINT('',(-0.962184,-0.85,0.3));
#281 = VECTOR('',#282,1.);
#282 = DIRECTION('',(1.,0.,0.));
#283 = ORIENTED_EDGE('',*,*,#254,.F.);
#284 = ORIENTED_EDGE('',*,*,#285,.F.);
#285 = EDGE_CURVE('',#44,#255,#286,.T.);
#286 = LINE('',#287,#288);
#287 = CARTESIAN_POINT('',(-0.962184,-0.85,0.));
#288 = VECTOR('',#289,1.);
#289 = DIRECTION('',(1.,0.,0.));
#290 = PLANE('',#291);
#291 = AXIS2_PLACEMENT_3D('',#292,#293,#294);
#292 = CARTESIAN_POINT('',(-0.962184,-0.85,0.));
#293 = DIRECTION('',(0.,1.,0.));
#294 = DIRECTION('',(1.,0.,0.));
#295 = ADVANCED_FACE('',(#296),#306,.F.);
#296 = FACE_BOUND('',#297,.T.);
#297 = EDGE_LOOP('',(#298,#299,#300,#301,#302,#303,#304,#305));
#298 = ORIENTED_EDGE('',*,*,#70,.T.);
#299 = ORIENTED_EDGE('',*,*,#102,.F.);
#300 = ORIENTED_EDGE('',*,*,#134,.T.);
#301 = ORIENTED_EDGE('',*,*,#166,.F.);
#302 = ORIENTED_EDGE('',*,*,#198,.T.);
#303 = ORIENTED_EDGE('',*,*,#230,.F.);
#304 = ORIENTED_EDGE('',*,*,#262,.T.);
#305 = ORIENTED_EDGE('',*,*,#285,.F.);
#306 = PLANE('',#307);
#307 = AXIS2_PLACEMENT_3D('',#308,#309,#310);
#308 = CARTESIAN_POINT('',(-1.491642825693E-17,2.983285651386E-17,0.));
#309 = DIRECTION('',(0.,0.,1.));
#310 = DIRECTION('',(1.,0.,-0.));
#311 = ADVANCED_FACE('',(#312),#322,.T.);
#312 = FACE_BOUND('',#313,.F.);
#313 = EDGE_LOOP('',(#314,#315,#316,#317,#318,#319,#320,#321));
#314 = ORIENTED_EDGE('',*,*,#53,.T.);
#315 = ORIENTED_EDGE('',*,*,#95,.F.);
#316 = ORIENTED_EDGE('',*,*,#117,.T.);
#317 = ORIENTED_EDGE('',*,*,#159,.F.);
#318 = ORIENTED_EDGE('',*,*,#181,.T.);
#319 = ORIENTED_EDGE('',*,*,#223,.F.);
#320 = ORIENTED_EDGE('',*,*,#245,.T.);
#321 = ORIENTED_EDGE('',*,*,#278,.F.);
#322 = PLANE('',#323);
#323 = AXIS2_PLACEMENT_3D('',#324,#325,#326);
#324 = CARTESIAN_POINT('',(-1.491642825693E-17,2.983285651386E-17,0.3));
#325 = DIRECTION('',(0.,0.,1.));
#326 = DIRECTION('',(1.,0.,-0.));
#327 = ( GEOMETRIC_REPRESENTATION_CONTEXT(3) 
GLOBAL_UNCERTAINTY_ASSIGNED_CONTEXT((#331)) GLOBAL_UNIT_ASSIGNED_CONTEXT
((#328,#329,#330)) REPRESENTATION_CONTEXT('Context #1',
  '3D Context with UNIT and UNCERTAINTY') );
#328 = ( LENGTH_UNIT() NAMED_UNIT(*) SI_UNIT(.MILLI.,.METRE.) );
#329 = ( NAMED_UNIT(*) PLANE_ANGLE_UNIT() SI_UNIT($,.RADIAN.) );
#330 = ( NAMED_UNIT(*) SI_UNIT($,.STERADIAN.) SOLID_ANGLE_UNIT() );
#331 = UNCERTAINTY_MEASURE_WITH_UNIT(LENGTH_MEASURE(1.E-07),#328,
  'distance_accuracy_value','confusion accuracy');
#332 = CONTEXT_DEPENDENT_SHAPE_REPRESENTATION(#333,#335);
#333 = ( REPRESENTATION_RELATIONSHIP('','',#36,#10) 
REPRESENTATION_RELATIONSHIP_WITH_TRANSFORMATION(#334) 
SHAPE_REPRESENTATION_RELATIONSHIP() );
#334 = ITEM_DEFINED_TRANSFORMATION('','',#11,#15);
#335 = PRODUCT_DEFINITION_SHAPE('Placement','Placement of an item',#336
  );
#336 = NEXT_ASSEMBLY_USAGE_OCCURRENCE('3','Extrude','',#5,#31,$);
#337 = PRODUCT_RELATED_PRODUCT_CATEGORY('part',$,(#33));
#338 = SHAPE_DEFINITION_REPRESENTATION(#339,#345);
#339 = PRODUCT_DEFINITION_SHAPE('','',#340);
#340 = PRODUCT_DEFINITION('design','',#341,#344);
#341 = PRODUCT_DEFINITION_FORMATION('','',#342);
#342 = PRODUCT('Fillet','Fillet','',(#343));
#343 = PRODUCT_CONTEXT('',#2,'mechanical');
#344 = PRODUCT_DEFINITION_CONTEXT('part definition',#2,'design');
#345 = ADVANCED_BREP_SHAPE_REPRESENTATION('',(#11,#346),#868);
#346 = MANIFOLD_SOLID_BREP('',#347);
#347 = CLOSED_SHELL('',(#348,#388,#421,#454,#513,#538,#562,#595,#654,
    #679,#703,#728,#752,#770,#788,#806,#831,#856));
#348 = ADVANCED_FACE('',(#349),#383,.F.);
#349 = FACE_BOUND('',#350,.F.);
#350 = EDGE_LOOP('',(#351,#361,#369,#377));
#351 = ORIENTED_EDGE('',*,*,#352,.T.);
#352 = EDGE_CURVE('',#353,#355,#357,.T.);
#353 = VERTEX_POINT('',#354);
#354 = CARTESIAN_POINT('',(-0.757663,-0.7,0.3));
#355 = VERTEX_POINT('',#356);
#356 = CARTESIAN_POINT('',(-0.757663,-0.7,0.6));
#357 = LINE('',#358,#359);
#358 = CARTESIAN_POINT('',(-0.757663,-0.7,0.3));
#359 = VECTOR('',#360,1.);
#360 = DIRECTION('',(0.,0.,1.));
#361 = ORIENTED_EDGE('',*,*,#362,.T.);
#362 = EDGE_CURVE('',#355,#363,#365,.T.);
#363 = VERTEX_POINT('',#364);
#364 = CARTESIAN_POINT('',(0.757663,-0.7,0.6));
#365 = LINE('',#366,#367);
#366 = CARTESIAN_POINT('',(-0.757663,-0.7,0.6));
#367 = VECTOR('',#368,1.);
#368 = DIRECTION('',(1.,0.,0.));
#369 = ORIENTED_EDGE('',*,*,#370,.F.);
#370 = EDGE_CURVE('',#371,#363,#373,.T.);
#371 = VERTEX_POINT('',#372);
#372 = CARTESIAN_POINT('',(0.757663,-0.7,0.3));
#373 = LINE('',#374,#375);
#374 = CARTESIAN_POINT('',(0.757663,-0.7,0.3));
#375 = VECTOR('',#376,1.);
#376 = DIRECTION('',(0.,0.,1.));
#377 = ORIENTED_EDGE('',*,*,#378,.F.);
#378 = EDGE_CURVE('',#353,#371,#379,.T.);
#379 = LINE('',#380,#381);
#380 = CARTESIAN_POINT('',(-0.757663,-0.7,0.3));
#381 = VECTOR('',#382,1.);
#382 = DIRECTION('',(1.,0.,0.));
#383 = PLANE('',#384);
#384 = AXIS2_PLACEMENT_3D('',#385,#386,#387);
#385 = CARTESIAN_POINT('',(-0.757663,-0.7,0.3));
#386 = DIRECTION('',(0.,1.,0.));
#387 = DIRECTION('',(1.,0.,0.));
#388 = ADVANCED_FACE('',(#389),#416,.T.);
#389 = FACE_BOUND('',#390,.F.);
#390 = EDGE_LOOP('',(#391,#401,#408,#409));
#391 = ORIENTED_EDGE('',*,*,#392,.T.);
#392 = EDGE_CURVE('',#393,#395,#397,.T.);
#393 = VERTEX_POINT('',#394);
#394 = CARTESIAN_POINT('',(-0.9,-0.557663,0.3));
#395 = VERTEX_POINT('',#396);
#396 = CARTESIAN_POINT('',(-0.9,-0.557663,0.6));
#397 = LINE('',#398,#399);
#398 = CARTESIAN_POINT('',(-0.9,-0.557663,0.3));
#399 = VECTOR('',#400,1.);
#400 = DIRECTION('',(0.,0.,1.));
#401 = ORIENTED_EDGE('',*,*,#402,.T.);
#402 = EDGE_CURVE('',#395,#355,#403,.T.);
#403 = CIRCLE('',#404,0.142337);
#404 = AXIS2_PLACEMENT_3D('',#405,#406,#407);
#405 = CARTESIAN_POINT('',(-0.757663,-0.557663,0.6));
#406 = DIRECTION('',(0.,0.,1.));
#407 = DIRECTION('',(-1.,0.,0.));
#408 = ORIENTED_EDGE('',*,*,#352,.F.);
#409 = ORIENTED_EDGE('',*,*,#410,.F.);
#410 = EDGE_CURVE('',#393,#353,#411,.T.);
#411 = CIRCLE('',#412,0.142337);
#412 = AXIS2_PLACEMENT_3D('',#413,#414,#415);
#413 = CARTESIAN_POINT('',(-0.757663,-0.557663,0.3));
#414 = DIRECTION('',(0.,0.,1.));
#415 = DIRECTION('',(1.,0.,0.));
#416 = CYLINDRICAL_SURFACE('',#417,0.142337);
#417 = AXIS2_PLACEMENT_3D('',#418,#419,#420);
#418 = CARTESIAN_POINT('',(-0.757663,-0.557663,0.3));
#419 = DIRECTION('',(-0.,-0.,-1.));
#420 = DIRECTION('',(1.,0.,0.));
#421 = ADVANCED_FACE('',(#422),#449,.T.);
#422 = FACE_BOUND('',#423,.F.);
#423 = EDGE_LOOP('',(#424,#433,#441,#448));
#424 = ORIENTED_EDGE('',*,*,#425,.T.);
#425 = EDGE_CURVE('',#355,#426,#428,.T.);
#426 = VERTEX_POINT('',#427);
#427 = CARTESIAN_POINT('',(-0.757663,-0.6,0.7));
#428 = CIRCLE('',#429,0.1);
#429 = AXIS2_PLACEMENT_3D('',#430,#431,#432);
#430 = CARTESIAN_POINT('',(-0.757663,-0.6,0.6));
#431 = DIRECTION('',(-1.,-0.,0.));
#432 = DIRECTION('',(0.,-1.,0.));
#433 = ORIENTED_EDGE('',*,*,#434,.T.);
#434 = EDGE_CURVE('',#426,#435,#437,.T.);
#435 = VERTEX_POINT('',#436);
#436 = CARTESIAN_POINT('',(0.757663,-0.6,0.7));
#437 = LINE('',#438,#439);
#438 = CARTESIAN_POINT('',(-0.757663,-0.6,0.7));
#439 = VECTOR('',#440,1.);
#440 = DIRECTION('',(1.,0.,0.));
#441 = ORIENTED_EDGE('',*,*,#442,.F.);
#442 = EDGE_CURVE('',#363,#435,#443,.T.);
#443 = CIRCLE('',#444,0.1);
#444 = AXIS2_PLACEMENT_3D('',#445,#446,#447);
#445 = CARTESIAN_POINT('',(0.757663,-0.6,0.6));
#446 = DIRECTION('',(-1.,-0.,0.));
#447 = DIRECTION('',(0.,-1.,0.));
#448 = ORIENTED_EDGE('',*,*,#362,.F.);
#449 = CYLINDRICAL_SURFACE('',#450,0.1);
#450 = AXIS2_PLACEMENT_3D('',#451,#452,#453);
#451 = CARTESIAN_POINT('',(-0.757663,-0.6,0.6));
#452 = DIRECTION('',(1.,0.,0.));
#453 = DIRECTION('',(0.,-1.,-0.));
#454 = ADVANCED_FACE('',(#455),#508,.F.);
#455 = FACE_BOUND('',#456,.F.);
#456 = EDGE_LOOP('',(#457,#458,#467,#475,#484,#492,#501,#507));
#457 = ORIENTED_EDGE('',*,*,#378,.T.);
#458 = ORIENTED_EDGE('',*,*,#459,.T.);
#459 = EDGE_CURVE('',#371,#460,#462,.T.);
#460 = VERTEX_POINT('',#461);
#461 = CARTESIAN_POINT('',(0.9,-0.557663,0.3));
#462 = CIRCLE('',#463,0.142337);
#463 = AXIS2_PLACEMENT_3D('',#464,#465,#466);
#464 = CARTESIAN_POINT('',(0.757663,-0.557663,0.3));
#465 = DIRECTION('',(0.,0.,1.));
#466 = DIRECTION('',(1.,0.,0.));
#467 = ORIENTED_EDGE('',*,*,#468,.T.);
#468 = EDGE_CURVE('',#460,#469,#471,.T.);
#469 = VERTEX_POINT('',#470);
#470 = CARTESIAN_POINT('',(0.9,0.557663,0.3));
#471 = LINE('',#472,#473);
#472 = CARTESIAN_POINT('',(0.9,-0.557663,0.3));
#473 = VECTOR('',#474,1.);
#474 = DIRECTION('',(0.,1.,0.));
#475 = ORIENTED_EDGE('',*,*,#476,.T.);
#476 = EDGE_CURVE('',#469,#477,#479,.T.);
#477 = VERTEX_POINT('',#478);
#478 = CARTESIAN_POINT('',(0.757663,0.7,0.3));
#479 = CIRCLE('',#480,0.142337);
#480 = AXIS2_PLACEMENT_3D('',#481,#482,#483);
#481 = CARTESIAN_POINT('',(0.757663,0.557663,0.3));
#482 = DIRECTION('',(0.,0.,1.));
#483 = DIRECTION('',(1.,0.,0.));
#484 = ORIENTED_EDGE('',*,*,#485,.T.);
#485 = EDGE_CURVE('',#477,#486,#488,.T.);
#486 = VERTEX_POINT('',#487);
#487 = CARTESIAN_POINT('',(-0.757663,0.7,0.3));
#488 = LINE('',#489,#490);
#489 = CARTESIAN_POINT('',(0.757663,0.7,0.3));
#490 = VECTOR('',#491,1.);
#491 = DIRECTION('',(-1.,0.,0.));
#492 = ORIENTED_EDGE('',*,*,#493,.T.);
#493 = EDGE_CURVE('',#486,#494,#496,.T.);
#494 = VERTEX_POINT('',#495);
#495 = CARTESIAN_POINT('',(-0.9,0.557663,0.3));
#496 = CIRCLE('',#497,0.142337);
#497 = AXIS2_PLACEMENT_3D('',#498,#499,#500);
#498 = CARTESIAN_POINT('',(-0.757663,0.557663,0.3));
#499 = DIRECTION('',(0.,0.,1.));
#500 = DIRECTION('',(1.,0.,0.));
#501 = ORIENTED_EDGE('',*,*,#502,.T.);
#502 = EDGE_CURVE('',#494,#393,#503,.T.);
#503 = LINE('',#504,#505);
#504 = CARTESIAN_POINT('',(-0.9,0.557663,0.3));
#505 = VECTOR('',#506,1.);
#506 = DIRECTION('',(0.,-1.,0.));
#507 = ORIENTED_EDGE('',*,*,#410,.T.);
#508 = PLANE('',#509);
#509 = AXIS2_PLACEMENT_3D('',#510,#511,#512);
#510 = CARTESIAN_POINT('',(1.242021336539E-17,-3.387330917833E-18,0.3));
#511 = DIRECTION('',(0.,0.,1.));
#512 = DIRECTION('',(1.,0.,0.));
#513 = ADVANCED_FACE('',(#514),#533,.T.);
#514 = FACE_BOUND('',#515,.F.);
#515 = EDGE_LOOP('',(#516,#517,#526,#532));
#516 = ORIENTED_EDGE('',*,*,#370,.T.);
#517 = ORIENTED_EDGE('',*,*,#518,.T.);
#518 = EDGE_CURVE('',#363,#519,#521,.T.);
#519 = VERTEX_POINT('',#520);
#520 = CARTESIAN_POINT('',(0.9,-0.557663,0.6));
#521 = CIRCLE('',#522,0.142337);
#522 = AXIS2_PLACEMENT_3D('',#523,#524,#525);
#523 = CARTESIAN_POINT('',(0.757663,-0.557663,0.6));
#524 = DIRECTION('',(0.,0.,1.));
#525 = DIRECTION('',(0.,-1.,0.));
#526 = ORIENTED_EDGE('',*,*,#527,.F.);
#527 = EDGE_CURVE('',#460,#519,#528,.T.);
#528 = LINE('',#529,#530);
#529 = CARTESIAN_POINT('',(0.9,-0.557663,0.3));
#530 = VECTOR('',#531,1.);
#531 = DIRECTION('',(0.,0.,1.));
#532 = ORIENTED_EDGE('',*,*,#459,.F.);
#533 = CYLINDRICAL_SURFACE('',#534,0.142337);
#534 = AXIS2_PLACEMENT_3D('',#535,#536,#537);
#535 = CARTESIAN_POINT('',(0.757663,-0.557663,0.3));
#536 = DIRECTION('',(-0.,-0.,-1.));
#537 = DIRECTION('',(1.,0.,0.));
#538 = ADVANCED_FACE('',(#539),#557,.F.);
#539 = FACE_BOUND('',#540,.F.);
#540 = EDGE_LOOP('',(#541,#549,#555,#556));
#541 = ORIENTED_EDGE('',*,*,#542,.T.);
#542 = EDGE_CURVE('',#494,#543,#545,.T.);
#543 = VERTEX_POINT('',#544);
#544 = CARTESIAN_POINT('',(-0.9,0.557663,0.6));
#545 = LINE('',#546,#547);
#546 = CARTESIAN_POINT('',(-0.9,0.557663,0.3));
#547 = VECTOR('',#548,1.);
#548 = DIRECTION('',(0.,0.,1.));
#549 = ORIENTED_EDGE('',*,*,#550,.T.);
#550 = EDGE_CURVE('',#543,#395,#551,.T.);
#551 = LINE('',#552,#553);
#552 = CARTESIAN_POINT('',(-0.9,0.557663,0.6));
#553 = VECTOR('',#554,1.);
#554 = DIRECTION('',(0.,-1.,0.));
#555 = ORIENTED_EDGE('',*,*,#392,.F.);
#556 = ORIENTED_EDGE('',*,*,#502,.F.);
#557 = PLANE('',#558);
#558 = AXIS2_PLACEMENT_3D('',#559,#560,#561);
#559 = CARTESIAN_POINT('',(-0.9,0.557663,0.3));
#560 = DIRECTION('',(1.,0.,0.));
#561 = DIRECTION('',(0.,-1.,0.));
#562 = ADVANCED_FACE('',(#563),#583,.T.);
#563 = FACE_BOUND('',#564,.T.);
#564 = EDGE_LOOP('',(#565,#574,#575,#576));
#565 = ORIENTED_EDGE('',*,*,#566,.F.);
#566 = EDGE_CURVE('',#395,#567,#569,.T.);
#567 = VERTEX_POINT('',#568);
#568 = CARTESIAN_POINT('',(-0.8,-0.557663,0.7));
#569 = CIRCLE('',#570,0.1);
#570 = AXIS2_PLACEMENT_3D('',#571,#572,#573);
#571 = CARTESIAN_POINT('',(-0.8,-0.557663,0.6));
#572 = DIRECTION('',(-0.,1.,0.));
#573 = DIRECTION('',(-1.,-0.,0.));
#574 = ORIENTED_EDGE('',*,*,#402,.T.);
#575 = ORIENTED_EDGE('',*,*,#425,.T.);
#576 = ORIENTED_EDGE('',*,*,#577,.F.);
#577 = EDGE_CURVE('',#567,#426,#578,.T.);
#578 = CIRCLE('',#579,4.2337E-02);
#579 = AXIS2_PLACEMENT_3D('',#580,#581,#582);
#580 = CARTESIAN_POINT('',(-0.757663,-0.557663,0.7));
#581 = DIRECTION('',(0.,0.,1.));
#582 = DIRECTION('',(-1.,0.,0.));
#583 = SURFACE_OF_REVOLUTION('',#584,#592);
#584 = B_SPLINE_CURVE_WITH_KNOTS('',6,(#585,#586,#587,#588,#589,#590,
    #591),.UNSPECIFIED.,.F.,.F.,(7,7),(0.,1.570796326795),
  .PIECEWISE_BEZIER_KNOTS.);
#585 = CARTESIAN_POINT('',(-0.9,-0.557663,0.6));
#586 = CARTESIAN_POINT('',(-0.9,-0.557663,0.62617993878));
#587 = CARTESIAN_POINT('',(-0.891777231398,-0.557663,0.652357650071));
#588 = CARTESIAN_POINT('',(-0.875319014964,-0.557663,0.675319014964));
#589 = CARTESIAN_POINT('',(-0.852357650071,-0.557663,0.691777231398));
#590 = CARTESIAN_POINT('',(-0.82617993878,-0.557663,0.7));
#591 = CARTESIAN_POINT('',(-0.8,-0.557663,0.7));
#592 = AXIS1_PLACEMENT('',#593,#594);
#593 = CARTESIAN_POINT('',(-0.757663,-0.557663,0.6));
#594 = DIRECTION('',(0.,0.,1.));
#595 = ADVANCED_FACE('',(#596),#649,.T.);
#596 = FACE_BOUND('',#597,.T.);
#597 = EDGE_LOOP('',(#598,#599,#608,#616,#625,#633,#642,#648));
#598 = ORIENTED_EDGE('',*,*,#434,.T.);
#599 = ORIENTED_EDGE('',*,*,#600,.T.);
#600 = EDGE_CURVE('',#435,#601,#603,.T.);
#601 = VERTEX_POINT('',#602);
#602 = CARTESIAN_POINT('',(0.8,-0.557663,0.7));
#603 = CIRCLE('',#604,4.2337E-02);
#604 = AXIS2_PLACEMENT_3D('',#605,#606,#607);
#605 = CARTESIAN_POINT('',(0.757663,-0.557663,0.7));
#606 = DIRECTION('',(0.,0.,1.));
#607 = DIRECTION('',(0.,-1.,0.));
#608 = ORIENTED_EDGE('',*,*,#609,.T.);
#609 = EDGE_CURVE('',#601,#610,#612,.T.);
#610 = VERTEX_POINT('',#611);
#611 = CARTESIAN_POINT('',(0.8,0.557663,0.7));
#612 = LINE('',#613,#614);
#613 = CARTESIAN_POINT('',(0.8,-0.557663,0.7));
#614 = VECTOR('',#615,1.);
#615 = DIRECTION('',(0.,1.,0.));
#616 = ORIENTED_EDGE('',*,*,#617,.T.);
#617 = EDGE_CURVE('',#610,#618,#620,.T.);
#618 = VERTEX_POINT('',#619);
#619 = CARTESIAN_POINT('',(0.757663,0.6,0.7));
#620 = CIRCLE('',#621,4.2337E-02);
#621 = AXIS2_PLACEMENT_3D('',#622,#623,#624);
#622 = CARTESIAN_POINT('',(0.757663,0.557663,0.7));
#623 = DIRECTION('',(0.,0.,1.));
#624 = DIRECTION('',(1.,0.,-0.));
#625 = ORIENTED_EDGE('',*,*,#626,.T.);
#626 = EDGE_CURVE('',#618,#627,#629,.T.);
#627 = VERTEX_POINT('',#628);
#628 = CARTESIAN_POINT('',(-0.757663,0.6,0.7));
#629 = LINE('',#630,#631);
#630 = CARTESIAN_POINT('',(0.757663,0.6,0.7));
#631 = VECTOR('',#632,1.);
#632 = DIRECTION('',(-1.,0.,0.));
#633 = ORIENTED_EDGE('',*,*,#634,.T.);
#634 = EDGE_CURVE('',#627,#635,#637,.T.);
#635 = VERTEX_POINT('',#636);
#636 = CARTESIAN_POINT('',(-0.8,0.557663,0.7));
#637 = CIRCLE('',#638,4.2337E-02);
#638 = AXIS2_PLACEMENT_3D('',#639,#640,#641);
#639 = CARTESIAN_POINT('',(-0.757663,0.557663,0.7));
#640 = DIRECTION('',(0.,0.,1.));
#641 = DIRECTION('',(0.,1.,-0.));
#642 = ORIENTED_EDGE('',*,*,#643,.T.);
#643 = EDGE_CURVE('',#635,#567,#644,.T.);
#644 = LINE('',#645,#646);
#645 = CARTESIAN_POINT('',(-0.8,0.557663,0.7));
#646 = VECTOR('',#647,1.);
#647 = DIRECTION('',(0.,-1.,0.));
#648 = ORIENTED_EDGE('',*,*,#577,.T.);
#649 = PLANE('',#650);
#650 = AXIS2_PLACEMENT_3D('',#651,#652,#653);
#651 = CARTESIAN_POINT('',(1.242021336539E-17,-3.387330917833E-18,0.7));
#652 = DIRECTION('',(0.,0.,1.));
#653 = DIRECTION('',(1.,0.,0.));
#654 = ADVANCED_FACE('',(#655),#667,.T.);
#655 = FACE_BOUND('',#656,.T.);
#656 = EDGE_LOOP('',(#657,#658,#659,#666));
#657 = ORIENTED_EDGE('',*,*,#442,.F.);
#658 = ORIENTED_EDGE('',*,*,#518,.T.);
#659 = ORIENTED_EDGE('',*,*,#660,.T.);
#660 = EDGE_CURVE('',#519,#601,#661,.T.);
#661 = CIRCLE('',#662,0.1);
#662 = AXIS2_PLACEMENT_3D('',#663,#664,#665);
#663 = CARTESIAN_POINT('',(0.8,-0.557663,0.6));
#664 = DIRECTION('',(-6.123233995737E-17,-1.,0.));
#665 = DIRECTION('',(1.,-6.123233995737E-17,0.));
#666 = ORIENTED_EDGE('',*,*,#600,.F.);
#667 = SURFACE_OF_REVOLUTION('',#668,#676);
#668 = B_SPLINE_CURVE_WITH_KNOTS('',6,(#669,#670,#671,#672,#673,#674,
    #675),.UNSPECIFIED.,.F.,.F.,(7,7),(0.,1.570796326795),
  .PIECEWISE_BEZIER_KNOTS.);
#669 = CARTESIAN_POINT('',(0.757663,-0.7,0.6));
#670 = CARTESIAN_POINT('',(0.757663,-0.7,0.62617993878));
#671 = CARTESIAN_POINT('',(0.757663,-0.691777231398,0.652357650071));
#672 = CARTESIAN_POINT('',(0.757663,-0.675319014964,0.675319014964));
#673 = CARTESIAN_POINT('',(0.757663,-0.652357650071,0.691777231398));
#674 = CARTESIAN_POINT('',(0.757663,-0.62617993878,0.7));
#675 = CARTESIAN_POINT('',(0.757663,-0.6,0.7));
#676 = AXIS1_PLACEMENT('',#677,#678);
#677 = CARTESIAN_POINT('',(0.757663,-0.557663,0.6));
#678 = DIRECTION('',(0.,0.,1.));
#679 = ADVANCED_FACE('',(#680),#698,.F.);
#680 = FACE_BOUND('',#681,.F.);
#681 = EDGE_LOOP('',(#682,#683,#691,#697));
#682 = ORIENTED_EDGE('',*,*,#527,.T.);
#683 = ORIENTED_EDGE('',*,*,#684,.T.);
#684 = EDGE_CURVE('',#519,#685,#687,.T.);
#685 = VERTEX_POINT('',#686);
#686 = CARTESIAN_POINT('',(0.9,0.557663,0.6));
#687 = LINE('',#688,#689);
#688 = CARTESIAN_POINT('',(0.9,-0.557663,0.6));
#689 = VECTOR('',#690,1.);
#690 = DIRECTION('',(0.,1.,0.));
#691 = ORIENTED_EDGE('',*,*,#692,.F.);
#692 = EDGE_CURVE('',#469,#685,#693,.T.);
#693 = LINE('',#694,#695);
#694 = CARTESIAN_POINT('',(0.9,0.557663,0.3));
#695 = VECTOR('',#696,1.);
#696 = DIRECTION('',(0.,0.,1.));
#697 = ORIENTED_EDGE('',*,*,#468,.F.);
#698 = PLANE('',#699);
#699 = AXIS2_PLACEMENT_3D('',#700,#701,#702);
#700 = CARTESIAN_POINT('',(0.9,-0.557663,0.3));
#701 = DIRECTION('',(-1.,0.,0.));
#702 = DIRECTION('',(0.,1.,0.));
#703 = ADVANCED_FACE('',(#704),#723,.T.);
#704 = FACE_BOUND('',#705,.F.);
#705 = EDGE_LOOP('',(#706,#707,#716,#722));
#706 = ORIENTED_EDGE('',*,*,#692,.T.);
#707 = ORIENTED_EDGE('',*,*,#708,.T.);
#708 = EDGE_CURVE('',#685,#709,#711,.T.);
#709 = VERTEX_POINT('',#710);
#710 = CARTESIAN_POINT('',(0.757663,0.7,0.6));
#711 = CIRCLE('',#712,0.142337);
#712 = AXIS2_PLACEMENT_3D('',#713,#714,#715);
#713 = CARTESIAN_POINT('',(0.757663,0.557663,0.6));
#714 = DIRECTION('',(0.,0.,1.));
#715 = DIRECTION('',(1.,0.,-0.));
#716 = ORIENTED_EDGE('',*,*,#717,.F.);
#717 = EDGE_CURVE('',#477,#709,#718,.T.);
#718 = LINE('',#719,#720);
#719 = CARTESIAN_POINT('',(0.757663,0.7,0.3));
#720 = VECTOR('',#721,1.);
#721 = DIRECTION('',(0.,0.,1.));
#722 = ORIENTED_EDGE('',*,*,#476,.F.);
#723 = CYLINDRICAL_SURFACE('',#724,0.142337);
#724 = AXIS2_PLACEMENT_3D('',#725,#726,#727);
#725 = CARTESIAN_POINT('',(0.757663,0.557663,0.3));
#726 = DIRECTION('',(-0.,-0.,-1.));
#727 = DIRECTION('',(1.,0.,0.));
#728 = ADVANCED_FACE('',(#729),#747,.F.);
#729 = FACE_BOUND('',#730,.F.);
#730 = EDGE_LOOP('',(#731,#732,#740,#746));
#731 = ORIENTED_EDGE('',*,*,#717,.T.);
#732 = ORIENTED_EDGE('',*,*,#733,.T.);
#733 = EDGE_CURVE('',#709,#734,#736,.T.);
#734 = VERTEX_POINT('',#735);
#735 = CARTESIAN_POINT('',(-0.757663,0.7,0.6));
#736 = LINE('',#737,#738);
#737 = CARTESIAN_POINT('',(0.757663,0.7,0.6));
#738 = VECTOR('',#739,1.);
#739 = DIRECTION('',(-1.,0.,0.));
#740 = ORIENTED_EDGE('',*,*,#741,.F.);
#741 = EDGE_CURVE('',#486,#734,#742,.T.);
#742 = LINE('',#743,#744);
#743 = CARTESIAN_POINT('',(-0.757663,0.7,0.3));
#744 = VECTOR('',#745,1.);
#745 = DIRECTION('',(0.,0.,1.));
#746 = ORIENTED_EDGE('',*,*,#485,.F.);
#747 = PLANE('',#748);
#748 = AXIS2_PLACEMENT_3D('',#749,#750,#751);
#749 = CARTESIAN_POINT('',(0.757663,0.7,0.3));
#750 = DIRECTION('',(0.,-1.,0.));
#751 = DIRECTION('',(-1.,0.,0.));
#752 = ADVANCED_FACE('',(#753),#765,.T.);
#753 = FACE_BOUND('',#754,.F.);
#754 = EDGE_LOOP('',(#755,#756,#763,#764));
#755 = ORIENTED_EDGE('',*,*,#741,.T.);
#756 = ORIENTED_EDGE('',*,*,#757,.T.);
#757 = EDGE_CURVE('',#734,#543,#758,.T.);
#758 = CIRCLE('',#759,0.142337);
#759 = AXIS2_PLACEMENT_3D('',#760,#761,#762);
#760 = CARTESIAN_POINT('',(-0.757663,0.557663,0.6));
#761 = DIRECTION('',(0.,0.,1.));
#762 = DIRECTION('',(0.,1.,-0.));
#763 = ORIENTED_EDGE('',*,*,#542,.F.);
#764 = ORIENTED_EDGE('',*,*,#493,.F.);
#765 = CYLINDRICAL_SURFACE('',#766,0.142337);
#766 = AXIS2_PLACEMENT_3D('',#767,#768,#769);
#767 = CARTESIAN_POINT('',(-0.757663,0.557663,0.3));
#768 = DIRECTION('',(-0.,-0.,-1.));
#769 = DIRECTION('',(1.,0.,0.));
#770 = ADVANCED_FACE('',(#771),#783,.T.);
#771 = FACE_BOUND('',#772,.F.);
#772 = EDGE_LOOP('',(#773,#780,#781,#782));
#773 = ORIENTED_EDGE('',*,*,#774,.T.);
#774 = EDGE_CURVE('',#543,#635,#775,.T.);
#775 = CIRCLE('',#776,0.1);
#776 = AXIS2_PLACEMENT_3D('',#777,#778,#779);
#777 = CARTESIAN_POINT('',(-0.8,0.557663,0.6));
#778 = DIRECTION('',(6.123233995737E-17,1.,-0.));
#779 = DIRECTION('',(-1.,6.123233995737E-17,0.));
#780 = ORIENTED_EDGE('',*,*,#643,.T.);
#781 = ORIENTED_EDGE('',*,*,#566,.F.);
#782 = ORIENTED_EDGE('',*,*,#550,.F.);
#783 = CYLINDRICAL_SURFACE('',#784,0.1);
#784 = AXIS2_PLACEMENT_3D('',#785,#786,#787);
#785 = CARTESIAN_POINT('',(-0.8,0.557663,0.6));
#786 = DIRECTION('',(0.,-1.,0.));
#787 = DIRECTION('',(-1.,-0.,0.));
#788 = ADVANCED_FACE('',(#789),#801,.T.);
#789 = FACE_BOUND('',#790,.F.);
#790 = EDGE_LOOP('',(#791,#792,#793,#800));
#791 = ORIENTED_EDGE('',*,*,#660,.T.);
#792 = ORIENTED_EDGE('',*,*,#609,.T.);
#793 = ORIENTED_EDGE('',*,*,#794,.F.);
#794 = EDGE_CURVE('',#685,#610,#795,.T.);
#795 = CIRCLE('',#796,0.1);
#796 = AXIS2_PLACEMENT_3D('',#797,#798,#799);
#797 = CARTESIAN_POINT('',(0.8,0.557663,0.6));
#798 = DIRECTION('',(0.,-1.,-0.));
#799 = DIRECTION('',(1.,0.,-0.));
#800 = ORIENTED_EDGE('',*,*,#684,.F.);
#801 = CYLINDRICAL_SURFACE('',#802,0.1);
#802 = AXIS2_PLACEMENT_3D('',#803,#804,#805);
#803 = CARTESIAN_POINT('',(0.8,-0.557663,0.6));
#804 = DIRECTION('',(0.,1.,0.));
#805 = DIRECTION('',(1.,0.,-0.));
#806 = ADVANCED_FACE('',(#807),#819,.T.);
#807 = FACE_BOUND('',#808,.T.);
#808 = EDGE_LOOP('',(#809,#816,#817,#818));
#809 = ORIENTED_EDGE('',*,*,#810,.F.);
#810 = EDGE_CURVE('',#734,#627,#811,.T.);
#811 = CIRCLE('',#812,0.1);
#812 = AXIS2_PLACEMENT_3D('',#813,#814,#815);
#813 = CARTESIAN_POINT('',(-0.757663,0.6,0.6));
#814 = DIRECTION('',(1.,0.,-0.));
#815 = DIRECTION('',(0.,1.,0.));
#816 = ORIENTED_EDGE('',*,*,#757,.T.);
#817 = ORIENTED_EDGE('',*,*,#774,.T.);
#818 = ORIENTED_EDGE('',*,*,#634,.F.);
#819 = SURFACE_OF_REVOLUTION('',#820,#828);
#820 = B_SPLINE_CURVE_WITH_KNOTS('',6,(#821,#822,#823,#824,#825,#826,
    #827),.UNSPECIFIED.,.F.,.F.,(7,7),(0.,1.570796326795),
  .PIECEWISE_BEZIER_KNOTS.);
#821 = CARTESIAN_POINT('',(-0.757663,0.7,0.6));
#822 = CARTESIAN_POINT('',(-0.757663,0.7,0.62617993878));
#823 = CARTESIAN_POINT('',(-0.757663,0.691777231398,0.652357650071));
#824 = CARTESIAN_POINT('',(-0.757663,0.675319014964,0.675319014964));
#825 = CARTESIAN_POINT('',(-0.757663,0.652357650071,0.691777231398));
#826 = CARTESIAN_POINT('',(-0.757663,0.62617993878,0.7));
#827 = CARTESIAN_POINT('',(-0.757663,0.6,0.7));
#828 = AXIS1_PLACEMENT('',#829,#830);
#829 = CARTESIAN_POINT('',(-0.757663,0.557663,0.6));
#830 = DIRECTION('',(0.,0.,1.));
#831 = ADVANCED_FACE('',(#832),#844,.T.);
#832 = FACE_BOUND('',#833,.T.);
#833 = EDGE_LOOP('',(#834,#835,#836,#843));
#834 = ORIENTED_EDGE('',*,*,#794,.F.);
#835 = ORIENTED_EDGE('',*,*,#708,.T.);
#836 = ORIENTED_EDGE('',*,*,#837,.T.);
#837 = EDGE_CURVE('',#709,#618,#838,.T.);
#838 = CIRCLE('',#839,0.1);
#839 = AXIS2_PLACEMENT_3D('',#840,#841,#842);
#840 = CARTESIAN_POINT('',(0.757663,0.6,0.6));
#841 = DIRECTION('',(1.,-6.123233995737E-17,0.));
#842 = DIRECTION('',(6.123233995737E-17,1.,0.));
#843 = ORIENTED_EDGE('',*,*,#617,.F.);
#844 = SURFACE_OF_REVOLUTION('',#845,#853);
#845 = B_SPLINE_CURVE_WITH_KNOTS('',6,(#846,#847,#848,#849,#850,#851,
    #852),.UNSPECIFIED.,.F.,.F.,(7,7),(0.,1.570796326795),
  .PIECEWISE_BEZIER_KNOTS.);
#846 = CARTESIAN_POINT('',(0.9,0.557663,0.6));
#847 = CARTESIAN_POINT('',(0.9,0.557663,0.62617993878));
#848 = CARTESIAN_POINT('',(0.891777231398,0.557663,0.652357650071));
#849 = CARTESIAN_POINT('',(0.875319014964,0.557663,0.675319014964));
#850 = CARTESIAN_POINT('',(0.852357650071,0.557663,0.691777231398));
#851 = CARTESIAN_POINT('',(0.82617993878,0.557663,0.7));
#852 = CARTESIAN_POINT('',(0.8,0.557663,0.7));
#853 = AXIS1_PLACEMENT('',#854,#855);
#854 = CARTESIAN_POINT('',(0.757663,0.557663,0.6));
#855 = DIRECTION('',(0.,0.,1.));
#856 = ADVANCED_FACE('',(#857),#863,.T.);
#857 = FACE_BOUND('',#858,.F.);
#858 = EDGE_LOOP('',(#859,#860,#861,#862));
#859 = ORIENTED_EDGE('',*,*,#837,.T.);
#860 = ORIENTED_EDGE('',*,*,#626,.T.);
#861 = ORIENTED_EDGE('',*,*,#810,.F.);
#862 = ORIENTED_EDGE('',*,*,#733,.F.);
#863 = CYLINDRICAL_SURFACE('',#864,0.1);
#864 = AXIS2_PLACEMENT_3D('',#865,#866,#867);
#865 = CARTESIAN_POINT('',(0.757663,0.6,0.6));
#866 = DIRECTION('',(-1.,0.,0.));
#867 = DIRECTION('',(0.,1.,-0.));
#868 = ( GEOMETRIC_REPRESENTATION_CONTEXT(3) 
GLOBAL_UNCERTAINTY_ASSIGNED_CONTEXT((#872)) GLOBAL_UNIT_ASSIGNED_CONTEXT
((#869,#870,#871)) REPRESENTATION_CONTEXT('Context #1',
  '3D Context with UNIT and UNCERTAINTY') );
#869 = ( LENGTH_UNIT() NAMED_UNIT(*) SI_UNIT(.MILLI.,.METRE.) );
#870 = ( NAMED_UNIT(*) PLANE_ANGLE_UNIT() SI_UNIT($,.RADIAN.) );
#871 = ( NAMED_UNIT(*) SI_UNIT($,.STERADIAN.) SOLID_ANGLE_UNIT() );
#872 = UNCERTAINTY_MEASURE_WITH_UNIT(LENGTH_MEASURE(1.E-07),#869,
  'distance_accuracy_value','confusion accuracy');
#873 = CONTEXT_DEPENDENT_SHAPE_REPRESENTATION(#874,#876);
#874 = ( REPRESENTATION_RELATIONSHIP('','',#345,#10) 
REPRESENTATION_RELATIONSHIP_WITH_TRANSFORMATION(#875) 
SHAPE_REPRESENTATION_RELATIONSHIP() );
#875 = ITEM_DEFINED_TRANSFORMATION('','',#11,#19);
#876 = PRODUCT_DEFINITION_SHAPE('Placement','Placement of an item',#877
  );
#877 = NEXT_ASSEMBLY_USAGE_OCCURRENCE('4','Fillet','',#5,#340,$);
#878 = PRODUCT_RELATED_PRODUCT_CATEGORY('part',$,(#342));
#879 = MECHANICAL_DESIGN_GEOMETRIC_PRESENTATION_REPRESENTATION('',(#880)
  ,#868);
#880 = STYLED_ITEM('color',(#881),#346);
#881 = PRESENTATION_STYLE_ASSIGNMENT((#882,#888));
#882 = SURFACE_STYLE_USAGE(.BOTH.,#883);
#883 = SURFACE_SIDE_STYLE('',(#884));
#884 = SURFACE_STYLE_FILL_AREA(#885);
#885 = FILL_AREA_STYLE('',(#886));
#886 = FILL_AREA_STYLE_COLOUR('',#887);
#887 = COLOUR_RGB('',0.678431390124,0.709803936702,0.741176476869);
#888 = CURVE_STYLE('',#889,POSITIVE_LENGTH_MEASURE(0.1),#890);
#889 = DRAUGHTING_PRE_DEFINED_CURVE_FONT('continuous');
#890 = COLOUR_RGB('',9.803921802644E-02,9.803921802644E-02,
  9.803921802644E-02);
#891 = MECHANICAL_DESIGN_GEOMETRIC_PRESENTATION_REPRESENTATION('',(#892)
  ,#327);
#892 = STYLED_ITEM('color',(#893),#37);
#893 = PRESENTATION_STYLE_ASSIGNMENT((#894,#900));
#894 = SURFACE_STYLE_USAGE(.BOTH.,#895);
#895 = SURFACE_SIDE_STYLE('',(#896));
#896 = SURFACE_STYLE_FILL_AREA(#897);
#897 = FILL_AREA_STYLE('',(#898));
#898 = FILL_AREA_STYLE_COLOUR('',#899);
#899 = COLOUR_RGB('',0.243137258719,0.254901970902,0.266666683833);
#900 = CURVE_STYLE('',#901,POSITIVE_LENGTH_MEASURE(0.1),#890);
#901 = DRAUGHTING_PRE_DEFINED_CURVE_FONT('continuous');
ENDSEC;
END-ISO-10303-21;
