ISO-10303-21;
HEADER;
FILE_DESCRIPTION(('FreeCAD Model'),'2;1');
FILE_NAME('Open CASCADE Shape Model','2026-08-17T18:04:36',(''),(''),
  'Open CASCADE STEP processor 7.8','FreeCAD','Unknown');
FILE_SCHEMA(('AUTOMOTIVE_DESIGN { 1 0 10303 214 1 1 1 1 }'));
ENDSEC;
DATA;
#1 = APPLICATION_PROTOCOL_DEFINITION('international standard',
  'automotive_design',2000,#2);
#2 = APPLICATION_CONTEXT(
  'core data for automotive mechanical design processes');
#3 = SHAPE_DEFINITION_REPRESENTATION(#4,#10);
#4 = PRODUCT_DEFINITION_SHAPE('','',#5);
#5 = PRODUCT_DEFINITION('design','',#6,#9);
#6 = PRODUCT_DEFINITION_FORMATION('','',#7);
#7 = PRODUCT('Unnamed','Unnamed','',(#8));
#8 = PRODUCT_CONTEXT('',#2,'mechanical');
#9 = PRODUCT_DEFINITION_CONTEXT('part definition',#2,'design');
#10 = SHAPE_REPRESENTATION('',(#11,#15,#19,#23,#27,#31,#35),#39);
#11 = AXIS2_PLACEMENT_3D('',#12,#13,#14);
#12 = CARTESIAN_POINT('',(0.,0.,0.));
#13 = DIRECTION('',(0.,0.,1.));
#14 = DIRECTION('',(1.,0.,-0.));
#15 = AXIS2_PLACEMENT_3D('',#16,#17,#18);
#16 = CARTESIAN_POINT('',(0.,0.,0.));
#17 = DIRECTION('',(0.,0.,1.));
#18 = DIRECTION('',(1.,0.,0.));
#19 = AXIS2_PLACEMENT_3D('',#20,#21,#22);
#20 = CARTESIAN_POINT('',(0.,0.,0.));
#21 = DIRECTION('',(0.,0.,1.));
#22 = DIRECTION('',(1.,0.,0.));
#23 = AXIS2_PLACEMENT_3D('',#24,#25,#26);
#24 = CARTESIAN_POINT('',(0.,0.,0.));
#25 = DIRECTION('',(0.,0.,1.));
#26 = DIRECTION('',(1.,0.,0.));
#27 = AXIS2_PLACEMENT_3D('',#28,#29,#30);
#28 = CARTESIAN_POINT('',(0.,0.,0.));
#29 = DIRECTION('',(0.,0.,1.));
#30 = DIRECTION('',(1.,0.,0.));
#31 = AXIS2_PLACEMENT_3D('',#32,#33,#34);
#32 = CARTESIAN_POINT('',(0.,-2.5,0.));
#33 = DIRECTION('',(0.,0.,1.));
#34 = DIRECTION('',(1.,0.,0.));
#35 = AXIS2_PLACEMENT_3D('',#36,#37,#38);
#36 = CARTESIAN_POINT('',(0.,2.5,0.));
#37 = DIRECTION('',(0.,0.,1.));
#38 = DIRECTION('',(1.,0.,0.));
#39 = ( GEOMETRIC_REPRESENTATION_CONTEXT(3) 
GLOBAL_UNCERTAINTY_ASSIGNED_CONTEXT((#43)) GLOBAL_UNIT_ASSIGNED_CONTEXT(
(#40,#41,#42)) REPRESENTATION_CONTEXT('Context #1',
  '3D Context with UNIT and UNCERTAINTY') );
#40 = ( LENGTH_UNIT() NAMED_UNIT(*) SI_UNIT(.MILLI.,.METRE.) );
#41 = ( NAMED_UNIT(*) PLANE_ANGLE_UNIT() SI_UNIT($,.RADIAN.) );
#42 = ( NAMED_UNIT(*) SI_UNIT($,.STERADIAN.) SOLID_ANGLE_UNIT() );
#43 = UNCERTAINTY_MEASURE_WITH_UNIT(LENGTH_MEASURE(2.E-07),#40,
  'distance_accuracy_value','confusion accuracy');
#44 = PRODUCT_RELATED_PRODUCT_CATEGORY('part',$,(#7));
#45 = SHAPE_DEFINITION_REPRESENTATION(#46,#52);
#46 = PRODUCT_DEFINITION_SHAPE('','',#47);
#47 = PRODUCT_DEFINITION('design','',#48,#51);
#48 = PRODUCT_DEFINITION_FORMATION('','',#49);
#49 = PRODUCT('Fillet002','Fillet002','',(#50));
#50 = PRODUCT_CONTEXT('',#2,'mechanical');
#51 = PRODUCT_DEFINITION_CONTEXT('part definition',#2,'design');
#52 = SHAPE_REPRESENTATION('',(#11,#53,#273),#493);
#53 = MANIFOLD_SOLID_BREP('',#54);
#54 = CLOSED_SHELL('',(#55,#95,#144,#169,#193,#227,#244,#261));
#55 = ADVANCED_FACE('',(#56),#90,.T.);
#56 = FACE_BOUND('',#57,.T.);
#57 = EDGE_LOOP('',(#58,#68,#76,#84));
#58 = ORIENTED_EDGE('',*,*,#59,.F.);
#59 = EDGE_CURVE('',#60,#62,#64,.T.);
#60 = VERTEX_POINT('',#61);
#61 = CARTESIAN_POINT('',(-8.848363,-6.15,5.));
#62 = VERTEX_POINT('',#63);
#63 = CARTESIAN_POINT('',(-8.848363,-4.95,5.));
#64 = LINE('',#65,#66);
#65 = CARTESIAN_POINT('',(-8.848363,-6.65,5.));
#66 = VECTOR('',#67,1.);
#67 = DIRECTION('',(0.,1.,0.));
#68 = ORIENTED_EDGE('',*,*,#69,.T.);
#69 = EDGE_CURVE('',#60,#70,#72,.T.);
#70 = VERTEX_POINT('',#71);
#71 = CARTESIAN_POINT('',(-8.848363000001,-6.15,2.));
#72 = LINE('',#73,#74);
#73 = CARTESIAN_POINT('',(-8.848363,-6.15,5.));
#74 = VECTOR('',#75,1.);
#75 = DIRECTION('',(-1.29407387031E-13,-0.,-1.));
#76 = ORIENTED_EDGE('',*,*,#77,.T.);
#77 = EDGE_CURVE('',#70,#78,#80,.T.);
#78 = VERTEX_POINT('',#79);
#79 = CARTESIAN_POINT('',(-8.848363000001,-4.95,2.));
#80 = LINE('',#81,#82);
#81 = CARTESIAN_POINT('',(-8.848363000001,-6.65,2.));
#82 = VECTOR('',#83,1.);
#83 = DIRECTION('',(0.,1.,0.));
#84 = ORIENTED_EDGE('',*,*,#85,.F.);
#85 = EDGE_CURVE('',#62,#78,#86,.T.);
#86 = LINE('',#87,#88);
#87 = CARTESIAN_POINT('',(-8.848363,-4.95,5.));
#88 = VECTOR('',#89,1.);
#89 = DIRECTION('',(-1.29407387031E-13,-0.,-1.));
#90 = PLANE('',#91);
#91 = AXIS2_PLACEMENT_3D('',#92,#93,#94);
#92 = CARTESIAN_POINT('',(-8.848363,-6.65,5.));
#93 = DIRECTION('',(1.,0.,-1.29407387031E-13));
#94 = DIRECTION('',(0.,1.,0.));
#95 = ADVANCED_FACE('',(#96),#139,.T.);
#96 = FACE_BOUND('',#97,.T.);
#97 = EDGE_LOOP('',(#98,#99,#107,#115,#124,#132));
#98 = ORIENTED_EDGE('',*,*,#59,.T.);
#99 = ORIENTED_EDGE('',*,*,#100,.T.);
#100 = EDGE_CURVE('',#62,#101,#103,.T.);
#101 = VERTEX_POINT('',#102);
#102 = CARTESIAN_POINT('',(-11.151637,-4.95,5.));
#103 = LINE('',#104,#105);
#104 = CARTESIAN_POINT('',(-8.848363,-4.95,5.));
#105 = VECTOR('',#106,1.);
#106 = DIRECTION('',(-1.,0.,1.29407387031E-13));
#107 = ORIENTED_EDGE('',*,*,#108,.T.);
#108 = EDGE_CURVE('',#101,#109,#111,.T.);
#109 = VERTEX_POINT('',#110);
#110 = CARTESIAN_POINT('',(-11.151637,-6.15,5.));
#111 = LINE('',#112,#113);
#112 = CARTESIAN_POINT('',(-11.151637,-4.95,5.));
#113 = VECTOR('',#114,1.);
#114 = DIRECTION('',(0.,-1.,0.));
#115 = ORIENTED_EDGE('',*,*,#116,.T.);
#116 = EDGE_CURVE('',#109,#117,#119,.T.);
#117 = VERTEX_POINT('',#118);
#118 = CARTESIAN_POINT('',(-10.651637,-6.65,5.));
#119 = CIRCLE('',#120,0.5);
#120 = AXIS2_PLACEMENT_3D('',#121,#122,#123);
#121 = CARTESIAN_POINT('',(-10.651637,-6.15,5.));
#122 = DIRECTION('',(1.29407387031E-13,0.,1.));
#123 = DIRECTION('',(1.,0.,-1.29407387031E-13));
#124 = ORIENTED_EDGE('',*,*,#125,.T.);
#125 = EDGE_CURVE('',#117,#126,#128,.T.);
#126 = VERTEX_POINT('',#127);
#127 = CARTESIAN_POINT('',(-9.348363,-6.65,5.));
#128 = LINE('',#129,#130);
#129 = CARTESIAN_POINT('',(-11.151637,-6.65,5.));
#130 = VECTOR('',#131,1.);
#131 = DIRECTION('',(1.,0.,-1.29407387031E-13));
#132 = ORIENTED_EDGE('',*,*,#133,.F.);
#133 = EDGE_CURVE('',#60,#126,#134,.T.);
#134 = CIRCLE('',#135,0.5);
#135 = AXIS2_PLACEMENT_3D('',#136,#137,#138);
#136 = CARTESIAN_POINT('',(-9.348363,-6.15,5.));
#137 = DIRECTION('',(-1.29407387031E-13,-0.,-1.));
#138 = DIRECTION('',(1.,0.,-1.29407387031E-13));
#139 = PLANE('',#140);
#140 = AXIS2_PLACEMENT_3D('',#141,#142,#143);
#141 = CARTESIAN_POINT('',(-10.,8.197838221396E-14,5.));
#142 = DIRECTION('',(1.295668465928E-13,0.,1.));
#143 = DIRECTION('',(1.,0.,-1.295668465928E-13));
#144 = ADVANCED_FACE('',(#145),#164,.T.);
#145 = FACE_BOUND('',#146,.T.);
#146 = EDGE_LOOP('',(#147,#148,#156,#163));
#147 = ORIENTED_EDGE('',*,*,#133,.T.);
#148 = ORIENTED_EDGE('',*,*,#149,.T.);
#149 = EDGE_CURVE('',#126,#150,#152,.T.);
#150 = VERTEX_POINT('',#151);
#151 = CARTESIAN_POINT('',(-9.348363000001,-6.65,2.));
#152 = LINE('',#153,#154);
#153 = CARTESIAN_POINT('',(-9.348363,-6.65,5.));
#154 = VECTOR('',#155,1.);
#155 = DIRECTION('',(-1.29407387031E-13,-0.,-1.));
#156 = ORIENTED_EDGE('',*,*,#157,.F.);
#157 = EDGE_CURVE('',#70,#150,#158,.T.);
#158 = CIRCLE('',#159,0.5);
#159 = AXIS2_PLACEMENT_3D('',#160,#161,#162);
#160 = CARTESIAN_POINT('',(-9.348363000001,-6.15,2.));
#161 = DIRECTION('',(-1.29407387031E-13,-0.,-1.));
#162 = DIRECTION('',(1.,0.,-1.29407387031E-13));
#163 = ORIENTED_EDGE('',*,*,#69,.F.);
#164 = CYLINDRICAL_SURFACE('',#165,0.5);
#165 = AXIS2_PLACEMENT_3D('',#166,#167,#168);
#166 = CARTESIAN_POINT('',(-9.348363,-6.15,5.));
#167 = DIRECTION('',(-1.29407387031E-13,-0.,-1.));
#168 = DIRECTION('',(1.,0.,-1.29407387031E-13));
#169 = ADVANCED_FACE('',(#170),#188,.T.);
#170 = FACE_BOUND('',#171,.T.);
#171 = EDGE_LOOP('',(#172,#173,#181,#187));
#172 = ORIENTED_EDGE('',*,*,#85,.T.);
#173 = ORIENTED_EDGE('',*,*,#174,.T.);
#174 = EDGE_CURVE('',#78,#175,#177,.T.);
#175 = VERTEX_POINT('',#176);
#176 = CARTESIAN_POINT('',(-11.151637,-4.95,2.));
#177 = LINE('',#178,#179);
#178 = CARTESIAN_POINT('',(-8.848363000001,-4.95,2.));
#179 = VECTOR('',#180,1.);
#180 = DIRECTION('',(-1.,0.,1.29407387031E-13));
#181 = ORIENTED_EDGE('',*,*,#182,.F.);
#182 = EDGE_CURVE('',#101,#175,#183,.T.);
#183 = LINE('',#184,#185);
#184 = CARTESIAN_POINT('',(-11.151637,-4.95,5.));
#185 = VECTOR('',#186,1.);
#186 = DIRECTION('',(-1.29407387031E-13,-0.,-1.));
#187 = ORIENTED_EDGE('',*,*,#100,.F.);
#188 = PLANE('',#189);
#189 = AXIS2_PLACEMENT_3D('',#190,#191,#192);
#190 = CARTESIAN_POINT('',(-8.848363,-4.95,5.));
#191 = DIRECTION('',(0.,1.,0.));
#192 = DIRECTION('',(-1.,0.,1.29407387031E-13));
#193 = ADVANCED_FACE('',(#194),#222,.F.);
#194 = FACE_BOUND('',#195,.F.);
#195 = EDGE_LOOP('',(#196,#197,#198,#206,#215,#221));
#196 = ORIENTED_EDGE('',*,*,#77,.T.);
#197 = ORIENTED_EDGE('',*,*,#174,.T.);
#198 = ORIENTED_EDGE('',*,*,#199,.T.);
#199 = EDGE_CURVE('',#175,#200,#202,.T.);
#200 = VERTEX_POINT('',#201);
#201 = CARTESIAN_POINT('',(-11.151637,-6.15,2.));
#202 = LINE('',#203,#204);
#203 = CARTESIAN_POINT('',(-11.151637,-4.95,2.));
#204 = VECTOR('',#205,1.);
#205 = DIRECTION('',(0.,-1.,0.));
#206 = ORIENTED_EDGE('',*,*,#207,.T.);
#207 = EDGE_CURVE('',#200,#208,#210,.T.);
#208 = VERTEX_POINT('',#209);
#209 = CARTESIAN_POINT('',(-10.651637,-6.65,2.));
#210 = CIRCLE('',#211,0.5);
#211 = AXIS2_PLACEMENT_3D('',#212,#213,#214);
#212 = CARTESIAN_POINT('',(-10.651637,-6.15,2.));
#213 = DIRECTION('',(1.29407387031E-13,0.,1.));
#214 = DIRECTION('',(1.,0.,-1.29407387031E-13));
#215 = ORIENTED_EDGE('',*,*,#216,.T.);
#216 = EDGE_CURVE('',#208,#150,#217,.T.);
#217 = LINE('',#218,#219);
#218 = CARTESIAN_POINT('',(-11.151637,-6.65,2.));
#219 = VECTOR('',#220,1.);
#220 = DIRECTION('',(1.,0.,-1.29407387031E-13));
#221 = ORIENTED_EDGE('',*,*,#157,.F.);
#222 = PLANE('',#223);
#223 = AXIS2_PLACEMENT_3D('',#224,#225,#226);
#224 = CARTESIAN_POINT('',(-10.,8.197838221396E-14,2.));
#225 = DIRECTION('',(1.295668465928E-13,0.,1.));
#226 = DIRECTION('',(1.,0.,-1.295668465928E-13));
#227 = ADVANCED_FACE('',(#228),#239,.T.);
#228 = FACE_BOUND('',#229,.T.);
#229 = EDGE_LOOP('',(#230,#231,#237,#238));
#230 = ORIENTED_EDGE('',*,*,#125,.F.);
#231 = ORIENTED_EDGE('',*,*,#232,.T.);
#232 = EDGE_CURVE('',#117,#208,#233,.T.);
#233 = LINE('',#234,#235);
#234 = CARTESIAN_POINT('',(-10.651637,-6.65,5.));
#235 = VECTOR('',#236,1.);
#236 = DIRECTION('',(-1.29407387031E-13,-0.,-1.));
#237 = ORIENTED_EDGE('',*,*,#216,.T.);
#238 = ORIENTED_EDGE('',*,*,#149,.F.);
#239 = PLANE('',#240);
#240 = AXIS2_PLACEMENT_3D('',#241,#242,#243);
#241 = CARTESIAN_POINT('',(-11.151637,-6.65,5.));
#242 = DIRECTION('',(0.,-1.,0.));
#243 = DIRECTION('',(1.,0.,-1.29407387031E-13));
#244 = ADVANCED_FACE('',(#245),#256,.T.);
#245 = FACE_BOUND('',#246,.T.);
#246 = EDGE_LOOP('',(#247,#248,#249,#250));
#247 = ORIENTED_EDGE('',*,*,#108,.F.);
#248 = ORIENTED_EDGE('',*,*,#182,.T.);
#249 = ORIENTED_EDGE('',*,*,#199,.T.);
#250 = ORIENTED_EDGE('',*,*,#251,.F.);
#251 = EDGE_CURVE('',#109,#200,#252,.T.);
#252 = LINE('',#253,#254);
#253 = CARTESIAN_POINT('',(-11.151637,-6.15,5.));
#254 = VECTOR('',#255,1.);
#255 = DIRECTION('',(-1.29407387031E-13,-0.,-1.));
#256 = PLANE('',#257);
#257 = AXIS2_PLACEMENT_3D('',#258,#259,#260);
#258 = CARTESIAN_POINT('',(-11.151637,-4.95,5.));
#259 = DIRECTION('',(-1.,0.,1.29407387031E-13));
#260 = DIRECTION('',(0.,-1.,0.));
#261 = ADVANCED_FACE('',(#262),#268,.T.);
#262 = FACE_BOUND('',#263,.F.);
#263 = EDGE_LOOP('',(#264,#265,#266,#267));
#264 = ORIENTED_EDGE('',*,*,#116,.T.);
#265 = ORIENTED_EDGE('',*,*,#232,.T.);
#266 = ORIENTED_EDGE('',*,*,#207,.F.);
#267 = ORIENTED_EDGE('',*,*,#251,.F.);
#268 = CYLINDRICAL_SURFACE('',#269,0.5);
#269 = AXIS2_PLACEMENT_3D('',#270,#271,#272);
#270 = CARTESIAN_POINT('',(-10.651637,-6.15,5.));
#271 = DIRECTION('',(-1.29407387031E-13,-0.,-1.));
#272 = DIRECTION('',(-1.,0.,1.29407387031E-13));
#273 = MANIFOLD_SOLID_BREP('',#274);
#274 = CLOSED_SHELL('',(#275,#315,#364,#389,#413,#447,#464,#481));
#275 = ADVANCED_FACE('',(#276),#310,.T.);
#276 = FACE_BOUND('',#277,.T.);
#277 = EDGE_LOOP('',(#278,#288,#296,#304));
#278 = ORIENTED_EDGE('',*,*,#279,.F.);
#279 = EDGE_CURVE('',#280,#282,#284,.T.);
#280 = VERTEX_POINT('',#281);
#281 = CARTESIAN_POINT('',(-11.151637,6.15,5.));
#282 = VERTEX_POINT('',#283);
#283 = CARTESIAN_POINT('',(-11.151637,4.95,5.));
#284 = LINE('',#285,#286);
#285 = CARTESIAN_POINT('',(-11.151637,6.65,5.));
#286 = VECTOR('',#287,1.);
#287 = DIRECTION('',(0.,-1.,0.));
#288 = ORIENTED_EDGE('',*,*,#289,.T.);
#289 = EDGE_CURVE('',#280,#290,#292,.T.);
#290 = VERTEX_POINT('',#291);
#291 = CARTESIAN_POINT('',(-11.151637,6.15,2.));
#292 = LINE('',#293,#294);
#293 = CARTESIAN_POINT('',(-11.151637,6.15,5.));
#294 = VECTOR('',#295,1.);
#295 = DIRECTION('',(-1.29407387031E-13,-0.,-1.));
#296 = ORIENTED_EDGE('',*,*,#297,.T.);
#297 = EDGE_CURVE('',#290,#298,#300,.T.);
#298 = VERTEX_POINT('',#299);
#299 = CARTESIAN_POINT('',(-11.151637,4.95,2.));
#300 = LINE('',#301,#302);
#301 = CARTESIAN_POINT('',(-11.151637,6.65,2.));
#302 = VECTOR('',#303,1.);
#303 = DIRECTION('',(0.,-1.,0.));
#304 = ORIENTED_EDGE('',*,*,#305,.F.);
#305 = EDGE_CURVE('',#282,#298,#306,.T.);
#306 = LINE('',#307,#308);
#307 = CARTESIAN_POINT('',(-11.151637,4.95,5.));
#308 = VECTOR('',#309,1.);
#309 = DIRECTION('',(-1.29407387031E-13,-0.,-1.));
#310 = PLANE('',#311);
#311 = AXIS2_PLACEMENT_3D('',#312,#313,#314);
#312 = CARTESIAN_POINT('',(-11.151637,6.65,5.));
#313 = DIRECTION('',(-1.,0.,1.29407387031E-13));
#314 = DIRECTION('',(0.,-1.,0.));
#315 = ADVANCED_FACE('',(#316),#359,.T.);
#316 = FACE_BOUND('',#317,.T.);
#317 = EDGE_LOOP('',(#318,#319,#327,#335,#344,#352));
#318 = ORIENTED_EDGE('',*,*,#279,.T.);
#319 = ORIENTED_EDGE('',*,*,#320,.T.);
#320 = EDGE_CURVE('',#282,#321,#323,.T.);
#321 = VERTEX_POINT('',#322);
#322 = CARTESIAN_POINT('',(-8.848363,4.95,5.));
#323 = LINE('',#324,#325);
#324 = CARTESIAN_POINT('',(-11.151637,4.95,5.));
#325 = VECTOR('',#326,1.);
#326 = DIRECTION('',(1.,0.,-1.29407387031E-13));
#327 = ORIENTED_EDGE('',*,*,#328,.T.);
#328 = EDGE_CURVE('',#321,#329,#331,.T.);
#329 = VERTEX_POINT('',#330);
#330 = CARTESIAN_POINT('',(-8.848363,6.15,5.));
#331 = LINE('',#332,#333);
#332 = CARTESIAN_POINT('',(-8.848363,4.95,5.));
#333 = VECTOR('',#334,1.);
#334 = DIRECTION('',(0.,1.,0.));
#335 = ORIENTED_EDGE('',*,*,#336,.T.);
#336 = EDGE_CURVE('',#329,#337,#339,.T.);
#337 = VERTEX_POINT('',#338);
#338 = CARTESIAN_POINT('',(-9.348363,6.65,5.));
#339 = CIRCLE('',#340,0.5);
#340 = AXIS2_PLACEMENT_3D('',#341,#342,#343);
#341 = CARTESIAN_POINT('',(-9.348363,6.15,5.));
#342 = DIRECTION('',(1.29407387031E-13,0.,1.));
#343 = DIRECTION('',(1.,0.,-1.29407387031E-13));
#344 = ORIENTED_EDGE('',*,*,#345,.T.);
#345 = EDGE_CURVE('',#337,#346,#348,.T.);
#346 = VERTEX_POINT('',#347);
#347 = CARTESIAN_POINT('',(-10.651637,6.65,5.));
#348 = LINE('',#349,#350);
#349 = CARTESIAN_POINT('',(-8.848363,6.65,5.));
#350 = VECTOR('',#351,1.);
#351 = DIRECTION('',(-1.,0.,1.29407387031E-13));
#352 = ORIENTED_EDGE('',*,*,#353,.F.);
#353 = EDGE_CURVE('',#280,#346,#354,.T.);
#354 = CIRCLE('',#355,0.5);
#355 = AXIS2_PLACEMENT_3D('',#356,#357,#358);
#356 = CARTESIAN_POINT('',(-10.651637,6.15,5.));
#357 = DIRECTION('',(-1.29407387031E-13,-0.,-1.));
#358 = DIRECTION('',(1.,0.,-1.29407387031E-13));
#359 = PLANE('',#360);
#360 = AXIS2_PLACEMENT_3D('',#361,#362,#363);
#361 = CARTESIAN_POINT('',(-10.,8.197838221396E-14,5.));
#362 = DIRECTION('',(1.295668465928E-13,0.,1.));
#363 = DIRECTION('',(1.,0.,-1.295668465928E-13));
#364 = ADVANCED_FACE('',(#365),#384,.T.);
#365 = FACE_BOUND('',#366,.T.);
#366 = EDGE_LOOP('',(#367,#368,#376,#383));
#367 = ORIENTED_EDGE('',*,*,#353,.T.);
#368 = ORIENTED_EDGE('',*,*,#369,.T.);
#369 = EDGE_CURVE('',#346,#370,#372,.T.);
#370 = VERTEX_POINT('',#371);
#371 = CARTESIAN_POINT('',(-10.651637,6.65,2.));
#372 = LINE('',#373,#374);
#373 = CARTESIAN_POINT('',(-10.651637,6.65,5.));
#374 = VECTOR('',#375,1.);
#375 = DIRECTION('',(-1.29407387031E-13,-0.,-1.));
#376 = ORIENTED_EDGE('',*,*,#377,.F.);
#377 = EDGE_CURVE('',#290,#370,#378,.T.);
#378 = CIRCLE('',#379,0.5);
#379 = AXIS2_PLACEMENT_3D('',#380,#381,#382);
#380 = CARTESIAN_POINT('',(-10.651637,6.15,2.));
#381 = DIRECTION('',(-1.29407387031E-13,-0.,-1.));
#382 = DIRECTION('',(1.,0.,-1.29407387031E-13));
#383 = ORIENTED_EDGE('',*,*,#289,.F.);
#384 = CYLINDRICAL_SURFACE('',#385,0.5);
#385 = AXIS2_PLACEMENT_3D('',#386,#387,#388);
#386 = CARTESIAN_POINT('',(-10.651637,6.15,5.));
#387 = DIRECTION('',(-1.29407387031E-13,-0.,-1.));
#388 = DIRECTION('',(-1.,0.,1.29407387031E-13));
#389 = ADVANCED_FACE('',(#390),#408,.T.);
#390 = FACE_BOUND('',#391,.T.);
#391 = EDGE_LOOP('',(#392,#393,#401,#407));
#392 = ORIENTED_EDGE('',*,*,#305,.T.);
#393 = ORIENTED_EDGE('',*,*,#394,.T.);
#394 = EDGE_CURVE('',#298,#395,#397,.T.);
#395 = VERTEX_POINT('',#396);
#396 = CARTESIAN_POINT('',(-8.848363000001,4.95,2.));
#397 = LINE('',#398,#399);
#398 = CARTESIAN_POINT('',(-11.151637,4.95,2.));
#399 = VECTOR('',#400,1.);
#400 = DIRECTION('',(1.,0.,-1.29407387031E-13));
#401 = ORIENTED_EDGE('',*,*,#402,.F.);
#402 = EDGE_CURVE('',#321,#395,#403,.T.);
#403 = LINE('',#404,#405);
#404 = CARTESIAN_POINT('',(-8.848363,4.95,5.));
#405 = VECTOR('',#406,1.);
#406 = DIRECTION('',(-1.29407387031E-13,-0.,-1.));
#407 = ORIENTED_EDGE('',*,*,#320,.F.);
#408 = PLANE('',#409);
#409 = AXIS2_PLACEMENT_3D('',#410,#411,#412);
#410 = CARTESIAN_POINT('',(-11.151637,4.95,5.));
#411 = DIRECTION('',(0.,-1.,0.));
#412 = DIRECTION('',(1.,0.,-1.29407387031E-13));
#413 = ADVANCED_FACE('',(#414),#442,.F.);
#414 = FACE_BOUND('',#415,.F.);
#415 = EDGE_LOOP('',(#416,#417,#418,#426,#435,#441));
#416 = ORIENTED_EDGE('',*,*,#297,.T.);
#417 = ORIENTED_EDGE('',*,*,#394,.T.);
#418 = ORIENTED_EDGE('',*,*,#419,.T.);
#419 = EDGE_CURVE('',#395,#420,#422,.T.);
#420 = VERTEX_POINT('',#421);
#421 = CARTESIAN_POINT('',(-8.848363000001,6.15,2.));
#422 = LINE('',#423,#424);
#423 = CARTESIAN_POINT('',(-8.848363000001,4.95,2.));
#424 = VECTOR('',#425,1.);
#425 = DIRECTION('',(0.,1.,0.));
#426 = ORIENTED_EDGE('',*,*,#427,.T.);
#427 = EDGE_CURVE('',#420,#428,#430,.T.);
#428 = VERTEX_POINT('',#429);
#429 = CARTESIAN_POINT('',(-9.348363000001,6.65,2.));
#430 = CIRCLE('',#431,0.5);
#431 = AXIS2_PLACEMENT_3D('',#432,#433,#434);
#432 = CARTESIAN_POINT('',(-9.348363000001,6.15,2.));
#433 = DIRECTION('',(1.29407387031E-13,0.,1.));
#434 = DIRECTION('',(1.,0.,-1.29407387031E-13));
#435 = ORIENTED_EDGE('',*,*,#436,.T.);
#436 = EDGE_CURVE('',#428,#370,#437,.T.);
#437 = LINE('',#438,#439);
#438 = CARTESIAN_POINT('',(-8.848363000001,6.65,2.));
#439 = VECTOR('',#440,1.);
#440 = DIRECTION('',(-1.,0.,1.29407387031E-13));
#441 = ORIENTED_EDGE('',*,*,#377,.F.);
#442 = PLANE('',#443);
#443 = AXIS2_PLACEMENT_3D('',#444,#445,#446);
#444 = CARTESIAN_POINT('',(-10.,8.197838221396E-14,2.));
#445 = DIRECTION('',(1.295668465928E-13,0.,1.));
#446 = DIRECTION('',(1.,0.,-1.295668465928E-13));
#447 = ADVANCED_FACE('',(#448),#459,.T.);
#448 = FACE_BOUND('',#449,.T.);
#449 = EDGE_LOOP('',(#450,#451,#457,#458));
#450 = ORIENTED_EDGE('',*,*,#345,.F.);
#451 = ORIENTED_EDGE('',*,*,#452,.T.);
#452 = EDGE_CURVE('',#337,#428,#453,.T.);
#453 = LINE('',#454,#455);
#454 = CARTESIAN_POINT('',(-9.348363,6.65,5.));
#455 = VECTOR('',#456,1.);
#456 = DIRECTION('',(-1.29407387031E-13,-0.,-1.));
#457 = ORIENTED_EDGE('',*,*,#436,.T.);
#458 = ORIENTED_EDGE('',*,*,#369,.F.);
#459 = PLANE('',#460);
#460 = AXIS2_PLACEMENT_3D('',#461,#462,#463);
#461 = CARTESIAN_POINT('',(-8.848363,6.65,5.));
#462 = DIRECTION('',(0.,1.,0.));
#463 = DIRECTION('',(-1.,0.,1.29407387031E-13));
#464 = ADVANCED_FACE('',(#465),#476,.T.);
#465 = FACE_BOUND('',#466,.T.);
#466 = EDGE_LOOP('',(#467,#468,#469,#470));
#467 = ORIENTED_EDGE('',*,*,#328,.F.);
#468 = ORIENTED_EDGE('',*,*,#402,.T.);
#469 = ORIENTED_EDGE('',*,*,#419,.T.);
#470 = ORIENTED_EDGE('',*,*,#471,.F.);
#471 = EDGE_CURVE('',#329,#420,#472,.T.);
#472 = LINE('',#473,#474);
#473 = CARTESIAN_POINT('',(-8.848363,6.15,5.));
#474 = VECTOR('',#475,1.);
#475 = DIRECTION('',(-1.29407387031E-13,-0.,-1.));
#476 = PLANE('',#477);
#477 = AXIS2_PLACEMENT_3D('',#478,#479,#480);
#478 = CARTESIAN_POINT('',(-8.848363,4.95,5.));
#479 = DIRECTION('',(1.,0.,-1.29407387031E-13));
#480 = DIRECTION('',(0.,1.,0.));
#481 = ADVANCED_FACE('',(#482),#488,.T.);
#482 = FACE_BOUND('',#483,.F.);
#483 = EDGE_LOOP('',(#484,#485,#486,#487));
#484 = ORIENTED_EDGE('',*,*,#336,.T.);
#485 = ORIENTED_EDGE('',*,*,#452,.T.);
#486 = ORIENTED_EDGE('',*,*,#427,.F.);
#487 = ORIENTED_EDGE('',*,*,#471,.F.);
#488 = CYLINDRICAL_SURFACE('',#489,0.5);
#489 = AXIS2_PLACEMENT_3D('',#490,#491,#492);
#490 = CARTESIAN_POINT('',(-9.348363,6.15,5.));
#491 = DIRECTION('',(-1.29407387031E-13,-0.,-1.));
#492 = DIRECTION('',(1.,0.,-1.29407387031E-13));
#493 = ( GEOMETRIC_REPRESENTATION_CONTEXT(3) 
GLOBAL_UNCERTAINTY_ASSIGNED_CONTEXT((#497)) GLOBAL_UNIT_ASSIGNED_CONTEXT
((#494,#495,#496)) REPRESENTATION_CONTEXT('Context #1',
  '3D Context with UNIT and UNCERTAINTY') );
#494 = ( LENGTH_UNIT() NAMED_UNIT(*) SI_UNIT(.MILLI.,.METRE.) );
#495 = ( NAMED_UNIT(*) PLANE_ANGLE_UNIT() SI_UNIT($,.RADIAN.) );
#496 = ( NAMED_UNIT(*) SI_UNIT($,.STERADIAN.) SOLID_ANGLE_UNIT() );
#497 = UNCERTAINTY_MEASURE_WITH_UNIT(LENGTH_MEASURE(1.E-07),#494,
  'distance_accuracy_value','confusion accuracy');
#498 = CONTEXT_DEPENDENT_SHAPE_REPRESENTATION(#499,#501);
#499 = ( REPRESENTATION_RELATIONSHIP('','',#52,#10) 
REPRESENTATION_RELATIONSHIP_WITH_TRANSFORMATION(#500) 
SHAPE_REPRESENTATION_RELATIONSHIP() );
#500 = ITEM_DEFINED_TRANSFORMATION('','',#11,#15);
#501 = PRODUCT_DEFINITION_SHAPE('Placement','Placement of an item',#502
  );
#502 = NEXT_ASSEMBLY_USAGE_OCCURRENCE('21','Fillet002','',#5,#47,$);
#503 = PRODUCT_RELATED_PRODUCT_CATEGORY('part',$,(#49));
#504 = SHAPE_DEFINITION_REPRESENTATION(#505,#511);
#505 = PRODUCT_DEFINITION_SHAPE('','',#506);
#506 = PRODUCT_DEFINITION('design','',#507,#510);
#507 = PRODUCT_DEFINITION_FORMATION('','',#508);
#508 = PRODUCT('Fillet001','Fillet001','',(#509));
#509 = PRODUCT_CONTEXT('',#2,'mechanical');
#510 = PRODUCT_DEFINITION_CONTEXT('part definition',#2,'design');
#511 = SHAPE_REPRESENTATION('',(#11,#512,#601),#690);
#512 = MANIFOLD_SOLID_BREP('',#513);
#513 = CLOSED_SHELL('',(#514,#547,#583,#592));
#514 = ADVANCED_FACE('',(#515),#542,.T.);
#515 = FACE_BOUND('',#516,.F.);
#516 = EDGE_LOOP('',(#517,#527,#534,#535));
#517 = ORIENTED_EDGE('',*,*,#518,.T.);
#518 = EDGE_CURVE('',#519,#521,#523,.T.);
#519 = VERTEX_POINT('',#520);
#520 = CARTESIAN_POINT('',(-3.899499,1.,4.47813));
#521 = VERTEX_POINT('',#522);
#522 = CARTESIAN_POINT('',(-10.899499,1.,4.47813));
#523 = LINE('',#524,#525);
#524 = CARTESIAN_POINT('',(-3.899499,1.,4.47813));
#525 = VECTOR('',#526,1.);
#526 = DIRECTION('',(-1.,0.,0.));
#527 = ORIENTED_EDGE('',*,*,#528,.T.);
#528 = EDGE_CURVE('',#521,#521,#529,.T.);
#529 = CIRCLE('',#530,1.5);
#530 = AXIS2_PLACEMENT_3D('',#531,#532,#533);
#531 = CARTESIAN_POINT('',(-10.899499,2.5,4.47813));
#532 = DIRECTION('',(-1.,0.,0.));
#533 = DIRECTION('',(0.,-1.,0.));
#534 = ORIENTED_EDGE('',*,*,#518,.F.);
#535 = ORIENTED_EDGE('',*,*,#536,.F.);
#536 = EDGE_CURVE('',#519,#519,#537,.T.);
#537 = CIRCLE('',#538,1.5);
#538 = AXIS2_PLACEMENT_3D('',#539,#540,#541);
#539 = CARTESIAN_POINT('',(-3.899499,2.5,4.47813));
#540 = DIRECTION('',(-1.,0.,0.));
#541 = DIRECTION('',(0.,-1.,0.));
#542 = CYLINDRICAL_SURFACE('',#543,1.5);
#543 = AXIS2_PLACEMENT_3D('',#544,#545,#546);
#544 = CARTESIAN_POINT('',(-3.899499,2.5,4.47813));
#545 = DIRECTION('',(1.,0.,0.));
#546 = DIRECTION('',(0.,-1.,0.));
#547 = ADVANCED_FACE('',(#548),#568,.T.);
#548 = FACE_BOUND('',#549,.T.);
#549 = EDGE_LOOP('',(#550,#559,#560,#561));
#550 = ORIENTED_EDGE('',*,*,#551,.F.);
#551 = EDGE_CURVE('',#521,#552,#554,.T.);
#552 = VERTEX_POINT('',#553);
#553 = CARTESIAN_POINT('',(-11.899499,2.,4.47813));
#554 = CIRCLE('',#555,1.);
#555 = AXIS2_PLACEMENT_3D('',#556,#557,#558);
#556 = CARTESIAN_POINT('',(-10.899499,2.,4.47813));
#557 = DIRECTION('',(0.,-0.,-1.));
#558 = DIRECTION('',(0.,-1.,0.));
#559 = ORIENTED_EDGE('',*,*,#528,.T.);
#560 = ORIENTED_EDGE('',*,*,#551,.T.);
#561 = ORIENTED_EDGE('',*,*,#562,.F.);
#562 = EDGE_CURVE('',#552,#552,#563,.T.);
#563 = CIRCLE('',#564,0.5);
#564 = AXIS2_PLACEMENT_3D('',#565,#566,#567);
#565 = CARTESIAN_POINT('',(-11.899499,2.5,4.47813));
#566 = DIRECTION('',(-1.,0.,0.));
#567 = DIRECTION('',(0.,-1.,0.));
#568 = SURFACE_OF_REVOLUTION('',#569,#580);
#569 = B_SPLINE_CURVE_WITH_KNOTS('',5,(#570,#571,#572,#573,#574,#575,
    #576,#577,#578,#579),.UNSPECIFIED.,.F.,.F.,(6,4,6),(0.,
    0.785398163397,1.570796326795),.UNSPECIFIED.);
#570 = CARTESIAN_POINT('',(-10.899499,1.,4.47813));
#571 = CARTESIAN_POINT('',(-11.05657863267,1.,4.47813));
#572 = CARTESIAN_POINT('',(-11.21366075398,1.030835592946,4.47813));
#573 = CARTESIAN_POINT('',(-11.36265581768,1.092551369057,4.47813));
#574 = CARTESIAN_POINT('',(-11.49553370773,1.181821145359,4.47813));
#575 = CARTESIAN_POINT('',(-11.71767785464,1.403965292267,4.47813));
#576 = CARTESIAN_POINT('',(-11.80694763094,1.536843182317,4.47813));
#577 = CARTESIAN_POINT('',(-11.86866340705,1.685838246018,4.47813));
#578 = CARTESIAN_POINT('',(-11.899499,1.842920367321,4.47813));
#579 = CARTESIAN_POINT('',(-11.899499,2.,4.47813));
#580 = AXIS1_PLACEMENT('',#581,#582);
#581 = CARTESIAN_POINT('',(-10.899499,2.5,4.47813));
#582 = DIRECTION('',(-1.,-0.,0.));
#583 = ADVANCED_FACE('',(#584),#587,.T.);
#584 = FACE_BOUND('',#585,.F.);
#585 = EDGE_LOOP('',(#586));
#586 = ORIENTED_EDGE('',*,*,#536,.T.);
#587 = PLANE('',#588);
#588 = AXIS2_PLACEMENT_3D('',#589,#590,#591);
#589 = CARTESIAN_POINT('',(-3.899499,5.697667218914E-17,4.47813));
#590 = DIRECTION('',(1.,0.,0.));
#591 = DIRECTION('',(0.,0.,1.));
#592 = ADVANCED_FACE('',(#593),#596,.F.);
#593 = FACE_BOUND('',#594,.F.);
#594 = EDGE_LOOP('',(#595));
#595 = ORIENTED_EDGE('',*,*,#562,.F.);
#596 = PLANE('',#597);
#597 = AXIS2_PLACEMENT_3D('',#598,#599,#600);
#598 = CARTESIAN_POINT('',(-11.899499,5.697667218914E-17,4.47813));
#599 = DIRECTION('',(1.,0.,0.));
#600 = DIRECTION('',(0.,0.,1.));
#601 = MANIFOLD_SOLID_BREP('',#602);
#602 = CLOSED_SHELL('',(#603,#636,#672,#681));
#603 = ADVANCED_FACE('',(#604),#631,.T.);
#604 = FACE_BOUND('',#605,.F.);
#605 = EDGE_LOOP('',(#606,#616,#623,#624));
#606 = ORIENTED_EDGE('',*,*,#607,.T.);
#607 = EDGE_CURVE('',#608,#610,#612,.T.);
#608 = VERTEX_POINT('',#609);
#609 = CARTESIAN_POINT('',(-3.899499,-4.,4.47813));
#610 = VERTEX_POINT('',#611);
#611 = CARTESIAN_POINT('',(-10.899499,-4.,4.47813));
#612 = LINE('',#613,#614);
#613 = CARTESIAN_POINT('',(-3.899499,-4.,4.47813));
#614 = VECTOR('',#615,1.);
#615 = DIRECTION('',(-1.,0.,0.));
#616 = ORIENTED_EDGE('',*,*,#617,.T.);
#617 = EDGE_CURVE('',#610,#610,#618,.T.);
#618 = CIRCLE('',#619,1.5);
#619 = AXIS2_PLACEMENT_3D('',#620,#621,#622);
#620 = CARTESIAN_POINT('',(-10.899499,-2.5,4.47813));
#621 = DIRECTION('',(-1.,0.,0.));
#622 = DIRECTION('',(0.,-1.,0.));
#623 = ORIENTED_EDGE('',*,*,#607,.F.);
#624 = ORIENTED_EDGE('',*,*,#625,.F.);
#625 = EDGE_CURVE('',#608,#608,#626,.T.);
#626 = CIRCLE('',#627,1.5);
#627 = AXIS2_PLACEMENT_3D('',#628,#629,#630);
#628 = CARTESIAN_POINT('',(-3.899499,-2.5,4.47813));
#629 = DIRECTION('',(-1.,0.,0.));
#630 = DIRECTION('',(0.,-1.,0.));
#631 = CYLINDRICAL_SURFACE('',#632,1.5);
#632 = AXIS2_PLACEMENT_3D('',#633,#634,#635);
#633 = CARTESIAN_POINT('',(-3.899499,-2.5,4.47813));
#634 = DIRECTION('',(1.,0.,0.));
#635 = DIRECTION('',(0.,-1.,0.));
#636 = ADVANCED_FACE('',(#637),#657,.T.);
#637 = FACE_BOUND('',#638,.T.);
#638 = EDGE_LOOP('',(#639,#648,#649,#650));
#639 = ORIENTED_EDGE('',*,*,#640,.F.);
#640 = EDGE_CURVE('',#610,#641,#643,.T.);
#641 = VERTEX_POINT('',#642);
#642 = CARTESIAN_POINT('',(-11.899499,-3.,4.47813));
#643 = CIRCLE('',#644,1.);
#644 = AXIS2_PLACEMENT_3D('',#645,#646,#647);
#645 = CARTESIAN_POINT('',(-10.899499,-3.,4.47813));
#646 = DIRECTION('',(0.,-0.,-1.));
#647 = DIRECTION('',(0.,-1.,0.));
#648 = ORIENTED_EDGE('',*,*,#617,.T.);
#649 = ORIENTED_EDGE('',*,*,#640,.T.);
#650 = ORIENTED_EDGE('',*,*,#651,.F.);
#651 = EDGE_CURVE('',#641,#641,#652,.T.);
#652 = CIRCLE('',#653,0.5);
#653 = AXIS2_PLACEMENT_3D('',#654,#655,#656);
#654 = CARTESIAN_POINT('',(-11.899499,-2.5,4.47813));
#655 = DIRECTION('',(-1.,0.,0.));
#656 = DIRECTION('',(0.,-1.,0.));
#657 = SURFACE_OF_REVOLUTION('',#658,#669);
#658 = B_SPLINE_CURVE_WITH_KNOTS('',5,(#659,#660,#661,#662,#663,#664,
    #665,#666,#667,#668),.UNSPECIFIED.,.F.,.F.,(6,4,6),(0.,
    0.785398163397,1.570796326795),.UNSPECIFIED.);
#659 = CARTESIAN_POINT('',(-10.899499,-4.,4.47813));
#660 = CARTESIAN_POINT('',(-11.05657863267,-4.,4.47813));
#661 = CARTESIAN_POINT('',(-11.21366075398,-3.969164407054,4.47813));
#662 = CARTESIAN_POINT('',(-11.36265581768,-3.907448630943,4.47813));
#663 = CARTESIAN_POINT('',(-11.49553370773,-3.818178854641,4.47813));
#664 = CARTESIAN_POINT('',(-11.71767785464,-3.596034707733,4.47813));
#665 = CARTESIAN_POINT('',(-11.80694763094,-3.463156817683,4.47813));
#666 = CARTESIAN_POINT('',(-11.86866340705,-3.314161753982,4.47813));
#667 = CARTESIAN_POINT('',(-11.899499,-3.157079632679,4.47813));
#668 = CARTESIAN_POINT('',(-11.899499,-3.,4.47813));
#669 = AXIS1_PLACEMENT('',#670,#671);
#670 = CARTESIAN_POINT('',(-10.899499,-2.5,4.47813));
#671 = DIRECTION('',(-1.,-0.,0.));
#672 = ADVANCED_FACE('',(#673),#676,.T.);
#673 = FACE_BOUND('',#674,.F.);
#674 = EDGE_LOOP('',(#675));
#675 = ORIENTED_EDGE('',*,*,#625,.T.);
#676 = PLANE('',#677);
#677 = AXIS2_PLACEMENT_3D('',#678,#679,#680);
#678 = CARTESIAN_POINT('',(-3.899499,5.697667218914E-17,4.47813));
#679 = DIRECTION('',(1.,0.,0.));
#680 = DIRECTION('',(0.,0.,1.));
#681 = ADVANCED_FACE('',(#682),#685,.F.);
#682 = FACE_BOUND('',#683,.F.);
#683 = EDGE_LOOP('',(#684));
#684 = ORIENTED_EDGE('',*,*,#651,.F.);
#685 = PLANE('',#686);
#686 = AXIS2_PLACEMENT_3D('',#687,#688,#689);
#687 = CARTESIAN_POINT('',(-11.899499,5.697667218914E-17,4.47813));
#688 = DIRECTION('',(1.,0.,0.));
#689 = DIRECTION('',(0.,0.,1.));
#690 = ( GEOMETRIC_REPRESENTATION_CONTEXT(3) 
GLOBAL_UNCERTAINTY_ASSIGNED_CONTEXT((#694)) GLOBAL_UNIT_ASSIGNED_CONTEXT
((#691,#692,#693)) REPRESENTATION_CONTEXT('Context #1',
  '3D Context with UNIT and UNCERTAINTY') );
#691 = ( LENGTH_UNIT() NAMED_UNIT(*) SI_UNIT(.MILLI.,.METRE.) );
#692 = ( NAMED_UNIT(*) PLANE_ANGLE_UNIT() SI_UNIT($,.RADIAN.) );
#693 = ( NAMED_UNIT(*) SI_UNIT($,.STERADIAN.) SOLID_ANGLE_UNIT() );
#694 = UNCERTAINTY_MEASURE_WITH_UNIT(LENGTH_MEASURE(1.E-07),#691,
  'distance_accuracy_value','confusion accuracy');
#695 = CONTEXT_DEPENDENT_SHAPE_REPRESENTATION(#696,#698);
#696 = ( REPRESENTATION_RELATIONSHIP('','',#511,#10) 
REPRESENTATION_RELATIONSHIP_WITH_TRANSFORMATION(#697) 
SHAPE_REPRESENTATION_RELATIONSHIP() );
#697 = ITEM_DEFINED_TRANSFORMATION('','',#11,#19);
#698 = PRODUCT_DEFINITION_SHAPE('Placement','Placement of an item',#699
  );
#699 = NEXT_ASSEMBLY_USAGE_OCCURRENCE('22','Fillet001','',#5,#506,$);
#700 = PRODUCT_RELATED_PRODUCT_CATEGORY('part',$,(#508));
#701 = SHAPE_DEFINITION_REPRESENTATION(#702,#708);
#702 = PRODUCT_DEFINITION_SHAPE('','',#703);
#703 = PRODUCT_DEFINITION('design','',#704,#707);
#704 = PRODUCT_DEFINITION_FORMATION('','',#705);
#705 = PRODUCT('Extrude001','Extrude001','',(#706));
#706 = PRODUCT_CONTEXT('',#2,'mechanical');
#707 = PRODUCT_DEFINITION_CONTEXT('part definition',#2,'design');
#708 = SHAPE_REPRESENTATION('',(#11,#709,#762),#815);
#709 = MANIFOLD_SOLID_BREP('',#710);
#710 = CLOSED_SHELL('',(#711,#744,#753));
#711 = ADVANCED_FACE('',(#712),#739,.T.);
#712 = FACE_BOUND('',#713,.F.);
#713 = EDGE_LOOP('',(#714,#724,#731,#732));
#714 = ORIENTED_EDGE('',*,*,#715,.T.);
#715 = EDGE_CURVE('',#716,#718,#720,.T.);
#716 = VERTEX_POINT('',#717);
#717 = CARTESIAN_POINT('',(-9.45,-5.5,5.));
#718 = VERTEX_POINT('',#719);
#719 = CARTESIAN_POINT('',(-9.45,-5.5,8.881784197001E-16));
#720 = LINE('',#721,#722);
#721 = CARTESIAN_POINT('',(-9.45,-5.5,5.));
#722 = VECTOR('',#723,1.);
#723 = DIRECTION('',(0.,0.,-1.));
#724 = ORIENTED_EDGE('',*,*,#725,.T.);
#725 = EDGE_CURVE('',#718,#718,#726,.T.);
#726 = CIRCLE('',#727,0.55);
#727 = AXIS2_PLACEMENT_3D('',#728,#729,#730);
#728 = CARTESIAN_POINT('',(-10.,-5.5,8.881784197001E-16));
#729 = DIRECTION('',(0.,0.,-1.));
#730 = DIRECTION('',(1.,0.,0.));
#731 = ORIENTED_EDGE('',*,*,#715,.F.);
#732 = ORIENTED_EDGE('',*,*,#733,.F.);
#733 = EDGE_CURVE('',#716,#716,#734,.T.);
#734 = CIRCLE('',#735,0.55);
#735 = AXIS2_PLACEMENT_3D('',#736,#737,#738);
#736 = CARTESIAN_POINT('',(-10.,-5.5,5.));
#737 = DIRECTION('',(0.,0.,-1.));
#738 = DIRECTION('',(1.,0.,0.));
#739 = CYLINDRICAL_SURFACE('',#740,0.55);
#740 = AXIS2_PLACEMENT_3D('',#741,#742,#743);
#741 = CARTESIAN_POINT('',(-10.,-5.5,5.));
#742 = DIRECTION('',(-0.,-0.,1.));
#743 = DIRECTION('',(1.,0.,0.));
#744 = ADVANCED_FACE('',(#745),#748,.T.);
#745 = FACE_BOUND('',#746,.F.);
#746 = EDGE_LOOP('',(#747));
#747 = ORIENTED_EDGE('',*,*,#733,.T.);
#748 = PLANE('',#749);
#749 = AXIS2_PLACEMENT_3D('',#750,#751,#752);
#750 = CARTESIAN_POINT('',(-10.,-0.43816068172,5.));
#751 = DIRECTION('',(0.,0.,1.));
#752 = DIRECTION('',(1.,0.,-0.));
#753 = ADVANCED_FACE('',(#754),#757,.F.);
#754 = FACE_BOUND('',#755,.T.);
#755 = EDGE_LOOP('',(#756));
#756 = ORIENTED_EDGE('',*,*,#725,.T.);
#757 = PLANE('',#758);
#758 = AXIS2_PLACEMENT_3D('',#759,#760,#761);
#759 = CARTESIAN_POINT('',(-10.,-0.43816068172,8.881784197001E-16));
#760 = DIRECTION('',(0.,0.,1.));
#761 = DIRECTION('',(1.,0.,-0.));
#762 = MANIFOLD_SOLID_BREP('',#763);
#763 = CLOSED_SHELL('',(#764,#797,#806));
#764 = ADVANCED_FACE('',(#765),#792,.T.);
#765 = FACE_BOUND('',#766,.F.);
#766 = EDGE_LOOP('',(#767,#777,#784,#785));
#767 = ORIENTED_EDGE('',*,*,#768,.T.);
#768 = EDGE_CURVE('',#769,#771,#773,.T.);
#769 = VERTEX_POINT('',#770);
#770 = CARTESIAN_POINT('',(-9.531166,5.5,5.));
#771 = VERTEX_POINT('',#772);
#772 = CARTESIAN_POINT('',(-9.531166,5.5,8.881784197001E-16));
#773 = LINE('',#774,#775);
#774 = CARTESIAN_POINT('',(-9.531166,5.5,5.));
#775 = VECTOR('',#776,1.);
#776 = DIRECTION('',(0.,0.,-1.));
#777 = ORIENTED_EDGE('',*,*,#778,.T.);
#778 = EDGE_CURVE('',#771,#771,#779,.T.);
#779 = CIRCLE('',#780,0.468834);
#780 = AXIS2_PLACEMENT_3D('',#781,#782,#783);
#781 = CARTESIAN_POINT('',(-10.,5.5,8.881784197001E-16));
#782 = DIRECTION('',(0.,0.,-1.));
#783 = DIRECTION('',(1.,0.,0.));
#784 = ORIENTED_EDGE('',*,*,#768,.F.);
#785 = ORIENTED_EDGE('',*,*,#786,.F.);
#786 = EDGE_CURVE('',#769,#769,#787,.T.);
#787 = CIRCLE('',#788,0.468834);
#788 = AXIS2_PLACEMENT_3D('',#789,#790,#791);
#789 = CARTESIAN_POINT('',(-10.,5.5,5.));
#790 = DIRECTION('',(0.,0.,-1.));
#791 = DIRECTION('',(1.,0.,0.));
#792 = CYLINDRICAL_SURFACE('',#793,0.468834);
#793 = AXIS2_PLACEMENT_3D('',#794,#795,#796);
#794 = CARTESIAN_POINT('',(-10.,5.5,5.));
#795 = DIRECTION('',(-0.,-0.,1.));
#796 = DIRECTION('',(1.,0.,0.));
#797 = ADVANCED_FACE('',(#798),#801,.T.);
#798 = FACE_BOUND('',#799,.F.);
#799 = EDGE_LOOP('',(#800));
#800 = ORIENTED_EDGE('',*,*,#786,.T.);
#801 = PLANE('',#802);
#802 = AXIS2_PLACEMENT_3D('',#803,#804,#805);
#803 = CARTESIAN_POINT('',(-10.,-0.43816068172,5.));
#804 = DIRECTION('',(0.,0.,1.));
#805 = DIRECTION('',(1.,0.,-0.));
#806 = ADVANCED_FACE('',(#807),#810,.F.);
#807 = FACE_BOUND('',#808,.T.);
#808 = EDGE_LOOP('',(#809));
#809 = ORIENTED_EDGE('',*,*,#778,.T.);
#810 = PLANE('',#811);
#811 = AXIS2_PLACEMENT_3D('',#812,#813,#814);
#812 = CARTESIAN_POINT('',(-10.,-0.43816068172,8.881784197001E-16));
#813 = DIRECTION('',(0.,0.,1.));
#814 = DIRECTION('',(1.,0.,-0.));
#815 = ( GEOMETRIC_REPRESENTATION_CONTEXT(3) 
GLOBAL_UNCERTAINTY_ASSIGNED_CONTEXT((#819)) GLOBAL_UNIT_ASSIGNED_CONTEXT
((#816,#817,#818)) REPRESENTATION_CONTEXT('Context #1',
  '3D Context with UNIT and UNCERTAINTY') );
#816 = ( LENGTH_UNIT() NAMED_UNIT(*) SI_UNIT(.MILLI.,.METRE.) );
#817 = ( NAMED_UNIT(*) PLANE_ANGLE_UNIT() SI_UNIT($,.RADIAN.) );
#818 = ( NAMED_UNIT(*) SI_UNIT($,.STERADIAN.) SOLID_ANGLE_UNIT() );
#819 = UNCERTAINTY_MEASURE_WITH_UNIT(LENGTH_MEASURE(1.E-07),#816,
  'distance_accuracy_value','confusion accuracy');
#820 = CONTEXT_DEPENDENT_SHAPE_REPRESENTATION(#821,#823);
#821 = ( REPRESENTATION_RELATIONSHIP('','',#708,#10) 
REPRESENTATION_RELATIONSHIP_WITH_TRANSFORMATION(#822) 
SHAPE_REPRESENTATION_RELATIONSHIP() );
#822 = ITEM_DEFINED_TRANSFORMATION('','',#11,#23);
#823 = PRODUCT_DEFINITION_SHAPE('Placement','Placement of an item',#824
  );
#824 = NEXT_ASSEMBLY_USAGE_OCCURRENCE('23','Extrude001','',#5,#703,$);
#825 = PRODUCT_RELATED_PRODUCT_CATEGORY('part',$,(#705));
#826 = SHAPE_DEFINITION_REPRESENTATION(#827,#833);
#827 = PRODUCT_DEFINITION_SHAPE('','',#828);
#828 = PRODUCT_DEFINITION('design','',#829,#832);
#829 = PRODUCT_DEFINITION_FORMATION('','',#830);
#830 = PRODUCT('Pocket','Pocket','',(#831));
#831 = PRODUCT_CONTEXT('',#2,'mechanical');
#832 = PRODUCT_DEFINITION_CONTEXT('part definition',#2,'design');
#833 = ADVANCED_BREP_SHAPE_REPRESENTATION('',(#11,#834),#1262);
#834 = MANIFOLD_SOLID_BREP('',#835);
#835 = CLOSED_SHELL('',(#836,#876,#925,#950,#974,#1058,#1075,#1092,#1104
    ,#1135,#1159,#1183,#1207,#1231,#1248));
#836 = ADVANCED_FACE('',(#837),#871,.F.);
#837 = FACE_BOUND('',#838,.F.);
#838 = EDGE_LOOP('',(#839,#849,#857,#865));
#839 = ORIENTED_EDGE('',*,*,#840,.F.);
#840 = EDGE_CURVE('',#841,#843,#845,.T.);
#841 = VERTEX_POINT('',#842);
#842 = CARTESIAN_POINT('',(-2.899499,-4.95,2.));
#843 = VERTEX_POINT('',#844);
#844 = CARTESIAN_POINT('',(-2.899499,-4.95,6.));
#845 = LINE('',#846,#847);
#846 = CARTESIAN_POINT('',(-2.899499,-4.95,2.));
#847 = VECTOR('',#848,1.);
#848 = DIRECTION('',(0.,0.,1.));
#849 = ORIENTED_EDGE('',*,*,#850,.T.);
#850 = EDGE_CURVE('',#841,#851,#853,.T.);
#851 = VERTEX_POINT('',#852);
#852 = CARTESIAN_POINT('',(-11.899499,-4.95,2.));
#853 = LINE('',#854,#855);
#854 = CARTESIAN_POINT('',(-2.899499,-4.95,2.));
#855 = VECTOR('',#856,1.);
#856 = DIRECTION('',(-1.,0.,0.));
#857 = ORIENTED_EDGE('',*,*,#858,.T.);
#858 = EDGE_CURVE('',#851,#859,#861,.T.);
#859 = VERTEX_POINT('',#860);
#860 = CARTESIAN_POINT('',(-11.899499,-4.95,6.));
#861 = LINE('',#862,#863);
#862 = CARTESIAN_POINT('',(-11.899499,-4.95,2.));
#863 = VECTOR('',#864,1.);
#864 = DIRECTION('',(0.,0.,1.));
#865 = ORIENTED_EDGE('',*,*,#866,.F.);
#866 = EDGE_CURVE('',#843,#859,#867,.T.);
#867 = LINE('',#868,#869);
#868 = CARTESIAN_POINT('',(-2.899499,-4.95,6.));
#869 = VECTOR('',#870,1.);
#870 = DIRECTION('',(-1.,0.,0.));
#871 = PLANE('',#872);
#872 = AXIS2_PLACEMENT_3D('',#873,#874,#875);
#873 = CARTESIAN_POINT('',(-2.899499,-4.95,2.));
#874 = DIRECTION('',(0.,1.,0.));
#875 = DIRECTION('',(0.,0.,1.));
#876 = ADVANCED_FACE('',(#877),#920,.T.);
#877 = FACE_BOUND('',#878,.T.);
#878 = EDGE_LOOP('',(#879,#880,#888,#896,#905,#913));
#879 = ORIENTED_EDGE('',*,*,#840,.F.);
#880 = ORIENTED_EDGE('',*,*,#881,.F.);
#881 = EDGE_CURVE('',#882,#841,#884,.T.);
#882 = VERTEX_POINT('',#883);
#883 = CARTESIAN_POINT('',(-2.899499,4.95,2.));
#884 = LINE('',#885,#886);
#885 = CARTESIAN_POINT('',(-2.899499,4.95,2.));
#886 = VECTOR('',#887,1.);
#887 = DIRECTION('',(0.,-1.,0.));
#888 = ORIENTED_EDGE('',*,*,#889,.F.);
#889 = EDGE_CURVE('',#890,#882,#892,.T.);
#890 = VERTEX_POINT('',#891);
#891 = CARTESIAN_POINT('',(-2.899499,4.95,6.));
#892 = LINE('',#893,#894);
#893 = CARTESIAN_POINT('',(-2.899499,4.95,7.));
#894 = VECTOR('',#895,1.);
#895 = DIRECTION('',(0.,0.,-1.));
#896 = ORIENTED_EDGE('',*,*,#897,.F.);
#897 = EDGE_CURVE('',#898,#890,#900,.T.);
#898 = VERTEX_POINT('',#899);
#899 = CARTESIAN_POINT('',(-2.899499,3.95,7.));
#900 = CIRCLE('',#901,1.);
#901 = AXIS2_PLACEMENT_3D('',#902,#903,#904);
#902 = CARTESIAN_POINT('',(-2.899499,3.95,6.));
#903 = DIRECTION('',(-1.,0.,0.));
#904 = DIRECTION('',(0.,0.,-1.));
#905 = ORIENTED_EDGE('',*,*,#906,.F.);
#906 = EDGE_CURVE('',#907,#898,#909,.T.);
#907 = VERTEX_POINT('',#908);
#908 = CARTESIAN_POINT('',(-2.899499,-3.95,7.));
#909 = LINE('',#910,#911);
#910 = CARTESIAN_POINT('',(-2.899499,-4.95,7.));
#911 = VECTOR('',#912,1.);
#912 = DIRECTION('',(0.,1.,0.));
#913 = ORIENTED_EDGE('',*,*,#914,.F.);
#914 = EDGE_CURVE('',#843,#907,#915,.T.);
#915 = CIRCLE('',#916,1.);
#916 = AXIS2_PLACEMENT_3D('',#917,#918,#919);
#917 = CARTESIAN_POINT('',(-2.899499,-3.95,6.));
#918 = DIRECTION('',(-1.,0.,0.));
#919 = DIRECTION('',(0.,0.,-1.));
#920 = PLANE('',#921);
#921 = AXIS2_PLACEMENT_3D('',#922,#923,#924);
#922 = CARTESIAN_POINT('',(-2.899499,9.537486386042E-16,4.5));
#923 = DIRECTION('',(1.,0.,0.));
#924 = DIRECTION('',(0.,0.,1.));
#925 = ADVANCED_FACE('',(#926),#945,.T.);
#926 = FACE_BOUND('',#927,.T.);
#927 = EDGE_LOOP('',(#928,#929,#937,#944));
#928 = ORIENTED_EDGE('',*,*,#914,.T.);
#929 = ORIENTED_EDGE('',*,*,#930,.T.);
#930 = EDGE_CURVE('',#907,#931,#933,.T.);
#931 = VERTEX_POINT('',#932);
#932 = CARTESIAN_POINT('',(-11.899499,-3.95,7.));
#933 = LINE('',#934,#935);
#934 = CARTESIAN_POINT('',(-2.899499,-3.95,7.));
#935 = VECTOR('',#936,1.);
#936 = DIRECTION('',(-1.,0.,0.));
#937 = ORIENTED_EDGE('',*,*,#938,.F.);
#938 = EDGE_CURVE('',#859,#931,#939,.T.);
#939 = CIRCLE('',#940,1.);
#940 = AXIS2_PLACEMENT_3D('',#941,#942,#943);
#941 = CARTESIAN_POINT('',(-11.899499,-3.95,6.));
#942 = DIRECTION('',(-1.,0.,0.));
#943 = DIRECTION('',(0.,0.,-1.));
#944 = ORIENTED_EDGE('',*,*,#866,.F.);
#945 = CYLINDRICAL_SURFACE('',#946,1.);
#946 = AXIS2_PLACEMENT_3D('',#947,#948,#949);
#947 = CARTESIAN_POINT('',(-2.899499,-3.95,6.));
#948 = DIRECTION('',(-1.,0.,0.));
#949 = DIRECTION('',(-0.,-1.,-0.));
#950 = ADVANCED_FACE('',(#951),#969,.F.);
#951 = FACE_BOUND('',#952,.F.);
#952 = EDGE_LOOP('',(#953,#961,#967,#968));
#953 = ORIENTED_EDGE('',*,*,#954,.T.);
#954 = EDGE_CURVE('',#882,#955,#957,.T.);
#955 = VERTEX_POINT('',#956);
#956 = CARTESIAN_POINT('',(-11.899499,4.95,2.));
#957 = LINE('',#958,#959);
#958 = CARTESIAN_POINT('',(-2.899499,4.95,2.));
#959 = VECTOR('',#960,1.);
#960 = DIRECTION('',(-1.,0.,0.));
#961 = ORIENTED_EDGE('',*,*,#962,.T.);
#962 = EDGE_CURVE('',#955,#851,#963,.T.);
#963 = LINE('',#964,#965);
#964 = CARTESIAN_POINT('',(-11.899499,4.95,2.));
#965 = VECTOR('',#966,1.);
#966 = DIRECTION('',(0.,-1.,0.));
#967 = ORIENTED_EDGE('',*,*,#850,.F.);
#968 = ORIENTED_EDGE('',*,*,#881,.F.);
#969 = PLANE('',#970);
#970 = AXIS2_PLACEMENT_3D('',#971,#972,#973);
#971 = CARTESIAN_POINT('',(-2.899499,4.95,2.));
#972 = DIRECTION('',(0.,0.,1.));
#973 = DIRECTION('',(0.,-1.,0.));
#974 = ADVANCED_FACE('',(#975,#1003),#1053,.F.);
#975 = FACE_BOUND('',#976,.F.);
#976 = EDGE_LOOP('',(#977,#978,#979,#987,#996,#1002));
#977 = ORIENTED_EDGE('',*,*,#858,.F.);
#978 = ORIENTED_EDGE('',*,*,#962,.F.);
#979 = ORIENTED_EDGE('',*,*,#980,.F.);
#980 = EDGE_CURVE('',#981,#955,#983,.T.);
#981 = VERTEX_POINT('',#982);
#982 = CARTESIAN_POINT('',(-11.899499,4.95,6.));
#983 = LINE('',#984,#985);
#984 = CARTESIAN_POINT('',(-11.899499,4.95,7.));
#985 = VECTOR('',#986,1.);
#986 = DIRECTION('',(0.,0.,-1.));
#987 = ORIENTED_EDGE('',*,*,#988,.F.);
#988 = EDGE_CURVE('',#989,#981,#991,.T.);
#989 = VERTEX_POINT('',#990);
#990 = CARTESIAN_POINT('',(-11.899499,3.95,7.));
#991 = CIRCLE('',#992,1.);
#992 = AXIS2_PLACEMENT_3D('',#993,#994,#995);
#993 = CARTESIAN_POINT('',(-11.899499,3.95,6.));
#994 = DIRECTION('',(-1.,0.,0.));
#995 = DIRECTION('',(0.,0.,-1.));
#996 = ORIENTED_EDGE('',*,*,#997,.F.);
#997 = EDGE_CURVE('',#931,#989,#998,.T.);
#998 = LINE('',#999,#1000);
#999 = CARTESIAN_POINT('',(-11.899499,-4.95,7.));
#1000 = VECTOR('',#1001,1.);
#1001 = DIRECTION('',(0.,1.,0.));
#1002 = ORIENTED_EDGE('',*,*,#938,.F.);
#1003 = FACE_BOUND('',#1004,.F.);
#1004 = EDGE_LOOP('',(#1005,#1015,#1023,#1031,#1039,#1047));
#1005 = ORIENTED_EDGE('',*,*,#1006,.F.);
#1006 = EDGE_CURVE('',#1007,#1009,#1011,.T.);
#1007 = VERTEX_POINT('',#1008);
#1008 = CARTESIAN_POINT('',(-11.899499,4.50693,3.10058942319));
#1009 = VERTEX_POINT('',#1010);
#1010 = CARTESIAN_POINT('',(-11.899499,4.50693,5.634661137657));
#1011 = LINE('',#1012,#1013);
#1012 = CARTESIAN_POINT('',(-11.899499,4.50693,3.10058942319));
#1013 = VECTOR('',#1014,1.);
#1014 = DIRECTION('',(0.,0.,1.));
#1015 = ORIENTED_EDGE('',*,*,#1016,.F.);
#1016 = EDGE_CURVE('',#1017,#1007,#1019,.T.);
#1017 = VERTEX_POINT('',#1018);
#1018 = CARTESIAN_POINT('',(-11.899499,3.301463881853,2.475382451614));
#1019 = LINE('',#1020,#1021);
#1020 = CARTESIAN_POINT('',(-11.899499,3.301463881853,2.475382451614));
#1021 = VECTOR('',#1022,1.);
#1022 = DIRECTION('',(0.,0.887709247427,0.460404487417));
#1023 = ORIENTED_EDGE('',*,*,#1024,.F.);
#1024 = EDGE_CURVE('',#1025,#1017,#1027,.T.);
#1025 = VERTEX_POINT('',#1026);
#1026 = CARTESIAN_POINT('',(-11.899499,-4.50693,2.475382451614));
#1027 = LINE('',#1028,#1029);
#1028 = CARTESIAN_POINT('',(-11.899499,-4.50693,2.475382451614));
#1029 = VECTOR('',#1030,1.);
#1030 = DIRECTION('',(0.,1.,0.));
#1031 = ORIENTED_EDGE('',*,*,#1032,.F.);
#1032 = EDGE_CURVE('',#1033,#1025,#1035,.T.);
#1033 = VERTEX_POINT('',#1034);
#1034 = CARTESIAN_POINT('',(-11.899499,-4.50693,6.54138));
#1035 = LINE('',#1036,#1037);
#1036 = CARTESIAN_POINT('',(-11.899499,-4.50693,6.54138));
#1037 = VECTOR('',#1038,1.);
#1038 = DIRECTION('',(0.,0.,-1.));
#1039 = ORIENTED_EDGE('',*,*,#1040,.F.);
#1040 = EDGE_CURVE('',#1041,#1033,#1043,.T.);
#1041 = VERTEX_POINT('',#1042);
#1042 = CARTESIAN_POINT('',(-11.899499,3.49604265515,6.54138));
#1043 = LINE('',#1044,#1045);
#1044 = CARTESIAN_POINT('',(-11.899499,3.49604265515,6.54138));
#1045 = VECTOR('',#1046,1.);
#1046 = DIRECTION('',(0.,-1.,1.109810639086E-16));
#1047 = ORIENTED_EDGE('',*,*,#1048,.F.);
#1048 = EDGE_CURVE('',#1009,#1041,#1049,.T.);
#1049 = LINE('',#1050,#1051);
#1050 = CARTESIAN_POINT('',(-11.899499,4.50693,5.634661137657));
#1051 = VECTOR('',#1052,1.);
#1052 = DIRECTION('',(0.,-0.744420793435,0.667710777434));
#1053 = PLANE('',#1054);
#1054 = AXIS2_PLACEMENT_3D('',#1055,#1056,#1057);
#1055 = CARTESIAN_POINT('',(-11.899499,9.537486386042E-16,4.5));
#1056 = DIRECTION('',(1.,0.,0.));
#1057 = DIRECTION('',(0.,0.,1.));
#1058 = ADVANCED_FACE('',(#1059),#1070,.F.);
#1059 = FACE_BOUND('',#1060,.F.);
#1060 = EDGE_LOOP('',(#1061,#1062,#1063,#1064));
#1061 = ORIENTED_EDGE('',*,*,#906,.F.);
#1062 = ORIENTED_EDGE('',*,*,#930,.T.);
#1063 = ORIENTED_EDGE('',*,*,#997,.T.);
#1064 = ORIENTED_EDGE('',*,*,#1065,.F.);
#1065 = EDGE_CURVE('',#898,#989,#1066,.T.);
#1066 = LINE('',#1067,#1068);
#1067 = CARTESIAN_POINT('',(-2.899499,3.95,7.));
#1068 = VECTOR('',#1069,1.);
#1069 = DIRECTION('',(-1.,0.,0.));
#1070 = PLANE('',#1071);
#1071 = AXIS2_PLACEMENT_3D('',#1072,#1073,#1074);
#1072 = CARTESIAN_POINT('',(-2.899499,-4.95,7.));
#1073 = DIRECTION('',(0.,0.,-1.));
#1074 = DIRECTION('',(0.,1.,0.));
#1075 = ADVANCED_FACE('',(#1076),#1087,.F.);
#1076 = FACE_BOUND('',#1077,.F.);
#1077 = EDGE_LOOP('',(#1078,#1079,#1085,#1086));
#1078 = ORIENTED_EDGE('',*,*,#889,.F.);
#1079 = ORIENTED_EDGE('',*,*,#1080,.T.);
#1080 = EDGE_CURVE('',#890,#981,#1081,.T.);
#1081 = LINE('',#1082,#1083);
#1082 = CARTESIAN_POINT('',(-2.899499,4.95,6.));
#1083 = VECTOR('',#1084,1.);
#1084 = DIRECTION('',(-1.,0.,0.));
#1085 = ORIENTED_EDGE('',*,*,#980,.T.);
#1086 = ORIENTED_EDGE('',*,*,#954,.F.);
#1087 = PLANE('',#1088);
#1088 = AXIS2_PLACEMENT_3D('',#1089,#1090,#1091);
#1089 = CARTESIAN_POINT('',(-2.899499,4.95,7.));
#1090 = DIRECTION('',(-0.,-1.,-0.));
#1091 = DIRECTION('',(0.,0.,-1.));
#1092 = ADVANCED_FACE('',(#1093),#1099,.T.);
#1093 = FACE_BOUND('',#1094,.T.);
#1094 = EDGE_LOOP('',(#1095,#1096,#1097,#1098));
#1095 = ORIENTED_EDGE('',*,*,#897,.T.);
#1096 = ORIENTED_EDGE('',*,*,#1080,.T.);
#1097 = ORIENTED_EDGE('',*,*,#988,.F.);
#1098 = ORIENTED_EDGE('',*,*,#1065,.F.);
#1099 = CYLINDRICAL_SURFACE('',#1100,1.);
#1100 = AXIS2_PLACEMENT_3D('',#1101,#1102,#1103);
#1101 = CARTESIAN_POINT('',(-2.899499,3.95,6.));
#1102 = DIRECTION('',(-1.,0.,0.));
#1103 = DIRECTION('',(0.,0.,1.));
#1104 = ADVANCED_FACE('',(#1105),#1130,.T.);
#1105 = FACE_BOUND('',#1106,.T.);
#1106 = EDGE_LOOP('',(#1107,#1115,#1123,#1129));
#1107 = ORIENTED_EDGE('',*,*,#1108,.T.);
#1108 = EDGE_CURVE('',#1007,#1109,#1111,.T.);
#1109 = VERTEX_POINT('',#1110);
#1110 = CARTESIAN_POINT('',(-3.899499,4.50693,3.10058942319));
#1111 = LINE('',#1112,#1113);
#1112 = CARTESIAN_POINT('',(-11.899499,4.50693,3.10058942319));
#1113 = VECTOR('',#1114,1.);
#1114 = DIRECTION('',(1.,0.,0.));
#1115 = ORIENTED_EDGE('',*,*,#1116,.T.);
#1116 = EDGE_CURVE('',#1109,#1117,#1119,.T.);
#1117 = VERTEX_POINT('',#1118);
#1118 = CARTESIAN_POINT('',(-3.899499,4.50693,5.634661137657));
#1119 = LINE('',#1120,#1121);
#1120 = CARTESIAN_POINT('',(-3.899499,4.50693,3.10058942319));
#1121 = VECTOR('',#1122,1.);
#1122 = DIRECTION('',(0.,0.,1.));
#1123 = ORIENTED_EDGE('',*,*,#1124,.F.);
#1124 = EDGE_CURVE('',#1009,#1117,#1125,.T.);
#1125 = LINE('',#1126,#1127);
#1126 = CARTESIAN_POINT('',(-11.899499,4.50693,5.634661137657));
#1127 = VECTOR('',#1128,1.);
#1128 = DIRECTION('',(1.,0.,0.));
#1129 = ORIENTED_EDGE('',*,*,#1006,.F.);
#1130 = PLANE('',#1131);
#1131 = AXIS2_PLACEMENT_3D('',#1132,#1133,#1134);
#1132 = CARTESIAN_POINT('',(-11.899499,4.50693,3.10058942319));
#1133 = DIRECTION('',(0.,-1.,0.));
#1134 = DIRECTION('',(0.,0.,1.));
#1135 = ADVANCED_FACE('',(#1136),#1154,.T.);
#1136 = FACE_BOUND('',#1137,.T.);
#1137 = EDGE_LOOP('',(#1138,#1139,#1147,#1153));
#1138 = ORIENTED_EDGE('',*,*,#1124,.T.);
#1139 = ORIENTED_EDGE('',*,*,#1140,.T.);
#1140 = EDGE_CURVE('',#1117,#1141,#1143,.T.);
#1141 = VERTEX_POINT('',#1142);
#1142 = CARTESIAN_POINT('',(-3.899499,3.49604265515,6.54138));
#1143 = LINE('',#1144,#1145);
#1144 = CARTESIAN_POINT('',(-3.899499,4.50693,5.634661137657));
#1145 = VECTOR('',#1146,1.);
#1146 = DIRECTION('',(0.,-0.744420793435,0.667710777434));
#1147 = ORIENTED_EDGE('',*,*,#1148,.F.);
#1148 = EDGE_CURVE('',#1041,#1141,#1149,.T.);
#1149 = LINE('',#1150,#1151);
#1150 = CARTESIAN_POINT('',(-11.899499,3.49604265515,6.54138));
#1151 = VECTOR('',#1152,1.);
#1152 = DIRECTION('',(1.,0.,0.));
#1153 = ORIENTED_EDGE('',*,*,#1048,.F.);
#1154 = PLANE('',#1155);
#1155 = AXIS2_PLACEMENT_3D('',#1156,#1157,#1158);
#1156 = CARTESIAN_POINT('',(-11.899499,4.50693,5.634661137657));
#1157 = DIRECTION('',(0.,-0.667710777434,-0.744420793435));
#1158 = DIRECTION('',(0.,-0.744420793435,0.667710777434));
#1159 = ADVANCED_FACE('',(#1160),#1178,.T.);
#1160 = FACE_BOUND('',#1161,.T.);
#1161 = EDGE_LOOP('',(#1162,#1163,#1171,#1177));
#1162 = ORIENTED_EDGE('',*,*,#1148,.T.);
#1163 = ORIENTED_EDGE('',*,*,#1164,.T.);
#1164 = EDGE_CURVE('',#1141,#1165,#1167,.T.);
#1165 = VERTEX_POINT('',#1166);
#1166 = CARTESIAN_POINT('',(-3.899499,-4.50693,6.54138));
#1167 = LINE('',#1168,#1169);
#1168 = CARTESIAN_POINT('',(-3.899499,3.49604265515,6.54138));
#1169 = VECTOR('',#1170,1.);
#1170 = DIRECTION('',(0.,-1.,1.109810639086E-16));
#1171 = ORIENTED_EDGE('',*,*,#1172,.F.);
#1172 = EDGE_CURVE('',#1033,#1165,#1173,.T.);
#1173 = LINE('',#1174,#1175);
#1174 = CARTESIAN_POINT('',(-11.899499,-4.50693,6.54138));
#1175 = VECTOR('',#1176,1.);
#1176 = DIRECTION('',(1.,0.,0.));
#1177 = ORIENTED_EDGE('',*,*,#1040,.F.);
#1178 = PLANE('',#1179);
#1179 = AXIS2_PLACEMENT_3D('',#1180,#1181,#1182);
#1180 = CARTESIAN_POINT('',(-11.899499,3.49604265515,6.54138));
#1181 = DIRECTION('',(0.,-1.109810639086E-16,-1.));
#1182 = DIRECTION('',(0.,-1.,1.109810639086E-16));
#1183 = ADVANCED_FACE('',(#1184),#1202,.T.);
#1184 = FACE_BOUND('',#1185,.T.);
#1185 = EDGE_LOOP('',(#1186,#1187,#1195,#1201));
#1186 = ORIENTED_EDGE('',*,*,#1172,.T.);
#1187 = ORIENTED_EDGE('',*,*,#1188,.T.);
#1188 = EDGE_CURVE('',#1165,#1189,#1191,.T.);
#1189 = VERTEX_POINT('',#1190);
#1190 = CARTESIAN_POINT('',(-3.899499,-4.50693,2.475382451614));
#1191 = LINE('',#1192,#1193);
#1192 = CARTESIAN_POINT('',(-3.899499,-4.50693,6.54138));
#1193 = VECTOR('',#1194,1.);
#1194 = DIRECTION('',(0.,0.,-1.));
#1195 = ORIENTED_EDGE('',*,*,#1196,.F.);
#1196 = EDGE_CURVE('',#1025,#1189,#1197,.T.);
#1197 = LINE('',#1198,#1199);
#1198 = CARTESIAN_POINT('',(-11.899499,-4.50693,2.475382451614));
#1199 = VECTOR('',#1200,1.);
#1200 = DIRECTION('',(1.,0.,0.));
#1201 = ORIENTED_EDGE('',*,*,#1032,.F.);
#1202 = PLANE('',#1203);
#1203 = AXIS2_PLACEMENT_3D('',#1204,#1205,#1206);
#1204 = CARTESIAN_POINT('',(-11.899499,-4.50693,6.54138));
#1205 = DIRECTION('',(-0.,1.,0.));
#1206 = DIRECTION('',(0.,0.,-1.));
#1207 = ADVANCED_FACE('',(#1208),#1226,.T.);
#1208 = FACE_BOUND('',#1209,.T.);
#1209 = EDGE_LOOP('',(#1210,#1211,#1219,#1225));
#1210 = ORIENTED_EDGE('',*,*,#1196,.T.);
#1211 = ORIENTED_EDGE('',*,*,#1212,.T.);
#1212 = EDGE_CURVE('',#1189,#1213,#1215,.T.);
#1213 = VERTEX_POINT('',#1214);
#1214 = CARTESIAN_POINT('',(-3.899499,3.301463881853,2.475382451614));
#1215 = LINE('',#1216,#1217);
#1216 = CARTESIAN_POINT('',(-3.899499,-4.50693,2.475382451614));
#1217 = VECTOR('',#1218,1.);
#1218 = DIRECTION('',(0.,1.,0.));
#1219 = ORIENTED_EDGE('',*,*,#1220,.F.);
#1220 = EDGE_CURVE('',#1017,#1213,#1221,.T.);
#1221 = LINE('',#1222,#1223);
#1222 = CARTESIAN_POINT('',(-11.899499,3.301463881853,2.475382451614));
#1223 = VECTOR('',#1224,1.);
#1224 = DIRECTION('',(1.,0.,0.));
#1225 = ORIENTED_EDGE('',*,*,#1024,.F.);
#1226 = PLANE('',#1227);
#1227 = AXIS2_PLACEMENT_3D('',#1228,#1229,#1230);
#1228 = CARTESIAN_POINT('',(-11.899499,-4.50693,2.475382451614));
#1229 = DIRECTION('',(0.,0.,1.));
#1230 = DIRECTION('',(0.,1.,0.));
#1231 = ADVANCED_FACE('',(#1232),#1243,.T.);
#1232 = FACE_BOUND('',#1233,.T.);
#1233 = EDGE_LOOP('',(#1234,#1235,#1241,#1242));
#1234 = ORIENTED_EDGE('',*,*,#1220,.T.);
#1235 = ORIENTED_EDGE('',*,*,#1236,.T.);
#1236 = EDGE_CURVE('',#1213,#1109,#1237,.T.);
#1237 = LINE('',#1238,#1239);
#1238 = CARTESIAN_POINT('',(-3.899499,3.301463881853,2.475382451614));
#1239 = VECTOR('',#1240,1.);
#1240 = DIRECTION('',(0.,0.887709247427,0.460404487417));
#1241 = ORIENTED_EDGE('',*,*,#1108,.F.);
#1242 = ORIENTED_EDGE('',*,*,#1016,.F.);
#1243 = PLANE('',#1244);
#1244 = AXIS2_PLACEMENT_3D('',#1245,#1246,#1247);
#1245 = CARTESIAN_POINT('',(-11.899499,3.301463881853,2.475382451614));
#1246 = DIRECTION('',(0.,-0.460404487417,0.887709247427));
#1247 = DIRECTION('',(0.,0.887709247427,0.460404487417));
#1248 = ADVANCED_FACE('',(#1249),#1257,.F.);
#1249 = FACE_BOUND('',#1250,.F.);
#1250 = EDGE_LOOP('',(#1251,#1252,#1253,#1254,#1255,#1256));
#1251 = ORIENTED_EDGE('',*,*,#1116,.T.);
#1252 = ORIENTED_EDGE('',*,*,#1140,.T.);
#1253 = ORIENTED_EDGE('',*,*,#1164,.T.);
#1254 = ORIENTED_EDGE('',*,*,#1188,.T.);
#1255 = ORIENTED_EDGE('',*,*,#1212,.T.);
#1256 = ORIENTED_EDGE('',*,*,#1236,.T.);
#1257 = PLANE('',#1258);
#1258 = AXIS2_PLACEMENT_3D('',#1259,#1260,#1261);
#1259 = CARTESIAN_POINT('',(-3.899499,-0.195809710437,4.502322207673));
#1260 = DIRECTION('',(1.,0.,0.));
#1261 = DIRECTION('',(0.,0.,1.));
#1262 = ( GEOMETRIC_REPRESENTATION_CONTEXT(3) 
GLOBAL_UNCERTAINTY_ASSIGNED_CONTEXT((#1266)) 
GLOBAL_UNIT_ASSIGNED_CONTEXT((#1263,#1264,#1265)) REPRESENTATION_CONTEXT
('Context #1','3D Context with UNIT and UNCERTAINTY') );
#1263 = ( LENGTH_UNIT() NAMED_UNIT(*) SI_UNIT(.MILLI.,.METRE.) );
#1264 = ( NAMED_UNIT(*) PLANE_ANGLE_UNIT() SI_UNIT($,.RADIAN.) );
#1265 = ( NAMED_UNIT(*) SI_UNIT($,.STERADIAN.) SOLID_ANGLE_UNIT() );
#1266 = UNCERTAINTY_MEASURE_WITH_UNIT(LENGTH_MEASURE(1.E-07),#1263,
  'distance_accuracy_value','confusion accuracy');
#1267 = CONTEXT_DEPENDENT_SHAPE_REPRESENTATION(#1268,#1270);
#1268 = ( REPRESENTATION_RELATIONSHIP('','',#833,#10) 
REPRESENTATION_RELATIONSHIP_WITH_TRANSFORMATION(#1269) 
SHAPE_REPRESENTATION_RELATIONSHIP() );
#1269 = ITEM_DEFINED_TRANSFORMATION('','',#11,#27);
#1270 = PRODUCT_DEFINITION_SHAPE('Placement','Placement of an item',
  #1271);
#1271 = NEXT_ASSEMBLY_USAGE_OCCURRENCE('24','Pocket','',#5,#828,$);
#1272 = PRODUCT_RELATED_PRODUCT_CATEGORY('part',$,(#830));
#1273 = SHAPE_DEFINITION_REPRESENTATION(#1274,#1280);
#1274 = PRODUCT_DEFINITION_SHAPE('','',#1275);
#1275 = PRODUCT_DEFINITION('design','',#1276,#1279);
#1276 = PRODUCT_DEFINITION_FORMATION('','',#1277);
#1277 = PRODUCT('Clone','Clone','',(#1278));
#1278 = PRODUCT_CONTEXT('',#2,'mechanical');
#1279 = PRODUCT_DEFINITION_CONTEXT('part definition',#2,'design');
#1280 = ADVANCED_BREP_SHAPE_REPRESENTATION('',(#11,#1281),#1385);
#1281 = MANIFOLD_SOLID_BREP('',#1282);
#1282 = CLOSED_SHELL('',(#1283,#1316,#1342,#1367,#1376));
#1283 = ADVANCED_FACE('',(#1284),#1311,.T.);
#1284 = FACE_BOUND('',#1285,.T.);
#1285 = EDGE_LOOP('',(#1286,#1296,#1303,#1304));
#1286 = ORIENTED_EDGE('',*,*,#1287,.T.);
#1287 = EDGE_CURVE('',#1288,#1290,#1292,.T.);
#1288 = VERTEX_POINT('',#1289);
#1289 = CARTESIAN_POINT('',(1.,-2.449293598295E-16,5.438524293788E-32));
#1290 = VERTEX_POINT('',#1291);
#1291 = CARTESIAN_POINT('',(1.,6.814871559359E-16,3.069145301531));
#1292 = LINE('',#1293,#1294);
#1293 = CARTESIAN_POINT('',(1.,0.,0.));
#1294 = VECTOR('',#1295,1.);
#1295 = DIRECTION('',(0.,2.22044604925E-16,1.));
#1296 = ORIENTED_EDGE('',*,*,#1297,.F.);
#1297 = EDGE_CURVE('',#1290,#1290,#1298,.T.);
#1298 = CIRCLE('',#1299,1.);
#1299 = AXIS2_PLACEMENT_3D('',#1300,#1301,#1302);
#1300 = CARTESIAN_POINT('',(0.,6.814871559359E-16,3.069145301531));
#1301 = DIRECTION('',(0.,2.22044604925E-16,1.));
#1302 = DIRECTION('',(1.,0.,-0.));
#1303 = ORIENTED_EDGE('',*,*,#1287,.F.);
#1304 = ORIENTED_EDGE('',*,*,#1305,.T.);
#1305 = EDGE_CURVE('',#1288,#1288,#1306,.T.);
#1306 = CIRCLE('',#1307,1.);
#1307 = AXIS2_PLACEMENT_3D('',#1308,#1309,#1310);
#1308 = CARTESIAN_POINT('',(0.,0.,0.));
#1309 = DIRECTION('',(0.,2.22044604925E-16,1.));
#1310 = DIRECTION('',(1.,0.,-0.));
#1311 = CYLINDRICAL_SURFACE('',#1312,1.);
#1312 = AXIS2_PLACEMENT_3D('',#1313,#1314,#1315);
#1313 = CARTESIAN_POINT('',(0.,0.,0.));
#1314 = DIRECTION('',(0.,2.22044604925E-16,1.));
#1315 = DIRECTION('',(1.,0.,-0.));
#1316 = ADVANCED_FACE('',(#1317),#1337,.T.);
#1317 = FACE_BOUND('',#1318,.T.);
#1318 = EDGE_LOOP('',(#1319,#1328,#1335,#1336));
#1319 = ORIENTED_EDGE('',*,*,#1320,.T.);
#1320 = EDGE_CURVE('',#1290,#1321,#1323,.T.);
#1321 = VERTEX_POINT('',#1322);
#1322 = CARTESIAN_POINT('',(-1.43085483927,1.221245327088E-15,5.5));
#1323 = CIRCLE('',#1324,2.430855166065);
#1324 = AXIS2_PLACEMENT_3D('',#1325,#1326,#1327);
#1325 = CARTESIAN_POINT('',(-1.430855166065,3.267948980923E-07,
    3.069144833935));
#1326 = DIRECTION('',(0.,-1.,2.22044604925E-16));
#1327 = DIRECTION('',(1.,0.,0.));
#1328 = ORIENTED_EDGE('',*,*,#1329,.T.);
#1329 = EDGE_CURVE('',#1321,#1321,#1330,.T.);
#1330 = CIRCLE('',#1331,1.);
#1331 = AXIS2_PLACEMENT_3D('',#1332,#1333,#1334);
#1332 = CARTESIAN_POINT('',(-1.430855166065,9.992007221626E-16,4.5));
#1333 = DIRECTION('',(1.,3.570749584184E-32,1.608122649677E-16));
#1334 = DIRECTION('',(-1.608122649677E-16,2.22044604925E-16,1.));
#1335 = ORIENTED_EDGE('',*,*,#1320,.F.);
#1336 = ORIENTED_EDGE('',*,*,#1297,.T.);
#1337 = TOROIDAL_SURFACE('',#1338,1.430855166065,1.);
#1338 = AXIS2_PLACEMENT_3D('',#1339,#1340,#1341);
#1339 = CARTESIAN_POINT('',(-1.430855166065,6.814870521087E-16,
    3.069144833935));
#1340 = DIRECTION('',(0.,-1.,2.22044604925E-16));
#1341 = DIRECTION('',(1.,0.,0.));
#1342 = ADVANCED_FACE('',(#1343),#1362,.T.);
#1343 = FACE_BOUND('',#1344,.T.);
#1344 = EDGE_LOOP('',(#1345,#1353,#1360,#1361));
#1345 = ORIENTED_EDGE('',*,*,#1346,.T.);
#1346 = EDGE_CURVE('',#1321,#1347,#1349,.T.);
#1347 = VERTEX_POINT('',#1348);
#1348 = CARTESIAN_POINT('',(-2.899499,9.763159672582E-16,5.5));
#1349 = LINE('',#1350,#1351);
#1350 = CARTESIAN_POINT('',(-1.430855166065,1.221245327088E-15,5.5));
#1351 = VECTOR('',#1352,1.);
#1352 = DIRECTION('',(-1.,0.,0.));
#1353 = ORIENTED_EDGE('',*,*,#1354,.F.);
#1354 = EDGE_CURVE('',#1347,#1347,#1355,.T.);
#1355 = CIRCLE('',#1356,1.);
#1356 = AXIS2_PLACEMENT_3D('',#1357,#1358,#1359);
#1357 = CARTESIAN_POINT('',(-2.899499,9.992007221626E-16,4.5));
#1358 = DIRECTION('',(-1.,0.,0.));
#1359 = DIRECTION('',(0.,2.22044604925E-16,1.));
#1360 = ORIENTED_EDGE('',*,*,#1346,.F.);
#1361 = ORIENTED_EDGE('',*,*,#1329,.F.);
#1362 = CYLINDRICAL_SURFACE('',#1363,1.);
#1363 = AXIS2_PLACEMENT_3D('',#1364,#1365,#1366);
#1364 = CARTESIAN_POINT('',(-1.430855166065,9.992007221626E-16,4.5));
#1365 = DIRECTION('',(-1.,0.,0.));
#1366 = DIRECTION('',(0.,2.22044604925E-16,1.));
#1367 = ADVANCED_FACE('',(#1368),#1371,.F.);
#1368 = FACE_BOUND('',#1369,.F.);
#1369 = EDGE_LOOP('',(#1370));
#1370 = ORIENTED_EDGE('',*,*,#1305,.T.);
#1371 = PLANE('',#1372);
#1372 = AXIS2_PLACEMENT_3D('',#1373,#1374,#1375);
#1373 = CARTESIAN_POINT('',(-6.409875621279E-17,8.737595245399E-17,
    -1.94013588426E-32));
#1374 = DIRECTION('',(0.,0.,1.));
#1375 = DIRECTION('',(1.,0.,-0.));
#1376 = ADVANCED_FACE('',(#1377),#1380,.T.);
#1377 = FACE_BOUND('',#1378,.T.);
#1378 = EDGE_LOOP('',(#1379));
#1379 = ORIENTED_EDGE('',*,*,#1354,.T.);
#1380 = PLANE('',#1381);
#1381 = AXIS2_PLACEMENT_3D('',#1382,#1383,#1384);
#1382 = CARTESIAN_POINT('',(-2.899499,1.060101914855E-15,4.5));
#1383 = DIRECTION('',(-1.,-0.,-0.));
#1384 = DIRECTION('',(0.,0.,-1.));
#1385 = ( GEOMETRIC_REPRESENTATION_CONTEXT(3) 
GLOBAL_UNCERTAINTY_ASSIGNED_CONTEXT((#1389)) 
GLOBAL_UNIT_ASSIGNED_CONTEXT((#1386,#1387,#1388)) REPRESENTATION_CONTEXT
('Context #1','3D Context with UNIT and UNCERTAINTY') );
#1386 = ( LENGTH_UNIT() NAMED_UNIT(*) SI_UNIT(.MILLI.,.METRE.) );
#1387 = ( NAMED_UNIT(*) PLANE_ANGLE_UNIT() SI_UNIT($,.RADIAN.) );
#1388 = ( NAMED_UNIT(*) SI_UNIT($,.STERADIAN.) SOLID_ANGLE_UNIT() );
#1389 = UNCERTAINTY_MEASURE_WITH_UNIT(LENGTH_MEASURE(5.E-07),#1386,
  'distance_accuracy_value','confusion accuracy');
#1390 = CONTEXT_DEPENDENT_SHAPE_REPRESENTATION(#1391,#1393);
#1391 = ( REPRESENTATION_RELATIONSHIP('','',#1280,#10) 
REPRESENTATION_RELATIONSHIP_WITH_TRANSFORMATION(#1392) 
SHAPE_REPRESENTATION_RELATIONSHIP() );
#1392 = ITEM_DEFINED_TRANSFORMATION('','',#11,#31);
#1393 = PRODUCT_DEFINITION_SHAPE('Placement','Placement of an item',
  #1394);
#1394 = NEXT_ASSEMBLY_USAGE_OCCURRENCE('25','Clone','',#5,#1275,$);
#1395 = PRODUCT_RELATED_PRODUCT_CATEGORY('part',$,(#1277));
#1396 = CONTEXT_DEPENDENT_SHAPE_REPRESENTATION(#1397,#1399);
#1397 = ( REPRESENTATION_RELATIONSHIP('','',#1280,#10) 
REPRESENTATION_RELATIONSHIP_WITH_TRANSFORMATION(#1398) 
SHAPE_REPRESENTATION_RELATIONSHIP() );
#1398 = ITEM_DEFINED_TRANSFORMATION('','',#11,#35);
#1399 = PRODUCT_DEFINITION_SHAPE('Placement','Placement of an item',
  #1400);
#1400 = NEXT_ASSEMBLY_USAGE_OCCURRENCE('26','Sweep','',#5,#1275,$);
#1401 = SHAPE_DEFINITION_REPRESENTATION(#1399,#1402);
#1402 = SHAPE_REPRESENTATION('',(#35),#1385);
#1403 = SHAPE_DEFINITION_REPRESENTATION(#1399,#1404);
#1404 = SHAPE_REPRESENTATION('',(#35),#1385);
#1405 = MECHANICAL_DESIGN_GEOMETRIC_PRESENTATION_REPRESENTATION('',(
    #1406,#1417),#690);
#1406 = STYLED_ITEM('color',(#1407),#512);
#1407 = PRESENTATION_STYLE_ASSIGNMENT((#1408,#1414));
#1408 = SURFACE_STYLE_USAGE(.BOTH.,#1409);
#1409 = SURFACE_SIDE_STYLE('',(#1410));
#1410 = SURFACE_STYLE_FILL_AREA(#1411);
#1411 = FILL_AREA_STYLE('',(#1412));
#1412 = FILL_AREA_STYLE_COLOUR('',#1413);
#1413 = COLOUR_RGB('',0.678431390124,0.709803936702,0.741176476869);
#1414 = CURVE_STYLE('',#1415,POSITIVE_LENGTH_MEASURE(0.1),#1416);
#1415 = DRAUGHTING_PRE_DEFINED_CURVE_FONT('continuous');
#1416 = COLOUR_RGB('',9.803921802644E-02,9.803921802644E-02,
  9.803921802644E-02);
#1417 = STYLED_ITEM('color',(#1418),#601);
#1418 = PRESENTATION_STYLE_ASSIGNMENT((#1419,#1424));
#1419 = SURFACE_STYLE_USAGE(.BOTH.,#1420);
#1420 = SURFACE_SIDE_STYLE('',(#1421));
#1421 = SURFACE_STYLE_FILL_AREA(#1422);
#1422 = FILL_AREA_STYLE('',(#1423));
#1423 = FILL_AREA_STYLE_COLOUR('',#1413);
#1424 = CURVE_STYLE('',#1425,POSITIVE_LENGTH_MEASURE(0.1),#1416);
#1425 = DRAUGHTING_PRE_DEFINED_CURVE_FONT('continuous');
#1426 = MECHANICAL_DESIGN_GEOMETRIC_PRESENTATION_REPRESENTATION('',(
    #1427,#1436),#493);
#1427 = STYLED_ITEM('color',(#1428),#53);
#1428 = PRESENTATION_STYLE_ASSIGNMENT((#1429,#1434));
#1429 = SURFACE_STYLE_USAGE(.BOTH.,#1430);
#1430 = SURFACE_SIDE_STYLE('',(#1431));
#1431 = SURFACE_STYLE_FILL_AREA(#1432);
#1432 = FILL_AREA_STYLE('',(#1433));
#1433 = FILL_AREA_STYLE_COLOUR('',#1413);
#1434 = CURVE_STYLE('',#1435,POSITIVE_LENGTH_MEASURE(0.1),#1416);
#1435 = DRAUGHTING_PRE_DEFINED_CURVE_FONT('continuous');
#1436 = STYLED_ITEM('color',(#1437),#273);
#1437 = PRESENTATION_STYLE_ASSIGNMENT((#1438,#1443));
#1438 = SURFACE_STYLE_USAGE(.BOTH.,#1439);
#1439 = SURFACE_SIDE_STYLE('',(#1440));
#1440 = SURFACE_STYLE_FILL_AREA(#1441);
#1441 = FILL_AREA_STYLE('',(#1442));
#1442 = FILL_AREA_STYLE_COLOUR('',#1413);
#1443 = CURVE_STYLE('',#1444,POSITIVE_LENGTH_MEASURE(0.1),#1416);
#1444 = DRAUGHTING_PRE_DEFINED_CURVE_FONT('continuous');
#1445 = MECHANICAL_DESIGN_GEOMETRIC_PRESENTATION_REPRESENTATION('',(
    #1446),#1262);
#1446 = STYLED_ITEM('color',(#1447),#834);
#1447 = PRESENTATION_STYLE_ASSIGNMENT((#1448,#1453));
#1448 = SURFACE_STYLE_USAGE(.BOTH.,#1449);
#1449 = SURFACE_SIDE_STYLE('',(#1450));
#1450 = SURFACE_STYLE_FILL_AREA(#1451);
#1451 = FILL_AREA_STYLE('',(#1452));
#1452 = FILL_AREA_STYLE_COLOUR('',#1413);
#1453 = CURVE_STYLE('',#1454,POSITIVE_LENGTH_MEASURE(0.1),#1416);
#1454 = DRAUGHTING_PRE_DEFINED_CURVE_FONT('continuous');
#1455 = MECHANICAL_DESIGN_GEOMETRIC_PRESENTATION_REPRESENTATION('',(
    #1456,#1465,#1474),#1385);
#1456 = STYLED_ITEM('color',(#1457),#1281);
#1457 = PRESENTATION_STYLE_ASSIGNMENT((#1458,#1463));
#1458 = SURFACE_STYLE_USAGE(.BOTH.,#1459);
#1459 = SURFACE_SIDE_STYLE('',(#1460));
#1460 = SURFACE_STYLE_FILL_AREA(#1461);
#1461 = FILL_AREA_STYLE('',(#1462));
#1462 = FILL_AREA_STYLE_COLOUR('',#1413);
#1463 = CURVE_STYLE('',#1464,POSITIVE_LENGTH_MEASURE(0.1),#1416);
#1464 = DRAUGHTING_PRE_DEFINED_CURVE_FONT('continuous');
#1465 = OVER_RIDING_STYLED_ITEM('overriding color',(#1466),#1281,#1456);
#1466 = PRESENTATION_STYLE_BY_CONTEXT((#1467,#1472),#1402);
#1467 = SURFACE_STYLE_USAGE(.BOTH.,#1468);
#1468 = SURFACE_SIDE_STYLE('',(#1469));
#1469 = SURFACE_STYLE_FILL_AREA(#1470);
#1470 = FILL_AREA_STYLE('',(#1471));
#1471 = FILL_AREA_STYLE_COLOUR('',#1413);
#1472 = CURVE_STYLE('',#1473,POSITIVE_LENGTH_MEASURE(0.1),#1416);
#1473 = DRAUGHTING_PRE_DEFINED_CURVE_FONT('continuous');
#1474 = OVER_RIDING_STYLED_ITEM('overriding color',(#1475),#1281,#1456);
#1475 = PRESENTATION_STYLE_BY_CONTEXT((#1476,#1482),#1404);
#1476 = SURFACE_STYLE_USAGE(.BOTH.,#1477);
#1477 = SURFACE_SIDE_STYLE('',(#1478));
#1478 = SURFACE_STYLE_FILL_AREA(#1479);
#1479 = FILL_AREA_STYLE('',(#1480));
#1480 = FILL_AREA_STYLE_COLOUR('',#1481);
#1481 = COLOUR_RGB('',0.678431390124,0.709803936702,0.741176476869);
#1482 = CURVE_STYLE('',#1483,POSITIVE_LENGTH_MEASURE(0.1),#1484);
#1483 = DRAUGHTING_PRE_DEFINED_CURVE_FONT('continuous');
#1484 = COLOUR_RGB('',9.803921802644E-02,9.803921802644E-02,
  9.803921802644E-02);
#1485 = MECHANICAL_DESIGN_GEOMETRIC_PRESENTATION_REPRESENTATION('',(
    #1486,#1495),#815);
#1486 = STYLED_ITEM('color',(#1487),#709);
#1487 = PRESENTATION_STYLE_ASSIGNMENT((#1488,#1493));
#1488 = SURFACE_STYLE_USAGE(.BOTH.,#1489);
#1489 = SURFACE_SIDE_STYLE('',(#1490));
#1490 = SURFACE_STYLE_FILL_AREA(#1491);
#1491 = FILL_AREA_STYLE('',(#1492));
#1492 = FILL_AREA_STYLE_COLOUR('',#1413);
#1493 = CURVE_STYLE('',#1494,POSITIVE_LENGTH_MEASURE(0.1),#1416);
#1494 = DRAUGHTING_PRE_DEFINED_CURVE_FONT('continuous');
#1495 = STYLED_ITEM('color',(#1496),#762);
#1496 = PRESENTATION_STYLE_ASSIGNMENT((#1497,#1502));
#1497 = SURFACE_STYLE_USAGE(.BOTH.,#1498);
#1498 = SURFACE_SIDE_STYLE('',(#1499));
#1499 = SURFACE_STYLE_FILL_AREA(#1500);
#1500 = FILL_AREA_STYLE('',(#1501));
#1501 = FILL_AREA_STYLE_COLOUR('',#1413);
#1502 = CURVE_STYLE('',#1503,POSITIVE_LENGTH_MEASURE(0.1),#1416);
#1503 = DRAUGHTING_PRE_DEFINED_CURVE_FONT('continuous');
ENDSEC;
END-ISO-10303-21;
